<svg width="46" height="46" viewBox="0 0 46 46" fill="none" xmlns="http://www.w3.org/2000/svg">
<path fill-rule="evenodd" clip-rule="evenodd" d="M29.9591 34.6438L32.6103 37.2951C32.7861 37.4708 33.0245 37.5696 33.2731 37.5696C33.5217 37.5696 33.7601 37.4708 33.9359 37.2951L39.2384 31.9926C39.4092 31.8158 39.5037 31.579 39.5016 31.3331C39.4994 31.0873 39.4008 30.8522 39.227 30.6784C39.0532 30.5046 38.8181 30.406 38.5723 30.4038C38.3264 30.4017 38.0896 30.4962 37.9128 30.667L33.2731 35.3066L31.2847 33.3182C31.1079 33.1474 30.8711 33.0529 30.6253 33.0551C30.3794 33.0572 30.1443 33.1558 29.9705 33.3296C29.7967 33.5034 29.6981 33.7386 29.6959 33.9844C29.6938 34.2302 29.7883 34.467 29.9591 34.6438ZM13.0625 18.2207C13.0625 17.6741 12.845 17.1491 12.4588 16.762C12.0715 16.3756 11.547 16.1585 11 16.1582H9.5C8.95344 16.1582 8.42844 16.3757 8.04125 16.762C7.65493 17.1492 7.43783 17.6737 7.4375 18.2207V19.7207C7.4375 20.2673 7.655 20.7923 8.04125 21.1795C8.42844 21.5657 8.95344 21.7832 9.5 21.7832H11C11.5466 21.7832 12.0716 21.5657 12.4588 21.1795C12.845 20.7923 13.0625 20.2673 13.0625 19.7207V18.2207ZM11.1875 18.2207V19.7207C11.1876 19.7453 11.1827 19.7697 11.1732 19.7924C11.1637 19.8151 11.1497 19.8357 11.1322 19.8529C11.115 19.8705 11.0944 19.8844 11.0717 19.8939C11.049 19.9034 11.0246 19.9083 11 19.9082H9.5C9.47539 19.9083 9.45102 19.9034 9.42832 19.8939C9.40562 19.8844 9.38505 19.8705 9.36781 19.8529C9.35025 19.8357 9.33631 19.8151 9.32681 19.7924C9.31732 19.7697 9.31245 19.7453 9.3125 19.7207V18.2207C9.3125 18.171 9.33219 18.1232 9.36781 18.0885C9.38505 18.071 9.40562 18.057 9.42832 18.0475C9.45102 18.038 9.47539 18.0332 9.5 18.0332H11C11.0497 18.0332 11.0975 18.0529 11.1322 18.0885C11.1497 18.1058 11.1637 18.1263 11.1732 18.149C11.1827 18.1717 11.1876 18.1961 11.1875 18.2207ZM13.0625 25.7207C13.0625 25.1741 12.845 24.6491 12.4588 24.262C12.0715 23.8756 11.547 23.6585 11 23.6582H9.5C8.95344 23.6582 8.42844 23.8757 8.04125 24.262C7.65493 24.6492 7.43783 25.1737 7.4375 25.7207V27.2207C7.4375 27.7673 7.655 28.2923 8.04125 28.6795C8.42844 29.0657 8.95344 29.2832 9.5 29.2832H11C11.5466 29.2832 12.0716 29.0657 12.4588 28.6795C12.845 28.2923 13.0625 27.7673 13.0625 27.2207V25.7207ZM11.1875 25.7207V27.2207C11.1876 27.2453 11.1827 27.2697 11.1732 27.2924C11.1637 27.3151 11.1497 27.3357 11.1322 27.3529C11.115 27.3705 11.0944 27.3844 11.0717 27.3939C11.049 27.4034 11.0246 27.4083 11 27.4082H9.5C9.47539 27.4083 9.45102 27.4034 9.42832 27.3939C9.40562 27.3844 9.38505 27.3705 9.36781 27.3529C9.35025 27.3357 9.33631 27.3151 9.32681 27.2924C9.31732 27.2697 9.31245 27.2453 9.3125 27.2207V25.7207C9.3125 25.671 9.33219 25.6232 9.36781 25.5885C9.38505 25.571 9.40562 25.557 9.42832 25.5475C9.45102 25.538 9.47539 25.5332 9.5 25.5332H11C11.0497 25.5332 11.0975 25.5529 11.1322 25.5885C11.1497 25.6058 11.1637 25.6263 11.1732 25.649C11.1827 25.6717 11.1876 25.6961 11.1875 25.7207ZM13.0625 33.2207C13.0625 32.6741 12.845 32.1491 12.4588 31.762C12.0715 31.3756 11.547 31.1585 11 31.1582H9.5C8.95344 31.1582 8.42844 31.3757 8.04125 31.762C7.65493 32.1492 7.43783 32.6737 7.4375 33.2207V34.7207C7.4375 35.2673 7.655 35.7923 8.04125 36.1795C8.42844 36.5657 8.95344 36.7832 9.5 36.7832H11C11.5466 36.7832 12.0716 36.5657 12.4588 36.1795C12.845 35.7923 13.0625 35.2673 13.0625 34.7207V33.2207ZM11.1875 33.2207V34.7207C11.1876 34.7453 11.1827 34.7697 11.1732 34.7924C11.1637 34.8151 11.1497 34.8357 11.1322 34.8529C11.115 34.8705 11.0944 34.8844 11.0717 34.8939C11.049 34.9034 11.0246 34.9083 11 34.9082H9.5C9.47539 34.9083 9.45102 34.9034 9.42832 34.8939C9.40562 34.8844 9.38505 34.8705 9.36781 34.8529C9.35025 34.8357 9.33631 34.8151 9.32681 34.7924C9.31732 34.7697 9.31245 34.7453 9.3125 34.7207V33.2207C9.3125 33.171 9.33219 33.1232 9.36781 33.0885C9.38505 33.071 9.40562 33.057 9.42832 33.0475C9.45102 33.038 9.47539 33.0332 9.5 33.0332H11C11.0497 33.0332 11.0975 33.0529 11.1322 33.0885C11.1497 33.1058 11.1637 33.1263 11.1732 33.149C11.1827 33.1717 11.1876 33.1961 11.1875 33.2207ZM20.5625 18.2207C20.5625 17.6741 20.345 17.1491 19.9588 16.762C19.5715 16.3756 19.047 16.1585 18.5 16.1582H17C16.4534 16.1582 15.9284 16.3757 15.5413 16.762C15.1549 17.1492 14.9378 17.6737 14.9375 18.2207V19.7207C14.9375 20.2673 15.155 20.7923 15.5413 21.1795C15.9284 21.5657 16.4534 21.7832 17 21.7832H18.5C19.0466 21.7832 19.5716 21.5657 19.9588 21.1795C20.345 20.7923 20.5625 20.2673 20.5625 19.7207V18.2207ZM18.6875 18.2207V19.7207C18.6876 19.7453 18.6827 19.7697 18.6732 19.7924C18.6637 19.8151 18.6497 19.8357 18.6322 19.8529C18.615 19.8705 18.5944 19.8844 18.5717 19.8939C18.549 19.9034 18.5246 19.9083 18.5 19.9082H17C16.9754 19.9083 16.951 19.9034 16.9283 19.8939C16.9056 19.8844 16.8851 19.8705 16.8678 19.8529C16.8503 19.8357 16.8363 19.8151 16.8268 19.7924C16.8173 19.7697 16.8124 19.7453 16.8125 19.7207V18.2207C16.8125 18.171 16.8322 18.1232 16.8678 18.0885C16.8851 18.071 16.9056 18.057 16.9283 18.0475C16.951 18.038 16.9754 18.0332 17 18.0332H18.5C18.5497 18.0332 18.5975 18.0529 18.6322 18.0885C18.6497 18.1058 18.6637 18.1263 18.6732 18.149C18.6827 18.1717 18.6876 18.1961 18.6875 18.2207ZM20.5625 25.7207C20.5625 25.1741 20.345 24.6491 19.9588 24.262C19.5715 23.8756 19.047 23.6585 18.5 23.6582H17C16.4534 23.6582 15.9284 23.8757 15.5413 24.262C15.1549 24.6492 14.9378 25.1737 14.9375 25.7207V27.2207C14.9375 27.7673 15.155 28.2923 15.5413 28.6795C15.9284 29.0657 16.4534 29.2832 17 29.2832H18.5C19.0466 29.2832 19.5716 29.0657 19.9588 28.6795C20.345 28.2923 20.5625 27.7673 20.5625 27.2207V25.7207ZM18.6875 25.7207V27.2207C18.6876 27.2453 18.6827 27.2697 18.6732 27.2924C18.6637 27.3151 18.6497 27.3357 18.6322 27.3529C18.615 27.3705 18.5944 27.3844 18.5717 27.3939C18.549 27.4034 18.5246 27.4083 18.5 27.4082H17C16.9754 27.4083 16.951 27.4034 16.9283 27.3939C16.9056 27.3844 16.8851 27.3705 16.8678 27.3529C16.8503 27.3357 16.8363 27.3151 16.8268 27.2924C16.8173 27.2697 16.8124 27.2453 16.8125 27.2207V25.7207C16.8125 25.671 16.8322 25.6232 16.8678 25.5885C16.8851 25.571 16.9056 25.557 16.9283 25.5475C16.951 25.538 16.9754 25.5332 17 25.5332H18.5C18.5497 25.5332 18.5975 25.5529 18.6322 25.5885C18.6497 25.6058 18.6637 25.6263 18.6732 25.649C18.6827 25.6717 18.6876 25.6961 18.6875 25.7207ZM20.5625 33.2207C20.5625 32.6741 20.345 32.1491 19.9588 31.762C19.5715 31.3756 19.047 31.1585 18.5 31.1582H17C16.4534 31.1582 15.9284 31.3757 15.5413 31.762C15.1549 32.1492 14.9378 32.6737 14.9375 33.2207V34.7207C14.9375 35.2673 15.155 35.7923 15.5413 36.1795C15.9284 36.5657 16.4534 36.7832 17 36.7832H18.5C19.0466 36.7832 19.5716 36.5657 19.9588 36.1795C20.345 35.7923 20.5625 35.2673 20.5625 34.7207V33.2207ZM18.6875 33.2207V34.7207C18.6876 34.7453 18.6827 34.7697 18.6732 34.7924C18.6637 34.8151 18.6497 34.8357 18.6322 34.8529C18.615 34.8705 18.5944 34.8844 18.5717 34.8939C18.549 34.9034 18.5246 34.9083 18.5 34.9082H17C16.9754 34.9083 16.951 34.9034 16.9283 34.8939C16.9056 34.8844 16.8851 34.8705 16.8678 34.8529C16.8503 34.8357 16.8363 34.8151 16.8268 34.7924C16.8173 34.7697 16.8124 34.7453 16.8125 34.7207V33.2207C16.8125 33.171 16.8322 33.1232 16.8678 33.0885C16.8851 33.071 16.9056 33.057 16.9283 33.0475C16.951 33.038 16.9754 33.0332 17 33.0332H18.5C18.5497 33.0332 18.5975 33.0529 18.6322 33.0885C18.6497 33.1058 18.6637 33.1263 18.6732 33.149C18.6827 33.1717 18.6876 33.1961 18.6875 33.2207ZM28.0625 18.2207C28.0625 17.6741 27.845 17.1491 27.4588 16.762C27.0715 16.3756 26.547 16.1585 26 16.1582H24.5C23.9534 16.1582 23.4284 16.3757 23.0413 16.762C22.6549 17.1492 22.4378 17.6737 22.4375 18.2207V19.7207C22.4375 20.2673 22.655 20.7923 23.0413 21.1795C23.4284 21.5657 23.9534 21.7832 24.5 21.7832H26C26.5466 21.7832 27.0716 21.5657 27.4588 21.1795C27.845 20.7923 28.0625 20.2673 28.0625 19.7207V18.2207ZM26.1875 18.2207V19.7207C26.1876 19.7453 26.1827 19.7697 26.1732 19.7924C26.1637 19.8151 26.1498 19.8357 26.1322 19.8529C26.115 19.8705 26.0944 19.8844 26.0717 19.8939C26.049 19.9034 26.0246 19.9083 26 19.9082H24.5C24.4754 19.9083 24.451 19.9034 24.4283 19.8939C24.4056 19.8844 24.3851 19.8705 24.3678 19.8529C24.3503 19.8357 24.3363 19.8151 24.3268 19.7924C24.3173 19.7697 24.3125 19.7453 24.3125 19.7207V18.2207C24.3125 18.171 24.3322 18.1232 24.3678 18.0885C24.3851 18.071 24.4056 18.057 24.4283 18.0475C24.451 18.038 24.4754 18.0332 24.5 18.0332H26C26.0497 18.0332 26.0975 18.0529 26.1322 18.0885C26.1498 18.1058 26.1637 18.1263 26.1732 18.149C26.1827 18.1717 26.1876 18.1961 26.1875 18.2207ZM35.5625 18.2207C35.5625 17.6741 35.345 17.1491 34.9588 16.762C34.5715 16.3756 34.047 16.1585 33.5 16.1582H32C31.4534 16.1582 30.9284 16.3757 30.5413 16.762C30.1549 17.1492 29.9378 17.6737 29.9375 18.2207V19.7207C29.9375 20.2673 30.155 20.7923 30.5413 21.1795C30.9284 21.5657 31.4534 21.7832 32 21.7832H33.5C34.0466 21.7832 34.5716 21.5657 34.9588 21.1795C35.345 20.7923 35.5625 20.2673 35.5625 19.7207V18.2207ZM33.6875 18.2207V19.7207C33.6876 19.7453 33.6827 19.7697 33.6732 19.7924C33.6637 19.8151 33.6498 19.8357 33.6322 19.8529C33.615 19.8705 33.5944 19.8844 33.5717 19.8939C33.549 19.9034 33.5246 19.9083 33.5 19.9082H32C31.9754 19.9083 31.951 19.9034 31.9283 19.8939C31.9056 19.8844 31.8851 19.8705 31.8678 19.8529C31.8503 19.8357 31.8363 19.8151 31.8268 19.7924C31.8173 19.7697 31.8125 19.7453 31.8125 19.7207V18.2207C31.8125 18.171 31.8322 18.1232 31.8678 18.0885C31.8851 18.071 31.9056 18.057 31.9283 18.0475C31.951 18.038 31.9754 18.0332 32 18.0332H33.5C33.5497 18.0332 33.5975 18.0529 33.6322 18.0885C33.6498 18.1058 33.6637 18.1263 33.6732 18.149C33.6827 18.1717 33.6876 18.1961 33.6875 18.2207Z" fill="#032DA6"/>
<path fill-rule="evenodd" clip-rule="evenodd" d="M26.6722 40.5332H6.5C5.25679 40.533 4.06449 40.0394 3.185 39.1607C2.30633 38.2812 1.81268 37.0889 1.8125 35.8457V9.5957C1.8125 8.3525 2.30636 7.16022 3.18544 6.28114C4.06451 5.40206 5.2568 4.9082 6.5 4.9082H9.3125V3.9707C9.3125 3.22478 9.60882 2.50941 10.1363 1.98197C10.6637 1.45452 11.3791 1.1582 12.125 1.1582C12.8709 1.1582 13.5863 1.45452 14.1137 1.98197C14.6412 2.50941 14.9375 3.22478 14.9375 3.9707V4.9082H28.0625V3.9707C28.0625 3.22478 28.3588 2.50941 28.8863 1.98197C29.4137 1.45452 30.1291 1.1582 30.875 1.1582C31.6209 1.1582 32.3363 1.45452 32.8637 1.98197C33.3912 2.50941 33.6875 3.22478 33.6875 3.9707V4.9082H36.5C37.7432 4.9082 38.9355 5.40206 39.8146 6.28114C40.6936 7.16022 41.1875 8.3525 41.1875 9.5957V26.0179C43.4778 27.9107 44.9375 30.771 44.9375 33.9707C44.9375 39.6623 40.3166 44.2832 34.625 44.2832C33.1047 44.2843 31.6031 43.9485 30.228 43.3001C28.8529 42.6517 27.6386 41.7068 26.6722 40.5332ZM34.625 25.5332C39.2816 25.5332 43.0625 29.3141 43.0625 33.9707C43.0625 38.6273 39.2816 42.4082 34.625 42.4082C29.9684 42.4082 26.1875 38.6273 26.1875 33.9707C26.1875 29.3141 29.9684 25.5332 34.625 25.5332ZM39.3125 24.7841V14.2832H3.6875V35.8457C3.6875 36.5919 3.98375 37.3073 4.51156 37.8341C4.77254 38.0955 5.08251 38.3028 5.42371 38.4442C5.76491 38.5856 6.13066 38.6583 6.5 38.6582H25.4384C24.7184 37.2519 24.3125 35.6582 24.3125 33.9707C24.3125 28.2791 28.9334 23.6582 34.625 23.6582C36.3125 23.6582 37.9062 24.0641 39.3125 24.7841ZM33.6875 6.7832V7.7207C33.6875 8.46662 33.3912 9.18199 32.8637 9.70944C32.3363 10.2369 31.6209 10.5332 30.875 10.5332C30.1291 10.5332 29.4137 10.2369 28.8863 9.70944C28.3588 9.18199 28.0625 8.46662 28.0625 7.7207V6.7832H14.9375V7.7207C14.9375 8.46662 14.6412 9.18199 14.1137 9.70944C13.5863 10.2369 12.8709 10.5332 12.125 10.5332C11.3791 10.5332 10.6637 10.2369 10.1363 9.70944C9.60882 9.18199 9.3125 8.46662 9.3125 7.7207V6.7832H6.5C5.75408 6.7832 5.03871 7.07952 4.51126 7.60697C3.98382 8.13441 3.6875 8.84978 3.6875 9.5957V12.4082H39.3125V9.5957C39.3125 8.84978 39.0162 8.13441 38.4887 7.60697C37.9613 7.07952 37.2459 6.7832 36.5 6.7832H33.6875ZM31.8125 3.9707V7.7207C31.8125 7.96934 31.7137 8.2078 31.5379 8.38362C31.3621 8.55943 31.1236 8.6582 30.875 8.6582C30.6264 8.6582 30.3879 8.55943 30.2121 8.38362C30.0363 8.2078 29.9375 7.96934 29.9375 7.7207V3.9707C29.9375 3.72206 30.0363 3.48361 30.2121 3.30779C30.3879 3.13198 30.6264 3.0332 30.875 3.0332C31.1236 3.0332 31.3621 3.13198 31.5379 3.30779C31.7137 3.48361 31.8125 3.72206 31.8125 3.9707ZM13.0625 3.9707V7.7207C13.0625 7.96934 12.9637 8.2078 12.7879 8.38362C12.6121 8.55943 12.3736 8.6582 12.125 8.6582C11.8764 8.6582 11.6379 8.55943 11.4621 8.38362C11.2863 8.2078 11.1875 7.96934 11.1875 7.7207V3.9707C11.1875 3.72206 11.2863 3.48361 11.4621 3.30779C11.6379 3.13198 11.8764 3.0332 12.125 3.0332C12.3736 3.0332 12.6121 3.13198 12.7879 3.30779C12.9637 3.48361 13.0625 3.72206 13.0625 3.9707Z" fill="#032DA6"/>
</svg>
