<svg width="46" height="46" viewBox="0 0 46 46" fill="none" xmlns="http://www.w3.org/2000/svg">
<path d="M23.3595 13.4218H30.3178C30.9237 13.4218 31.4165 12.929 31.4165 12.3231V5.33498C31.4165 4.72914 30.9237 4.23633 30.3178 4.23633H23.3595C22.7536 4.23633 22.2608 4.72914 22.2608 5.33498V6.98841C22.2608 7.35254 22.5559 7.6476 22.92 7.6476C23.2842 7.6476 23.5792 7.35254 23.5792 6.98841V5.55471H30.0981V12.1035H23.5792V10.1601C23.5792 9.79595 23.2842 9.50089 22.92 9.50089C22.5559 9.50089 22.2608 9.79595 22.2608 10.1601V12.3232C22.2608 12.929 22.7536 13.4218 23.3595 13.4218ZM11.0825 12.3564H20.0627C20.4269 12.3564 20.7219 12.0614 20.7219 11.6972C20.7219 11.3331 20.4269 11.038 20.0627 11.038H11.0825C10.7184 11.038 10.4233 11.3331 10.4233 11.6972C10.4233 12.0614 10.7185 12.3564 11.0825 12.3564ZM26.11 17.2699C26.11 16.9058 25.8149 16.6108 25.4508 16.6108H16.389C16.0249 16.6108 15.7298 16.9058 15.7298 17.2699C15.7298 17.6341 16.0249 17.9291 16.389 17.9291H25.4508C25.6256 17.9291 25.7933 17.8597 25.9169 17.7361C26.0405 17.6124 26.11 17.4448 26.11 17.2699ZM11.0825 9.48824H20.0627C20.4269 9.48824 20.7219 9.19318 20.7219 8.82905C20.7219 8.46491 20.4269 8.16985 20.0627 8.16985H11.0825C10.7184 8.16985 10.4233 8.46491 10.4233 8.82905C10.4233 9.19318 10.7185 9.48824 11.0825 9.48824ZM11.0825 6.62005H20.0627C20.4269 6.62005 20.7219 6.325 20.7219 5.96086C20.7219 5.59672 20.4269 5.30167 20.0627 5.30167H11.0825C10.7184 5.30167 10.4233 5.59672 10.4233 5.96086C10.4233 6.325 10.7185 6.62005 11.0825 6.62005ZM11.0825 25.2226H24.6052C24.9693 25.2226 25.2644 24.9275 25.2644 24.5634C25.2644 24.1993 24.9693 23.9042 24.6052 23.9042H11.0825C10.7184 23.9042 10.4233 24.1993 10.4233 24.5634C10.4233 24.9275 10.7185 25.2226 11.0825 25.2226ZM11.0825 21.5349H21.7771C22.1412 21.5349 22.4363 21.2399 22.4363 20.8757C22.4363 20.5116 22.1412 20.2165 21.7771 20.2165H11.0825C10.7184 20.2165 10.4233 20.5116 10.4233 20.8757C10.4233 21.2399 10.7185 21.5349 11.0825 21.5349ZM30.7982 20.2165H24.6344C24.2703 20.2165 23.9753 20.5116 23.9753 20.8757C23.9753 21.2399 24.2703 21.5349 24.6344 21.5349H30.7982C31.1623 21.5349 31.4573 21.2399 31.4573 20.8757C31.4573 20.5116 31.1622 20.2165 30.7982 20.2165Z" fill="#032DA6"/>
<path d="M44.8584 40.9961C44.8504 40.9882 44.8422 40.9805 44.8338 40.973L40.7773 37.3636C41.4182 36.1958 41.784 34.8874 41.8326 33.5237C41.8389 33.3489 41.7754 33.1789 41.6563 33.051C41.5372 32.923 41.3721 32.8476 41.1974 32.8414C40.8329 32.8305 40.5281 33.1129 40.5151 33.4766C40.4152 37.3597 37.1263 40.5581 33.2354 40.5193C29.2187 40.5193 25.9509 37.2404 25.9509 33.2103C25.89 29.2607 29.291 25.8455 33.2354 25.9014C36.3081 25.9014 39.066 27.8513 40.0981 30.7533C40.1574 30.917 40.2791 31.0507 40.4366 31.125C40.5941 31.1993 40.7746 31.2083 40.9387 31.1499C41.1028 31.0916 41.2372 30.9707 41.3124 30.8136C41.3876 30.6565 41.3977 30.4761 41.3403 30.3116C40.2393 27.2157 37.474 25.0383 34.2739 24.6468V1.31936C34.2739 0.713514 33.7811 0.220703 33.1753 0.220703H8.66478C8.05894 0.220703 7.56613 0.713514 7.56613 1.31936V3.70361H5.19524C4.5894 3.70361 4.09658 4.19642 4.09658 4.80226V7.18642H1.72561C1.11976 7.18642 0.626953 7.67923 0.626953 8.28507V41.1696C0.626953 41.7754 1.11976 42.2682 1.72561 42.2682H22.7154C23.3212 42.2682 23.814 41.7754 23.814 41.1696V38.7853H26.6757C28.255 40.6513 30.6095 41.8377 33.2355 41.8377C34.6785 41.8377 36.0716 41.481 37.3111 40.8107L41.3985 44.4714C42.3704 45.4343 43.9451 45.4874 44.9203 44.525C45.8962 43.5924 45.8372 41.9185 44.8584 40.9961ZM8.88451 1.53909H32.9555V24.5885C30.1539 24.6799 27.6079 26.1366 26.0864 28.4115H23.4099C23.0458 28.4115 22.7507 28.7066 22.7507 29.0707C22.7507 29.4348 23.0458 29.7299 23.4099 29.7299H25.3617C25.2728 29.9317 25.1918 30.1368 25.1186 30.3449C24.7961 31.2638 24.6326 32.228 24.6326 33.2103C24.6326 33.4712 24.6449 33.7291 24.6676 33.9841H15.4967C16.4015 33.1173 16.9668 31.8969 16.9668 30.5458V29.73H20.5527C20.9169 29.73 21.2119 29.4349 21.2119 29.0708C21.2119 28.7066 20.9169 28.4116 20.5527 28.4116H16.3076C16.221 28.4116 16.1353 28.4286 16.0553 28.4617C15.9754 28.4949 15.9027 28.5434 15.8415 28.6046C15.7803 28.6658 15.7317 28.7385 15.6986 28.8185C15.6655 28.8985 15.6484 28.9842 15.6484 29.0708V30.5458C15.6484 32.4417 14.113 33.9841 12.2257 33.9841H8.88451V1.53909ZM5.41497 37.4669V28.4561C5.41497 28.0919 5.11991 27.7969 4.75578 27.7969C4.39164 27.7969 4.09658 28.0919 4.09658 28.4561V37.6866C4.09658 38.2924 4.5894 38.7852 5.19524 38.7852H22.4957V40.9498H1.94534V8.5048H4.09658V25.6698C4.09658 26.0339 4.39164 26.329 4.75578 26.329C5.11991 26.329 5.41497 26.0339 5.41497 25.6698V5.02199H7.56622V34.6433C7.56622 35.0075 7.86127 35.3025 8.22541 35.3025H24.889C25.0779 36.06 25.3692 36.7882 25.7549 37.4669H5.41497V37.4669ZM43.9923 43.5885C43.5362 44.0433 42.7624 43.9969 42.291 43.5008L38.4573 40.0672C39.054 39.6088 39.5888 39.0753 40.0487 38.4798L43.9436 41.9457C44.3931 42.3784 44.4452 43.1523 43.9923 43.5885Z" fill="#032DA6"/>
<path d="M33.2353 27.5757C30.1935 27.5324 27.5701 30.1652 27.6163 33.21C27.6163 36.3167 30.137 38.8441 33.2353 38.8441C36.3335 38.8441 38.8541 36.3167 38.8541 33.21C38.8541 30.1032 36.3335 27.5757 33.2353 27.5757ZM33.2353 37.5256C30.864 37.5256 28.9347 35.5896 28.9347 33.2099C28.8987 30.8779 30.9067 28.8611 33.2353 28.894C35.6065 28.894 37.5357 30.83 37.5357 33.2099C37.5357 35.5896 35.6066 37.5256 33.2353 37.5256Z" fill="#032DA6"/>
</svg>
