<svg width="46" height="46" viewBox="0 0 46 46" fill="none" xmlns="http://www.w3.org/2000/svg">
<path d="M45.375 25.2568C45.375 23.4415 43.8986 21.9644 42.0834 21.9644C41.2044 21.9644 40.378 22.3071 39.7557 22.9291L36.6653 26.0194V0.220703H8.0583L0.375 7.90409V45.2207H36.6653V35.3301L44.411 27.5844C45.0323 26.9632 45.375 26.1364 45.375 25.2568ZM27.5907 37.8676L29.4792 39.7563L26.8357 40.5277L27.5907 37.8676ZM30.8589 39.0825L30.0714 38.2951L40.4336 27.9321L41.2218 28.7203L30.8589 39.0825ZM29.0444 37.2688L28.2561 36.4805L38.6198 26.1176L39.408 26.9058L29.0444 37.2688ZM7.63306 2.69861V7.47877H2.8529L7.63306 2.69861ZM35.2137 43.7691H1.82661V8.93038H9.08468V1.67232H35.2137V27.4711L26.5831 36.1009L24.7214 42.6562L31.2406 40.7549L35.2137 36.7818V43.7691ZM43.3847 26.5581L42.2489 27.694L39.6461 25.0913L40.782 23.9554C40.9525 23.7839 41.1553 23.648 41.3787 23.5554C41.6021 23.4628 41.8416 23.4155 42.0834 23.416C43.0973 23.416 43.9234 24.2422 43.9234 25.2569C43.924 25.4986 43.8768 25.7381 43.7843 25.9614C43.6918 26.1848 43.5561 26.3876 43.3847 26.5581Z" fill="#032DA6"/>
<path d="M15.0798 30.2163L11.9561 33.653C11.035 32.7289 9.76276 32.1563 8.35896 32.1563C5.55817 32.1563 3.27832 34.4361 3.27832 37.2369C3.27832 40.0377 5.55817 42.3176 8.35896 42.3176C11.1598 42.3176 13.4396 40.0377 13.4396 37.2369C13.4405 36.401 13.2335 35.578 12.8372 34.8419L16.1543 31.193L15.0798 30.2163ZM11.988 37.2369C11.988 39.2379 10.3599 40.866 8.35896 40.866C6.35801 40.866 4.72993 39.2379 4.72993 37.2369C4.72993 35.236 6.35801 33.6079 8.35896 33.6079C9.38743 33.6079 10.3127 34.0427 10.974 34.7327L8.24202 37.7385L6.58446 36.6338L5.77927 37.8415L8.47655 39.6401L11.7644 36.0235C11.9001 36.4045 11.988 36.8088 11.988 37.2369ZM11.9561 20.5884C11.035 19.6644 9.76276 19.0918 8.35896 19.0918C5.55817 19.0918 3.27832 21.3716 3.27832 24.1724C3.27832 26.9732 5.55817 29.2531 8.35896 29.2531C11.1598 29.2531 13.4396 26.9732 13.4396 24.1724C13.4405 23.3365 13.2335 22.5134 12.8372 21.7774L16.1543 18.1284L15.0798 17.1518L11.9561 20.5884ZM11.988 24.1724C11.988 26.1734 10.3599 27.8014 8.35896 27.8014C6.35801 27.8014 4.72993 26.1734 4.72993 24.1724C4.72993 22.1715 6.35801 20.5434 8.35896 20.5434C9.38743 20.5434 10.3127 20.9782 10.974 21.6682L8.24202 24.6739L6.58446 23.5693L5.77927 24.777L8.47655 26.5756L11.7644 22.959C11.9001 23.34 11.988 23.7443 11.988 24.1724ZM32.3106 23.4466H33.7622V24.8982H32.3106V23.4466ZM16.3428 23.4466H30.859V24.8982H16.3428V23.4466ZM16.3428 20.5434H33.7622V21.995H16.3428V20.5434ZM16.3428 26.3498H33.7622V27.8014H16.3428V26.3498ZM16.3428 36.5111H24.3267V37.9627H16.3428V36.5111ZM16.3428 39.4143H24.3267V40.866H16.3428V39.4143ZM16.3428 33.6079H24.3267V35.0595H16.3428V33.6079ZM14.1654 16.1885H30.1332C32.1341 16.1885 33.7622 14.5605 33.7622 12.5595V6.75306C33.7622 4.7521 32.1341 3.12402 30.1332 3.12402H14.1654C12.1645 3.12402 10.5364 4.7521 10.5364 6.75306V12.5595C10.5364 14.5605 12.1645 16.1885 14.1654 16.1885ZM11.988 6.75306C11.988 5.55275 12.9651 4.57564 14.1654 4.57564H30.1332C31.3335 4.57564 32.3106 5.55275 32.3106 6.75306V12.5595C32.3106 13.7598 31.3335 14.7369 30.1332 14.7369H14.1654C12.9651 14.7369 11.988 13.7598 11.988 12.5595V6.75306Z" fill="#032DA6"/>
<path d="M30.8588 7.47852H26.504V11.8334H30.8588V7.47852ZM29.4072 10.3817H27.9556V8.93013H29.4072V10.3817ZM24.3265 7.47852H19.9717V11.8334H24.3265V7.47852ZM22.8749 10.3817H21.4233V8.93013H22.8749V10.3817ZM17.7943 7.47852H13.4395V11.8334H17.7943V7.47852ZM16.3427 10.3817H14.8911V8.93013H16.3427V10.3817Z" fill="#032DA6"/>
</svg>
