<svg width="46" height="46" viewBox="0 0 46 46" fill="none" xmlns="http://www.w3.org/2000/svg">
<path d="M13.4393 23.825H9.24388C9.10381 23.825 8.96947 23.8807 8.87043 23.9797C8.77138 24.0788 8.71574 24.2131 8.71574 24.3532V28.5463C8.71574 28.6863 8.77138 28.8207 8.87043 28.9197C8.96947 29.0188 9.10381 29.0744 9.24388 29.0744H13.4393C13.5794 29.0744 13.7137 29.0188 13.8128 28.9197C13.9118 28.8207 13.9675 28.6863 13.9675 28.5463V24.3532C13.9675 24.2131 13.9118 24.0788 13.8128 23.9797C13.7137 23.8807 13.5794 23.825 13.4393 23.825ZM12.9112 28.018H9.77201V24.8813H12.9112V28.018ZM13.4393 31.3415H9.24388C9.10381 31.3415 8.96947 31.3972 8.87043 31.4962C8.77138 31.5953 8.71574 31.7296 8.71574 31.8697V36.0627C8.71574 36.2027 8.77138 36.3371 8.87043 36.4361C8.96947 36.5352 9.10381 36.5908 9.24388 36.5908H13.4393C13.5794 36.5908 13.7137 36.5352 13.8128 36.4361C13.9118 36.3371 13.9675 36.2027 13.9675 36.0627V31.8697C13.9675 31.7296 13.9118 31.5953 13.8128 31.4962C13.7137 31.3972 13.5794 31.3415 13.4393 31.3415ZM12.9112 35.5345H9.77201V32.3979H12.9112V35.5345ZM16.0976 25.1181C16.0976 24.978 16.1532 24.8437 16.2523 24.7446C16.3513 24.6456 16.4857 24.59 16.6257 24.59H24.6654C24.8055 24.59 24.9398 24.6456 25.0389 24.7446C25.1379 24.8437 25.1936 24.978 25.1936 25.1181C25.1936 25.2582 25.1379 25.3925 25.0389 25.4915C24.9398 25.5906 24.8055 25.6462 24.6654 25.6462H16.6257C16.4857 25.6462 16.3513 25.5906 16.2523 25.4915C16.1532 25.3925 16.0976 25.2582 16.0976 25.1181ZM28.4051 27.7813C28.4051 27.9214 28.3494 28.0558 28.2504 28.1548C28.1514 28.2538 28.017 28.3095 27.877 28.3095H16.5561C16.416 28.3095 16.2817 28.2538 16.1827 28.1548C16.0836 28.0558 16.028 27.9214 16.028 27.7813C16.028 27.6413 16.0836 27.5069 16.1827 27.4079C16.2817 27.3089 16.416 27.2532 16.5561 27.2532H27.877C28.017 27.2532 28.1514 27.3089 28.2504 27.4079C28.3494 27.5069 28.4051 27.6413 28.4051 27.7813ZM25.1937 32.6346C25.1937 32.7747 25.138 32.909 25.039 33.008C24.9399 33.1071 24.8056 33.1627 24.6655 33.1627H16.6258C16.5565 33.1627 16.4878 33.1491 16.4237 33.1225C16.3596 33.096 16.3014 33.0571 16.2524 33.008C16.2033 32.959 16.1644 32.9008 16.1379 32.8367C16.1113 32.7726 16.0977 32.7039 16.0977 32.6346C16.0977 32.5652 16.1113 32.4966 16.1379 32.4325C16.1644 32.3684 16.2033 32.3102 16.2524 32.2611C16.3014 32.2121 16.3596 32.1732 16.4237 32.1467C16.4878 32.1201 16.5565 32.1064 16.6258 32.1064H24.6655C24.8056 32.1064 24.9399 32.1621 25.039 32.2611C25.138 32.3602 25.1937 32.4945 25.1937 32.6346ZM10.629 15.0827C11.6827 15.0827 12.5399 14.2255 12.5399 13.1718C12.5399 13.0166 12.5209 12.8619 12.4834 12.7113L15.3894 11.0328C15.7333 11.3649 16.2008 11.5698 16.7155 11.5698C17.0507 11.5698 17.3659 11.4828 17.6401 11.3305L20.4763 14.1667C20.3184 14.4497 20.2356 14.7685 20.2358 15.0926C20.2358 16.1462 21.0942 17.0035 22.1492 17.0035C23.2042 17.0035 24.0601 16.1463 24.0601 15.0926C24.0601 14.2222 23.475 13.4865 22.6776 13.2566L22.6796 9.05098C22.9903 8.96092 23.2731 8.79378 23.5018 8.5651C23.7305 8.33642 23.8977 8.05361 23.9878 7.74299H27.3439C27.5736 8.54051 28.3095 9.12568 29.1799 9.12568C30.2336 9.12568 31.0908 8.26849 31.0908 7.21477C31.0908 6.16105 30.2337 5.30385 29.1799 5.30385C28.3095 5.30385 27.5736 5.88911 27.3439 6.68654H23.9878C23.758 5.88902 23.0221 5.30385 22.1518 5.30385C21.0981 5.30385 20.2409 6.16105 20.2409 7.21477C20.2409 8.08515 20.826 8.82088 21.6234 9.0508L21.6213 13.2563C21.4832 13.2959 21.35 13.351 21.2242 13.4205L18.3871 10.5834C18.5444 10.3007 18.6268 9.98239 18.6265 9.65883C18.6265 8.6052 17.7693 7.74791 16.7155 7.74791C15.6618 7.74791 14.8047 8.60511 14.8047 9.65883C14.8047 9.81712 14.8244 9.97084 14.8609 10.1181L11.9543 11.7969C11.6105 11.4653 11.1434 11.2607 10.6292 11.2607C9.57417 11.2607 8.71583 12.1179 8.71583 13.1716C8.71583 14.2254 9.57417 15.0826 10.6292 15.0826L10.629 15.0827ZM29.1799 6.36038C29.6511 6.36038 30.0345 6.74376 30.0345 7.21494C30.0345 7.68612 29.6511 8.0695 29.1799 8.0695C28.7087 8.0695 28.3254 7.68612 28.3254 7.21494C28.3254 6.74376 28.7087 6.36038 29.1799 6.36038ZM23.0038 15.0927C23.0038 15.5638 22.6204 15.9472 22.1492 15.9472C21.678 15.9472 21.2922 15.5638 21.2922 15.0927C21.2922 14.6215 21.6767 14.2381 22.1492 14.2381C22.6217 14.2381 23.0038 14.6215 23.0038 15.0927ZM21.2972 7.21494C21.2972 6.74376 21.6806 6.36038 22.1518 6.36038C22.6229 6.36038 23.0063 6.74376 23.0063 7.21494C23.0063 7.68612 22.6229 8.0695 22.1518 8.0695C21.6806 8.0695 21.2972 7.68612 21.2972 7.21494ZM16.7155 8.80444C17.1866 8.80444 17.57 9.18782 17.57 9.65901C17.57 10.1302 17.1866 10.5136 16.7155 10.5136C16.2443 10.5136 15.8609 10.1302 15.8609 9.65901C15.8609 9.18782 16.2443 8.80444 16.7155 8.80444ZM10.629 12.3173C11.1002 12.3173 11.4836 12.7006 11.4836 13.1718C11.4836 13.643 11.1002 14.0264 10.629 14.0264C10.1579 14.0264 9.77201 13.643 9.77201 13.1718C9.77201 12.7006 10.1565 12.3173 10.629 12.3173ZM31.8482 21.2091H7.96076C7.82069 21.2091 7.68636 21.1534 7.58731 21.0544C7.48827 20.9553 7.43263 20.821 7.43263 20.6809C7.43263 20.5409 7.48827 20.4065 7.58731 20.3075C7.68636 20.2084 7.82069 20.1528 7.96076 20.1528H31.8482C31.9883 20.1528 32.1226 20.2084 32.2216 20.3075C32.3207 20.4065 32.3763 20.5409 32.3763 20.6809C32.3763 20.821 32.3207 20.9553 32.2216 21.0544C32.1226 21.1534 31.9883 21.2091 31.8482 21.2091ZM37.6653 32.0842C37.3182 31.7372 36.9368 31.4263 36.527 31.1563V3.83159C36.527 3.69152 36.4713 3.55719 36.3723 3.45814C36.2732 3.3591 36.1389 3.30346 35.9988 3.30346H34.3221V1.62677C34.3221 1.4867 34.2664 1.35236 34.1674 1.25332C34.0683 1.15428 33.934 1.09863 33.7939 1.09863H12.7716C12.6315 1.09864 12.4972 1.15428 12.3981 1.25332L5.6415 8.00991C5.59246 8.05897 5.55355 8.1172 5.52701 8.1813C5.50047 8.24539 5.48681 8.31408 5.48682 8.38345V39.7351C5.48682 39.8752 5.54246 40.0095 5.6415 40.1085C5.74055 40.2076 5.87488 40.2632 6.01495 40.2632H7.69173V41.9399C7.69173 42.08 7.74737 42.2143 7.84642 42.3134C7.94546 42.4124 8.07979 42.468 8.21986 42.468H27.7515C29.0761 43.6788 30.7802 44.3422 32.5872 44.3422C34.5054 44.3422 36.3088 43.5952 37.6655 42.2384C40.4623 39.4389 40.4623 34.8838 37.6653 32.0841V32.0842ZM35.4707 4.35981V30.583C35.0997 30.4198 34.7155 30.2886 34.3221 30.1909V4.35981H35.4707ZM12.2435 2.90189V7.85523H7.29007L12.2435 2.90189ZM6.54309 8.91158H12.7716C12.841 8.91158 12.9097 8.89792 12.9737 8.87138C13.0378 8.84484 13.096 8.80594 13.1451 8.7569C13.1941 8.70785 13.233 8.64963 13.2596 8.58556C13.2861 8.52148 13.2998 8.4528 13.2998 8.38345V2.1549H33.2657V30.0128C33.0401 29.9916 32.8137 29.9808 32.5871 29.9806C30.6688 29.9806 28.866 30.7278 27.5108 32.0842C26.7275 32.8676 26.1637 33.7884 25.8187 34.7697H16.5559C16.4159 34.7697 16.2815 34.8254 16.1825 34.9244C16.0834 35.0234 16.0278 35.1578 16.0278 35.2978C16.0278 35.4379 16.0834 35.5722 16.1825 35.6713C16.2815 35.7703 16.4159 35.826 16.5559 35.826H25.5362C25.3247 36.9505 25.383 38.1092 25.7064 39.2068H6.54309V8.91158ZM8.748 40.2632H26.1135C26.3058 40.6668 26.5358 41.0514 26.8003 41.4118H8.748V40.2632ZM36.9184 41.4917C35.7614 42.6488 34.2232 43.2859 32.5872 43.2859C30.9512 43.2859 29.4138 42.6488 28.258 41.4918L28.2579 41.4917C25.8701 39.104 25.8701 35.2188 28.258 32.8309C29.4138 31.674 30.9513 31.0369 32.5872 31.0369C34.2231 31.0369 35.7614 31.6741 36.9182 32.8309C39.3037 35.2187 39.3037 39.104 36.9184 41.4917ZM36.188 34.3862C36.287 34.4853 36.3427 34.6196 36.3427 34.7597C36.3427 34.8998 36.287 35.0342 36.188 35.1332L31.3846 39.9366C31.3355 39.9857 31.2773 40.0246 31.2132 40.0511C31.1491 40.0777 31.0804 40.0913 31.011 40.0913H31.0109C30.9415 40.0913 30.8728 40.0776 30.8087 40.051C30.7446 40.0244 30.6864 39.9855 30.6373 39.9364L28.988 38.2846C28.8906 38.1852 28.8364 38.0513 28.8372 37.9121C28.838 37.7729 28.8937 37.6397 28.9922 37.5414C29.0907 37.443 29.224 37.3875 29.3632 37.3869C29.5024 37.3863 29.6362 37.4407 29.7355 37.5382L31.0113 38.8159L35.4409 34.3863C35.54 34.2873 35.6743 34.2316 35.8144 34.2316C35.9545 34.2316 36.0888 34.2873 36.1879 34.3863L36.188 34.3862Z" fill="#032DA6"/>
</svg>
