<svg width="44" height="45" viewBox="0 0 44 45" fill="none" xmlns="http://www.w3.org/2000/svg">
<path fill-rule="evenodd" clip-rule="evenodd" d="M4.95834 17.4784V17.5408C4.95834 18.2299 4.39558 18.7926 3.70664 18.7926H1.49449C0.808017 18.7926 0.242693 18.2299 0.242693 17.5408V7.98671C0.242693 7.29777 0.808017 6.73491 1.49449 6.73491H3.70664C4.33116 6.73491 4.85202 7.19736 4.94396 7.797C5.21669 7.746 5.41293 7.60377 5.55843 7.39359C6.46355 6.08383 6.38396 6.10959 7.56852 5.33568C9.09984 4.33421 9.0304 3.91836 9.61337 1.38459C9.63434 1.2934 9.67322 1.20728 9.72777 1.13125C9.78233 1.05522 9.85145 0.990802 9.93113 0.941735C10.0108 0.892667 10.0994 0.859933 10.1919 0.845437C10.2843 0.830941 10.3787 0.834973 10.4696 0.857296C11.8462 1.19541 12.4588 2.22803 12.5948 3.45362C12.7071 4.46612 12.4587 5.60886 12.117 6.47965H15.8988C17.008 6.47965 17.9155 7.38591 17.9155 8.49521C17.9155 8.82503 17.8351 9.13712 17.6927 9.41286C18.2558 9.77109 18.6308 10.4007 18.6308 11.1146C18.6308 11.7453 18.338 12.3102 17.8815 12.6805C18.0773 12.9969 18.181 13.3618 18.1808 13.7339C18.1808 14.6607 17.548 15.4467 16.6929 15.6801C16.7702 15.8965 16.8096 16.1246 16.8094 16.3544C16.8094 17.4621 15.9032 18.37 14.7938 18.37H9.03781C7.22228 18.37 6.09031 17.8883 4.95834 17.4784ZM4.95834 9.21962V15.9874C6.11546 16.391 7.19043 16.9582 9.03781 16.9582H14.7938C15.1261 16.9582 15.3976 16.6863 15.3976 16.3544C15.3976 16.022 15.1261 15.7506 14.7938 15.7506H12.4815C12.0919 15.7506 11.7757 15.4343 11.7757 15.0447C11.7757 14.6552 12.0919 14.3389 12.4815 14.3389H16.1652C16.4977 14.3389 16.769 14.0665 16.769 13.7339C16.769 13.4021 16.4975 13.1301 16.1652 13.1301H12.4815C12.0919 13.1301 11.7757 12.8138 11.7757 12.4242C11.7757 12.0347 12.0919 11.7184 12.4815 11.7184H16.6153C16.9477 11.7184 17.2191 11.4469 17.2191 11.1146C17.2191 10.7822 16.9477 10.5108 16.6153 10.5108H12.4815C12.0919 10.5108 11.7757 10.1944 11.7757 9.80488C11.7757 9.41533 12.0919 9.099 12.4815 9.099H15.8988C16.2313 9.099 16.5038 8.82715 16.5038 8.49521C16.5038 8.16265 16.2313 7.89141 15.8988 7.89141H10.9418C10.8066 7.89139 10.6742 7.85251 10.5604 7.7794C10.4466 7.70628 10.3562 7.60202 10.2999 7.47901C10.2437 7.35599 10.224 7.21941 10.2431 7.08551C10.2623 6.95161 10.3195 6.82603 10.4079 6.72371C10.8292 6.23674 11.3233 4.7963 11.1916 3.60927C11.1487 3.22253 11.0303 2.86006 10.7835 2.59606C10.2413 4.93333 10.0358 5.40883 8.3412 6.51724L8.34093 6.51741C7.37969 7.14538 7.45408 7.13383 6.71961 8.19653L6.71934 8.19697C6.32016 8.77359 5.77037 9.15406 4.95834 9.21962ZM1.65446 8.14668V17.3809H3.54658V8.14668H1.65446ZM42.4066 43.1899H43.3015C43.6911 43.1899 44.0074 43.5062 44.0074 43.8957C44.0074 44.2854 43.6911 44.6016 43.3015 44.6016H23.7945C23.4049 44.6016 23.0886 44.2854 23.0886 43.8957C23.0886 43.5062 23.4049 43.1899 23.7945 43.1899H24.9978V38.6303C24.9978 38.4431 25.0722 38.2635 25.2046 38.1312C25.3369 37.9988 25.5165 37.9244 25.7037 37.9244H29.0967C29.2839 37.9244 29.4635 37.9988 29.5958 38.1312C29.7282 38.2635 29.8026 38.4431 29.8026 38.6303V43.1899H31.2998V34.891C31.2998 34.7038 31.3741 34.5242 31.5065 34.3918C31.6389 34.2595 31.8184 34.1851 32.0056 34.1851H35.3986C35.5859 34.1851 35.7654 34.2595 35.8978 34.3918C36.0302 34.5242 36.1045 34.7038 36.1045 34.891V43.1899H37.6017V30.8636C37.6017 30.6763 37.6761 30.4968 37.8084 30.3644C37.9408 30.232 38.1204 30.1577 38.3076 30.1577H41.7007C41.8879 30.1577 42.0674 30.232 42.1998 30.3644C42.3322 30.4968 42.4066 30.6763 42.4066 30.8636V43.1899ZM26.4096 43.1899H28.3908V39.3362H26.4096V43.1899ZM32.7115 43.1899H34.6928V35.5969H32.7115V43.1899ZM39.0135 43.1899H40.9948V31.5694H39.0135V43.1899ZM23.0086 35.7506C17.9076 35.7506 13.746 31.5917 13.746 26.4905C13.746 21.3895 17.9076 17.2279 23.0086 17.2279C28.1098 17.2279 32.2688 21.3895 32.2688 26.4905C32.2688 31.5918 28.1099 35.7506 23.0086 35.7506ZM23.0086 34.3388C27.3322 34.3388 30.857 30.8141 30.857 26.4905C30.857 22.167 27.3322 18.6397 23.0086 18.6397C18.6851 18.6397 15.1578 22.167 15.1578 26.4905C15.1578 30.8141 18.6851 34.3388 23.0086 34.3388ZM21.9387 26.2042L25.3883 22.7187L25.3895 22.7174C26.1318 21.9713 27.3433 21.9677 28.0894 22.71C28.8352 23.4519 28.84 24.6589 28.0981 25.4086L28.0978 25.4089C26.4948 27.0265 24.9039 28.6537 23.2936 30.2639C22.548 31.0097 21.3371 31.0097 20.5913 30.2639L17.9226 27.5928C17.1772 26.8474 17.1759 25.6409 17.9213 24.8917L17.9226 24.8904C18.6683 24.1447 19.8792 24.1447 20.6249 24.8904L21.9387 26.2042ZM21.4422 27.7042L19.6266 25.8887C19.5331 25.7953 19.4063 25.7427 19.2742 25.7426C19.142 25.7425 19.0152 25.7948 18.9215 25.8881C18.727 26.0842 18.726 26.3996 18.9209 26.5945L21.5896 29.2657C21.6833 29.3592 21.8102 29.4117 21.9425 29.4117C22.0749 29.4117 22.2018 29.3592 22.2954 29.2657C23.9041 27.657 25.4933 26.0314 27.0947 24.4155C27.2884 24.2197 27.2884 23.9045 27.0938 23.7109C26.8995 23.5175 26.584 23.5188 26.3906 23.7128L22.4431 27.7016C22.3776 27.7678 22.2998 27.8203 22.214 27.8562C22.1282 27.8921 22.0362 27.9107 21.9432 27.911C21.8501 27.9112 21.758 27.8931 21.672 27.8576C21.5861 27.8221 21.508 27.77 21.4422 27.7042ZM37.0333 2.36091C37.6019 2.52493 38.1503 2.75221 38.6683 3.03847L39.7166 2.57233C39.847 2.51435 39.9919 2.49725 40.1322 2.52329C40.2725 2.54933 40.4016 2.61728 40.5025 2.71818L42.1261 4.34189C42.2269 4.44266 42.2948 4.57158 42.3209 4.71168C42.347 4.85179 42.3301 4.99651 42.2724 5.12683L41.8079 6.17541C42.0946 6.69436 42.3222 7.2439 42.4861 7.81368L43.555 8.22512C43.6882 8.27634 43.8027 8.36671 43.8834 8.48431C43.9642 8.60191 44.0074 8.74123 44.0074 8.88389V11.1806C44.0074 11.3232 43.9642 11.4625 43.8834 11.5801C43.8027 11.6977 43.6882 11.7881 43.555 11.8393L42.4857 12.2509C42.3209 12.8193 42.0935 13.3676 41.8076 13.8859L42.2724 14.9352C42.3302 15.0656 42.3471 15.2103 42.321 15.3504C42.2949 15.4906 42.2269 15.6195 42.1261 15.7203L40.5025 17.3439C40.4017 17.4447 40.2728 17.5126 40.1327 17.5387C39.9926 17.5648 39.8478 17.5479 39.7175 17.4902L38.6693 17.0258C38.1511 17.3123 37.6022 17.5397 37.0331 17.7036L36.6216 18.7728C36.5704 18.9059 36.48 19.0204 36.3624 19.1012C36.2448 19.1819 36.1055 19.2251 35.9628 19.2252H33.6661C33.5235 19.2252 33.3842 19.1819 33.2666 19.1012C33.149 19.0204 33.0586 18.9059 33.0074 18.7728L32.5959 17.7037C32.0266 17.5391 31.4774 17.3116 30.9585 17.0254L29.9092 17.4902C29.7788 17.5479 29.6341 17.5648 29.494 17.5387C29.3539 17.5126 29.2249 17.4447 29.1241 17.3439L27.5005 15.7203C27.3996 15.6194 27.3316 15.4903 27.3056 15.35C27.2795 15.2097 27.2966 15.0648 27.3546 14.9344L27.8206 13.8866C27.5342 13.3684 27.3066 12.8199 27.1418 12.2512L26.0716 11.8393C25.9384 11.7881 25.8239 11.6977 25.7432 11.5801C25.6625 11.4625 25.6193 11.3232 25.6193 11.1806V8.88389C25.6192 8.74123 25.6624 8.60192 25.7432 8.48432C25.8239 8.36672 25.9384 8.27635 26.0716 8.22512L27.1415 7.81333C27.3063 7.24401 27.5342 6.69485 27.8207 6.17603L27.3546 5.1278C27.2966 4.9974 27.2795 4.85249 27.3056 4.71219C27.3316 4.57189 27.3996 4.44278 27.5005 4.34189L29.1241 2.71818C29.225 2.61728 29.3542 2.54933 29.4945 2.52329C29.6348 2.49725 29.7797 2.51435 29.9101 2.57233L30.9583 3.03847C31.4764 2.75214 32.0251 2.52481 32.5939 2.36074L33.0076 1.28868C33.0589 1.15569 33.1493 1.04135 33.2668 0.960717C33.3844 0.88008 33.5236 0.836919 33.6661 0.836914H35.9628C36.255 0.836914 36.5169 1.01691 36.6218 1.28965L37.0333 2.36091ZM35.8451 3.20453L35.4778 2.24868H34.1504L33.7812 3.2055C33.7399 3.3124 33.6733 3.40764 33.587 3.48302C33.5007 3.55839 33.3973 3.61162 33.2858 3.63812C32.6097 3.79873 31.9636 4.06646 31.372 4.43118C31.2743 4.49139 31.1634 4.52688 31.0489 4.53456C30.9344 4.54225 30.8198 4.52191 30.7149 4.4753L29.7796 4.05936L28.8416 4.9973L29.2576 5.93268C29.3042 6.03754 29.3245 6.15219 29.3168 6.26668C29.3091 6.38118 29.2736 6.49208 29.2134 6.58977C28.8483 7.18279 28.5797 7.83006 28.4177 8.50738C28.391 8.61865 28.3377 8.72176 28.2622 8.80782C28.1868 8.89388 28.0916 8.96032 27.9848 9.00141L27.031 9.36856V10.6959L27.9848 11.0629C28.0916 11.104 28.1867 11.1704 28.2621 11.2564C28.3375 11.3424 28.3909 11.4454 28.4176 11.5565C28.5804 12.233 28.8475 12.8805 29.2129 13.4714C29.2733 13.5692 29.309 13.6802 29.3168 13.7949C29.3246 13.9095 29.3042 14.0244 29.2576 14.1294L28.8416 15.0649L29.78 16.0032L30.7158 15.5887C30.8203 15.5425 30.9345 15.5222 31.0485 15.5298C31.1625 15.5374 31.273 15.5725 31.3704 15.6322C31.9636 15.9957 32.6089 16.2654 33.2876 16.4262C33.3993 16.4526 33.5028 16.5059 33.5893 16.5814C33.6757 16.6569 33.7424 16.7524 33.7837 16.8595L34.1508 17.8134H35.4781L35.8452 16.8595C35.8864 16.7524 35.9531 16.657 36.0394 16.5816C36.1258 16.5061 36.2292 16.4528 36.3408 16.4262C37.0167 16.2662 37.6626 15.9986 38.2537 15.6338C38.3513 15.5734 38.4621 15.5378 38.5766 15.5299C38.6911 15.5221 38.8058 15.5422 38.9108 15.5887L39.8466 16.0032L40.7855 15.0643L40.371 14.1285C40.3247 14.024 40.3045 13.9099 40.3121 13.7958C40.3197 13.6818 40.3548 13.5713 40.4145 13.4739C40.778 12.8807 41.0477 12.2353 41.2085 11.5586C41.235 11.447 41.2884 11.3435 41.3638 11.2572C41.4393 11.1708 41.5347 11.1042 41.6417 11.0629L42.5956 10.6959V9.36856L41.6417 9.00141C41.5346 8.96019 41.4392 8.89347 41.3637 8.80703C41.2882 8.72059 41.2349 8.61704 41.2084 8.50536C41.0482 7.82853 40.7805 7.18179 40.4154 6.58977C40.3553 6.49221 40.3199 6.38148 40.3121 6.26716C40.3044 6.15283 40.3246 6.03834 40.371 5.93356L40.7855 4.99774L39.8471 4.05936L38.9117 4.4753C38.8069 4.52191 38.6922 4.54225 38.5777 4.53456C38.4632 4.52688 38.3523 4.49139 38.2546 4.43118C37.6631 4.06649 37.017 3.79876 36.3408 3.63812C36.2292 3.6116 36.1257 3.55825 36.0393 3.4827C35.9529 3.40714 35.8863 3.31166 35.8451 3.20453ZM34.8133 5.31927C37.4167 5.31927 39.5273 7.42774 39.5273 10.031C39.5273 12.6342 37.4165 14.7451 34.8133 14.7451C32.21 14.7451 30.1015 12.6343 30.1015 10.031C30.1015 7.42765 32.2099 5.31927 34.8133 5.31927ZM34.8133 6.73103C32.9899 6.73103 31.5133 8.20765 31.5133 10.031C31.5133 11.8545 32.9898 13.3333 34.8133 13.3333C36.6369 13.3333 38.1156 11.8547 38.1156 10.031C38.1156 8.20756 36.6368 6.73103 34.8133 6.73103ZM5.80531 33.8994L7.42461 29.6396C7.76784 28.7291 9.06296 28.7291 9.40611 29.6396L11.0254 33.8994L15.5753 34.1231C16.5562 34.1671 16.9498 35.4024 16.1918 36.0066L12.6371 38.865L13.8316 43.2588C14.094 44.1953 13.0503 44.9591 12.2348 44.43L12.2323 44.4284L8.41549 41.9305L4.60231 44.4282L4.59966 44.43C3.78702 44.9571 2.74514 44.1974 2.99766 43.264L2.99793 43.2631L4.19361 38.865C3.45022 38.2673 0.639223 36.0069 0.64134 36.0085C-0.119072 35.4024 0.274546 34.1671 1.25237 34.1231L5.80531 33.8994ZM2.24661 35.4878L5.25225 37.9047C5.59143 38.1707 5.72846 38.5871 5.61834 39.0056C5.61788 39.0074 5.61738 39.0093 5.61684 39.0111L4.60311 42.74L7.82943 40.6267C8.19331 40.3843 8.63405 40.3837 8.99828 40.6247L12.227 42.7377L11.2139 39.0111L11.2124 39.0056C11.1023 38.5871 11.2393 38.1709 11.5776 37.9054L14.5842 35.4878L10.725 35.2981L10.7235 35.298C10.2938 35.2759 9.94134 35.0226 9.78746 34.616L8.4154 31.0064L7.04361 34.6151C6.88937 35.0226 6.53687 35.2759 6.10725 35.298L6.10575 35.2981L2.24661 35.4878ZM19.4953 5.86606C19.1057 5.86606 18.7894 5.54983 18.7894 5.16018C18.7894 4.77062 19.1057 4.4543 19.4953 4.4543H25.6793C26.0689 4.4543 26.3852 4.77062 26.3852 5.16018C26.3852 5.54983 26.0689 5.86606 25.6793 5.86606H19.4953ZM38.1571 21.4018C38.1571 21.0123 38.4733 20.6959 38.8629 20.6959C39.2525 20.6959 39.5688 21.0123 39.5688 21.4018V27.0423C39.5688 27.4318 39.2525 27.7481 38.8629 27.7481C38.4733 27.7481 38.1571 27.4318 38.1571 27.0423V21.4018ZM15.8821 41.3395C15.4926 41.3395 15.1763 41.0232 15.1763 40.6336C15.1763 40.2439 15.4926 39.9277 15.8821 39.9277H22.5873C22.9769 39.9277 23.2932 40.2439 23.2932 40.6336C23.2932 41.0232 22.9769 41.3395 22.5873 41.3395H15.8821ZM4.17869 21.4018C4.17869 21.0123 4.49502 20.6959 4.88458 20.6959C5.27422 20.6959 5.59046 21.0123 5.59046 21.4018V28.3334C5.59046 28.723 5.27422 29.0393 4.88458 29.0393C4.49502 29.0393 4.17869 28.723 4.17869 28.3334V21.4018Z" fill="#032DA6"/>
</svg>
