<svg width="46" height="46" viewBox="0 0 46 46" fill="none" xmlns="http://www.w3.org/2000/svg">
<path d="M16.7569 29.0138C11.8238 29.0138 7.81104 25.0004 7.81104 20.0679C7.81104 15.1355 11.8238 11.1221 16.7569 11.1221C21.69 11.1221 25.7021 15.1341 25.7021 20.0679C25.7021 25.0018 21.6893 29.0131 16.7562 29.0131L16.7569 29.0138ZM16.7569 13.2314C12.9874 13.2314 9.92041 16.2978 9.92041 20.0679C9.92041 23.8381 12.9874 26.9037 16.7569 26.9037C20.5263 26.9037 23.5934 23.8374 23.5934 20.0679C23.5934 16.2985 20.5263 13.2314 16.7569 13.2314Z" fill="#032DA6"/>
<path d="M16.7571 25.3408C13.849 25.3408 11.4837 22.9748 11.4837 20.0674C11.4837 17.16 13.849 14.7939 16.7571 14.7939C19.6652 14.7939 22.0305 17.1593 22.0305 20.0674C22.0305 22.9755 19.6652 25.3408 16.7571 25.3408ZM16.7571 16.9033C15.012 16.9033 13.593 18.3222 13.593 20.0674C13.593 21.8125 15.012 23.2314 16.7571 23.2314C18.5023 23.2314 19.9212 21.8118 19.9212 20.0674C19.9212 18.3229 18.5016 16.9033 16.7571 16.9033ZM6.10617 33.4872C5.37264 33.4888 4.66852 33.199 4.14867 32.6814C3.07219 31.5916 3.07359 29.8401 4.14445 28.7679L9.35672 23.5619C9.55467 23.3642 9.82303 23.2533 10.1028 23.2535C10.3825 23.2537 10.6507 23.365 10.8484 23.563C11.0461 23.7609 11.157 24.0293 11.1568 24.309C11.1566 24.5888 11.0453 24.857 10.8473 25.0546L5.63508 30.2599C5.57385 30.321 5.52537 30.3937 5.49245 30.4737C5.45952 30.5537 5.4428 30.6395 5.44326 30.726C5.44372 30.8126 5.46134 30.8981 5.49511 30.9778C5.52889 31.0575 5.57813 31.1296 5.64 31.1901C5.87625 31.4243 6.3157 31.4362 6.55898 31.1901L11.7712 25.9771C11.8681 25.8747 11.9845 25.7927 12.1136 25.736C12.2426 25.6794 12.3818 25.6491 12.5227 25.6471C12.6637 25.6451 12.8036 25.6714 12.9342 25.7244C13.0649 25.7774 13.1835 25.8561 13.2832 25.9558C13.383 26.0554 13.4617 26.1741 13.5147 26.3047C13.5678 26.4353 13.5942 26.5752 13.5922 26.7161C13.5903 26.8571 13.5601 26.9962 13.5035 27.1253C13.4469 27.2544 13.365 27.3709 13.2626 27.4678L8.05453 32.6779C7.79981 32.9359 7.49613 33.1403 7.16131 33.2793C6.82649 33.4183 6.46728 33.489 6.10477 33.4872H6.10617Z" fill="#032DA6"/>
<path d="M23.375 40.6511H14.2344C13.3955 40.6502 12.5912 40.3165 11.9981 39.7233C11.4049 39.1302 11.0712 38.3259 11.0703 37.487V27.1159C11.0703 26.8362 11.1814 26.568 11.3792 26.3702C11.577 26.1724 11.8453 26.0612 12.125 26.0612C12.4047 26.0612 12.673 26.1724 12.8708 26.3702C13.0686 26.568 13.1797 26.8362 13.1797 27.1159V37.487C13.1797 38.0685 13.6529 38.5417 14.2344 38.5417H23.375C23.6547 38.5417 23.923 38.6528 24.1208 38.8506C24.3186 39.0484 24.4297 39.3167 24.4297 39.5964C24.4297 39.8761 24.3186 40.1444 24.1208 40.3422C23.923 40.54 23.6547 40.6511 23.375 40.6511ZM40.25 28.7387C39.9703 28.7387 39.702 28.6276 39.5042 28.4298C39.3064 28.232 39.1953 27.9638 39.1953 27.6841V5.845C39.1953 5.26352 38.7221 4.79031 38.1406 4.79031H14.2344C13.6529 4.79031 13.1797 5.26352 13.1797 5.845V13.6848C13.1797 13.9646 13.0686 14.2328 12.8708 14.4306C12.673 14.6284 12.4047 14.7395 12.125 14.7395C11.8453 14.7395 11.577 14.6284 11.3792 14.4306C11.1814 14.2328 11.0703 13.9646 11.0703 13.6848V5.8457C11.0703 4.10125 12.4899 2.68164 14.2344 2.68164H38.1406C39.8851 2.68164 41.3047 4.10125 41.3047 5.8457V27.6848C41.3047 27.9645 41.1936 28.2327 40.9958 28.4305C40.798 28.6283 40.5297 28.7395 40.25 28.7395V28.7387Z" fill="#032DA6"/>
<path d="M29.7031 9.01074H22.7492C22.4695 9.01074 22.2012 8.89962 22.0034 8.70183C21.8056 8.50404 21.6945 8.23578 21.6945 7.95605C21.6945 7.67633 21.8056 7.40807 22.0034 7.21028C22.2012 7.01249 22.4695 6.90137 22.7492 6.90137H29.7031C29.9828 6.90137 30.2511 7.01249 30.4489 7.21028C30.6467 7.40807 30.7578 7.67633 30.7578 7.95605C30.7578 8.23578 30.6467 8.50404 30.4489 8.70183C30.2511 8.89962 29.9828 9.01074 29.7031 9.01074ZM35.3281 16.3422H27.5938C27.314 16.3422 27.0458 16.2311 26.848 16.0333C26.6502 15.8355 26.5391 15.5673 26.5391 15.2875C26.5391 15.0078 26.6502 14.7396 26.848 14.5418C27.0458 14.344 27.314 14.2329 27.5938 14.2329H35.3281C35.6078 14.2329 35.8761 14.344 36.0739 14.5418C36.2717 14.7396 36.3828 15.0078 36.3828 15.2875C36.3828 15.5673 36.2717 15.8355 36.0739 16.0333C35.8761 16.2311 35.6078 16.3422 35.3281 16.3422ZM35.3281 21.2641H28.5725C28.2928 21.2641 28.0245 21.153 27.8267 20.9552C27.6289 20.7574 27.5178 20.4891 27.5178 20.2094C27.5178 19.9297 27.6289 19.6614 27.8267 19.4636C28.0245 19.2658 28.2928 19.1547 28.5725 19.1547H35.3281C35.6078 19.1547 35.8761 19.2658 36.0739 19.4636C36.2717 19.6614 36.3828 19.9297 36.3828 20.2094C36.3828 20.4891 36.2717 20.7574 36.0739 20.9552C35.8761 21.153 35.6078 21.2641 35.3281 21.2641ZM21.2656 36.4319H17.0469C16.7672 36.4319 16.4989 36.3208 16.3011 36.123C16.1033 35.9252 15.9922 35.6569 15.9922 35.3772C15.9922 35.0975 16.1033 34.8292 16.3011 34.6314C16.4989 34.4337 16.7672 34.3225 17.0469 34.3225H21.2656C21.5453 34.3225 21.8136 34.4337 22.0114 34.6314C22.2092 34.8292 22.3203 35.0975 22.3203 35.3772C22.3203 35.6569 22.2092 35.9252 22.0114 36.123C21.8136 36.3208 21.5453 36.4319 21.2656 36.4319ZM33.9219 42.76C28.6878 42.76 24.4297 38.5019 24.4297 33.2679C24.4297 28.0338 28.6878 23.7757 33.9219 23.7757C39.1559 23.7757 43.4141 28.0338 43.4141 33.2679C43.4141 38.5019 39.1559 42.76 33.9219 42.76ZM33.9219 25.885C29.8508 25.885 26.5391 29.1968 26.5391 33.2679C26.5391 37.3389 29.8508 40.6507 33.9219 40.6507C37.993 40.6507 41.3047 37.3389 41.3047 33.2679C41.3047 29.1968 37.993 25.885 33.9219 25.885Z" fill="#032DA6"/>
<path d="M32.6912 37.135C32.4212 37.135 32.1512 37.0324 31.9459 36.8256L28.7818 33.663C28.681 33.5657 28.6006 33.4494 28.5453 33.3208C28.49 33.1921 28.4608 33.0537 28.4595 32.9137C28.4582 32.7736 28.4849 32.6347 28.5378 32.5051C28.5908 32.3755 28.6691 32.2577 28.768 32.1586C28.867 32.0595 28.9847 31.9812 29.1143 31.9281C29.2439 31.875 29.3828 31.8482 29.5228 31.8494C29.6629 31.8505 29.8013 31.8795 29.93 31.9348C30.0587 31.99 30.1751 32.0703 30.2724 32.171L32.6912 34.589L37.5709 29.7093C37.6682 29.6086 37.7846 29.5283 37.9133 29.4731C38.042 29.4179 38.1804 29.3889 38.3205 29.3877C38.4605 29.3866 38.5994 29.4133 38.729 29.4664C38.8586 29.5195 38.9763 29.5979 39.0753 29.697C39.1743 29.796 39.2525 29.9138 39.3055 30.0435C39.3585 30.1731 39.3851 30.312 39.3838 30.452C39.3825 30.5921 39.3533 30.7305 39.298 30.8591C39.2427 30.9878 39.1623 31.1041 39.0615 31.2013L33.4365 36.8263C33.2312 37.0324 32.9612 37.135 32.6912 37.135Z" fill="#032DA6"/>
</svg>
