<svg width="46" height="46" viewBox="0 0 46 46" fill="none" xmlns="http://www.w3.org/2000/svg">
<g clip-path="url(#clip0_170_12554)">
<path d="M32.543 35.0254C32.0578 35.0254 31.6641 35.4191 31.6641 35.9043C31.6641 36.3895 32.0578 36.7832 32.543 36.7832C33.0281 36.7832 33.4219 36.3895 33.4219 35.9043C33.4219 35.4191 33.0281 35.0254 32.543 35.0254Z" fill="#032DA6"/>
<path d="M34.707 32.1833L30.5296 30.7911L29.0299 27.7916C30.3809 26.4165 31.319 24.597 31.6353 22.6992L31.8224 21.5781H33.4219C34.8758 21.5781 36.0586 20.3953 36.0586 18.9414V13.4043C36.0586 6.13486 30.1444 0.220703 22.875 0.220703C15.5869 0.220703 9.69141 6.1179 9.69141 13.4043V18.9414C9.69141 20.0871 10.4263 21.0641 11.4492 21.427V22.457C11.4492 23.9109 12.6321 25.0938 14.0859 25.0938H14.8578C15.2377 25.9212 15.7342 26.69 16.3321 27.3766C16.4568 27.5195 16.5859 27.6585 16.7193 27.7933L15.2204 30.7911L11.0429 32.1834C6.18563 33.803 2.66016 38.9164 2.66016 44.3418C2.66016 44.8272 3.05364 45.2207 3.53906 45.2207H42.2109C42.6963 45.2207 43.0898 44.8272 43.0898 44.3418C43.0898 38.9164 39.5645 33.803 34.707 32.1833ZM34.3008 18.9414C34.3008 19.426 33.9065 19.8203 33.4219 19.8203H32.0805C32.3039 18.0897 32.4528 16.2482 32.5126 14.4344C32.5144 14.3832 32.5158 14.3335 32.5174 14.2832H34.3008V18.9414ZM12.3281 19.8203C11.8435 19.8203 11.4492 19.426 11.4492 18.9414V14.2832H13.2332C13.2361 14.3749 13.2392 14.467 13.2426 14.5597L13.243 14.5691V14.5699C13.3045 16.334 13.4515 18.1278 13.6698 19.8202H12.3281V19.8203ZM14.0859 23.3359C13.6013 23.3359 13.207 22.9417 13.207 22.457V21.5781H13.9276L14.1146 22.6995C14.1506 22.9131 14.194 23.1254 14.2448 23.3359H14.0859ZM13.2085 12.5254H11.4826C11.9278 6.63487 16.8437 1.97852 22.875 1.97852C28.8795 1.97852 33.817 6.63426 34.2673 12.5254H32.5416C32.4783 7.67145 28.5256 3.73633 23.6617 3.73633H22.0885C17.2247 3.73633 13.2717 7.67145 13.2085 12.5254ZM22.0884 5.49414H23.6616C27.5999 5.49414 30.7874 8.71542 30.7852 12.6493C30.7852 12.9259 30.783 13.1667 30.7783 13.3858L30.7782 13.3945L29.6789 13.2374C26.6924 12.8109 23.8725 11.401 21.7387 9.2672C21.5738 9.10239 21.3503 9.0098 21.1172 9.00977C18.7568 9.00977 16.4973 10.0852 15.0037 11.9021C15.3718 8.32325 18.3972 5.49414 22.0884 5.49414ZM16.067 23.3359C15.627 21.8723 15.1236 17.5657 15.0123 14.8059L16.1952 13.2286C17.2816 11.7805 18.9719 10.8808 20.7698 10.7775C23.1356 13.0289 26.1961 14.5157 29.4303 14.9775L30.7242 15.1624C30.6378 16.998 30.461 18.84 30.2078 20.5341L30.2075 20.5358C30.127 21.0805 30.0636 21.431 29.9015 22.41C29.436 25.2019 27.3529 27.7265 24.6028 28.4141C23.4684 28.6966 22.282 28.6966 21.1476 28.4141C19.4305 27.9848 17.856 26.7967 16.8399 25.0938H18.6316C18.9945 26.1167 19.9714 26.8516 21.1172 26.8516H22.875C24.3318 26.8516 25.5117 25.6717 25.5117 24.2148C25.5117 22.761 24.3289 21.5781 22.875 21.5781H21.1172C19.9459 21.5781 18.9834 22.3347 18.6301 23.3359H16.067ZM21.0433 30.1928C21.6456 30.32 22.2594 30.3844 22.875 30.3848C23.3559 30.3848 23.8368 30.3445 24.3123 30.2665L22.7592 31.9089L21.0433 30.1928ZM21.5509 33.1866L18.7632 36.1347C17.9952 34.6645 17.3374 33.1393 16.7954 31.5716L17.8423 29.4779L21.5509 33.1866ZM27.7587 29.1801L28.9544 31.5716C28.4124 33.1397 27.7546 34.6654 26.9863 36.136L24.0026 33.1523L27.7587 29.1801ZM20.2383 24.2148C20.2383 23.7296 20.6319 23.3359 21.1172 23.3359H22.875C23.3596 23.3359 23.7539 23.7302 23.7539 24.2148C23.7539 24.7002 23.3602 25.0938 22.875 25.0938H21.1172C20.6326 25.0938 20.2383 24.6995 20.2383 24.2148ZM4.45313 43.4629C4.80144 39.1089 7.6991 35.1513 11.5988 33.8509L15.2985 32.618C15.9772 34.4943 16.8141 36.3097 17.8001 38.0443L17.805 38.0532L17.8051 38.0534C18.5299 39.3268 19.3334 40.5538 20.2109 41.7271L21.2921 43.4629H4.45313ZM22.875 42.6794L21.683 40.7658C21.6697 40.7444 21.6554 40.7235 21.6403 40.7033C20.9282 39.7529 20.2672 38.7653 19.66 37.7447L22.7944 34.43L26.0972 37.7328C25.4881 38.7576 24.8247 39.7491 24.1099 40.7031C24.0668 40.7605 24.1279 40.6701 22.875 42.6794ZM24.4579 43.4629L25.5391 41.7272C26.4234 40.5449 27.2325 39.3081 27.9617 38.0242C27.9661 38.0165 27.9702 38.0086 27.9746 38.0008L27.9762 37.998C28.9509 36.2774 29.779 34.4777 30.4515 32.618L34.1511 33.8509C38.0509 35.1513 40.9486 39.1089 41.2969 43.4629H24.4579Z" fill="#032DA6"/>
<path d="M38.6554 39.9061C38.068 38.7304 37.2076 37.6859 36.1673 36.8855C35.7825 36.5894 35.2307 36.6614 34.9348 37.0462C34.6388 37.431 34.7108 37.9828 35.0955 38.2788C35.9264 38.918 36.6135 39.7524 37.0828 40.6916C37.3001 41.1266 37.8283 41.3017 38.2618 41.0851C38.696 40.8682 38.8722 40.3403 38.6554 39.9061Z" fill="#032DA6"/>
</g>
<defs>
<clipPath id="clip0_170_12554">
<rect width="45" height="45" fill="white" transform="translate(0.375 0.220703)"/>
</clipPath>
</defs>
</svg>
