<svg width="34" height="34" viewBox="0 0 34 34" fill="none" xmlns="http://www.w3.org/2000/svg">
<path d="M17 19.6218C16.8158 19.6218 16.6317 19.5793 16.4758 19.4801C15.9658 19.1826 15.7958 18.5309 16.0792 18.0351L17.2833 15.9384H16.0933C15.385 15.9384 14.8042 15.6268 14.4925 15.1026C14.1808 14.5643 14.2092 13.9126 14.5633 13.2893L16.0792 10.6543C16.3767 10.1443 17.0283 9.97425 17.5242 10.2576C18.0342 10.5551 18.2042 11.2068 17.9208 11.7026L16.7167 13.8134H17.9067C18.615 13.8134 19.1958 14.1251 19.5075 14.6493C19.8192 15.1876 19.7908 15.8393 19.4367 16.4626L17.9208 19.0976C17.7225 19.4376 17.3683 19.6218 17 19.6218Z" fill="#021A60"/>
<path d="M20.9239 27.9788H13.1181C12.4948 27.9788 11.7014 27.9079 11.1773 27.3696C10.6673 26.8454 10.6814 26.1938 10.6956 25.7546V24.4938C7.12559 22.1138 4.77393 17.9771 4.77393 14.0388C4.77393 10.3129 6.44559 6.82793 9.34976 4.49043C12.2539 2.15293 16.0648 1.2746 19.7906 2.09627C23.3323 2.87543 26.3923 5.24127 27.9789 8.42877C31.0531 14.6196 28.0923 21.3204 23.3606 24.5079V25.5704C23.3748 25.9813 23.3889 26.7321 22.8081 27.3271C22.3689 27.7521 21.7456 27.9788 20.9239 27.9788ZM12.8064 25.8396C12.8773 25.8396 12.9764 25.8538 13.1039 25.8538H20.9239C21.0656 25.8538 21.1648 25.8396 21.2214 25.8254C21.2214 25.7829 21.2214 25.7263 21.2214 25.6838V23.8988C21.2214 23.5304 21.4198 23.1763 21.7314 22.9921C25.9248 20.4563 28.7014 14.6621 26.0523 9.3496C24.7489 6.72877 22.2273 4.78793 19.3089 4.15043C16.2206 3.47043 13.0614 4.19293 10.6531 6.13377C8.24476 8.0746 6.87059 10.9504 6.87059 14.0388C6.87059 17.9771 9.59059 21.3771 12.2823 23.0063C12.6081 23.2046 12.7923 23.5446 12.7923 23.9129V25.8254C12.8064 25.8254 12.8064 25.8254 12.8064 25.8396Z" fill="#021A60"/>
<path d="M21.9581 32.2282C21.859 32.2282 21.7598 32.2141 21.6606 32.1857C18.6006 31.3074 15.3848 31.3074 12.3248 32.1857C11.7581 32.3416 11.1773 32.0157 11.0073 31.4491C10.8373 30.8824 11.1773 30.3016 11.744 30.1316C15.1723 29.1541 18.8131 29.1541 22.2415 30.1316C22.8081 30.2874 23.134 30.8824 22.9781 31.4491C22.8506 31.9307 22.4256 32.2282 21.9581 32.2282Z" fill="#021A60"/>
</svg>
