<svg  viewBox="0 0 100 101" fill="none" xmlns="http://www.w3.org/2000/svg">
<rect y="0.5" width="100" height="100" rx="49.7908" fill="url(#paint0_linear_408_1234)"/>
<path d="M39.5751 47.4508L48.055 62.2325L31.873 60.5209C31.4063 60.4431 31.1729 59.8985 31.4063 59.5095L39.5751 47.4508ZM31.873 55.2307C31.7175 55.464 31.3285 55.3862 31.3285 55.0751V42.394C31.3285 42.1606 31.5619 42.005 31.7952 42.1606L37.7079 45.7393L31.873 55.2307ZM32.7288 63.6328C32.4176 63.4772 32.5732 63.0105 32.8844 63.0883L48.7552 64.7998V69.8567C48.7552 70.3235 48.2106 70.6347 47.8217 70.4791L32.7288 63.6328ZM39.0305 43.5609L32.651 39.8266C32.4954 39.671 32.4954 39.3598 32.651 39.282L44.3985 31.58C44.9431 31.2688 45.5655 31.8912 45.2543 32.4358L39.0305 43.5609ZM50 44.3389H41.4422L48.9108 31.2688C49.1442 30.8799 49.5332 30.6465 50 30.6465C50.389 30.6465 50.778 30.8799 51.0114 31.2688L58.48 44.3389H50ZM68.127 42.1606C68.3603 42.005 68.6715 42.1606 68.6715 42.394V55.0751C68.6715 55.3862 68.2048 55.464 68.0492 55.2307L62.2143 45.7393L68.127 42.1606ZM60.8917 43.5609L54.6679 32.4358C54.3567 31.8912 54.9791 31.2688 55.5237 31.58L67.2712 39.282C67.4268 39.3598 67.4268 39.671 67.2712 39.8266L60.8917 43.5609ZM67.0378 63.0883C67.4268 63.0105 67.5046 63.4772 67.1934 63.6328L52.1005 70.4791C51.7116 70.6347 51.2448 70.3235 51.2448 69.8567V64.7998L67.0378 63.0883ZM60.3471 47.4508L68.5159 59.5095C68.7493 59.8985 68.5159 60.4431 68.0492 60.5209L51.8672 62.2325L60.3471 47.4508ZM50 46.8285H57.7798L50 60.5209L42.1424 46.8285H50Z" fill="white"/>
<defs>
<linearGradient id="paint0_linear_408_1234" x1="50" y1="0.5" x2="50" y2="100.5" gradientUnits="userSpaceOnUse">
<stop stop-color="#00E31D"/>
<stop offset="1" stop-color="#00C0CE"/>
</linearGradient>
</defs>
</svg>
