<svg width="34" height="34" viewBox="0 0 34 34" fill="none" xmlns="http://www.w3.org/2000/svg">
<path d="M23.6584 27.9505H10.3418C9.29345 27.9505 8.23095 27.1997 7.87678 26.2222L2.01178 9.80302C1.28928 7.73469 1.81344 6.78552 2.38011 6.36052C2.94678 5.93552 4.00928 5.68052 5.79428 6.95552L11.3193 10.908C11.4893 11.0072 11.6451 11.0497 11.7584 11.0214C11.8859 10.9789 11.9851 10.8655 12.0559 10.6672L14.5493 4.02302C15.3001 2.03969 16.4051 1.74219 17.0001 1.74219C17.5951 1.74219 18.7001 2.03969 19.4509 4.02302L21.9443 10.6672C22.0151 10.8514 22.1143 10.9789 22.2418 11.0214C22.3693 11.0639 22.5251 11.0214 22.6809 10.8939L27.8659 7.19635C29.7643 5.83635 30.8693 6.10552 31.4784 6.54469C32.0734 6.99802 32.6259 8.00385 31.8468 10.1997L26.1234 26.2222C25.7693 27.1997 24.7068 27.9505 23.6584 27.9505ZM3.79678 8.23052C3.82511 8.42885 3.88178 8.71219 4.02344 9.08052L9.88845 25.4997C9.94511 25.6414 10.2001 25.8255 10.3418 25.8255H23.6584C23.8143 25.8255 24.0693 25.6414 24.1118 25.4997L29.8351 9.49135C30.0334 8.95302 30.0901 8.58469 30.1043 8.37219C29.8918 8.44302 29.5659 8.59885 29.0984 8.93885L23.9134 12.6364C23.2051 13.1322 22.3693 13.288 21.6184 13.0614C20.8676 12.8347 20.2584 12.2397 19.9468 11.4322L17.4534 4.78802C17.2693 4.29219 17.0993 4.05135 17.0001 3.93802C16.9009 4.05135 16.7309 4.29219 16.5468 4.77385L14.0534 11.418C13.7559 12.2255 13.1468 12.8205 12.3818 13.0472C11.6309 13.2739 10.7809 13.118 10.0868 12.6222L4.56178 8.66969C4.23594 8.44302 3.98094 8.30135 3.79678 8.23052Z" fill="#F25B06"/>
<path d="M24.7918 32.2285H9.2085C8.62766 32.2285 8.146 31.7468 8.146 31.166C8.146 30.5852 8.62766 30.1035 9.2085 30.1035H24.7918C25.3727 30.1035 25.8543 30.5852 25.8543 31.166C25.8543 31.7468 25.3727 32.2285 24.7918 32.2285Z" fill="#F25B06"/>
<path d="M20.5418 20.8965H13.4585C12.8777 20.8965 12.396 20.4148 12.396 19.834C12.396 19.2532 12.8777 18.7715 13.4585 18.7715H20.5418C21.1227 18.7715 21.6043 19.2532 21.6043 19.834C21.6043 20.4148 21.1227 20.8965 20.5418 20.8965Z" fill="#F25B06"/>
</svg>
