<svg viewBox="0 0 100 101" fill="none" xmlns="http://www.w3.org/2000/svg">
<rect y="0.5" width="100" height="100" rx="49.7908" fill="#FFFBFA"/>
<path d="M66.25 65.5215C66.875 65.5215 67.5 66.1465 67.5 66.7715V69.2715C67.5 69.9746 66.875 70.5215 66.25 70.5215H33.75C33.0469 70.5215 32.5 69.9746 32.5 69.2715V66.7715C32.5 66.1465 33.0469 65.5215 33.75 65.5215H66.25ZM71.25 40.5215C73.2812 40.5215 75 42.2402 75 44.2715C75 46.3809 73.2812 48.0215 71.25 48.0215C71.0156 48.0215 70.7812 48.0215 70.625 48.0215L65 63.0215H35L29.2969 48.0215C29.1406 48.0215 28.9062 48.0215 28.75 48.0215C26.6406 48.0215 25 46.3809 25 44.2715C25 42.2402 26.6406 40.5215 28.75 40.5215C30.7812 40.5215 32.5 42.2402 32.5 44.2715C32.5 44.8965 32.3438 45.3652 32.1094 45.834L37.8125 49.2715C38.9844 49.9746 40.5469 49.584 41.25 48.334L47.5781 37.1621C46.7969 36.5371 46.25 35.4434 46.25 34.2715C46.25 32.2402 47.8906 30.5215 50 30.5215C52.0312 30.5215 53.75 32.2402 53.75 34.2715C53.75 35.4434 53.2031 36.5371 52.3438 37.1621L58.6719 48.334C59.375 49.584 60.9375 49.9746 62.1875 49.2715L67.8125 45.834C67.5781 45.3652 67.5 44.8965 67.5 44.2715C67.5 42.2402 69.1406 40.5215 71.25 40.5215Z" fill="url(#paint0_linear_408_1255)"/>
<defs>
<linearGradient id="paint0_linear_408_1255" x1="24.9879" y1="50.5225" x2="74.9927" y2="50.5225" gradientUnits="userSpaceOnUse">
<stop stop-color="#E74C3C"/>
<stop offset="1" stop-color="#FC6B14"/>
</linearGradient>
</defs>
</svg>
