<svg  viewBox="0 0 100 101" fill="none" xmlns="http://www.w3.org/2000/svg">
<rect y="0.5" width="100" height="100" rx="49.7908" fill="url(#paint0_linear_408_1213)"/>
<path d="M48.4375 63.5208H43.75C41.4583 63.5208 39.5833 65.3958 39.5833 67.6875V68.2083H37.5C36.6458 68.2083 35.9375 68.9167 35.9375 69.7708C35.9375 70.625 36.6458 71.3333 37.5 71.3333H62.5C63.3542 71.3333 64.0625 70.625 64.0625 69.7708C64.0625 68.9167 63.3542 68.2083 62.5 68.2083H60.4167V67.6875C60.4167 65.3958 58.5417 63.5208 56.25 63.5208H51.5625V58.75C51.0417 58.8125 50.5208 58.8333 50 58.8333C49.4792 58.8333 48.9583 58.8125 48.4375 58.75V63.5208Z" fill="white"/>
<path d="M63.5 49.7493C64.875 49.2285 66.0833 48.3743 67.0417 47.416C68.9792 45.2702 70.25 42.7077 70.25 39.7077C70.25 36.7077 67.8958 34.3535 64.8958 34.3535H63.7292C62.375 31.5827 59.5417 29.666 56.25 29.666H43.75C40.4583 29.666 37.625 31.5827 36.2708 34.3535H35.1042C32.1042 34.3535 29.75 36.7077 29.75 39.7077C29.75 42.7077 31.0208 45.2702 32.9583 47.416C33.9167 48.3743 35.125 49.2285 36.5 49.7493C38.6667 55.0827 43.875 58.8327 50 58.8327C56.125 58.8327 61.3333 55.0827 63.5 49.7493ZM55.9167 43.1035L54.625 44.6868C54.4167 44.916 54.2708 45.3743 54.2917 45.6868L54.4167 47.7285C54.5 48.9785 53.6042 49.6243 52.4375 49.166L50.5417 48.416C50.25 48.3118 49.75 48.3118 49.4583 48.416L47.5625 49.166C46.3958 49.6243 45.5 48.9785 45.5833 47.7285L45.7083 45.6868C45.7292 45.3743 45.5833 44.916 45.375 44.6868L44.0833 43.1035C43.2708 42.1452 43.625 41.0827 44.8333 40.7702L46.8125 40.2702C47.125 40.1868 47.5 39.8952 47.6667 39.6243L48.7708 37.916C49.4583 36.8535 50.5417 36.8535 51.2292 37.916L52.3333 39.6243C52.5 39.8952 52.875 40.1868 53.1875 40.2702L55.1667 40.7702C56.375 41.0827 56.7292 42.1452 55.9167 43.1035Z" fill="white"/>
<defs>
<linearGradient id="paint0_linear_408_1213" x1="50" y1="0.5" x2="50" y2="100.5" gradientUnits="userSpaceOnUse">
<stop stop-color="#00AEEF"/>
<stop offset="1" stop-color="#0F5EC9"/>
</linearGradient>
</defs>
</svg>
