<svg width="34" height="34" viewBox="0 0 34 34" fill="none" xmlns="http://www.w3.org/2000/svg">
<g clip-path="url(#clip0_858_3873)">
<path d="M27.7666 2.26758C27.8041 2.26755 27.8415 2.27201 27.8779 2.2793C27.8841 2.28054 27.8903 2.28175 27.8965 2.2832C27.9504 2.29586 28.0025 2.31578 28.0508 2.34375C28.1024 2.37364 28.148 2.41204 28.1875 2.45605C28.1921 2.46116 28.1977 2.46542 28.2021 2.4707L33.8682 9.27051C33.8754 9.27923 33.881 9.28972 33.8877 9.29883C33.892 9.30469 33.8983 9.30941 33.9023 9.31543C33.9055 9.32013 33.9081 9.32528 33.9111 9.33008C33.9143 9.33513 33.9169 9.34056 33.9199 9.3457C33.9274 9.35829 33.9359 9.37059 33.9424 9.38379C33.956 9.4114 33.9657 9.4405 33.9746 9.46973C33.9781 9.4813 33.9806 9.49308 33.9834 9.50488C33.987 9.52015 33.9909 9.53527 33.9932 9.55078C33.9936 9.55406 33.9947 9.55726 33.9951 9.56055C33.9957 9.56523 33.9946 9.57051 33.9951 9.5752C33.9971 9.59405 33.9989 9.61282 33.999 9.63184C33.999 9.63902 33.9983 9.64615 33.998 9.65332C33.9977 9.66533 33.9992 9.67745 33.998 9.68945C33.9972 9.69769 33.9943 9.70569 33.9932 9.71387C33.9923 9.72008 33.9913 9.72625 33.9902 9.73242C33.987 9.75095 33.9825 9.76904 33.9775 9.78711C33.9753 9.79495 33.9733 9.8028 33.9707 9.81055C33.9511 9.87094 33.9235 9.92869 33.8848 9.97949L17.4512 31.5117C17.4464 31.518 17.4394 31.5228 17.4336 31.5283C17.4019 31.5662 17.3658 31.5994 17.3252 31.6279C17.3018 31.6454 17.2783 31.6627 17.252 31.6758C17.2418 31.6808 17.2302 31.6833 17.2197 31.6875C17.1533 31.7161 17.0823 31.7315 17.0098 31.7324C17.0068 31.7331 17.004 31.7343 17.001 31.7344C16.9104 31.7345 16.8206 31.7126 16.7402 31.6709C16.7112 31.6558 16.6848 31.6361 16.6592 31.6162C16.6477 31.6075 16.6367 31.5984 16.626 31.5889C16.6151 31.5792 16.6039 31.5701 16.5938 31.5596C16.5834 31.5488 16.5739 31.537 16.5645 31.5254C16.5632 31.5239 16.5619 31.522 16.5605 31.5205C16.5577 31.5169 16.5536 31.5144 16.5508 31.5107L0.117188 9.97754C0.114615 9.97417 0.112844 9.97022 0.110352 9.9668C0.0988211 9.95104 0.0880039 9.93489 0.078125 9.91797C0.0752612 9.91304 0.0720472 9.90832 0.0693359 9.90332C0.0640529 9.89361 0.0584347 9.88407 0.0537109 9.87402C0.0498969 9.8659 0.0473578 9.85691 0.0439453 9.84863C0.0415109 9.84271 0.038365 9.83706 0.0361328 9.83105C0.0108259 9.76323 -0.000882692 9.69143 0.000976562 9.61914C0.00121571 9.60967 0.00221787 9.60025 0.00292969 9.59082C0.00368699 9.58088 0.0035956 9.57047 0.00488281 9.56055C0.00569427 9.55433 0.00679708 9.54817 0.0078125 9.54199C0.00936563 9.53248 0.011636 9.52309 0.0136719 9.51367C0.0174127 9.49648 0.0220369 9.47961 0.0273438 9.46289C0.0304389 9.45308 0.0334773 9.44324 0.0371094 9.43359C0.0424919 9.41939 0.0481798 9.40533 0.0546875 9.3916L0.0595703 9.38281C0.0639336 9.37399 0.068442 9.365 0.0732422 9.35645C0.080339 9.34385 0.0876396 9.33138 0.0957031 9.31934C0.102172 9.30963 0.109169 9.30029 0.116211 9.29102C0.121342 9.28429 0.126392 9.27701 0.131836 9.27051L5.79785 2.4707L5.83496 2.43359C5.84133 2.42723 5.84785 2.42107 5.85449 2.41504C5.87312 2.3982 5.8924 2.38238 5.91309 2.36816C5.9327 2.35461 5.95347 2.343 5.97461 2.33203C5.98096 2.32876 5.98669 2.32432 5.99316 2.32129C5.99758 2.31922 6.00237 2.31738 6.00684 2.31543C6.03729 2.30203 6.06896 2.2911 6.10156 2.2832C6.10865 2.28151 6.1159 2.28071 6.12305 2.2793C6.15809 2.27223 6.19396 2.26787 6.23047 2.26758H27.7666ZM17 29.2842L23.0283 10.2002H10.9736L17 29.2842ZM18.5176 28.2441L32.2881 10.2012H24.2158L18.5176 28.2441ZM15.4824 28.2432L9.78516 10.2012H1.71387L15.4824 28.2432ZM11.5713 9.06641H22.4307L17.001 3.63574L11.5713 9.06641ZM24.7881 9.06641H32.2227L27.8486 3.81836L24.7881 9.06641ZM1.77637 9.06641H9.21387L6.15137 3.81641L1.77637 9.06641ZM10.3203 8.71387L15.6328 3.40137H7.2207L10.3203 8.71387ZM23.6816 8.71387L26.7803 3.40137H18.3682L23.6816 8.71387Z" fill="#021A60"/>
<path d="M27.7666 2.26758V2.51758L27.7668 2.51758L27.7666 2.26758ZM27.8779 2.2793L27.9271 2.03418L27.9269 2.03414L27.8779 2.2793ZM27.8965 2.2832L27.8392 2.52654L27.8393 2.52658L27.8965 2.2832ZM28.0508 2.34375L28.1761 2.12741L28.1761 2.1274L28.0508 2.34375ZM28.1875 2.45605L28.0015 2.62308L28.0017 2.62333L28.1875 2.45605ZM28.2021 2.4707L28.3942 2.31066L28.3939 2.3103L28.2021 2.4707ZM33.8682 9.27051L33.6761 9.43055L33.6762 9.43065L33.8682 9.27051ZM33.8877 9.29883L34.0893 9.15102L34.0889 9.15049L33.8877 9.29883ZM33.9023 9.31543L33.6953 9.45553L33.6958 9.45623L33.9023 9.31543ZM33.9111 9.33008L34.1221 9.19598L34.1217 9.19531L33.9111 9.33008ZM33.9199 9.3457L33.7048 9.47306L33.7053 9.47385L33.9199 9.3457ZM33.9424 9.38379L34.1666 9.27325L34.1665 9.2731L33.9424 9.38379ZM33.9746 9.46973L34.2139 9.39723L34.2138 9.39708L33.9746 9.46973ZM33.9834 9.50488L33.74 9.5619L33.74 9.56203L33.9834 9.50488ZM33.9932 9.55078L34.2405 9.51414L34.2404 9.51398L33.9932 9.55078ZM33.9951 9.56055L34.243 9.52843L34.243 9.52825L33.9951 9.56055ZM33.9951 9.5752L33.7465 9.60111L33.7465 9.60131L33.9951 9.5752ZM33.999 9.63184L34.249 9.631L34.249 9.63066L33.999 9.63184ZM33.998 9.65332L33.7482 9.64465L33.7482 9.64505L33.998 9.65332ZM33.998 9.68945L34.2469 9.71364L34.2469 9.71349L33.998 9.68945ZM33.9932 9.71387L34.2406 9.7493L34.2407 9.74873L33.9932 9.71387ZM33.9902 9.73242L33.7441 9.68879L33.7439 9.6895L33.9902 9.73242ZM33.9775 9.78711L34.2182 9.85493L34.2185 9.85389L33.9775 9.78711ZM33.9707 9.81055L33.7332 9.7324L33.7329 9.73354L33.9707 9.81055ZM33.8848 9.97949L34.0835 10.1312L34.0835 10.1311L33.8848 9.97949ZM17.4512 31.5117L17.6493 31.6642L17.6499 31.6634L17.4512 31.5117ZM17.4336 31.5283L17.2615 31.347L17.251 31.3569L17.2418 31.368L17.4336 31.5283ZM17.3252 31.6279L17.1813 31.4233L17.1752 31.4279L17.3252 31.6279ZM17.252 31.6758L17.3625 31.9L17.3627 31.8999L17.252 31.6758ZM17.2197 31.6875L17.1262 31.4556L17.1209 31.4579L17.2197 31.6875ZM17.0098 31.7324L17.0065 31.4824L16.9783 31.4828L16.9509 31.4894L17.0098 31.7324ZM17.001 31.7344L17.0013 31.9844L17.0066 31.9843L17.001 31.7344ZM16.7402 31.6709L16.6249 31.8927L16.6252 31.8929L16.7402 31.6709ZM16.6592 31.6162L16.8129 31.419L16.8107 31.4174L16.6592 31.6162ZM16.626 31.5889L16.7922 31.4022L16.7922 31.4021L16.626 31.5889ZM16.5938 31.5596L16.4135 31.7328L16.4139 31.7332L16.5938 31.5596ZM16.5645 31.5254L16.758 31.3671L16.7576 31.3667L16.5645 31.5254ZM16.5605 31.5205L16.3654 31.6767L16.3703 31.6829L16.3756 31.6887L16.5605 31.5205ZM16.5508 31.5107L16.7497 31.3593L16.7495 31.3591L16.5508 31.5107ZM0.117188 9.97754L0.315924 9.82587L0.315885 9.82582L0.117188 9.97754ZM0.110352 9.9668L0.3124 9.81957L0.312109 9.81917L0.110352 9.9668ZM0.078125 9.91797L-0.137987 10.0437L-0.137786 10.044L0.078125 9.91797ZM0.0693359 9.90332L0.289145 9.78422L0.288946 9.78386L0.0693359 9.90332ZM0.0537109 9.87402L-0.172608 9.98023L-0.17251 9.98044L0.0537109 9.87402ZM0.0439453 9.84863L-0.187307 9.94362L-0.187167 9.94396L0.0439453 9.84863ZM0.0361328 9.83105L0.270472 9.74396L0.270358 9.74366L0.0361328 9.83105ZM0.000976562 9.61914L0.250894 9.62557L0.250897 9.62545L0.000976562 9.61914ZM0.00292969 9.59082L-0.246348 9.57183L-0.246361 9.572L0.00292969 9.59082ZM0.00488281 9.56055L-0.243016 9.5282L-0.243039 9.52838L0.00488281 9.56055ZM0.0078125 9.54199L0.2545 9.58256L0.254543 9.58229L0.0078125 9.54199ZM0.0136719 9.51367L-0.230615 9.46053L-0.230685 9.46085L0.0136719 9.51367ZM0.0273438 9.46289L0.265622 9.53854L0.265753 9.53813L0.0273438 9.46289ZM0.0371094 9.43359L-0.196676 9.34502L-0.196849 9.34548L0.0371094 9.43359ZM0.0546875 9.3916L-0.163852 9.27019L-0.167759 9.27722L-0.171206 9.28449L0.0546875 9.3916ZM0.0595703 9.38281L0.278361 9.50436L0.283678 9.49361L0.0595703 9.38281ZM0.0732422 9.35645L-0.144559 9.23372L-0.144803 9.23415L0.0732422 9.35645ZM0.0957031 9.31934L0.303443 9.45842L0.303759 9.45795L0.0957031 9.31934ZM0.116211 9.29102L-0.0825252 9.13934L-0.0829033 9.13984L0.116211 9.29102ZM0.131836 9.27051L0.323557 9.43095L0.323898 9.43055L0.131836 9.27051ZM5.79785 2.4707L5.62107 2.29393L5.61305 2.30195L5.60579 2.31067L5.79785 2.4707ZM5.83496 2.43359L5.65832 2.25668L5.65818 2.25682L5.83496 2.43359ZM5.85449 2.41504L5.68684 2.22958L5.68646 2.22993L5.85449 2.41504ZM5.91309 2.36816L6.05466 2.57422L6.0552 2.57384L5.91309 2.36816ZM5.97461 2.33203L5.86016 2.10977L5.85947 2.11012L5.97461 2.33203ZM5.99316 2.32129L5.88732 2.0948L5.88721 2.09485L5.99316 2.32129ZM6.00684 2.31543L6.1068 2.54458L6.10754 2.54425L6.00684 2.31543ZM6.10156 2.2832L6.04354 2.04003L6.04273 2.04022L6.10156 2.2832ZM6.12305 2.2793L6.17164 2.52453L6.17246 2.52437L6.12305 2.2793ZM6.23047 2.26758V2.01757L6.2285 2.01759L6.23047 2.26758ZM17 29.2842L16.7616 29.3595L17 30.1143L17.2384 29.3595L17 29.2842ZM23.0283 10.2002L23.2667 10.2755L23.3695 9.9502H23.0283V10.2002ZM10.9736 10.2002V9.9502H10.6325L10.7352 10.2755L10.9736 10.2002ZM18.5176 28.2441L18.2792 28.1689L18.7163 28.3958L18.5176 28.2441ZM32.2881 10.2012L32.4868 10.3528L32.7934 9.95117H32.2881V10.2012ZM24.2158 10.2012V9.95117H24.0326L23.9774 10.1259L24.2158 10.2012ZM15.4824 28.2432L15.2837 28.3948L15.7208 28.1679L15.4824 28.2432ZM9.78516 10.2012L10.0236 10.1259L9.96838 9.95117H9.78516V10.2012ZM1.71387 10.2012V9.95117H1.2086L1.51513 10.3528L1.71387 10.2012ZM11.5713 9.06641L11.3945 8.88965L10.9678 9.31641H11.5713V9.06641ZM22.4307 9.06641V9.31641H23.0341L22.6075 8.88965L22.4307 9.06641ZM17.001 3.63574L17.1778 3.45898L17.001 3.28216L16.8242 3.45898L17.001 3.63574ZM24.7881 9.06641L24.5721 8.94046L24.3529 9.31641H24.7881V9.06641ZM32.2227 9.06641V9.31641H32.7565L32.4147 8.90635L32.2227 9.06641ZM27.8486 3.81836L28.0407 3.6583L27.8123 3.38434L27.6327 3.69242L27.8486 3.81836ZM1.77637 9.06641L1.58431 8.90636L1.24261 9.31641H1.77637V9.06641ZM9.21387 9.06641V9.31641H9.64913L9.42981 8.94044L9.21387 9.06641ZM6.15137 3.81641L6.36731 3.69044L6.18762 3.38239L5.95931 3.65636L6.15137 3.81641ZM10.3203 8.71387L10.1044 8.83985L10.2678 9.11994L10.4971 8.89064L10.3203 8.71387ZM15.6328 3.40137L15.8096 3.57814L16.2364 3.15137H15.6328V3.40137ZM7.2207 3.40137V3.15137H6.7854L7.00477 3.52735L7.2207 3.40137ZM23.6816 8.71387L23.5049 8.89066L23.7342 9.11994L23.8976 8.83983L23.6816 8.71387ZM26.7803 3.40137L26.9962 3.52733L27.2155 3.15137H26.7803V3.40137ZM18.3682 3.40137V3.15137H17.7645L18.1914 3.57816L18.3682 3.40137ZM27.7666 2.26758L27.7668 2.51758C27.7845 2.51757 27.8052 2.5197 27.829 2.52446L27.8779 2.2793L27.9269 2.03414C27.8778 2.02433 27.8236 2.01754 27.7664 2.01758L27.7666 2.26758ZM27.8779 2.2793L27.8288 2.52441C27.8327 2.5252 27.8345 2.52555 27.8366 2.52599C27.8375 2.52617 27.8381 2.52631 27.8385 2.5264C27.839 2.5265 27.8392 2.52654 27.8392 2.52654L27.8965 2.2832L27.9538 2.03987C27.9426 2.03722 27.9314 2.03504 27.9271 2.03418L27.8779 2.2793ZM27.8965 2.2832L27.8393 2.52658C27.8713 2.5341 27.9002 2.54543 27.9255 2.5601L28.0508 2.34375L28.1761 2.1274C28.1048 2.08612 28.0294 2.05762 27.9536 2.03983L27.8965 2.2832ZM28.0508 2.34375L27.9255 2.56009C27.9519 2.57539 27.9775 2.59633 28.0015 2.62308L28.1875 2.45605L28.3735 2.28903C28.3185 2.22776 28.2529 2.17189 28.1761 2.12741L28.0508 2.34375ZM28.1875 2.45605L28.0017 2.62333C28.0081 2.63046 28.0138 2.63609 28.0175 2.63966C28.0194 2.64147 28.021 2.64302 28.0221 2.64405C28.023 2.64483 28.0244 2.64614 28.0244 2.64617C28.0254 2.64713 28.0239 2.64575 28.0218 2.64363C28.0195 2.64133 28.0153 2.63703 28.0104 2.63111L28.2021 2.4707L28.3939 2.3103C28.3867 2.30174 28.3802 2.29492 28.3755 2.29018C28.3709 2.28561 28.3669 2.28187 28.3654 2.28045C28.3629 2.27819 28.3639 2.27912 28.3647 2.27985C28.3659 2.28102 28.3692 2.2842 28.3733 2.28878L28.1875 2.45605ZM28.2021 2.4707L28.0101 2.63074L33.6761 9.43055L33.8682 9.27051L34.0602 9.11047L28.3942 2.31067L28.2021 2.4707ZM33.8682 9.27051L33.6762 9.43065C33.6723 9.42601 33.6697 9.42239 33.6686 9.42075C33.6675 9.41923 33.6671 9.41854 33.6682 9.42019C33.6688 9.4212 33.6691 9.42166 33.6703 9.42346C33.6712 9.42488 33.6725 9.42687 33.6739 9.42907C33.6767 9.43339 33.6811 9.43986 33.6865 9.44717L33.8877 9.29883L34.0889 9.15049C34.091 9.15324 34.0921 9.15499 34.0918 9.1545C34.0908 9.15307 34.0911 9.15347 34.0881 9.14886C34.0846 9.14332 34.0743 9.12736 34.0601 9.11036L33.8682 9.27051ZM33.8877 9.29883L33.6861 9.44663C33.6946 9.45831 33.7026 9.46724 33.7076 9.47265C33.7101 9.47543 33.7123 9.47773 33.7138 9.47924C33.7151 9.48055 33.7166 9.48207 33.7167 9.48219C33.718 9.4835 33.7154 9.48096 33.7122 9.4773C33.7087 9.47336 33.7023 9.4659 33.6953 9.45553L33.9023 9.31543L34.1094 9.17533C34.1003 9.16195 34.0917 9.15164 34.0857 9.14493C34.08 9.13852 34.0749 9.13331 34.0735 9.13195C34.0709 9.12929 34.0729 9.1313 34.0749 9.13345C34.0774 9.13613 34.0829 9.14228 34.0893 9.15102L33.8877 9.29883ZM33.9023 9.31543L33.6958 9.45623C33.6932 9.4525 33.6914 9.44956 33.6905 9.44803C33.6896 9.44662 33.6892 9.44575 33.6897 9.44667C33.6898 9.44687 33.6915 9.44981 33.6929 9.45234C33.6946 9.45527 33.6973 9.4597 33.7006 9.46484L33.9111 9.33008L34.1217 9.19531C34.1235 9.19806 34.1246 9.20005 34.1249 9.20052C34.1249 9.20058 34.1252 9.20104 34.1239 9.19876C34.123 9.19721 34.1211 9.19387 34.1188 9.19002C34.1164 9.18605 34.1131 9.18071 34.1089 9.17463L33.9023 9.31543ZM33.9111 9.33008L33.7001 9.46418C33.6981 9.46095 33.6966 9.45845 33.6959 9.45718C33.6953 9.45601 33.6949 9.45536 33.6954 9.45626C33.6955 9.45641 33.6971 9.45937 33.6983 9.4616C33.6998 9.4643 33.702 9.46836 33.7048 9.47305L33.9199 9.3457L34.1351 9.21835C34.1363 9.22048 34.1371 9.22192 34.1371 9.22201C34.1372 9.22207 34.1371 9.22197 34.1369 9.22151C34.1368 9.22128 34.1366 9.22104 34.1364 9.22067C34.1362 9.22034 34.136 9.21991 34.1358 9.21945C34.1342 9.21647 34.129 9.20684 34.1221 9.19598L33.9111 9.33008ZM33.9199 9.3457L33.7053 9.47385C33.7084 9.47911 33.7114 9.48388 33.7135 9.48726C33.7159 9.49121 33.7171 9.49302 33.7184 9.49518C33.7209 9.49922 33.72 9.49804 33.7182 9.49448L33.9424 9.38379L34.1665 9.2731C34.1583 9.25634 34.1499 9.24241 34.1447 9.23385C34.1366 9.22073 34.138 9.22335 34.1346 9.21755L33.9199 9.3457ZM33.9424 9.38379L33.7181 9.49433C33.7225 9.50305 33.7275 9.51626 33.7354 9.54237L33.9746 9.46973L34.2138 9.39708C34.204 9.36473 34.1895 9.31974 34.1666 9.27325L33.9424 9.38379ZM33.9746 9.46973L33.7354 9.54223C33.7352 9.54158 33.7354 9.54228 33.7362 9.54577C33.7366 9.54749 33.7371 9.54947 33.7378 9.55225C33.7383 9.55469 33.7392 9.55842 33.74 9.5619L33.9834 9.50488L34.2268 9.44786C34.2256 9.4426 34.2204 9.41883 34.2139 9.39723L33.9746 9.46973ZM33.9834 9.50488L33.74 9.56203C33.741 9.56614 33.7422 9.57117 33.7429 9.57403C33.7437 9.57749 33.7443 9.58005 33.7448 9.58227C33.7458 9.58677 33.746 9.58802 33.7459 9.58759L33.9932 9.55078L34.2404 9.51398C34.2362 9.48525 34.2287 9.45607 34.2268 9.44774L33.9834 9.50488ZM33.9932 9.55078L33.7459 9.58742C33.747 9.59503 33.7482 9.60125 33.7491 9.60514C33.7495 9.60712 33.7499 9.60878 33.7501 9.60986C33.7503 9.61079 33.7506 9.61184 33.7506 9.61188C33.7508 9.61271 33.7503 9.61063 33.7497 9.60785C33.7491 9.60484 33.7481 9.59957 33.7472 9.59284L33.9951 9.56055L34.243 9.52825C34.2419 9.51988 34.2406 9.51297 34.2397 9.50834C34.2388 9.50393 34.2379 9.50023 34.2378 9.49944C34.2374 9.49771 34.2378 9.49945 34.2382 9.50132C34.2386 9.50358 34.2396 9.50817 34.2405 9.51414L33.9932 9.55078ZM33.9951 9.56055L33.7472 9.59266C33.7454 9.57885 33.7453 9.56791 33.7453 9.56217C33.7453 9.55913 33.7454 9.55679 33.7455 9.55555C33.7455 9.5544 33.7456 9.55361 33.7455 9.55415C33.7455 9.55423 33.7454 9.55604 33.7453 9.5578C33.7453 9.55977 33.7451 9.56287 33.745 9.5666C33.7449 9.57372 33.7449 9.58605 33.7465 9.60111L33.9951 9.5752L34.2438 9.54928C34.2451 9.56199 34.245 9.57191 34.2449 9.57657C34.2449 9.57907 34.2448 9.58094 34.2448 9.58167C34.2448 9.58219 34.2447 9.58275 34.2448 9.58159C34.2448 9.58089 34.2449 9.57885 34.245 9.57646C34.2451 9.57398 34.2453 9.5704 34.2453 9.56614C34.2454 9.55794 34.2451 9.54459 34.243 9.52843L33.9951 9.56055ZM33.9951 9.5752L33.7465 9.60131C33.7485 9.62048 33.749 9.62793 33.749 9.63301L33.999 9.63184L34.249 9.63066C34.2489 9.59771 34.2457 9.56763 34.2438 9.54908L33.9951 9.5752ZM33.999 9.63184L33.749 9.63267C33.749 9.6279 33.7493 9.62488 33.7491 9.62751C33.7491 9.62809 33.749 9.62865 33.749 9.6297C33.7489 9.63062 33.7488 9.6319 33.7487 9.63329C33.7486 9.63604 33.7484 9.64004 33.7482 9.64465L33.998 9.65332L34.2479 9.66199C34.2479 9.66302 34.2478 9.66344 34.2479 9.66261C34.2479 9.6622 34.2479 9.6617 34.248 9.66083C34.248 9.66009 34.2481 9.65886 34.2482 9.65766C34.2485 9.65313 34.2491 9.64296 34.249 9.631L33.999 9.63184ZM33.998 9.65332L33.7482 9.64505C33.7479 9.65462 33.748 9.66281 33.7481 9.66832C33.7482 9.6711 33.7483 9.67361 33.7483 9.67539C33.7484 9.67766 33.7484 9.67819 33.7485 9.67945C33.7485 9.68146 33.7485 9.68053 33.7485 9.6785C33.7485 9.67628 33.7486 9.67163 33.7492 9.66541L33.998 9.68945L34.2469 9.71349C34.2491 9.69027 34.2484 9.67043 34.2482 9.66333C34.248 9.65754 34.248 9.65813 34.248 9.65637C34.248 9.65585 34.248 9.65803 34.2479 9.66159L33.998 9.65332ZM33.998 9.68945L33.7492 9.66527C33.75 9.65676 33.7512 9.65025 33.7519 9.64678C33.7526 9.64358 33.7531 9.64148 33.7527 9.64309C33.7527 9.64313 33.7521 9.64539 33.7519 9.64661C33.7514 9.64831 33.7509 9.65081 33.7502 9.65371C33.749 9.65941 33.7471 9.66828 33.7456 9.67901L33.9932 9.71387L34.2407 9.74873C34.2398 9.75536 34.2388 9.76017 34.2384 9.76181C34.2382 9.76274 34.2379 9.7641 34.2388 9.76027C34.2394 9.75783 34.2408 9.75168 34.2423 9.74441C34.2438 9.73686 34.2456 9.72626 34.2469 9.71364L33.998 9.68945ZM33.9932 9.71387L33.7457 9.67844C33.745 9.6831 33.7445 9.68632 33.7441 9.6888L33.9902 9.73242L34.2364 9.77605C34.2381 9.76617 34.2395 9.75705 34.2406 9.7493L33.9932 9.71387ZM33.9902 9.73242L33.7439 9.6895C33.7426 9.69704 33.7404 9.70658 33.7366 9.72033L33.9775 9.78711L34.2185 9.85389C34.2247 9.83149 34.2314 9.80485 34.2365 9.77535L33.9902 9.73242ZM33.9775 9.78711L33.7369 9.71929C33.7362 9.72176 33.7355 9.72425 33.7351 9.72597C33.7345 9.72789 33.7341 9.72921 33.7338 9.73037C33.7331 9.73272 33.733 9.73303 33.7332 9.7324L33.9707 9.81055L34.2082 9.88869C34.213 9.87416 34.2174 9.85757 34.2182 9.85493L33.9775 9.78711ZM33.9707 9.81055L33.7329 9.73354C33.72 9.77311 33.7041 9.80412 33.686 9.82787L33.8848 9.97949L34.0835 10.1311C34.1429 10.0533 34.1823 9.96877 34.2085 9.88755L33.9707 9.81055ZM33.8848 9.97949L33.686 9.82782L17.2524 31.36L17.4512 31.5117L17.6499 31.6634L34.0835 10.1312L33.8848 9.97949ZM17.4512 31.5117L17.253 31.3593C17.26 31.3502 17.2663 31.3435 17.2705 31.3393C17.2746 31.3352 17.2777 31.3325 17.2782 31.332C17.2786 31.3318 17.2787 31.3317 17.2781 31.3322C17.2779 31.3324 17.2763 31.3337 17.2752 31.3346C17.2727 31.3368 17.2675 31.3413 17.2615 31.347L17.4336 31.5283L17.6057 31.7096C17.6026 31.7126 17.6004 31.7144 17.601 31.7139C17.6014 31.7136 17.6014 31.7136 17.6028 31.7124C17.6037 31.7116 17.6054 31.7102 17.6072 31.7086C17.6134 31.7031 17.6315 31.6873 17.6493 31.6642L17.4512 31.5117ZM17.4336 31.5283L17.2418 31.368C17.2243 31.3889 17.2043 31.4074 17.1814 31.4234L17.3252 31.6279L17.469 31.8324C17.5273 31.7914 17.5796 31.7434 17.6254 31.6887L17.4336 31.5283ZM17.3252 31.6279L17.1752 31.4279C17.1636 31.4367 17.1564 31.4419 17.1501 31.4462C17.1442 31.4501 17.1416 31.4515 17.1412 31.4517L17.252 31.6758L17.3627 31.8999C17.4125 31.8753 17.4531 31.8445 17.4752 31.8279L17.3252 31.6279ZM17.252 31.6758L17.1414 31.4516C17.1483 31.4482 17.1537 31.4461 17.1564 31.445C17.159 31.444 17.1605 31.4436 17.1589 31.4441C17.1579 31.4444 17.1574 31.4446 17.1554 31.4452C17.1538 31.4458 17.1514 31.4465 17.1488 31.4474C17.1436 31.4491 17.1355 31.4519 17.1262 31.4557L17.2197 31.6875L17.3133 31.9193C17.3111 31.9202 17.3094 31.9208 17.3084 31.9212C17.3078 31.9214 17.3074 31.9216 17.3071 31.9216C17.307 31.9217 17.3069 31.9217 17.3068 31.9218C17.3068 31.9218 17.3067 31.9218 17.3067 31.9218C17.3067 31.9218 17.3067 31.9218 17.3068 31.9218C17.3069 31.9217 17.307 31.9217 17.3071 31.9217C17.3074 31.9216 17.3078 31.9215 17.3083 31.9213C17.309 31.9211 17.3113 31.9203 17.313 31.9198C17.3196 31.9176 17.3399 31.9111 17.3625 31.9L17.252 31.6758ZM17.2197 31.6875L17.1209 31.4579C17.0841 31.4737 17.0456 31.4819 17.0065 31.4824L17.0098 31.7324L17.013 31.9824C17.1191 31.981 17.2225 31.9585 17.3185 31.9171L17.2197 31.6875ZM17.0098 31.7324L16.9509 31.4894C16.9445 31.491 16.9393 31.4925 16.938 31.4929C16.9352 31.4937 16.9382 31.4928 16.9406 31.4922C16.946 31.4907 16.9671 31.4851 16.9954 31.4844L17.001 31.7344L17.0066 31.9843C17.0378 31.9836 17.0619 31.9773 17.0702 31.9751C17.074 31.9741 17.0785 31.9728 17.0771 31.9731C17.0771 31.9732 17.0761 31.9734 17.0748 31.9738C17.0734 31.9742 17.0713 31.9748 17.0686 31.9754L17.0098 31.7324ZM17.001 31.7344L17.0007 31.4844C16.9505 31.4844 16.9002 31.4722 16.8553 31.4489L16.7402 31.6709L16.6252 31.8929C16.7411 31.9529 16.8704 31.9845 17.0013 31.9844L17.001 31.7344ZM16.7402 31.6709L16.8555 31.4491C16.8483 31.4453 16.8372 31.438 16.8128 31.419L16.6592 31.6162L16.5055 31.8134C16.5323 31.8343 16.574 31.8663 16.6249 31.8927L16.7402 31.6709ZM16.6592 31.6162L16.8107 31.4174C16.8041 31.4124 16.7981 31.4074 16.7922 31.4022L16.626 31.5889L16.4597 31.7756C16.4754 31.7895 16.4913 31.8026 16.5076 31.815L16.6592 31.6162ZM16.626 31.5889L16.7922 31.4021C16.7882 31.3986 16.7845 31.3953 16.7818 31.393C16.7787 31.3903 16.7769 31.3888 16.7752 31.3873C16.7718 31.3843 16.7721 31.3843 16.7736 31.386L16.5938 31.5596L16.4139 31.7332C16.4256 31.7453 16.4365 31.7552 16.444 31.7618C16.4603 31.7762 16.4487 31.7658 16.4598 31.7756L16.626 31.5889ZM16.5938 31.5596L16.774 31.3864C16.774 31.3864 16.7737 31.3861 16.773 31.3853C16.7723 31.3845 16.7713 31.3833 16.7699 31.3817C16.7666 31.3778 16.7638 31.3743 16.758 31.3671L16.5645 31.5254L16.371 31.6837C16.3776 31.6918 16.3945 31.713 16.4135 31.7328L16.5938 31.5596ZM16.5645 31.5254L16.7576 31.3667C16.7596 31.3691 16.761 31.3709 16.7613 31.3713C16.7614 31.3715 16.7615 31.3716 16.7614 31.3714C16.7613 31.3713 16.7609 31.3708 16.7605 31.3702C16.7597 31.3692 16.7579 31.3669 16.7556 31.3641C16.7533 31.3613 16.7499 31.3571 16.7455 31.3523L16.5605 31.5205L16.3756 31.6887C16.3719 31.6846 16.3691 31.6813 16.3675 31.6793C16.3659 31.6773 16.3647 31.6758 16.3646 31.6756C16.3645 31.6755 16.3644 31.6754 16.3647 31.6757C16.3648 31.6759 16.3652 31.6765 16.3657 31.6771C16.3667 31.6783 16.3687 31.6809 16.3713 31.6841L16.5645 31.5254ZM16.5605 31.5205L16.7557 31.3643C16.7459 31.352 16.7369 31.3429 16.7312 31.3375C16.7283 31.3347 16.7258 31.3325 16.7243 31.3311C16.7229 31.3298 16.7214 31.3286 16.7214 31.3285C16.7211 31.3282 16.7218 31.3288 16.7228 31.3298C16.7239 31.3307 16.7258 31.3325 16.7282 31.3349C16.7329 31.3395 16.7409 31.3478 16.7497 31.3593L16.5508 31.5107L16.3519 31.6622C16.362 31.6755 16.3716 31.6854 16.3779 31.6917C16.3812 31.6949 16.384 31.6975 16.3859 31.6992C16.3877 31.7009 16.3893 31.7023 16.3898 31.7028C16.3907 31.7035 16.3901 31.703 16.3896 31.7025C16.3889 31.7019 16.3873 31.7004 16.3852 31.6985C16.3812 31.6946 16.3737 31.6872 16.3654 31.6767L16.5605 31.5205ZM16.5508 31.5107L16.7495 31.3591L0.315924 9.82587L0.117188 9.97754L-0.0815487 10.1292L16.352 31.6624L16.5508 31.5107ZM0.117188 9.97754L0.315885 9.82582C0.321052 9.83258 0.324737 9.83822 0.326787 9.84147C0.328676 9.84446 0.33001 9.84678 0.329461 9.84584C0.329432 9.84579 0.328747 9.84462 0.328133 9.84358C0.327424 9.84238 0.32633 9.84054 0.324994 9.83837C0.322375 9.83412 0.318098 9.82739 0.312399 9.81957L0.110352 9.9668L-0.091696 10.114C-0.0961487 10.1079 -0.0992694 10.103 -0.100775 10.1005C-0.102011 10.0985 -0.103123 10.0966 -0.101982 10.0985C-0.101455 10.0994 -0.0990401 10.1036 -0.0960182 10.1084C-0.092834 10.1134 -0.0879632 10.1208 -0.0815103 10.1293L0.117188 9.97754ZM0.110352 9.9668L0.312109 9.81917C0.304614 9.80893 0.298759 9.80003 0.294036 9.79194L0.078125 9.91797L-0.137786 10.044C-0.122751 10.0698 -0.106972 10.0932 -0.0914061 10.1144L0.110352 9.9668ZM0.078125 9.91797L0.294236 9.79229C0.292079 9.78858 0.29016 9.78543 0.288853 9.7833C0.287885 9.78173 0.286203 9.77903 0.286176 9.77898C0.284983 9.77706 0.28679 9.77988 0.289145 9.78422L0.0693359 9.90332L-0.150473 10.0224C-0.145407 10.0318 -0.140637 10.0394 -0.138829 10.0424C-0.137356 10.0447 -0.137529 10.0445 -0.137004 10.0453C-0.136818 10.0456 -0.137261 10.0449 -0.137986 10.0437L0.078125 9.91797ZM0.0693359 9.90332L0.288946 9.78386C0.287019 9.78031 0.28517 9.77699 0.28385 9.77461C0.282367 9.77194 0.281484 9.77036 0.28065 9.76883C0.279008 9.76583 0.279166 9.76598 0.279932 9.76761L0.0537109 9.87402L-0.17251 9.98044C-0.16702 9.99211 -0.161691 10.0021 -0.158023 10.0088C-0.149822 10.0238 -0.155919 10.0124 -0.150274 10.0228L0.0693359 9.90332ZM0.0537109 9.87402L0.28003 9.76782C0.28202 9.77206 0.283304 9.77525 0.283863 9.77668C0.284383 9.77801 0.284575 9.77859 0.284057 9.77714C0.283746 9.77627 0.283586 9.77582 0.283033 9.77427C0.282588 9.77302 0.281963 9.77127 0.281259 9.76934C0.279876 9.76554 0.277757 9.75985 0.275058 9.75331L0.0439453 9.84863L-0.187167 9.94396C-0.18816 9.94155 -0.188682 9.94009 -0.18851 9.94056C-0.188022 9.9419 -0.188172 9.94152 -0.186701 9.94563C-0.184931 9.95057 -0.179968 9.96455 -0.172608 9.98023L0.0537109 9.87402ZM0.0439453 9.84863L0.275197 9.75365C0.272753 9.74769 0.270511 9.74274 0.269008 9.73948C0.267739 9.73673 0.266141 9.73337 0.266056 9.73319C0.265569 9.73216 0.266002 9.73305 0.266688 9.7346C0.26743 9.73629 0.268839 9.73957 0.270472 9.74396L0.0361328 9.83105L-0.198206 9.91815C-0.195457 9.92554 -0.192818 9.93178 -0.190782 9.9364C-0.188802 9.94089 -0.187013 9.94469 -0.18613 9.94656C-0.185893 9.94706 -0.185665 9.94754 -0.185503 9.94789C-0.185323 9.94827 -0.185208 9.94851 -0.185104 9.94873C-0.184894 9.94917 -0.184893 9.94918 -0.184985 9.94898C-0.185144 9.94864 -0.186079 9.94661 -0.187307 9.94362L0.0439453 9.84863ZM0.0361328 9.83105L0.270358 9.74366C0.256476 9.70645 0.24984 9.66655 0.250894 9.62557L0.000976562 9.61914L-0.248941 9.61271C-0.251605 9.71631 -0.234824 9.82001 -0.198092 9.91845L0.0361328 9.83105ZM0.000976562 9.61914L0.250897 9.62545C0.250854 9.62714 0.250783 9.62742 0.251013 9.62448C0.25113 9.62298 0.25126 9.62145 0.251482 9.6188C0.25168 9.61644 0.251955 9.61315 0.252221 9.60964L0.00292969 9.59082L-0.246361 9.572C-0.246958 9.57992 -0.246479 9.5729 -0.247461 9.58545C-0.24797 9.59195 -0.248662 9.60167 -0.248944 9.61283L0.000976562 9.61914ZM0.00292969 9.59082L0.252207 9.60981C0.252664 9.60382 0.252933 9.59855 0.253101 9.59495C0.253186 9.59313 0.25326 9.5914 0.253313 9.59016C0.253373 9.58877 0.253409 9.58792 0.253446 9.5871C0.25352 9.58548 0.253533 9.5855 0.253479 9.58625C0.25342 9.58706 0.253237 9.58939 0.252805 9.59271L0.00488281 9.56055L-0.243039 9.52838C-0.245092 9.5442 -0.245742 9.55793 -0.246031 9.56425C-0.24611 9.56598 -0.246182 9.56767 -0.246231 9.56882C-0.246287 9.57012 -0.246322 9.57093 -0.246355 9.57164C-0.246423 9.57309 -0.246426 9.57285 -0.246348 9.57183L0.00292969 9.59082ZM0.00488281 9.56055L0.252782 9.59289C0.252697 9.59354 0.252704 9.59338 0.253009 9.59151C0.25316 9.59058 0.253334 9.58954 0.253595 9.58798C0.25383 9.58659 0.254165 9.58459 0.254499 9.58256L0.0078125 9.54199L-0.238874 9.50143C-0.239123 9.50294 -0.24149 9.5165 -0.243016 9.5282L0.00488281 9.56055ZM0.0078125 9.54199L0.254543 9.58229C0.254348 9.58348 0.254323 9.58337 0.254947 9.58048C0.255258 9.57904 0.255609 9.57746 0.256154 9.575C0.256643 9.57281 0.257334 9.5697 0.258028 9.56649L0.0136719 9.51367L-0.230685 9.46085C-0.231004 9.46233 -0.235995 9.4838 -0.238918 9.50169L0.0078125 9.54199ZM0.0136719 9.51367L0.257958 9.56681C0.259821 9.55825 0.262321 9.54894 0.265622 9.53854L0.0273438 9.46289L-0.210934 9.38724C-0.218247 9.41027 -0.224996 9.4347 -0.230615 9.46053L0.0136719 9.51367ZM0.0273438 9.46289L0.265753 9.53813C0.269685 9.52567 0.270401 9.52347 0.271068 9.5217L0.0371094 9.43359L-0.196849 9.34548C-0.203447 9.363 -0.208808 9.3805 -0.211066 9.38765L0.0273438 9.46289ZM0.0371094 9.43359L0.270894 9.52216C0.275081 9.51111 0.278096 9.50395 0.280581 9.49871L0.0546875 9.3916L-0.171206 9.28449C-0.181736 9.3067 -0.190097 9.32766 -0.196675 9.34502L0.0371094 9.43359ZM0.0546875 9.3916L0.273227 9.51301L0.27811 9.50422L0.0595703 9.38281L-0.158969 9.2614L-0.163852 9.27019L0.0546875 9.3916ZM0.0595703 9.38281L0.283678 9.49361C0.28791 9.48505 0.289939 9.48115 0.291287 9.47874L0.0732422 9.35645L-0.144803 9.23415C-0.153055 9.24886 -0.160043 9.26293 -0.164538 9.27202L0.0595703 9.38281ZM0.0732422 9.35645L0.291043 9.47918C0.297044 9.46853 0.300683 9.46254 0.303443 9.45842L0.0957031 9.31934L-0.112036 9.18025C-0.125403 9.20022 -0.136366 9.21918 -0.144559 9.23372L0.0732422 9.35645ZM0.0957031 9.31934L0.303759 9.45795C0.305554 9.45525 0.308412 9.4513 0.315325 9.44219L0.116211 9.29102L-0.0829033 9.13984C-0.0900745 9.14929 -0.10121 9.164 -0.112352 9.18073L0.0957031 9.31934ZM0.116211 9.29102L0.314947 9.44269C0.317356 9.43953 0.319497 9.43665 0.321001 9.43461C0.322926 9.43201 0.323382 9.43139 0.324478 9.42991C0.326288 9.42748 0.325511 9.42862 0.323557 9.43095L0.131836 9.27051L-0.0598848 9.11006C-0.0672832 9.1189 -0.0733068 9.12693 -0.0766658 9.13145C-0.0815801 9.13805 -0.0810865 9.13746 -0.0825246 9.13934L0.116211 9.29102ZM0.131836 9.27051L0.323898 9.43055L5.98991 2.63074L5.79785 2.4707L5.60579 2.31067L-0.0602262 9.11047L0.131836 9.27051ZM5.79785 2.4707L5.97463 2.64748L6.01174 2.61037L5.83496 2.43359L5.65818 2.25682L5.62107 2.29393L5.79785 2.4707ZM5.83496 2.43359L6.0116 2.6105C6.01479 2.60732 6.01839 2.6039 6.02253 2.60014L5.85449 2.41504L5.68646 2.22993C5.67731 2.23824 5.66787 2.24714 5.65832 2.25668L5.83496 2.43359ZM5.85449 2.41504L6.02214 2.60049C6.03503 2.58885 6.0455 2.58051 6.05466 2.57422L5.91309 2.36816L5.77151 2.16211C5.73929 2.18425 5.71122 2.20755 5.68684 2.22958L5.85449 2.41504ZM5.91309 2.36816L6.0552 2.57384C6.06235 2.5689 6.07262 2.56283 6.08974 2.55394L5.97461 2.33203L5.85947 2.11012C5.83431 2.12318 5.80304 2.14033 5.77097 2.16249L5.91309 2.36816ZM5.97461 2.33203L6.08906 2.5543C6.09735 2.55003 6.10408 2.54608 6.1084 2.54347C6.1106 2.54214 6.11248 2.54098 6.11376 2.54018C6.1144 2.53978 6.11499 2.53942 6.11541 2.53915C6.1159 2.53884 6.11611 2.53871 6.11638 2.53854C6.11757 2.5378 6.11596 2.53883 6.11348 2.54026C6.11079 2.54182 6.10579 2.5446 6.09912 2.54773L5.99316 2.32129L5.88721 2.09485C5.8773 2.09949 5.86916 2.10397 5.86337 2.10731C5.85779 2.11053 5.85314 2.11344 5.85129 2.1146C5.84839 2.11642 5.84944 2.11576 5.85015 2.11533C5.8514 2.11457 5.85504 2.1124 5.86016 2.10977L5.97461 2.33203ZM5.99316 2.32129L6.09901 2.54778C6.09622 2.54908 6.09449 2.54977 6.09629 2.54902C6.09666 2.54886 6.09705 2.5487 6.09769 2.54844C6.09827 2.5482 6.09906 2.54787 6.09991 2.54751C6.10158 2.54682 6.10402 2.54579 6.1068 2.54458L6.00684 2.31543L5.90688 2.08628C5.90742 2.08605 5.90759 2.08598 5.90697 2.08624C5.90666 2.08637 5.90631 2.08651 5.90573 2.08675C5.90523 2.08696 5.90446 2.08728 5.90368 2.08761C5.90086 2.08878 5.89453 2.09143 5.88732 2.0948L5.99316 2.32129ZM6.00684 2.31543L6.10754 2.54425C6.1254 2.53639 6.14308 2.53037 6.1604 2.52618L6.10156 2.2832L6.04273 2.04022C5.99484 2.05182 5.94918 2.06766 5.90613 2.08661L6.00684 2.31543ZM6.10156 2.2832L6.15958 2.52638C6.15638 2.52714 6.15401 2.5276 6.15292 2.52781C6.15192 2.52799 6.15153 2.52805 6.15269 2.52786C6.15333 2.52775 6.15382 2.52768 6.155 2.52748C6.156 2.52732 6.1574 2.52709 6.15894 2.52684C6.16198 2.52633 6.16646 2.52555 6.17164 2.52453L6.12305 2.2793L6.07445 2.03406C6.07606 2.03375 6.07695 2.0336 6.0764 2.0337C6.07496 2.03394 6.07548 2.03384 6.07188 2.03443C6.06749 2.03515 6.0564 2.03696 6.04354 2.04003L6.10156 2.2832ZM6.12305 2.2793L6.17246 2.52437C6.19475 2.51987 6.21455 2.51771 6.23243 2.51757L6.23047 2.26758L6.2285 2.01759C6.17338 2.01802 6.12143 2.02459 6.07364 2.03423L6.12305 2.2793ZM6.23047 2.26758V2.51758H27.7666V2.26758V2.01758H6.23047V2.26758ZM17 29.2842L17.2384 29.3595L23.2667 10.2755L23.0283 10.2002L22.7899 10.1249L16.7616 29.2089L17 29.2842ZM23.0283 10.2002V9.9502H10.9736V10.2002V10.4502H23.0283V10.2002ZM10.9736 10.2002L10.7352 10.2755L16.7616 29.3595L17 29.2842L17.2384 29.2089L11.212 10.1249L10.9736 10.2002ZM18.5176 28.2441L18.7163 28.3958L32.4868 10.3528L32.2881 10.2012L32.0894 10.0495L18.3188 28.0925L18.5176 28.2441ZM32.2881 10.2012V9.95117H24.2158V10.2012V10.4512H32.2881V10.2012ZM24.2158 10.2012L23.9774 10.1259L18.2792 28.1689L18.5176 28.2441L18.756 28.3194L24.4542 10.2765L24.2158 10.2012ZM15.4824 28.2432L15.7208 28.1679L10.0236 10.1259L9.78516 10.2012L9.54676 10.2765L15.244 28.3184L15.4824 28.2432ZM9.78516 10.2012V9.95117H1.71387V10.2012V10.4512H9.78516V10.2012ZM1.71387 10.2012L1.51513 10.3528L15.2837 28.3948L15.4824 28.2432L15.6812 28.0915L1.91261 10.0495L1.71387 10.2012ZM11.5713 9.06641V9.31641H22.4307V9.06641V8.81641H11.5713V9.06641ZM22.4307 9.06641L22.6075 8.88965L17.1778 3.45898L17.001 3.63574L16.8242 3.8125L22.2539 9.24317L22.4307 9.06641ZM17.001 3.63574L16.8242 3.45898L11.3945 8.88965L11.5713 9.06641L11.7481 9.24317L17.1778 3.8125L17.001 3.63574ZM24.7881 9.06641V9.31641H32.2227V9.06641V8.81641H24.7881V9.06641ZM32.2227 9.06641L32.4147 8.90635L28.0407 3.6583L27.8486 3.81836L27.6566 3.97842L32.0306 9.22647L32.2227 9.06641ZM27.8486 3.81836L27.6327 3.69242L24.5721 8.94046L24.7881 9.06641L25.004 9.19235L28.0646 3.9443L27.8486 3.81836ZM1.77637 9.06641V9.31641H9.21387V9.06641V8.81641H1.77637V9.06641ZM9.21387 9.06641L9.42981 8.94044L6.36731 3.69044L6.15137 3.81641L5.93542 3.94237L8.99792 9.19237L9.21387 9.06641ZM6.15137 3.81641L5.95931 3.65636L1.58431 8.90636L1.77637 9.06641L1.96842 9.22645L6.34342 3.97645L6.15137 3.81641ZM10.3203 8.71387L10.4971 8.89064L15.8096 3.57814L15.6328 3.40137L15.456 3.22459L10.1435 8.53709L10.3203 8.71387ZM15.6328 3.40137V3.15137H7.2207V3.40137V3.65137H15.6328V3.40137ZM7.2207 3.40137L7.00477 3.52735L10.1044 8.83985L10.3203 8.71387L10.5362 8.58788L7.43664 3.27538L7.2207 3.40137ZM23.6816 8.71387L23.8976 8.83983L26.9962 3.52733L26.7803 3.40137L26.5643 3.27541L23.4657 8.58791L23.6816 8.71387ZM26.7803 3.40137V3.15137H18.3682V3.40137V3.65137H26.7803V3.40137ZM18.3682 3.40137L18.1914 3.57816L23.5049 8.89066L23.6816 8.71387L23.8584 8.53707L18.5449 3.22457L18.3682 3.40137Z" fill="#021A60"/>
</g>
<defs>
<clipPath id="clip0_858_3873">
<rect width="34" height="34" fill="white"/>
</clipPath>
</defs>
</svg>
