<?xml version="1.0" encoding="utf-8"?>
<!-- Generator: Adobe Illustrator 26.3.1, SVG Export Plug-In . SVG Version: 6.00 Build 0)  -->
<svg version="1.1" id="Layer_1" xmlns="http://www.w3.org/2000/svg" xmlns:xlink="http://www.w3.org/1999/xlink" x="0px" y="0px"
	 viewBox="0 0 91.64 91.64" style="enable-background:new 0 0 91.64 91.64;" xml:space="preserve">
<style type="text/css">
	.st0{fill-rule:evenodd;clip-rule:evenodd;fill:#FF5A1F;}
	.st1{fill-rule:evenodd;clip-rule:evenodd;fill:#032DA6;}
	.st2{fill:#032DA6;}
	.st3{fill:#FF5A1F;}
	.st4{fill:none;stroke:#032DA6;stroke-width:1.2;stroke-linecap:round;stroke-linejoin:round;stroke-miterlimit:10;}
	.st5{fill:none;stroke:#FF5A1F;stroke-width:1.2;stroke-linecap:round;stroke-linejoin:round;stroke-miterlimit:10;}
	.st6{fill:none;stroke:#032DA6;stroke-width:1.1582;stroke-linecap:round;stroke-linejoin:round;stroke-miterlimit:10;}
	.st7{fill:none;stroke:#FF5A1F;stroke-width:1.1582;stroke-linecap:round;stroke-linejoin:round;stroke-miterlimit:10;}
</style>
<g>
	<g>
		<path class="st3" d="M60.79,58.74c-0.28,0-0.5-0.22-0.5-0.5V37.61l-16.81-9.77c-0.24-0.14-0.32-0.44-0.18-0.68
			c0.14-0.24,0.45-0.32,0.68-0.18l17.06,9.92c0.15,0.09,0.25,0.25,0.25,0.43v20.92C61.29,58.52,61.06,58.74,60.79,58.74z"/>
	</g>
	<g>
		<path class="st3" d="M58.77,60c-0.28,0-0.5-0.22-0.5-0.5V38.87l-16.81-9.78c-0.24-0.14-0.32-0.44-0.18-0.68
			c0.14-0.24,0.45-0.32,0.68-0.18l17.06,9.93c0.15,0.09,0.25,0.25,0.25,0.43V59.5C59.27,59.78,59.05,60,58.77,60z"/>
	</g>
	<g>
		<path class="st3" d="M56.69,61.32c-0.09,0-0.17-0.02-0.25-0.07l-17.17-9.91c-0.15-0.09-0.25-0.25-0.25-0.43l-0.14-20.38
			c0-0.28,0.22-0.5,0.5-0.5c0.01,0,0.02,0,0.03,0c0.01-0.07,0.03-0.14,0.07-0.2c0.14-0.24,0.44-0.32,0.68-0.18l16.78,9.82
			c0.15,0.09,0.25,0.25,0.25,0.43v20.92c0,0.18-0.1,0.34-0.25,0.43C56.86,61.3,56.78,61.32,56.69,61.32z M40.02,50.63l16.18,9.33
			V40.19l-16.31-9.54L40.02,50.63z"/>
	</g>
	<g>
		<path class="st2" d="M38.97,30.79h-2.58c-0.1,0-0.19-0.03-0.27-0.08l-5.95-3.91c-0.14-0.09-0.23-0.25-0.23-0.42
			s0.08-0.33,0.23-0.42l6.25-4.09c0.16-0.1,0.36-0.11,0.53-0.01l7.81,4.63C44.9,26.58,45,26.75,45,26.92c0,0.18-0.09,0.34-0.24,0.43
			l-5.53,3.37C39.15,30.77,39.06,30.79,38.97,30.79z M36.53,29.79h2.29l4.7-2.86l-6.83-4.05l-5.35,3.5L36.53,29.79z"/>
	</g>
	<g>
		<path class="st2" d="M56.34,76.17c-0.09,0-0.17-0.02-0.25-0.07L26.34,59.03c-0.16-0.09-0.25-0.25-0.25-0.43V21.4
			c0-0.17,0.09-0.34,0.24-0.43l7.45-4.51c0.16-0.09,0.35-0.1,0.51,0l8.9,5.17c0.15,0.09,0.24,0.24,0.25,0.41
			c0.01,0.17-0.08,0.33-0.22,0.43l-2.92,1.99c-0.22,0.16-0.54,0.1-0.69-0.13c-0.16-0.23-0.1-0.54,0.13-0.69L42,22.09l-7.95-4.62
			l-6.96,4.21v36.63l29.25,16.78l8.22-4.82V59.23l-2.21-1.42l-5.33,3.4l-2.11,2.3c-0.16,0.17-0.42,0.21-0.62,0.09L36.31,53.02
			c-0.15-0.09-0.25-0.25-0.25-0.43v-22.3c0-0.28,0.22-0.5,0.5-0.5s0.5,0.22,0.5,0.5V52.3l17.38,10.23l1.88-2.05
			c0.03-0.03,0.06-0.06,0.1-0.08l5.66-3.6c0.16-0.1,0.38-0.11,0.54,0l2.71,1.74c0.14,0.09,0.23,0.25,0.23,0.42v11.6
			c0,0.18-0.09,0.34-0.25,0.43l-8.72,5.11C56.51,76.15,56.43,76.17,56.34,76.17z"/>
	</g>
	<g>
		<path class="st2" d="M56.28,76.17c-0.28,0-0.5-0.22-0.5-0.5v-6.73c0-0.28,0.22-0.5,0.5-0.5s0.5,0.22,0.5,0.5v6.73
			C56.78,75.95,56.55,76.17,56.28,76.17z"/>
	</g>
	<g>
		<path class="st2" d="M54.66,70.4c-0.08,0-0.17-0.02-0.25-0.06c-0.16-0.09-0.25-0.25-0.25-0.44v-6.73c0-0.28,0.22-0.5,0.5-0.5
			s0.5,0.22,0.5,0.5v5.85l6.69-4.03v-7.77c0-0.28,0.22-0.5,0.5-0.5s0.5,0.22,0.5,0.5v8.05c0,0.18-0.09,0.34-0.24,0.43l-7.69,4.63
			C54.83,70.38,54.74,70.4,54.66,70.4z"/>
	</g>
	<g>
		<path class="st2" d="M62.35,61.09c-0.17,0-0.33-0.09-0.43-0.24c-0.14-0.24-0.07-0.54,0.17-0.69l2.71-1.63
			c0.23-0.14,0.54-0.07,0.69,0.17c0.14,0.24,0.07,0.54-0.17,0.69l-2.71,1.63C62.53,61.07,62.44,61.09,62.35,61.09z"/>
	</g>
	<g>
		<path class="st2" d="M54.66,70.4c-0.08,0-0.17-0.02-0.25-0.07l-24.3-13.88c-0.16-0.09-0.25-0.25-0.25-0.43V26.5
			c0-0.28,0.22-0.5,0.5-0.5s0.5,0.22,0.5,0.5v29.22L54.9,69.47c0.24,0.14,0.32,0.44,0.19,0.68C55,70.31,54.83,70.4,54.66,70.4z"/>
	</g>
	<g>
		<path class="st2" d="M32.29,25.67c-0.1,0-0.19-0.03-0.28-0.08l-5.7-3.77c-0.23-0.15-0.29-0.46-0.14-0.69
			c0.15-0.23,0.46-0.29,0.69-0.14l5.7,3.77c0.23,0.15,0.29,0.46,0.14,0.69C32.61,25.59,32.45,25.67,32.29,25.67z"/>
	</g>
	<g>
		<path class="st2" d="M42.93,26.46c-0.28,0-0.5-0.22-0.5-0.5v-3.9c0-0.28,0.22-0.5,0.5-0.5s0.5,0.22,0.5,0.5v3.9
			C43.43,26.23,43.21,26.46,42.93,26.46z"/>
	</g>
</g>
</svg>
