<?xml version="1.0" encoding="utf-8"?>
<!-- Generator: Adobe Illustrator 26.3.1, SVG Export Plug-In . SVG Version: 6.00 Build 0)  -->
<svg version="1.1" id="Layer_1" xmlns="http://www.w3.org/2000/svg" xmlns:xlink="http://www.w3.org/1999/xlink" x="0px" y="0px"
	 viewBox="0 0 91.64 91.64" style="enable-background:new 0 0 91.64 91.64;" xml:space="preserve">
<style type="text/css">
	.st0{fill-rule:evenodd;clip-rule:evenodd;fill:#FF5A1F;}
	.st1{fill-rule:evenodd;clip-rule:evenodd;fill:#032DA6;}
	.st2{fill:#032DA6;}
	.st3{fill:#FF5A1F;}
	.st4{fill:none;stroke:#032DA6;stroke-width:1.2;stroke-linecap:round;stroke-linejoin:round;stroke-miterlimit:10;}
	.st5{fill:none;stroke:#FF5A1F;stroke-width:1.2;stroke-linecap:round;stroke-linejoin:round;stroke-miterlimit:10;}
	.st6{fill:none;stroke:#032DA6;stroke-width:1.1582;stroke-linecap:round;stroke-linejoin:round;stroke-miterlimit:10;}
	.st7{fill:none;stroke:#FF5A1F;stroke-width:1.1582;stroke-linecap:round;stroke-linejoin:round;stroke-miterlimit:10;}
</style>
<g>
	<polyline class="st4" points="37.34,66.21 23.46,66.21 23.46,33.69 	"/>
	<polyline class="st4" points="67.8,33.69 67.8,66.21 46.1,66.21 	"/>
	<polyline class="st4" points="72.61,36.57 45.63,19.3 18.64,36.57 	"/>
	<polyline class="st4" points="54.25,24.69 54.25,21.04 60.36,21.04 60.36,28.76 	"/>
	<circle class="st4" cx="45.63" cy="26.25" r="3.07"/>
	<path class="st5" d="M45.59,32.91L45.59,32.91c-2.91,0-5.27,2.36-5.27,5.27v6.02h10.54v-6.02C50.86,35.27,48.5,32.91,45.59,32.91z"
		/>
	<line class="st5" x1="47.41" y1="36.33" x2="44.01" y2="36.33"/>
	<line class="st5" x1="47.41" y1="38.53" x2="44.01" y2="38.53"/>
	<line class="st5" x1="47.41" y1="40.73" x2="44.01" y2="40.73"/>
	<line class="st5" x1="47.41" y1="52.52" x2="44.01" y2="52.52"/>
	<line class="st5" x1="46.93" y1="54.61" x2="44.49" y2="54.61"/>
	<polygon class="st5" points="49.55,57.21 41.62,57.21 40.31,49.95 50.86,49.95 	"/>
	<path class="st5" d="M49.27,49.95h-2.33v-3.09c0-0.64,0.52-1.17,1.17-1.17h0c0.64,0,1.17,0.52,1.17,1.17V49.95z"/>
	<rect x="44.54" y="57.21" class="st5" width="2.33" height="4.26"/>
	<path class="st5" d="M44.49,49.95h-2.33v-3.09c0-0.64,0.52-1.17,1.17-1.17l0,0c0.64,0,1.17,0.52,1.17,1.17V49.95z"/>
	<path class="st5" d="M45.63,61.47v1.15c0,1.05-0.85,1.9-1.9,1.9h0c-2.63,0-4.76,2.13-4.76,4.76v0c0,2.63,2.13,4.76,4.76,4.76h13.39
		c0.86,0,1.55-0.69,1.55-1.55v-2.05"/>
	<rect x="60.28" y="53.58" class="st4" width="7.51" height="4.68"/>
	<rect x="60.28" y="45.38" class="st4" width="7.51" height="4.68"/>
	<rect x="60.28" y="37.17" class="st4" width="7.51" height="4.68"/>
	<rect x="23.46" y="53.58" class="st4" width="7.51" height="4.68"/>
	<rect x="23.46" y="45.38" class="st4" width="7.51" height="4.68"/>
	<rect x="23.46" y="37.17" class="st4" width="7.51" height="4.68"/>
</g>
</svg>
