<?xml version="1.0" encoding="utf-8"?>
<!-- Generator: Adobe Illustrator 26.3.1, SVG Export Plug-In . SVG Version: 6.00 Build 0)  -->
<svg version="1.1" id="Layer_1" xmlns="http://www.w3.org/2000/svg" xmlns:xlink="http://www.w3.org/1999/xlink" x="0px" y="0px"
	 viewBox="0 0 91.64 91.64" style="enable-background:new 0 0 91.64 91.64;" xml:space="preserve">
<style type="text/css">
	.st0{fill-rule:evenodd;clip-rule:evenodd;fill:#FF5A1F;}
	.st1{fill-rule:evenodd;clip-rule:evenodd;fill:#032DA6;}
	.st2{fill:#032DA6;}
	.st3{fill:#FF5A1F;}
	.st4{fill:none;stroke:#032DA6;stroke-width:1.2;stroke-linecap:round;stroke-linejoin:round;stroke-miterlimit:10;}
	.st5{fill:none;stroke:#FF5A1F;stroke-width:1.2;stroke-linecap:round;stroke-linejoin:round;stroke-miterlimit:10;}
	.st6{fill:none;stroke:#032DA6;stroke-width:1.1582;stroke-linecap:round;stroke-linejoin:round;stroke-miterlimit:10;}
	.st7{fill:none;stroke:#FF5A1F;stroke-width:1.1582;stroke-linecap:round;stroke-linejoin:round;stroke-miterlimit:10;}
</style>
<g>
	<g id="_x38__x2C__Leak_x2C__Mechanical_x2C__Plumber_x2C__Plumbing">
		<g>
			<g>
				<path class="st2" d="M39.82,46.87c-0.56,0-1.05-0.48-1.05-1.04v-5.99c0-0.56,0.48-1.04,1.05-1.04c0.56,0,1.05,0.48,1.05,1.04
					v5.99C40.79,46.39,40.3,46.87,39.82,46.87z"/>
				<path class="st2" d="M50.87,46.87c-0.56,0-1.05-0.48-1.05-1.04v-5.99c0-0.56,0.48-1.04,1.05-1.04c0.56,0,1.05,0.48,1.05,1.04
					v5.99C51.91,46.39,51.43,46.87,50.87,46.87z"/>
				<path class="st2" d="M64.01,48.86c-0.56,0-1.05-0.48-1.05-1.04v-2h-2.02v1.04c0,0.56-0.48,1.04-1.05,1.04
					c-0.56,0-1.05-0.48-1.05-1.04v-2c0-0.56,0.48-1.04,1.05-1.04h4.03c0.56,0,1.05,0.48,1.05,1.04v3.03
					C64.98,48.38,64.49,48.86,64.01,48.86z"/>
				<path class="st2" d="M64.01,60.84h-4.03c-0.56,0-1.05-0.48-1.05-1.04v-2c0-0.56,0.48-1.04,1.05-1.04c0.56,0,1.05,0.48,1.05,1.04
					v1.04h2.02v-2c0-0.56,0.48-1.04,1.05-1.04c0.56,0,1.05,0.48,1.05,1.04v3.03C64.98,60.36,64.49,60.84,64.01,60.84z"/>
				<path class="st2" d="M25.71,48.86c-0.56,0-1.05-0.48-1.05-1.04v-3.03c0-0.56,0.48-1.04,1.05-1.04h4.03
					c0.56,0,1.05,0.48,1.05,1.04v2c0,0.56-0.48,1.04-1.05,1.04c-0.56,0-1.05-0.48-1.05-1.04v-0.96h-2.02v2
					C26.68,48.38,26.19,48.86,25.71,48.86z"/>
				<path class="st2" d="M29.74,60.84h-4.03c-0.56,0-1.05-0.48-1.05-1.04v-3.03c0-0.56,0.48-1.04,1.05-1.04
					c0.56,0,1.05,0.48,1.05,1.04v2h1.93v-0.96c0-0.56,0.48-1.04,1.05-1.04c0.56,0,1.05,0.48,1.05,1.04v2
					C30.71,60.36,30.22,60.84,29.74,60.84z"/>
				<path class="st2" d="M68.04,57.81h-4.03c-0.56,0-1.05-0.48-1.05-1.04v-8.94c0-0.56,0.48-1.04,1.05-1.04h4.03
					c0.56,0,1.05,0.48,1.05,1.04s-0.48,1.04-1.05,1.04h-3.06v7.03h3.06c0.56,0,1.05,0.48,1.05,1.04
					C69.09,57.49,68.52,57.81,68.04,57.81z"/>
				<path class="st2" d="M25.71,57.81h-4.03c-0.56,0-1.05-0.48-1.05-1.04c0-0.56,0.48-1.04,1.05-1.04h2.98V48.7H21.6
					c-0.56,0-1.05-0.48-1.05-1.04c0-0.56,0.48-1.04,1.05-1.04h4.03c0.56,0,1.05,0.48,1.05,1.04v9.02
					C26.68,57.33,26.19,57.81,25.71,57.81z"/>
				<path class="st2" d="M52.88,40.88H37.8c-0.56,0-1.05-0.48-1.05-1.04v-3.99c0-0.56,0.48-1.04,1.05-1.04h5.08
					c0.56,0,1.05,0.48,1.05,1.04c0,0.56-0.48,1.04-1.05,1.04h-4.03v2h13.14v-2h-4.03c-0.56,0-1.05-0.48-1.05-1.04
					c0-0.56,0.48-1.04,1.05-1.04h4.92c0.56,0,1.05,0.48,1.05,1.04v3.99C53.93,40.4,53.45,40.88,52.88,40.88z"/>
				<path class="st2" d="M52.88,32.9H47.8c-0.56,0-1.05-0.48-1.05-1.04c0-0.56,0.48-1.04,1.05-1.04h5.08c0.56,0,1.05-0.48,1.05-1.04
					c0-0.24-0.08-0.48-0.32-0.72c-0.16-0.16-0.48-0.32-0.73-0.32H37.8c-0.56,0-1.05,0.48-1.05,1.04c0,0.24,0.08,0.48,0.32,0.72
					c0.16,0.16,0.4,0.32,0.73,0.32h5.08c0.56,0,1.05,0.48,1.05,1.04c0,0.56-0.48,1.04-1.05,1.04H37.8c-0.81,0-1.53-0.32-2.18-0.88
					c-0.56-0.56-0.89-1.36-0.89-2.16c0-1.68,1.37-3.03,3.06-3.03h15.08c0.81,0,1.53,0.32,2.18,0.88c0.56,0.56,0.89,1.36,0.89,2.16
					C55.95,31.54,54.58,32.9,52.88,32.9z"/>
				<path class="st2" d="M47.88,36.89H42.8c-0.56,0-1.05-0.48-1.05-1.04v-3.99c0-0.56,0.48-1.04,1.05-1.04h5.08
					c0.56,0,1.05,0.48,1.05,1.04v3.99C48.85,36.41,48.37,36.89,47.88,36.89z M43.85,34.89h3.06v-2h-3.06V34.89z"/>
				<path class="st3" d="M43.69,61.64c-0.08,0-0.16,0-0.16,0c-1.94-0.4-3.79-1.36-5.16-2.79h-8.63c-0.56,0-1.05-0.48-1.05-1.04
					V46.87c0-0.56,0.48-1.04,1.05-1.04h8.63c0.24-0.24,0.48-0.48,0.73-0.72l0,0c0.65-0.56,1.37-0.96,2.1-1.36
					c1.29-0.64,2.66-0.88,4.11-0.88c2.26,0,4.44,0.8,6.21,2.24l0,0c0.24,0.24,0.48,0.48,0.73,0.72h7.66c0.56,0,1.05,0.48,1.05,1.04
					v10.94c0,0.56-0.48,1.04-1.05,1.04h-7.66c-1.21,1.28-2.66,2.16-4.35,2.63c-0.56,0.16-1.13-0.16-1.21-0.72
					c-0.16-0.56,0.16-1.12,0.73-1.2c1.45-0.4,2.66-1.2,3.63-2.32c0.16-0.24,0.48-0.32,0.81-0.32h7.1v-9.1h-7.1
					c-0.32,0-0.56-0.16-0.81-0.32c-0.24-0.32-0.56-0.64-0.89-0.88l0,0c-1.37-1.12-3.06-1.76-4.84-1.76c-1.13,0-2.18,0.24-3.23,0.72
					c-0.56,0.24-1.13,0.64-1.61,1.04l0,0c-0.32,0.24-0.56,0.56-0.89,0.88c-0.16,0.24-0.48,0.32-0.81,0.32h-8.06v9.02h8.06
					c0.32,0,0.56,0.16,0.81,0.32c1.13,1.28,2.66,2.16,4.27,2.47c0.56,0.08,0.89,0.64,0.81,1.2C44.58,61.32,44.17,61.64,43.69,61.64z
					"/>
				<path class="st3" d="M43.69,61.64c-0.24,0-0.4-0.08-0.65-0.24c-0.4-0.32-0.48-0.96-0.16-1.44l1.29-1.6l-1.29-4.39
					c-0.16-0.4,0.08-0.88,0.4-1.12c0.4-0.24,0.89-0.24,1.21,0.08l4.92,3.99c0.32,0.24,0.48,0.72,0.32,1.12l-1.05,2.63
					c-0.16,0.48-0.81,0.8-1.29,0.56c-0.48-0.16-0.81-0.8-0.56-1.28l0.81-2l-1.77-1.52l0.48,1.76c0.08,0.32,0,0.64-0.16,0.88l-1.61,2
					C44.25,61.48,43.93,61.64,43.69,61.64z"/>
				<path class="st2" d="M52.24,72.81c-1.85,0-3.39-1.52-3.39-3.35c0-1.12,0.81-2.16,1.61-3.11c0.32-0.4,0.65-0.8,0.89-1.2
					c0.16-0.32,0.48-0.48,0.89-0.48l0,0c0.32,0,0.64,0.16,0.89,0.48c0.24,0.4,0.56,0.8,0.89,1.2c0.81,0.96,1.61,2,1.61,3.11
					C55.62,71.3,54.09,72.81,52.24,72.81z M52.24,67.31c-0.08,0.08-0.16,0.16-0.16,0.24c-0.56,0.64-1.21,1.44-1.21,1.92
					c0,0.72,0.65,1.36,1.37,1.36c0.73,0,1.37-0.64,1.37-1.36c0-0.48-0.65-1.2-1.21-1.84C52.4,67.47,52.32,67.39,52.24,67.31z"/>
				<path class="st2" d="M45.46,68.82c-1.45,0-2.66-1.2-2.66-2.63c0-0.88,0.64-1.68,1.21-2.32c0.24-0.24,0.4-0.56,0.56-0.72
					c0.16-0.32,0.48-0.48,0.89-0.48l0,0c0.32,0,0.65,0.16,0.89,0.48c0.16,0.24,0.4,0.48,0.56,0.8c0.56,0.64,1.21,1.44,1.21,2.32
					C48.04,67.63,46.92,68.82,45.46,68.82z M45.46,65.23c-0.24,0.32-0.56,0.72-0.65,0.96c0,0.32,0.24,0.64,0.65,0.64
					c0.32,0,0.65-0.24,0.65-0.64C46.03,66.03,45.71,65.55,45.46,65.23z"/>
			</g>
		</g>
	</g>
</g>
</svg>
