<?xml version="1.0" encoding="utf-8"?>
<!-- Generator: Adobe Illustrator 26.3.1, SVG Export Plug-In . SVG Version: 6.00 Build 0)  -->
<svg version="1.1" id="Layer_1" xmlns="http://www.w3.org/2000/svg" xmlns:xlink="http://www.w3.org/1999/xlink" x="0px" y="0px"
	 viewBox="0 0 92.69 92.69" style="enable-background:new 0 0 92.69 92.69;" xml:space="preserve">
<style type="text/css">
	.st0{fill-rule:evenodd;clip-rule:evenodd;fill:#FF5A1F;}
	.st1{fill-rule:evenodd;clip-rule:evenodd;fill:#032DA6;}
	.st2{fill:#032DA6;}
	.st3{fill:#FF5A1F;}
	.st4{fill:none;stroke:#032DA6;stroke-width:1.2;stroke-linecap:round;stroke-linejoin:round;stroke-miterlimit:10;}
	.st5{fill:none;stroke:#FF5A1F;stroke-width:1.2;stroke-linecap:round;stroke-linejoin:round;stroke-miterlimit:10;}
	.st6{fill:none;stroke:#032DA6;stroke-width:1.1582;stroke-linecap:round;stroke-linejoin:round;stroke-miterlimit:10;}
	.st7{fill:none;stroke:#FF5A1F;stroke-width:1.1582;stroke-linecap:round;stroke-linejoin:round;stroke-miterlimit:10;}
</style>
<g>
	<path class="st1" d="M66.3,32.59c-0.31,0-0.62,0.31-0.62,0.69v4.12h-5.54v-6.5h5.54c0,0.38,0.3,0.62,0.62,0.62
		c0.37,0,0.68-0.25,0.68-0.62c0-0.69-0.62-1.31-1.29-1.31H59.7l-7.76-5.25v-0.07h-0.12c-0.06-0.06-0.06-0.06-0.12-0.06h-0.24
		l-20.08,5.63h-4.31l-0.06,0.06h-0.06c0,0.07,0,0.07-0.06,0.07v0.06H26.8l-2.96,3.69c-0.12,0.19-0.18,0.43-0.06,0.69
		c0.12,0.25,0.31,0.37,0.55,0.37h3.94v1.13c0,0.56,0.5,1.07,1.05,1.07h0.25v1.81h-0.87c-0.49,0-0.86,0.44-0.86,0.94v1.44
		c0,0.31,0.12,0.62,0.3,0.81l2.47,2.25c0.06,0.06,0.12,0.12,0.19,0.12v0.19c0,0.56,0.3,1.06,0.8,1.31c0.12,0,0.19,0.12,0.19,0.31
		c0,0.12-0.12,0.32-0.31,0.32c-0.12,0-0.18-0.07-0.25-0.13c-0.06,0-0.12-0.12-0.12-0.25c0-0.32-0.25-0.63-0.62-0.63
		c-0.37,0-0.61,0.31-0.61,0.63c0,0.43,0.19,0.87,0.49,1.18c0.31,0.32,0.68,0.44,1.11,0.44h0.06c0.8-0.06,1.48-0.69,1.54-1.5
		c0-0.63-0.3-1.25-0.92-1.57c0,0-0.06-0.06-0.06-0.12v-0.19c0.06,0,0.12-0.06,0.19-0.12l2.4-2.25c0.25-0.19,0.37-0.5,0.37-0.81
		v-1.44c0-0.5-0.43-0.94-0.92-0.94H33.4v-1.81h0.18c0.56,0,0.98-0.5,0.98-1.07v-1.13h6.41c0.06,0,0.12,0.07,0.19,0.07
		c0.12,0,0.18-0.07,0.25-0.07h5.73v5.06c0,0.25,0.06,0.5,0.19,0.75c0,0.06,0.06,0.06,0.06,0.12l1.3,1.43v17.69h-0.86
		c-1.11,0-2.04,0.94-2.04,2.06v1.19c0,0.37,0.31,0.63,0.62,0.63c0.37,0,0.68-0.25,0.68-0.63v-1.19c0-0.43,0.3-0.81,0.74-0.81h7.64
		c0.43,0,0.8,0.37,0.8,0.81v3.32H24.4c-0.37,0-0.62,0.25-0.62,0.62c0,0.37,0.25,0.63,0.62,0.63h41.77c0.31,0,0.62-0.25,0.62-0.63
		c0-0.38-0.31-0.62-0.62-0.62h-8.62v-3.32c0-1.13-0.93-2.06-2.1-2.06h-0.92v-25h4.31v2.5c0,0.75,0.61,1.31,1.3,1.31h5.54
		c0.68,0,1.29-0.56,1.29-1.31v-4.07C66.97,32.9,66.67,32.59,66.3,32.59z M25.69,33.47l1.42-1.81l0.8,1.81H25.69z M51.57,27.47
		l1.54,6h-3.02L51.57,27.47z M31.49,31.59l1.3,1.88h-2.65L31.49,31.59z M29.58,35.65v-0.87h3.75v0.87H29.58z M32.16,36.97v1.81
		h-1.35v-1.81H32.16z M29.02,32.85l-0.74-1.75h1.97L29.02,32.85z M33.77,40.09v1l-2.16,2H31.3l-2.22-2v-1H33.77z M34.07,33.15
		l-1.41-2.06h3.38L34.07,33.15z M35.49,33.47l2.03-2.06l2.1,2.06H35.49z M41.16,33.28l-2.1-2.19h4.25L41.16,33.28z M44.24,33.47
		h-1.48l1.48-1.5V33.47z M45.47,33.47v-1.19l0.99,1.19H45.47z M45.41,30.15c-0.06-0.13-0.18-0.25-0.3-0.31
		c-0.06-0.03-0.12-0.05-0.18-0.05s-0.12,0.02-0.19,0.05h-8.57l14.54-4.07l-1.91,7.69h-0.74L45.41,30.15z M53.3,59.85h-2.4l2.4-2.31
		V59.85z M49.91,58.97v-2.25h2.4L49.91,58.97z M53.3,55.47h-2.4l2.4-2.44V55.47z M49.91,54.6v-2.5h2.47L49.91,54.6z M53.3,50.85
		h-2.47l2.47-2.63V50.85z M49.91,49.91v-2.63h2.52L49.91,49.91z M53.3,45.97h-2.47l2.47-2.5V45.97z M49.91,45.1v-2.5h2.47
		L49.91,45.1z M53.3,41.28h-3.7l-1.17-1.31v-5.12h4.87V41.28z M58.84,33.53h-4.44l-1.78-7.19l6.22,4.25V33.53z"/>
</g>
</svg>
