<?xml version="1.0" encoding="utf-8"?>
<!-- Generator: Adobe Illustrator 26.3.1, SVG Export Plug-In . SVG Version: 6.00 Build 0)  -->
<svg version="1.1" id="Layer_1" xmlns="http://www.w3.org/2000/svg" xmlns:xlink="http://www.w3.org/1999/xlink" x="0px" y="0px"
	 viewBox="0 0 91.64 91.64" style="enable-background:new 0 0 91.64 91.64;" xml:space="preserve">
<style type="text/css">
	.st0{fill-rule:evenodd;clip-rule:evenodd;fill:#FF5A1F;}
	.st1{fill-rule:evenodd;clip-rule:evenodd;fill:#032DA6;}
	.st2{fill:#032DA6;}
	.st3{fill:#FF5A1F;}
	.st4{fill:none;stroke:#032DA6;stroke-width:1.2;stroke-linecap:round;stroke-linejoin:round;stroke-miterlimit:10;}
	.st5{fill:none;stroke:#FF5A1F;stroke-width:1.2;stroke-linecap:round;stroke-linejoin:round;stroke-miterlimit:10;}
	.st6{fill:none;stroke:#032DA6;stroke-width:1.1582;stroke-linecap:round;stroke-linejoin:round;stroke-miterlimit:10;}
	.st7{fill:none;stroke:#FF5A1F;stroke-width:1.1582;stroke-linecap:round;stroke-linejoin:round;stroke-miterlimit:10;}
</style>
<g>
	<path class="st2" d="M46.08,63.55c-7.01,0-14.03,0-21.04,0c-0.22,0-0.46-0.04-0.66-0.12c-0.32-0.13-0.51-0.52-0.45-0.83
		c0.07-0.38,0.35-0.67,0.71-0.72c0.11-0.02,0.23-0.02,0.34-0.02c0.89,0,1.78-0.01,2.68,0c0.2,0,0.26-0.06,0.26-0.26
		c-0.01-0.96,0-1.93,0-2.89c0-0.77,0.27-1.42,0.86-1.92c0.48-0.41,1.04-0.62,1.68-0.61c0.31,0,0.31,0,0.31-0.31
		c0-3.75-0.01-7.51,0.03-11.26c0.01-0.76,0.16-1.53,0.3-2.28c0.19-1.08,0.56-2.1,1.01-3.1c0.64-1.41,1.47-2.69,2.48-3.86
		c1.39-1.59,3.05-2.81,4.93-3.73c0.84-0.41,1.72-0.72,2.62-0.96c1.45-0.39,2.92-0.57,4.42-0.52c1.02,0.03,2.03,0.17,3.03,0.4
		c2.73,0.63,5.08,1.94,7.1,3.86c1.21,1.14,2.19,2.47,2.96,3.94c0.49,0.95,0.91,1.93,1.19,2.97c0.36,1.3,0.58,2.63,0.59,3.98
		c0.02,3.47,0.01,6.93,0.01,10.4c0,0.08,0.01,0.16,0,0.24c-0.02,0.18,0.06,0.24,0.24,0.23c0.56-0.03,1.07,0.12,1.52,0.43
		c0.56,0.38,0.95,0.9,1.01,1.58c0.07,0.79,0.06,1.59,0.08,2.39c0.01,0.35,0.01,0.69,0,1.04c-0.01,0.18,0.06,0.23,0.24,0.23
		c0.95-0.01,1.9-0.01,2.85,0c0.44,0,0.69,0.22,0.85,0.6c0.16,0.38-0.11,0.98-0.67,1.07c-0.15,0.02-0.3,0.02-0.45,0.02
		C60.08,63.55,53.08,63.55,46.08,63.55z M46.09,56.19c4.42,0,8.85,0,13.27,0c0.37,0,0.37,0,0.37-0.36c0-3.13-0.01-6.26,0-9.39
		c0-1.21-0.07-2.41-0.31-3.6c-0.2-1.02-0.51-2.02-0.94-2.96c-0.6-1.31-1.39-2.49-2.35-3.56c-1.03-1.14-2.22-2.07-3.57-2.8
		c-0.97-0.53-1.98-0.95-3.05-1.21c-0.86-0.2-1.72-0.36-2.61-0.41c-1.6-0.09-3.16,0.1-4.69,0.53c-0.89,0.25-1.72,0.62-2.53,1.06
		c-2.48,1.32-4.34,3.24-5.67,5.7c-0.51,0.94-0.88,1.94-1.14,2.98c-0.2,0.82-0.38,1.64-0.38,2.48c-0.02,3.78-0.02,7.55-0.03,11.33
		c0,0.01,0,0.01,0,0.02c-0.02,0.14,0.06,0.2,0.19,0.19c0.08,0,0.16,0,0.24,0C37.28,56.19,41.68,56.19,46.09,56.19z M46.08,61.86
		c5.35,0,10.7,0,16.06,0c0.07,0,0.14,0,0.22,0c0.14,0.01,0.2-0.05,0.19-0.19c-0.01-0.14,0-0.27,0-0.41c0-0.85,0-1.7,0-2.55
		c0-0.52-0.3-0.81-0.82-0.83c-0.07,0-0.14,0-0.22,0c-10.27,0-20.55,0-30.82,0c-0.07,0-0.14,0-0.22,0c-0.49,0.03-0.85,0.28-0.84,0.86
		c0.02,0.93,0,1.86,0,2.78c0,0.34,0,0.34,0.34,0.34C35.34,61.86,40.71,61.86,46.08,61.86z"/>
	<path class="st2" d="M63.61,37.74c0.01-0.42,0.25-0.69,0.74-0.9c1.06-0.43,2.11-0.87,3.16-1.3c0.73-0.3,1.47-0.61,2.2-0.91
		c0.6-0.24,1.1-0.02,1.27,0.54c0.11,0.37-0.1,0.82-0.5,0.99c-0.61,0.27-1.23,0.52-1.84,0.77c-0.87,0.36-1.73,0.72-2.6,1.07
		c-0.46,0.19-0.93,0.39-1.39,0.56C64.16,38.77,63.6,38.32,63.61,37.74z"/>
	<path class="st2" d="M28.57,37.75c0.01,0.6-0.57,1.02-1.12,0.79c-1.27-0.52-2.53-1.04-3.8-1.56c-0.65-0.27-1.3-0.53-1.95-0.81
		c-0.35-0.15-0.58-0.5-0.56-0.85c0.02-0.35,0.29-0.7,0.65-0.76c0.21-0.04,0.47,0,0.67,0.08c1.57,0.64,3.14,1.3,4.71,1.95
		c0.28,0.12,0.57,0.23,0.85,0.35C28.37,37.1,28.56,37.37,28.57,37.75z"/>
	<path class="st2" d="M68.34,46.39c-0.91,0-1.83,0-2.74,0c-0.45,0-0.77-0.23-0.91-0.62c-0.15-0.41,0.13-0.94,0.55-1.03
		c0.15-0.03,0.31-0.06,0.47-0.06c1.77,0,3.54,0,5.3,0c0.4,0,0.76,0.08,0.96,0.48c0.22,0.44,0.03,0.97-0.44,1.13
		c-0.17,0.06-0.35,0.09-0.52,0.1C70.13,46.39,69.23,46.39,68.34,46.39z"/>
	<path class="st2" d="M23.82,46.39c-0.91,0-1.83,0.01-2.74,0c-0.4,0-0.72-0.15-0.9-0.54c-0.2-0.43,0.07-1.01,0.53-1.11
		c0.16-0.04,0.33-0.06,0.49-0.06c1.75,0,3.51-0.01,5.26,0.01c0.24,0,0.5,0.07,0.71,0.18c0.3,0.16,0.42,0.56,0.34,0.84
		c-0.13,0.42-0.46,0.68-0.91,0.69C25.67,46.39,24.74,46.39,23.82,46.39z"/>
	<path class="st2" d="M28.41,26.35c0.27,0,0.48,0.12,0.66,0.3c1.32,1.32,2.64,2.64,3.95,3.97c0.45,0.45,0.39,1.03-0.1,1.37
		c-0.32,0.22-0.8,0.14-1.13-0.19c-0.75-0.75-1.49-1.49-2.23-2.24c-0.57-0.57-1.15-1.15-1.72-1.72c-0.43-0.43-0.34-1.08,0.19-1.36
		C28.14,26.4,28.29,26.38,28.41,26.35z"/>
	<path class="st2" d="M63.7,26.37c0.4,0,0.69,0.18,0.82,0.47c0.16,0.38,0.12,0.69-0.16,0.97c-1.33,1.33-2.65,2.66-3.98,4
		c-0.34,0.35-0.72,0.33-1.03,0.22c-0.3-0.11-0.54-0.51-0.48-0.84c0.04-0.21,0.15-0.43,0.29-0.58c1.31-1.33,2.63-2.65,3.94-3.97
		C63.28,26.47,63.48,26.35,63.7,26.37z"/>
	<g>
		<path class="st3" d="M44.85,54.01c-0.03,0-0.05,0-0.08-0.01c-0.17-0.04-0.28-0.19-0.28-0.36l0.12-8.28h-2.85
			c-0.13,0-0.25-0.07-0.32-0.19c-0.06-0.12-0.06-0.26,0.01-0.37l6.26-10.08c0.09-0.14,0.27-0.21,0.43-0.15
			c0.16,0.06,0.26,0.22,0.24,0.39l-0.76,6.32h2.8c0.12,0,0.24,0.06,0.31,0.17c0.07,0.1,0.08,0.24,0.02,0.35L45.18,53.8
			C45.12,53.93,44.99,54.01,44.85,54.01z M42.41,44.63h2.56c0.1,0,0.19,0.04,0.26,0.11c0.07,0.07,0.11,0.16,0.1,0.26l-0.1,6.95
			l4.62-9.95h-2.64c-0.1,0-0.2-0.04-0.27-0.12c-0.07-0.08-0.1-0.18-0.09-0.28l0.61-5.11L42.41,44.63z"/>
	</g>
</g>
</svg>
