<?xml version="1.0" encoding="utf-8"?>
<!-- Generator: Adobe Illustrator 26.3.1, SVG Export Plug-In . SVG Version: 6.00 Build 0)  -->
<svg version="1.1" id="Layer_1" xmlns="http://www.w3.org/2000/svg" xmlns:xlink="http://www.w3.org/1999/xlink" x="0px" y="0px"
	 viewBox="0 0 91.64 91.64" style="enable-background:new 0 0 91.64 91.64;" xml:space="preserve">
<style type="text/css">
	.st0{fill-rule:evenodd;clip-rule:evenodd;fill:#FF5A1F;}
	.st1{fill-rule:evenodd;clip-rule:evenodd;fill:#032DA6;}
	.st2{fill:#032DA6;}
	.st3{fill:#FF5A1F;}
	.st4{fill:none;stroke:#032DA6;stroke-width:1.2;stroke-linecap:round;stroke-linejoin:round;stroke-miterlimit:10;}
	.st5{fill:none;stroke:#FF5A1F;stroke-width:1.2;stroke-linecap:round;stroke-linejoin:round;stroke-miterlimit:10;}
	.st6{fill:none;stroke:#032DA6;stroke-width:1.1582;stroke-linecap:round;stroke-linejoin:round;stroke-miterlimit:10;}
	.st7{fill:none;stroke:#FF5A1F;stroke-width:1.1582;stroke-linecap:round;stroke-linejoin:round;stroke-miterlimit:10;}
</style>
<g>
	<g>
		<path class="st2" d="M67.52,72.68h-40.4v-52.9h40.4V72.68z M28.58,71.23h37.48V21.24H28.58V71.23z"/>
	</g>
	<g>
		<path class="st2" d="M61.71,72.68H33.05v-44h28.66V72.68z M34.51,71.23h25.74V30.15H34.51V71.23z"/>
	</g>
	<g>
		<path class="st3" d="M55.39,53.12c-0.28-0.28-0.75-0.28-1.03,0L52.48,55V44.25c0-0.4-0.33-0.73-0.73-0.73
			c-0.4,0-0.73,0.33-0.73,0.73V55l-1.88-1.88c-0.28-0.28-0.75-0.28-1.03,0c-0.28,0.28-0.28,0.75,0,1.03l3.12,3.12
			c0.14,0.14,0.33,0.21,0.52,0.21c0.19,0,0.37-0.07,0.52-0.21l3.12-3.12C55.67,53.87,55.67,53.41,55.39,53.12z"/>
		<path class="st3" d="M43.36,43.73c-0.28-0.28-0.75-0.28-1.03,0l-3.12,3.12c-0.28,0.28-0.28,0.75,0,1.03s0.75,0.28,1.03,0
			l1.88-1.88v10.75c0,0.4,0.33,0.73,0.73,0.73s0.73-0.33,0.73-0.73V46.01l1.88,1.88c0.14,0.14,0.33,0.21,0.52,0.21
			c0.19,0,0.37-0.07,0.52-0.21c0.28-0.28,0.28-0.75,0-1.03L43.36,43.73z"/>
	</g>
	<g>
		<path class="st2" d="M47.38,42.55c-0.4,0-0.73-0.33-0.73-0.73v-12.4c0-0.4,0.33-0.73,0.73-0.73s0.73,0.33,0.73,0.73v12.4
			C48.11,42.22,47.78,42.55,47.38,42.55z"/>
	</g>
	<g>
		<path class="st2" d="M47.38,72.68c-0.4,0-0.73-0.33-0.73-0.73v-12.4c0-0.4,0.33-0.73,0.73-0.73s0.73,0.33,0.73,0.73v12.4
			C48.11,72.36,47.78,72.68,47.38,72.68z"/>
	</g>
	<g>
		<circle class="st2" cx="60.98" cy="25.08" r="1.71"/>
		<circle class="st2" cx="56.52" cy="25.08" r="1.71"/>
		<circle class="st2" cx="52.06" cy="25.08" r="1.71"/>
		<circle class="st2" cx="47.61" cy="25.08" r="1.71"/>
		<circle class="st2" cx="43.15" cy="25.08" r="1.71"/>
		<circle class="st2" cx="38.69" cy="25.08" r="1.71"/>
		<circle class="st2" cx="34.23" cy="25.08" r="1.71"/>
	</g>
</g>
</svg>
