<?xml version="1.0" encoding="utf-8"?>
<!-- Generator: Adobe Illustrator 26.3.1, SVG Export Plug-In . SVG Version: 6.00 Build 0)  -->
<svg version="1.1" id="Layer_1" xmlns="http://www.w3.org/2000/svg" xmlns:xlink="http://www.w3.org/1999/xlink" x="0px" y="0px"
	 viewBox="0 0 91.64 91.64" style="enable-background:new 0 0 91.64 91.64;" xml:space="preserve">
<style type="text/css">
	.st0{fill-rule:evenodd;clip-rule:evenodd;fill:#FF5A1F;}
	.st1{fill-rule:evenodd;clip-rule:evenodd;fill:#032DA6;}
	.st2{fill:#032DA6;}
	.st3{fill:#FF5A1F;}
	.st4{fill:none;stroke:#032DA6;stroke-width:1.2;stroke-linecap:round;stroke-linejoin:round;stroke-miterlimit:10;}
	.st5{fill:none;stroke:#FF5A1F;stroke-width:1.2;stroke-linecap:round;stroke-linejoin:round;stroke-miterlimit:10;}
	.st6{fill:none;stroke:#032DA6;stroke-width:1.1582;stroke-linecap:round;stroke-linejoin:round;stroke-miterlimit:10;}
	.st7{fill:none;stroke:#FF5A1F;stroke-width:1.1582;stroke-linecap:round;stroke-linejoin:round;stroke-miterlimit:10;}
</style>
<g id="OrhPas_00000168097002781700296820000011419658801493255810_">
	<g>
		<path class="st3" d="M64.01,61.08c1.87-1.17,3.09-2.78,3.55-4.88c0.92-4.21-1.55-8.14-5.73-9.19c-0.53-0.13-1.08-0.16-1.63-0.2
			c-0.36-0.03-0.53-0.19-0.53-0.55c0-0.74-0.01-1.48,0-2.21c0.01-0.54,0.17-0.68,0.74-0.65c3.29,0.15,6.05,1.44,8.16,3.97
			c4.48,5.39,3.02,13.29-3.07,16.78c-0.2,0.12-0.37,0.22-0.4,0.36c-0.09,0.42,0.25,1.46-0.05,1.6c-0.53,0.24-1.25-0.38-3.22-2.02
			c-0.27-0.22-0.35-0.47-0.24-0.82c0.32-0.98,0.58-1.97,0.93-2.94c0.08-0.23,0.23-0.71,0.63-0.52
			C63.34,59.9,63.75,60.76,64.01,61.08z M64.37,65.02c-0.55-1,0.15-1.23,0.77-1.57c3.79-2.1,5.91-6.51,5.09-10.76
			c-0.71-3.68-2.84-6.28-6.28-7.77c-1.09-0.47-2.24-0.71-3.49-0.74c0,0.33,0,0.62,0,0.91c0,0.3,0,0.61,0,0.91
			c0.45,0.06,0.84,0.09,1.23,0.17c3.59,0.72,6.2,3.43,6.76,7.19c0.51,3.44-1.14,6.71-4.17,8.48c-0.56,0.32-0.79,0.24-0.99-0.36
			c-0.04-0.12-0.09-0.23-0.17-0.45c-0.25,0.8-0.48,1.49-0.68,2.17c-0.03,0.12-0.05,0.32,0.02,0.38
			C63.03,64.06,64.32,65.02,64.37,65.02z"/>
		<path class="st3" d="M56.13,47.87c-1.98,1.25-3.21,2.94-3.6,5.16c-0.83,4.75,2.45,8.84,7.29,9.12c0.49,0.03,0.67,0.18,0.65,0.67
			c-0.03,0.68,0,1.37-0.01,2.06c0,0.57-0.12,0.7-0.7,0.67c-3.57-0.17-6.49-1.65-8.62-4.52c-3.02-4.08-2.88-9.6,0.32-13.55
			c0.49-0.61,1.07-1.16,1.68-1.66c0.6-0.5,1.28-0.9,1.98-1.37c-0.08-0.28-0.23-0.6-0.25-0.93c-0.02-0.24,0.07-0.59,0.24-0.7
			c0.17-0.11,0.56-0.09,0.73,0.04c0.85,0.63,1.66,1.32,2.49,1.99c0.27,0.22,0.33,0.48,0.22,0.82c-0.31,0.96-0.57,1.94-0.91,2.89
			c-0.09,0.24-0.37,0.5-0.62,0.57c-0.35,0.1-0.54-0.2-0.63-0.53C56.32,48.4,56.24,48.18,56.13,47.87z M59.64,62.95
			c-0.49-0.07-0.92-0.1-1.33-0.19c-3.36-0.73-6-3.44-6.57-6.74c-0.61-3.54,0.93-6.96,3.98-8.8c0.74-0.45,0.89-0.4,1.16,0.41
			c0.03,0.08,0.07,0.15,0.15,0.31c0.26-0.82,0.49-1.56,0.72-2.31c0.02-0.07,0-0.19-0.04-0.23c-0.59-0.5-1.2-0.99-1.92-1.58
			c0.06,0.28,0.07,0.4,0.11,0.5c0.19,0.46,0,0.71-0.42,0.93c-3.29,1.72-5.21,4.41-5.65,8.11c-0.59,5,2.65,9.77,7.5,11.06
			c0.75,0.2,1.52,0.28,2.32,0.42C59.64,64.13,59.64,63.55,59.64,62.95z"/>
		<g>
			<path class="st2" d="M56.56,42.18L56.56,42.18c0.08,0,0.15-0.03,0.19-0.09c0.03-0.04,0.08-0.08,0.12-0.12
				c0.14-0.13,0.3-0.28,0.3-0.5c0-0.39,0-0.79,0.01-1.18c0.01-1.14,0.02-2.33-0.13-3.48c-0.8-5.99-6-10.51-12.1-10.51h-0.49v-0.45
				c0-0.43,0-0.87,0-1.3c0-1.03,0-2.09-0.02-3.13c-0.03-1.04-0.7-1.89-1.76-2.23c-0.97-0.31-2.03,0.01-2.64,0.79
				c-0.2,0.26-0.35,0.56-0.5,0.87c-0.05,0.1-0.1,0.2-0.15,0.3h-0.38c-1.07,0-2.14,0-3.21,0.01c-2.71,0.01-5.52,0.01-8.27-0.02
				c-0.75-0.01-1.34,0.21-1.76,0.62c-0.41,0.41-0.62,1-0.62,1.71c0.03,4.14,0.03,8.35,0.02,12.42l0,5.08l-0.04,0.02
				c-0.13,0.06-0.25,0.12-0.37,0.19c-0.58,0.33-0.89,0.88-0.88,1.54c0.02,0.73,0.39,1.29,1.01,1.53c0.25,0.1,0.28,0.19,0.28,0.5
				c-0.01,3.46-0.01,6.93-0.01,10.39v2.23c0,0.04,0,0.08,0,0.13c-0.01,0.15-0.02,0.32,0.05,0.47c0.06,0.16,0.29,0.46,0.55,0.46
				c0.02,0,0.03,0,0.05,0c0.25-0.04,0.48-0.26,0.57-0.45c0.08-0.16,0.06-0.33,0.05-0.48c0-0.04-0.01-0.09-0.01-0.13l0-12.88h8.25
				l0,2.23c0,3.43,0,6.86,0,10.29c0,0.05,0,0.11-0.01,0.17c-0.02,0.24-0.04,0.53,0.15,0.74c0.11,0.12,0.28,0.19,0.49,0.19
				c0.2,0,0.37-0.06,0.49-0.18c0.2-0.21,0.18-0.51,0.17-0.75c0-0.05-0.01-0.11-0.01-0.16c0.01-4.12,0-8.24,0-12.36
				c0-0.27,0.02-0.33,0.2-0.41c0.62-0.28,0.96-0.85,0.95-1.56c-0.01-0.66-0.34-1.2-0.96-1.54c-0.12-0.06-0.17-0.12-0.17-0.09
				c-0.02-0.41-0.02-0.82-0.02-1.24l0-0.2l0.57,0c0.99,0,1.95,0,2.87,0.01c0.04,0.02,0.11,0.09,0.12,0.13
				c0.44,1.32,1.49,2,2.83,1.83c1.23-0.16,2.1-1.22,2.12-2.57c0-0.32,0-0.65,0-0.98V37.8c1.1,0.29,1.76,1.21,1.76,2.47
				c0,3.51,0,7.03,0,10.54v5.27c0,0.04,0,0.09-0.01,0.13c-0.01,0.15-0.02,0.32,0.05,0.48c0.09,0.19,0.34,0.46,0.6,0.46
				c0,0,0.01,0,0.01,0c0.24-0.01,0.42-0.23,0.57-0.44c0.09-0.12,0.08-0.27,0.07-0.38c0-0.02,0-0.05,0-0.07l0-4.45
				c0-3.86,0-7.71,0-11.57c0-1.9-1.05-3.26-2.88-3.72c-0.16-0.04-0.17-0.06-0.17-0.21l0-0.1c0.01-0.6,0.02-1.21-0.01-1.82
				c0-0.13,0.02-0.17,0.02-0.17c0,0,0.05-0.02,0.19,0c0.13,0.02,0.27,0.04,0.4,0.06c0.2,0.03,0.41,0.06,0.61,0.1
				c1.96,0.39,3.93,2.13,3.88,4.68c-0.02,1.12-0.01,2.24-0.01,3.36l0.01,1.02l0,0.09c0,0.22-0.01,0.49,0.18,0.67
				c0.11,0.11,0.25,0.17,0.48,0.17c0.19,0,0.34-0.06,0.44-0.17c0.18-0.18,0.17-0.44,0.17-0.65l0-4.78c0-0.97-0.25-1.87-0.74-2.68
				c-1.18-1.94-2.96-2.99-5.29-3.12c-0.23-0.01-0.29-0.05-0.3-0.07c-0.01-0.02-0.04-0.07-0.03-0.26c0.04-0.44,0.02-0.9,0-1.27
				c0-0.12,0.01-0.15,0.01-0.15c0,0,0.04-0.01,0.12,0c0.17,0.02,0.33,0.03,0.5,0.04c0.3,0.02,0.58,0.04,0.86,0.1
				c3.91,0.77,6.62,3.98,6.75,8.03c0.01,0.21,0.01,0.47,0.2,0.64c0.12,0.1,0.28,0.15,0.47,0.14c0.2-0.01,0.35-0.08,0.46-0.21
				C54,39.78,54,39.51,53.98,39.3c-0.04-0.48-0.1-1.02-0.18-1.55c-0.61-3.68-3.57-6.78-7.19-7.54c-0.52-0.11-1.04-0.16-1.58-0.22
				c-0.18-0.02-0.37-0.04-0.55-0.06v-0.37c0-0.65,0-1.29,0.02-1.94c0.04-0.03,0.1-0.07,0.12-0.07c0.25,0.02,0.51,0.04,0.76,0.06
				c0.74,0.05,1.5,0.11,2.2,0.29c4.98,1.26,8.33,5.59,8.34,10.76l0,0.74c0,0.67-0.01,1.36,0.02,2.05c0.01,0.22,0.17,0.37,0.31,0.51
				c0.05,0.04,0.09,0.09,0.13,0.13C56.41,42.15,56.48,42.18,56.56,42.18z M43.21,38.92c0,0.8-0.53,1.38-1.26,1.38c0,0,0,0-0.01,0
				c-0.32,0-0.61-0.12-0.84-0.34c-0.26-0.26-0.4-0.62-0.4-1.04c0-2.09,0-4.17,0-6.26v-2.35v-2.88c0-1.92,0-3.85,0-5.77
				c0-0.62,0.33-1.1,0.85-1.27c0.52-0.16,1.1,0.03,1.36,0.44c0.17,0.28,0.28,0.61,0.28,0.87C43.22,27.45,43.22,33.19,43.21,38.92z
				 M34.67,39.42c0.02,0.4,0.01,0.79,0.01,1.22l0,0.28l-2.65,0c-1.79,0-3.58,0-5.37,0.01c-0.18-0.01-0.21-0.02-0.22-0.03
				c0,0-0.03-0.03-0.03-0.17c0.01-4.33,0.01-8.66,0.01-12.99v-3.51c2.71,4.88,5.41,9.75,8.1,14.63
				C34.61,39.01,34.66,39.21,34.67,39.42z M35.12,37.33c-0.08-0.17-0.15-0.33-0.23-0.48c-2.63-4.73-5.26-9.47-7.89-14.2
				c-0.02-0.03-0.03-0.06-0.05-0.09c1.67-0.16,10.17-0.29,12.43-0.12v15.83l-0.47,0c-0.54,0-1.09,0-1.63,0
				c-0.18,0-0.36,0.01-0.54,0.03c-0.39,0.03-0.8,0.06-1.04-0.08C35.46,38.06,35.29,37.69,35.12,37.33z M29.29,43.13
				c-1.16,0-2.36,0.01-3.53-0.02c-0.17,0-0.43-0.17-0.56-0.34c-0.02-0.07,0.03-0.31,0.09-0.38c0.09-0.1,0.33-0.18,0.56-0.18
				c0.59-0.01,1.18-0.01,1.77-0.01c0.33,0,0.66,0,0.99,0l2.51,0c1.35,0,2.69,0,4.04,0c0,0,0,0,0,0c0.45,0,0.58,0.13,0.64,0.35
				c0.03,0.1,0.04,0.25-0.05,0.37c-0.1,0.13-0.29,0.2-0.53,0.21c-1.14,0-2.29,0-3.43,0l-1.31,0L29.29,43.13z"/>
			<path class="st2" d="M51.88,64.9c-0.79-0.03-1.27-0.5-1.83-1.12c-0.81-0.9-1.83-1.25-3.06-1.03c-0.97,0.17-1.57,0.81-2.15,1.43
				l-0.06,0.06c-0.38,0.41-0.87,0.63-1.39,0.63c0,0-0.01,0-0.01,0c-0.53,0-1.03-0.24-1.41-0.66l-0.19-0.21
				c-0.13-0.15-0.27-0.31-0.42-0.45c-1.26-1.2-3.2-1.17-4.42,0.07c-0.13,0.13-0.25,0.26-0.38,0.39L36.4,64.2
				c-0.44,0.46-0.94,0.7-1.46,0.7c-0.01,0-0.02,0-0.02,0c-0.52-0.01-1.02-0.26-1.44-0.72L33.33,64c-0.09-0.1-0.17-0.2-0.27-0.29
				c-0.62-0.66-1.44-1.02-2.3-1.03c0,0-0.01,0-0.01,0c-0.86,0-1.68,0.36-2.3,1.01l-0.54,0.55c-0.4,0.42-0.88,0.64-1.38,0.65
				c-0.01,0-0.02,0-0.02,0c-0.49,0-0.95-0.21-1.35-0.59c-0.17-0.16-0.39-0.34-0.65-0.32c-0.11,0.01-0.27,0.06-0.41,0.24
				c-0.19,0.25-0.04,0.76,0.15,0.97c0.54,0.6,1.3,0.95,2.14,0.97c0.86,0.03,1.71-0.3,2.33-0.9c0.13-0.13,0.26-0.26,0.38-0.4
				c0.1-0.11,0.2-0.21,0.3-0.31c0.39-0.39,0.86-0.6,1.38-0.59c0.5,0.01,0.99,0.23,1.37,0.63c0.08,0.08,0.16,0.17,0.23,0.26
				c0.11,0.12,0.21,0.24,0.32,0.35c0.61,0.62,1.4,0.95,2.25,0.95c0,0,0.01,0,0.01,0c0.84,0,1.64-0.34,2.24-0.96l0.16-0.17
				c0.16-0.17,0.32-0.33,0.49-0.49c0.38-0.38,0.85-0.58,1.34-0.58c0.01,0,0.02,0,0.04,0c0.51,0.01,0.99,0.24,1.37,0.65
				c0.07,0.08,0.14,0.15,0.2,0.23c0.13,0.15,0.26,0.29,0.4,0.43c1.23,1.2,3.21,1.18,4.42-0.04c0.09-0.09,0.18-0.19,0.28-0.29
				c0.13-0.14,0.26-0.28,0.4-0.41c0.51-0.48,1.08-0.65,1.76-0.5c0.5,0.11,0.9,0.39,1.32,0.9c0.62,0.77,1.4,1.16,2.45,1.24
				c0,0,0.01,0,0.01,0c0.06,0,0.17-0.05,0.22-0.09c0.12-0.07,0.32-0.2,0.4-0.41c0.04-0.12,0.01-0.27-0.11-0.44
				C52.25,65.11,52.08,64.91,51.88,64.9z"/>
			<path class="st2" d="M24.54,60.56l0.06,0.04c0.58,0.44,1.24,0.66,1.9,0.66c0.84,0,1.67-0.35,2.34-1.03
				c0.83-0.85,1.4-1.21,1.92-1.21c0.51,0,1.08,0.37,1.88,1.22c0.76,0.8,1.71,1.13,2.83,0.97c0.94-0.13,1.55-0.72,2.14-1.3l0.05-0.05
				c0.39-0.37,0.75-0.62,1.08-0.72c0.77-0.24,1.47,0.02,2.07,0.79c0.67,0.86,1.53,1.3,2.56,1.33c0,0,0.01,0,0.01,0
				c0.94-0.02,1.72-0.36,2.33-1.03c0.62-0.67,1.15-1.19,2.01-1.2c0.15,0,0.28-0.11,0.37-0.19c0.06-0.07,0.21-0.24,0.2-0.43
				c-0.01-0.25-0.32-0.56-0.58-0.58c-0.3-0.02-0.62,0.01-0.99,0.1c-0.79,0.2-1.3,0.74-1.79,1.27l-0.12,0.13
				c-0.61,0.65-1.27,0.84-1.95,0.55c-0.48-0.2-0.9-0.62-1.22-0.96c-0.67-0.72-1.53-1.13-2.42-1.13c-0.01,0-0.02,0-0.03,0
				c-0.85,0-1.68,0.37-2.33,1.04l-0.14,0.14c-0.15,0.16-0.31,0.32-0.47,0.47c-0.52,0.48-1.09,0.64-1.76,0.48
				c-0.54-0.13-0.89-0.51-1.22-0.89c-0.7-0.83-1.54-1.23-2.55-1.23c0,0,0,0,0,0c-1.24,0-2.04,0.73-2.69,1.4
				c-0.31,0.33-0.64,0.56-0.93,0.67c-0.71,0.26-1.36,0.09-1.99-0.52c-0.15-0.15-0.37-0.16-0.56-0.17c-0.06,0-0.13-0.01-0.18-0.01
				c-0.08-0.02-0.15,0.01-0.21,0.06c-0.06,0.05-0.08,0.13-0.08,0.21c0.01,0.06,0.01,0.12,0.01,0.18c0.01,0.16,0.01,0.34,0.08,0.52
				C24.23,60.32,24.4,60.45,24.54,60.56z"/>
			<path class="st2" d="M63.8,55.26c-0.05-0.16-0.08-0.32-0.12-0.48c-0.09-0.38-0.17-0.78-0.38-1.12c-0.75-1.27-1.56-2.52-2.34-3.73
				l-0.38-0.58c-0.16-0.25-0.35-0.38-0.55-0.38c0,0-0.01,0-0.01,0c-0.21,0-0.4,0.12-0.57,0.36c-0.18,0.25-0.35,0.52-0.51,0.78
				l-0.17,0.27c-0.21,0.33-0.42,0.65-0.63,0.98c-0.48,0.74-0.98,1.51-1.42,2.3c-0.75,1.36-0.52,3.09,0.58,4.31
				c0.68,0.76,1.7,1.17,2.73,1.17c0.46,0,0.93-0.08,1.38-0.26c1.37-0.54,2.29-1.89,2.39-3.53C63.81,55.32,63.81,55.29,63.8,55.26z
				 M61.11,57.62c-0.99,0.46-2.17,0.25-2.86-0.53c-0.76-0.85-0.88-2.07-0.28-3.04c0.5-0.81,1.02-1.62,1.55-2.46l0.51-0.81l0.43,0.7
				c0.63,1.03,1.24,2.02,1.84,3.02c0.05,0.09,0.08,0.24,0.1,0.38l0.01,0.07C62.58,56.08,62.05,57.17,61.11,57.62z"/>
		</g>
	</g>
</g>
</svg>
