<?xml version="1.0" encoding="utf-8"?>
<!-- Generator: Adobe Illustrator 26.3.1, SVG Export Plug-In . SVG Version: 6.00 Build 0)  -->
<svg version="1.1" id="Layer_1" xmlns="http://www.w3.org/2000/svg" xmlns:xlink="http://www.w3.org/1999/xlink" x="0px" y="0px"
	 viewBox="0 0 91.64 91.64" style="enable-background:new 0 0 91.64 91.64;" xml:space="preserve">
<style type="text/css">
	.st0{fill-rule:evenodd;clip-rule:evenodd;fill:#FF5A1F;}
	.st1{fill-rule:evenodd;clip-rule:evenodd;fill:#032DA6;}
	.st2{fill:#032DA6;}
	.st3{fill:#FF5A1F;}
	.st4{fill:none;stroke:#032DA6;stroke-width:1.2;stroke-linecap:round;stroke-linejoin:round;stroke-miterlimit:10;}
	.st5{fill:none;stroke:#FF5A1F;stroke-width:1.2;stroke-linecap:round;stroke-linejoin:round;stroke-miterlimit:10;}
	.st6{fill:none;stroke:#032DA6;stroke-width:1.1582;stroke-linecap:round;stroke-linejoin:round;stroke-miterlimit:10;}
	.st7{fill:none;stroke:#FF5A1F;stroke-width:1.1582;stroke-linecap:round;stroke-linejoin:round;stroke-miterlimit:10;}
</style>
<g>
	<path class="st2" d="M50.46,46.13c-1.04,0.05-1.88-0.78-1.56-2.03c-2.21,0.03-4.11-0.71-5.61-2.35c-1.5-1.64-2.01-3.61-1.84-5.82
		c-0.17,0-0.29,0-0.41,0c-1.24-0.03-2.1-1.07-1.83-2.29c0.18-0.82,0.9-1.43,1.77-1.43c1.84-0.01,3.68,0,5.51,0c0.1,0,0.2,0,0.33,0
		c0-0.61,0-1.18,0-1.78c-0.29,0-0.55,0.01-0.81,0c-0.31-0.01-0.49-0.17-0.49-0.44c0-0.28,0.15-0.42,0.49-0.42c0.84,0,1.68,0,2.51,0
		c0.32,0,0.49,0.14,0.49,0.39c0.01,0.28-0.17,0.45-0.49,0.47c-0.13,0.01-0.27,0-0.4,0c-0.13,0-0.26,0-0.41,0c0,0.6,0,1.16,0,1.76
		c1.14,0,2.27,0,3.45,0c0-0.1,0.01-0.21,0.01-0.32c0-1.48,0-2.97,0-4.45c0-0.85-0.01-1.7,0-2.54c0.02-1.92,1.12-3.5,2.88-4.16
		c2.07-0.78,4.51,0.23,5.43,2.25c0.27,0.59,0.41,1.2,0.41,1.85c-0.01,0.84,0,1.68,0,2.51c0,0.45-0.2,0.65-0.64,0.65
		c-0.64,0-1.28,0-1.91,0c-0.45,0-0.64-0.2-0.65-0.65c0-0.7-0.01-1.39,0-2.09c0.02-0.91-0.95-1.44-1.74-1.02
		c-0.43,0.23-0.57,0.66-0.57,1.14c0.01,2.07,0,4.13,0,6.2c0,0.65,0,0.65,0.66,0.65c0.77,0,1.54,0.01,2.31,0.01
		c0.1,0,0.2-0.01,0.34-0.02c0-0.47,0-0.93,0-1.38c0-0.7,0-0.7-0.69-0.7c-0.1,0-0.22,0.03-0.28-0.02c-0.13-0.1-0.31-0.23-0.32-0.37
		c-0.01-0.13,0.13-0.3,0.24-0.42c0.04-0.05,0.16-0.05,0.24-0.05c0.82,0,1.64-0.01,2.46,0c0.38,0,0.56,0.16,0.53,0.47
		c-0.02,0.22-0.12,0.36-0.35,0.37c-0.25,0.01-0.5,0-0.74,0.02c-0.08,0.01-0.21,0.09-0.21,0.15c-0.01,0.63-0.01,1.27-0.01,1.95
		c0.38,0,0.73,0,1.08,0c1.59,0,3.18-0.01,4.77-0.01c1.01,0,1.82,0.82,1.85,1.83c0.02,0.95-0.75,1.8-1.72,1.87
		C64,35.97,63.99,35.97,64,36.55c0.05,1.73-0.38,3.32-1.45,4.7c-1.24,1.61-2.87,2.55-4.89,2.79c-0.15,0.02-0.3,0.03-0.45,0.05
		c-0.01,0-0.01,0.01-0.02,0.02c0.15,1.31-0.23,1.85-1.48,2.03c0,0.09,0,0.19,0,0.29c0,0.76,0,1.52,0,2.29
		c0,0.23-0.05,0.44-0.31,0.52c-0.31,0.09-0.57-0.11-0.57-0.45c0-0.81,0-1.62,0-2.43c0-0.07,0-0.13,0-0.24c-1.16,0-2.3,0-3.47,0
		c-0.01,0.13-0.02,0.24-0.02,0.35c0,2.91,0,5.83,0,8.74c0,1.04,0,2.07,0,3.11c0,1.35-1.05,2.58-2.4,2.85
		c-1.4,0.27-2.83-0.46-3.33-1.75c-0.15-0.38-0.23-0.81-0.24-1.22c-0.04-0.98,0-1.96-0.02-2.94c-0.07-3.14-2.5-5.82-5.61-6.21
		c-3.41-0.43-6.56,1.84-7.18,5.21c-0.12,0.67-0.12,1.36-0.14,2.05c-0.04,2.29-0.05,4.59-0.08,6.88c-0.02,1.64-1.31,2.95-2.96,2.96
		c-1.09,0.01-2.17,0-3.26,0c-0.33,0-0.52-0.17-0.51-0.44c0.01-0.26,0.19-0.42,0.51-0.42c1.05,0,2.1,0.01,3.14,0
		c1.04-0.01,1.87-0.59,2.12-1.54c0.11-0.41,0.1-0.85,0.11-1.27c0.03-2.38,0.05-4.76,0.08-7.14c0.03-3.57,2.75-6.66,6.29-7.14
		c3.23-0.44,6.29,1.21,7.68,4.16c0.44,0.93,0.67,1.92,0.69,2.95c0.01,0.98,0,1.96,0.01,2.94c0,1.14,0.95,2.1,2.08,2.11
		c1.18,0.02,2.15-0.92,2.15-2.09c0.01-3.02,0-6.04,0-9.06c0-0.93,0-1.87,0-2.8C50.46,46.34,50.46,46.25,50.46,46.13z M63.12,35.94
		c-0.47,0-0.92,0-1.36,0c-5.29,0-10.57,0-15.86,0c-1.1,0-2.21,0-3.31,0c-0.13,0-0.27-0.02-0.27,0.19c-0.01,0.95,0.01,1.9,0.31,2.82
		c0.74,2.3,3.03,4.14,5.44,4.24c1.69,0.07,3.39,0.04,5.08,0.05c1.18,0.01,2.36,0,3.53,0c1.75,0,3.29-0.56,4.55-1.79
		C62.77,39.94,63.28,38.08,63.12,35.94z M52.74,33.08c-3.03,0-6.06,0-9.08,0c-0.86,0-1.71,0-2.57,0c-0.46,0-0.85,0.26-0.98,0.64
		c-0.24,0.68,0.24,1.35,0.98,1.35c1.73,0,3.47,0,5.2,0c5.29,0,10.59,0,15.88,0c0.72,0,1.45,0,2.17,0c0.43,0,0.76-0.18,0.95-0.56
		c0.35-0.71-0.15-1.44-0.98-1.44C60.46,33.08,56.6,33.08,52.74,33.08z M59.04,27.12c0-0.78,0-1.52,0-2.26c0-1.92-1.48-3.45-3.4-3.52
		c-1.85-0.07-3.53,1.4-3.58,3.36c-0.05,1.62-0.01,3.25-0.01,4.88c0,0.8,0,1.6,0.01,2.4c0,0.08,0.07,0.24,0.11,0.24
		c0.44,0.02,0.89,0.01,1.31,0.01c0.02-0.06,0.04-0.08,0.04-0.09c0.01-1.5,0.02-3.01,0.03-4.51c0-0.83-0.02-1.65-0.01-2.48
		c0-0.21,0.05-0.44,0.13-0.64c0.37-0.93,1.3-1.42,2.25-1.26c0.83,0.14,1.72,1.13,1.65,2.05c-0.04,0.52-0.02,1.05,0,1.57
		c0,0.09,0.08,0.25,0.14,0.25C58.13,27.13,58.57,27.12,59.04,27.12z M51.09,44.12c0-0.01,0-0.01,0-0.02c-0.26,0-0.51,0-0.77,0
		c-0.35,0.01-0.6,0.23-0.61,0.55c-0.01,0.33,0.23,0.61,0.58,0.61c0.92,0.01,1.85,0.01,2.77,0.01c0.88,0.01,1.77,0.01,2.65,0.03
		c0.28,0.01,0.61-0.23,0.67-0.51c0.07-0.32-0.22-0.71-0.51-0.71c-0.46,0.01-0.92,0.03-1.37,0.02c-0.74-0.01-1.47-0.04-2.21-0.04
		C51.89,44.05,51.49,44.09,51.09,44.12z"/>
	<path class="st3" d="M57.25,68.53c-1.45-0.24-1.89-1.38-1.53-2.43c-0.64-0.15-1.07-0.55-1.29-1.16c-0.22-0.62-0.11-1.2,0.27-1.72
		c-0.14-0.17-0.28-0.32-0.39-0.5c-0.66-1.1,0.01-2.59,1.52-2.59c0.77,0,1.54,0,2.31-0.01c0.1,0,0.2-0.01,0.35-0.02
		c-0.14-0.34-0.27-0.64-0.4-0.94c-0.4-0.93-0.81-1.87-1.2-2.8c-0.07-0.17-0.16-0.24-0.36-0.22c-2.21,0.22-4.35-1.5-4.64-3.71
		c-0.18-1.42,0.22-2.65,1.18-3.7c0.39-0.42,0.82-0.34,1.05,0.18c0.32,0.73,0.63,1.47,0.95,2.2c0.26,0.6,0.66,0.76,1.27,0.51
		c0.59-0.25,1.17-0.5,1.75-0.76c0.55-0.24,0.72-0.68,0.49-1.24c-0.33-0.77-0.66-1.54-0.99-2.31c-0.2-0.48,0-0.79,0.52-0.79
		c1.96-0.03,3.54,1.02,4.25,2.81c0.64,1.61,0.22,3.45-1.08,4.71c-0.18,0.18-0.22,0.32-0.12,0.54c0.28,0.62,0.54,1.26,0.83,1.88
		c0.04,0.09,0.17,0.19,0.26,0.19c1.33-0.02,2.6,0.28,3.85,0.73c1.35,0.5,2.56,1.22,3.58,2.23c0.36,0.36,0.66,0.78,0.96,1.19
		c0.13,0.17,0.24,0.28,0.48,0.28c0.81-0.01,1.61,0.01,2.42,0.01c0.29,0,0.47,0.15,0.48,0.41c0.01,0.28-0.15,0.46-0.46,0.45
		c-0.61,0-1.21-0.01-1.82-0.03c-0.36-0.01-0.72,0-1.08-0.06c-0.17-0.03-0.37-0.15-0.49-0.28c-0.19-0.23-0.29-0.55-0.51-0.75
		c-0.62-0.58-1.24-1.19-1.95-1.66c-1.51-1.01-3.19-1.54-5.01-1.64c-0.06,0-0.13,0-0.26,0c0.33,0.77,0.64,1.49,0.98,2.28
		c0.19-0.17,0.35-0.29,0.48-0.44c0.21-0.24,0.45-0.31,0.64-0.16c0.24,0.17,0.26,0.43,0.05,0.7c-0.51,0.66-1.24,0.93-2.02,0.98
		c-1.14,0.07-2.28,0.06-3.42,0.08c-1.1,0.01-2.21,0.02-3.31,0.02c-0.57,0-0.93,0.32-0.92,0.82c0.01,0.5,0.44,0.9,0.96,0.9
		c1.72,0,3.45-0.01,5.17-0.01c0.45,0,0.67,0.16,0.66,0.45c-0.01,0.29-0.21,0.41-0.66,0.41c-1.72,0.01-3.45,0.01-5.17,0.02
		c-0.39,0-0.63,0.23-0.68,0.62c-0.06,0.51,0.31,1.06,0.95,1.05c1.88-0.03,3.75,0,5.63-0.01c0.23,0,0.42,0.04,0.5,0.28
		c0.1,0.29-0.1,0.57-0.44,0.57c-0.83,0.01-1.66,0-2.49,0c-0.69,0-1.39-0.01-2.08,0c-0.48,0-0.78,0.26-0.82,0.66
		c-0.03,0.38,0.29,0.77,0.7,0.85c0.11,0.02,0.23,0.02,0.34,0.02c1.72,0,3.45,0,5.17,0.02c0.14,0,0.34,0.04,0.41,0.13
		c0.09,0.11,0.14,0.34,0.09,0.46c-0.06,0.13-0.27,0.26-0.41,0.26c-0.72,0.03-1.45,0.01-2.17,0.01c-0.59,0-1.18-0.01-1.77,0
		c-0.53,0.01-0.82,0.27-0.81,0.71c0.01,0.45,0.38,0.79,0.87,0.8c2.27,0.03,4.53,0.03,6.79-0.12c1.58-0.1,2.9-0.74,3.94-1.93
		c0.24-0.28,0.51-0.38,0.87-0.37c1.02,0.04,2.04,0.04,3.05,0.06c0.34,0.01,0.49,0.15,0.48,0.43c0,0.28-0.17,0.42-0.49,0.42
		c-1.01-0.01-2.02-0.03-3.03-0.04c-0.1,0-0.22,0.06-0.29,0.13c-1.02,1.16-2.31,1.87-3.83,2.09c-0.79,0.12-1.59,0.14-2.39,0.15
		c-1.68,0.03-3.37,0.04-5.05,0.05c-1.28,0-2.05-1.02-1.7-2.26C57.23,68.6,57.24,68.56,57.25,68.53z M53.47,49.6
		c-0.07,0.1-0.13,0.16-0.17,0.23c-0.77,1.25-0.83,2.54-0.06,3.78c0.78,1.26,1.98,1.8,3.46,1.65c0.52-0.05,0.68,0.02,0.87,0.47
		c0.6,1.39,1.2,2.78,1.79,4.17c0.07,0.15,0.15,0.21,0.32,0.21c0.76-0.02,1.52-0.02,2.28-0.03c0.19,0,0.37-0.02,0.6-0.04
		c-0.07-0.17-0.12-0.31-0.17-0.43c-0.72-1.68-1.45-3.35-2.16-5.03c-0.2-0.46-0.15-0.62,0.23-0.94c1.06-0.9,1.51-2.05,1.25-3.41
		c-0.25-1.33-1.08-2.22-2.35-2.67c-0.23-0.08-0.48-0.1-0.79-0.17c0.31,0.72,0.59,1.36,0.85,2c0.36,0.86-0.01,1.83-0.85,2.22
		c-0.66,0.31-1.34,0.6-2.02,0.87c-0.95,0.37-1.87-0.05-2.27-1C54.02,50.85,53.75,50.24,53.47,49.6z"/>
	<path class="st2" d="M33.37,35.26c0.12,0,0.21,0,0.31,0c1.61,0,3.22,0,4.83,0c0.14,0,0.32,0.01,0.4,0.1
		c0.1,0.11,0.15,0.31,0.13,0.45c-0.03,0.21-0.21,0.3-0.42,0.3c-0.79,0-1.58,0-2.37,0c-1,0-2,0-3,0c-0.58,0-0.76-0.19-0.76-0.78
		c0-3.86,0-7.71-0.01-11.57c0-0.26-0.07-0.56-0.2-0.78c-0.2-0.34-0.66-0.43-1.05-0.3c-0.37,0.12-0.6,0.45-0.6,0.88
		c0,3.14,0,6.29,0,9.43c0,1.56,0,3.12,0,4.69c0,0.09,0,0.19,0,0.3c0.12,0.01,0.21,0.01,0.3,0.01c2.99,0,5.98,0,8.97,0
		c0.1,0,0.21-0.01,0.31,0.01c0.24,0.05,0.36,0.2,0.35,0.45c-0.01,0.24-0.16,0.36-0.38,0.39c-0.12,0.02-0.25,0.01-0.37,0.01
		c-4.46,0-8.91,0-13.37-0.01c-0.25,0-0.32,0.06-0.32,0.32c0.01,3.48,0,6.95,0,10.43c0,0.93,0.01,1.87-0.01,2.8
		c0,0.27,0.09,0.33,0.34,0.33c1.23-0.01,2.46-0.01,3.69-0.01c0.23,0,0.44,0.04,0.53,0.28c0.11,0.31-0.09,0.58-0.45,0.58
		c-0.89,0-1.77,0-2.66,0c-0.5,0-1.01,0-1.51,0c-0.54,0-0.8-0.27-0.8-0.81c0-4.55,0-9.1,0-13.66c0-0.24-0.03-0.35-0.3-0.43
		c-1.41-0.43-2.43-1.76-2.46-3.24c-0.03-1.97-0.01-3.94-0.01-5.91c0-1.49,0-2.99,0-4.48c0-1.22,0-2.43,0-3.65
		c0-0.54,0.34-0.9,0.89-0.9c2.11,0,4.23,0,6.34,0c0.57,0,0.9,0.35,0.91,0.91c0,0.18,0,0.36,0,0.56c0.19-0.05,0.35-0.11,0.51-0.14
		c1.21-0.25,2.21,0.56,2.22,1.8c0.01,2.31,0,4.63,0,6.94c0,1.5,0,2.99,0,4.49C33.35,35.11,33.36,35.16,33.37,35.26z M23.37,22.74
		c0.43,0,0.82,0,1.21,0c0.98,0,1.96,0,2.94,0c0.23,0,0.38,0.1,0.43,0.33c0.05,0.22-0.04,0.4-0.25,0.49
		c-0.11,0.04-0.24,0.04-0.37,0.04c-1.22,0-2.44,0.01-3.66-0.01c-0.28,0-0.34,0.1-0.34,0.34c0.01,1.72,0.01,3.45,0.02,5.17
		c0,2.1-0.01,4.21,0.01,6.31C23.38,36.78,24.64,38,26,38c1.15,0,2.3,0,3.46,0c0.09,0,0.18-0.01,0.29-0.02c0-5.55,0-11.08,0-16.61
		c-2.13,0-4.24,0-6.36,0C23.37,21.83,23.37,22.27,23.37,22.74z"/>
	<path class="st2" d="M28.01,70.91c-0.63,0-1.26,0-1.88,0c-0.32,0-0.51-0.15-0.51-0.41c-0.01-0.27,0.18-0.45,0.5-0.45
		c1.09,0,2.17,0,3.26,0c2.74,0,5.12-1.6,6.09-4.15c0.21-0.56,0.32-1.18,0.36-1.78c0.06-0.92,0.02-1.84,0.03-2.76
		c0-0.38,0.05-0.76,0.05-1.14c0-0.25-0.04-0.49-0.04-0.74c0-1.31-0.01-2.63,0.03-3.94c0.05-1.6,1.4-2.84,3-2.81
		c1.7,0.03,2.96,1.3,2.98,3c0.01,1.05,0.04,2.09,0.06,3.14c0.07,2.83,2,5.28,4.8,6.05c1.31,0.36,2.61,0.27,3.9-0.18
		c0.87-0.3,1.58-0.85,2.27-1.44c0.36-0.3,0.61-0.34,0.81-0.1c0.19,0.23,0.12,0.44-0.24,0.76c-0.75,0.67-1.57,1.23-2.52,1.58
		c-2.89,1.07-6.23,0.27-8.28-2.29c-1.08-1.34-1.59-2.88-1.62-4.59c-0.01-1.02-0.03-2.04-0.06-3.05c-0.03-1.1-0.97-2-2.09-2.01
		c-1.16-0.01-2.14,0.87-2.16,1.99c-0.03,1.07-0.01,2.13-0.02,3.2c-0.01,0.6-0.04,1.21-0.04,1.81c0,0.56,0.02,1.12,0.02,1.67
		c0,1.39,0.09,2.8-0.49,4.13c-1.06,2.44-2.91,3.91-5.5,4.39c-0.88,0.16-1.8,0.13-2.7,0.19C28.01,70.95,28.01,70.93,28.01,70.91z"/>
	<path class="st2" d="M35.35,46.85c0,0.31,0.01,0.58,0,0.84c-0.01,0.29-0.17,0.47-0.43,0.47c-0.26,0-0.43-0.17-0.44-0.46
		c-0.01-0.43-0.01-0.85,0-1.28c0.01-0.3,0.2-0.45,0.52-0.44c0.84,0,1.69,0.02,2.53,0.01c1.77-0.04,3.35-0.61,4.7-1.77
		c0.17-0.15,0.33-0.32,0.49-0.48c0.24-0.23,0.45-0.25,0.65-0.07c0.19,0.18,0.19,0.44-0.01,0.66c-0.98,1.04-2.16,1.76-3.52,2.18
		c-1.16,0.36-2.34,0.36-3.53,0.35C36,46.85,35.7,46.85,35.35,46.85z"/>
	<path class="st2" d="M55.73,57.96c-0.02,0.38-0.03,0.76-0.06,1.14c-0.02,0.28-0.21,0.45-0.45,0.44c-0.25-0.01-0.38-0.15-0.38-0.46
		c-0.01-0.66-0.01-1.32,0-1.99c0-0.26,0.19-0.44,0.42-0.45c0.23-0.01,0.43,0.17,0.44,0.43c0.02,0.29,0,0.59,0,0.88
		C55.71,57.96,55.72,57.96,55.73,57.96z"/>
</g>
</svg>
