<?xml version="1.0" encoding="utf-8"?>
<!-- Generator: Adobe Illustrator 26.3.1, SVG Export Plug-In . SVG Version: 6.00 Build 0)  -->
<svg version="1.1" id="Layer_1" xmlns="http://www.w3.org/2000/svg" xmlns:xlink="http://www.w3.org/1999/xlink" x="0px" y="0px"
	 viewBox="0 0 91.64 91.64" style="enable-background:new 0 0 91.64 91.64;" xml:space="preserve">
<style type="text/css">
	.st0{fill-rule:evenodd;clip-rule:evenodd;fill:#FF5A1F;}
	.st1{fill-rule:evenodd;clip-rule:evenodd;fill:#032DA6;}
	.st2{fill:#032DA6;}
	.st3{fill:#FF5A1F;}
	.st4{fill:none;stroke:#032DA6;stroke-width:1.2;stroke-linecap:round;stroke-linejoin:round;stroke-miterlimit:10;}
	.st5{fill:none;stroke:#FF5A1F;stroke-width:1.2;stroke-linecap:round;stroke-linejoin:round;stroke-miterlimit:10;}
	.st6{fill:none;stroke:#032DA6;stroke-width:1.1582;stroke-linecap:round;stroke-linejoin:round;stroke-miterlimit:10;}
	.st7{fill:none;stroke:#FF5A1F;stroke-width:1.1582;stroke-linecap:round;stroke-linejoin:round;stroke-miterlimit:10;}
</style>
<g>
	<g>
		<g>
			<path class="st2" d="M62.24,19.39H27.11c-0.23,0-0.42,0.19-0.42,0.42v52.68c0,0.23,0.19,0.42,0.42,0.42h35.12
				c0.23,0,0.42-0.19,0.42-0.42V19.81C62.65,19.58,62.47,19.39,62.24,19.39z M61.82,72.07H27.53V20.23h34.29V72.07z"/>
		</g>
	</g>
	<g>
		<g>
			<path class="st2" d="M44.68,28.17c-0.23,0-0.42,0.19-0.42,0.42v43.9c0,0.23,0.19,0.42,0.42,0.42s0.42-0.19,0.42-0.42v-43.9
				C45.09,28.36,44.91,28.17,44.68,28.17z"/>
		</g>
	</g>
	<g>
		<g>
			<path class="st2" d="M62.24,28.17H27.11c-0.23,0-0.42,0.19-0.42,0.42c0,0.23,0.19,0.42,0.42,0.42h35.12
				c0.23,0,0.42-0.19,0.42-0.42C62.65,28.36,62.47,28.17,62.24,28.17z"/>
		</g>
	</g>
	<g>
		<g>
			<path class="st3" d="M60.15,21.48H29.21c-0.23,0-0.42,0.19-0.42,0.42v4.6c0,0.23,0.19,0.42,0.42,0.42h30.94
				c0.23,0,0.42-0.19,0.42-0.42v-4.6C60.56,21.67,60.38,21.48,60.15,21.48z M59.73,26.08h-30.1v-3.76h30.1V26.08z"/>
		</g>
	</g>
	<g>
		<g>
			<path class="st3" d="M42.17,48.66c-0.69,0-1.25,0.56-1.25,1.25c0,0.69,0.56,1.25,1.25,1.25c0.69,0,1.25-0.56,1.25-1.25
				C43.42,49.22,42.86,48.66,42.17,48.66z M42.17,50.33c-0.23,0-0.42-0.19-0.42-0.42c0-0.23,0.19-0.42,0.42-0.42
				s0.42,0.19,0.42,0.42C42.58,50.14,42.4,50.33,42.17,50.33z"/>
		</g>
	</g>
	<g>
		<g>
			<circle class="st3" cx="42.17" cy="53.26" r="0.84"/>
		</g>
	</g>
	<g>
		<g>
			<path class="st3" d="M41.33,49.49h-3.34c-0.23,0-0.42,0.19-0.42,0.42s0.19,0.42,0.42,0.42h3.34c0.23,0,0.42-0.19,0.42-0.42
				S41.56,49.49,41.33,49.49z"/>
		</g>
	</g>
	<g>
		<g>
			<path class="st3" d="M47.18,48.66c-0.69,0-1.25,0.56-1.25,1.25c0,0.69,0.56,1.25,1.25,1.25c0.69,0,1.25-0.56,1.25-1.25
				C48.44,49.22,47.88,48.66,47.18,48.66z M47.18,50.33c-0.23,0-0.42-0.19-0.42-0.42c0-0.23,0.19-0.42,0.42-0.42
				c0.23,0,0.42,0.19,0.42,0.42C47.6,50.14,47.41,50.33,47.18,50.33z"/>
		</g>
	</g>
	<g>
		<g>
			<circle class="st3" cx="47.18" cy="53.26" r="0.84"/>
		</g>
	</g>
	<g>
		<g>
			<path class="st3" d="M51.37,49.49h-3.34c-0.23,0-0.42,0.19-0.42,0.42s0.19,0.42,0.42,0.42h3.34c0.23,0,0.42-0.19,0.42-0.42
				S51.6,49.49,51.37,49.49z"/>
		</g>
	</g>
	<g>
		<g>
			<path class="st3" d="M44.68,21.48c-0.23,0-0.42,0.19-0.42,0.42v4.6c0,0.23,0.19,0.42,0.42,0.42s0.42-0.19,0.42-0.42v-4.6
				C45.09,21.67,44.91,21.48,44.68,21.48z"/>
		</g>
	</g>
	<g>
		<g>
			<g>
				<path class="st2" d="M56.8,30.26h-1.67c-0.23,0-0.42,0.19-0.42,0.42c0,0.23,0.19,0.42,0.42,0.42h1.67
					c0.23,0,0.42-0.19,0.42-0.42C57.22,30.45,57.03,30.26,56.8,30.26z"/>
				<path class="st2" d="M60.15,30.26h-1.67c-0.23,0-0.42,0.19-0.42,0.42c0,0.23,0.19,0.42,0.42,0.42h1.25v5.44
					c0,0.23,0.19,0.42,0.42,0.42s0.42-0.19,0.42-0.42v-5.85C60.56,30.45,60.38,30.26,60.15,30.26z"/>
			</g>
		</g>
	</g>
	<g>
		<g>
			<path class="st2" d="M29.21,64.13c-0.23,0-0.42,0.19-0.42,0.42v5.85c0,0.23,0.19,0.42,0.42,0.42c0.23,0,0.42-0.19,0.42-0.42
				v-5.85C29.62,64.31,29.44,64.13,29.21,64.13z"/>
		</g>
	</g>
	<g>
		<g>
			<path class="st2" d="M29.21,60.78c-0.23,0-0.42,0.19-0.42,0.42v1.25c0,0.23,0.19,0.42,0.42,0.42c0.23,0,0.42-0.19,0.42-0.42V61.2
				C29.62,60.97,29.44,60.78,29.21,60.78z"/>
		</g>
	</g>
</g>
</svg>
