<?xml version="1.0" encoding="utf-8"?>
<!-- Generator: Adobe Illustrator 26.3.1, SVG Export Plug-In . SVG Version: 6.00 Build 0)  -->
<svg version="1.1" id="Layer_1" xmlns="http://www.w3.org/2000/svg" xmlns:xlink="http://www.w3.org/1999/xlink" x="0px" y="0px"
	 viewBox="0 0 91.64 91.64" style="enable-background:new 0 0 91.64 91.64;" xml:space="preserve">
<style type="text/css">
	.st0{fill-rule:evenodd;clip-rule:evenodd;fill:#FF5A1F;}
	.st1{fill-rule:evenodd;clip-rule:evenodd;fill:#032DA6;}
	.st2{fill:#032DA6;}
	.st3{fill:#FF5A1F;}
	.st4{fill:none;stroke:#032DA6;stroke-width:1.2;stroke-linecap:round;stroke-linejoin:round;stroke-miterlimit:10;}
	.st5{fill:none;stroke:#FF5A1F;stroke-width:1.2;stroke-linecap:round;stroke-linejoin:round;stroke-miterlimit:10;}
	.st6{fill:none;stroke:#032DA6;stroke-width:1.1582;stroke-linecap:round;stroke-linejoin:round;stroke-miterlimit:10;}
	.st7{fill:none;stroke:#FF5A1F;stroke-width:1.1582;stroke-linecap:round;stroke-linejoin:round;stroke-miterlimit:10;}
</style>
<g>
	<g>
		<path class="st2" d="M69.71,57.66H20.83c-1.1,0-2-0.9-2-2v-2.21c0-1.1,0.9-2,2-2h20.96c0.19,0,0.34-0.15,0.34-0.34V18.91
			c0-1.14,0.93-2.07,2.07-2.07h2.06c1.14,0,2.07,0.93,2.07,2.07v32.21c0,0.19,0.15,0.34,0.34,0.34h21.03c1.1,0,2,0.9,2,2v2.21
			C71.71,56.77,70.81,57.66,69.71,57.66z M20.83,53.11c-0.19,0-0.34,0.15-0.34,0.34v2.21c0,0.19,0.15,0.34,0.34,0.34h48.88
			c0.19,0,0.34-0.15,0.34-0.34v-2.21c0-0.19-0.15-0.34-0.34-0.34H48.68c-1.1,0-2-0.9-2-2V18.91c0-0.23-0.19-0.42-0.42-0.42H44.2
			c-0.23,0-0.42,0.19-0.42,0.42v32.21c0,1.1-0.9,2-2,2H20.83z"/>
	</g>
	<g>
		<path class="st2" d="M60.78,66.23H29.69c-1.1,0-2-0.9-2-2v-2.21c0-1.1,0.9-2,2-2h31.09c1.1,0,2,0.9,2,2v2.21
			C62.78,65.34,61.88,66.23,60.78,66.23z M29.69,61.68c-0.19,0-0.34,0.15-0.34,0.34v2.21c0,0.19,0.15,0.34,0.34,0.34h31.09
			c0.19,0,0.34-0.15,0.34-0.34v-2.21c0-0.19-0.15-0.34-0.34-0.34H29.69z"/>
	</g>
	<g>
		<path class="st2" d="M52.93,74.8h-15.3c-1.1,0-2-0.9-2-2V70.6c0-1.1,0.9-2,2-2h15.3c1.1,0,2,0.9,2,2v2.21
			C54.92,73.91,54.03,74.8,52.93,74.8z M37.62,70.25c-0.19,0-0.34,0.15-0.34,0.34v2.21c0,0.19,0.15,0.34,0.34,0.34h15.3
			c0.19,0,0.34-0.15,0.34-0.34V70.6c0-0.19-0.15-0.34-0.34-0.34H37.62z"/>
	</g>
	<polygon class="st3" points="58.96,46.9 63.45,42.93 61.55,42.65 65.92,32.01 59.77,34.23 64.55,25.82 60.91,25.09 55.69,37.92 
		61.84,35.99 59.93,41.92 58.32,41.11 	"/>
	<polygon class="st3" points="31.37,46.9 26.88,42.93 28.78,42.65 24.41,32.01 30.56,34.23 25.79,25.82 29.43,25.09 34.65,37.92 
		28.5,35.99 30.4,41.92 32.02,41.11 	"/>
</g>
</svg>
