<?xml version="1.0" encoding="utf-8"?>
<!-- Generator: Adobe Illustrator 26.3.1, SVG Export Plug-In . SVG Version: 6.00 Build 0)  -->
<svg version="1.1" id="Layer_1" xmlns="http://www.w3.org/2000/svg" xmlns:xlink="http://www.w3.org/1999/xlink" x="0px" y="0px"
	 viewBox="0 0 91.64 91.64" style="enable-background:new 0 0 91.64 91.64;" xml:space="preserve">
<style type="text/css">
	.st0{fill-rule:evenodd;clip-rule:evenodd;fill:#FF5A1F;}
	.st1{fill-rule:evenodd;clip-rule:evenodd;fill:#032DA6;}
	.st2{fill:#032DA6;}
	.st3{fill:#FF5A1F;}
	.st4{fill:none;stroke:#032DA6;stroke-width:1.2;stroke-linecap:round;stroke-linejoin:round;stroke-miterlimit:10;}
	.st5{fill:none;stroke:#FF5A1F;stroke-width:1.2;stroke-linecap:round;stroke-linejoin:round;stroke-miterlimit:10;}
	.st6{fill:none;stroke:#032DA6;stroke-width:1.1582;stroke-linecap:round;stroke-linejoin:round;stroke-miterlimit:10;}
	.st7{fill:none;stroke:#FF5A1F;stroke-width:1.1582;stroke-linecap:round;stroke-linejoin:round;stroke-miterlimit:10;}
</style>
<g>
	<g>
		<g>
			<path class="st2" d="M66.45,28.36c0-1.6-1.3-2.89-2.89-2.89H30.93c-1.6,0-2.89,1.3-2.89,2.89v32.63c0,1.6,1.3,2.89,2.89,2.89
				h32.63c1.6,0,2.89-1.3,2.89-2.89V28.36z M64.87,60.99c0,0.73-0.59,1.32-1.32,1.32H30.93c-0.73,0-1.32-0.59-1.32-1.32V28.36
				c0-0.73,0.59-1.32,1.32-1.32h32.63c0.73,0,1.32,0.59,1.32,1.32V60.99z"/>
		</g>
	</g>
	<g>
		<g>
			<path class="st2" d="M63.06,57.14c-0.45-0.45-1.04-0.69-1.67-0.69c-0.63,0-1.23,0.25-1.67,0.69c-0.45,0.45-0.69,1.04-0.69,1.67
				c0,0.63,0.25,1.23,0.69,1.67c0.46,0.46,1.07,0.69,1.67,0.69s1.21-0.23,1.67-0.69C63.98,59.57,63.98,58.07,63.06,57.14z
				 M61.94,59.37c-0.31,0.31-0.81,0.31-1.12,0c-0.15-0.15-0.23-0.35-0.23-0.56s0.08-0.41,0.23-0.56c0.15-0.15,0.35-0.23,0.56-0.23
				s0.41,0.08,0.56,0.23C62.25,58.57,62.25,59.07,61.94,59.37z"/>
		</g>
	</g>
	<g>
		<g>
			<path class="st2" d="M34.78,28.86c-0.92-0.92-2.43-0.92-3.35,0c-0.92,0.92-0.92,2.43,0,3.35c0.45,0.45,1.04,0.69,1.67,0.69
				c0.63,0,1.23-0.25,1.67-0.69c0.45-0.45,0.69-1.04,0.69-1.67C35.47,29.9,35.23,29.31,34.78,28.86z M33.66,31.09
				c-0.15,0.15-0.35,0.23-0.56,0.23c-0.21,0-0.41-0.08-0.56-0.23c-0.31-0.31-0.31-0.81,0-1.12c0.15-0.15,0.36-0.23,0.56-0.23
				c0.2,0,0.4,0.08,0.56,0.23c0.15,0.15,0.23,0.35,0.23,0.56C33.89,30.75,33.81,30.95,33.66,31.09z"/>
		</g>
	</g>
	<g>
		<g>
			<path class="st2" d="M63.06,28.86c-0.92-0.92-2.43-0.92-3.35,0c-0.45,0.45-0.69,1.04-0.69,1.67c0,0.63,0.25,1.23,0.69,1.67
				c0.45,0.45,1.04,0.69,1.67,0.69c0.63,0,1.23-0.25,1.67-0.69C63.98,31.29,63.98,29.79,63.06,28.86z M61.94,31.09
				c-0.15,0.15-0.35,0.23-0.56,0.23s-0.41-0.08-0.56-0.23c-0.15-0.15-0.23-0.35-0.23-0.56s0.08-0.41,0.23-0.56
				c0.15-0.15,0.36-0.23,0.56-0.23c0.2,0,0.4,0.08,0.56,0.23C62.25,30.29,62.25,30.79,61.94,31.09z"/>
		</g>
	</g>
	<g>
		<g>
			<path class="st2" d="M34.78,57.14c-0.45-0.45-1.04-0.69-1.67-0.69c-0.63,0-1.23,0.25-1.67,0.69c-0.92,0.92-0.92,2.43,0,3.35
				c0.46,0.46,1.07,0.69,1.67,0.69c0.61,0,1.21-0.23,1.67-0.69c0.45-0.45,0.69-1.04,0.69-1.67C35.47,58.18,35.23,57.59,34.78,57.14z
				 M33.66,59.37c-0.31,0.31-0.81,0.31-1.12,0c-0.31-0.31-0.31-0.81,0-1.12c0.15-0.15,0.35-0.23,0.56-0.23
				c0.21,0,0.41,0.08,0.56,0.23c0.15,0.15,0.23,0.35,0.23,0.56S33.81,59.23,33.66,59.37z"/>
		</g>
	</g>
	<g>
		<g>
			<path class="st3" d="M47.25,29.15c-8.56,0-15.52,6.96-15.52,15.52S38.69,60.2,47.25,60.2s15.52-6.96,15.52-15.52
				S55.81,29.15,47.25,29.15z M48.03,30.75c4.32,0.24,8.12,2.46,10.51,5.77h-9.2v1.58h10.19c0.94,1.74,1.51,3.7,1.63,5.79h-9.09
				c-0.34-2.07-1.97-3.7-4.04-4.04V30.75L48.03,30.75z M46.46,30.75v5.77H35.94C38.33,33.22,42.13,31,46.46,30.75z M46.46,58.6
				c-4.32-0.24-8.12-2.46-10.51-5.77h10.51V58.6z M46.46,51.25h-11.5c-0.94-1.74-1.51-3.71-1.63-5.79h7.71v-1.58h-7.71
				c0.12-2.08,0.69-4.05,1.63-5.79h11.5v1.75c-2.32,0.38-4.1,2.4-4.1,4.83c0,2.43,1.78,4.45,4.1,4.83L46.46,51.25L46.46,51.25z
				 M43.93,44.68c0-1.83,1.49-3.32,3.32-3.32c1.83,0,3.32,1.49,3.32,3.32c0,1.83-1.49,3.32-3.32,3.32S43.93,46.5,43.93,44.68z
				 M58.55,52.83c-2.39,3.3-6.19,5.52-10.51,5.77v-9.09c2.07-0.34,3.7-1.97,4.04-4.04h9.09c-0.12,2.08-0.69,4.05-1.63,5.79H49.35
				v1.58L58.55,52.83L58.55,52.83z"/>
		</g>
	</g>
</g>
</svg>
