<?xml version="1.0" encoding="utf-8"?>
<!-- Generator: Adobe Illustrator 26.3.1, SVG Export Plug-In . SVG Version: 6.00 Build 0)  -->
<svg version="1.1" id="Layer_1" xmlns="http://www.w3.org/2000/svg" xmlns:xlink="http://www.w3.org/1999/xlink" x="0px" y="0px"
	 viewBox="0 0 91.64 91.64" style="enable-background:new 0 0 91.64 91.64;" xml:space="preserve">
<style type="text/css">
	.st0{fill-rule:evenodd;clip-rule:evenodd;fill:#FF5A1F;}
	.st1{fill-rule:evenodd;clip-rule:evenodd;fill:#032DA6;}
	.st2{fill:#032DA6;}
	.st3{fill:#FF5A1F;}
	.st4{fill:none;stroke:#032DA6;stroke-width:1.2;stroke-linecap:round;stroke-linejoin:round;stroke-miterlimit:10;}
	.st5{fill:none;stroke:#FF5A1F;stroke-width:1.2;stroke-linecap:round;stroke-linejoin:round;stroke-miterlimit:10;}
	.st6{fill:none;stroke:#032DA6;stroke-width:1.1582;stroke-linecap:round;stroke-linejoin:round;stroke-miterlimit:10;}
	.st7{fill:none;stroke:#FF5A1F;stroke-width:1.1582;stroke-linecap:round;stroke-linejoin:round;stroke-miterlimit:10;}
</style>
<g>
	<path class="st2" d="M61.62,30.99c0-2.14,0-4.22,0-6.32c-6.55,0-13.07,0-19.66,0c0,0.5,0,0.98,0,1.47c0,0.29-0.06,0.54-0.41,0.53
		c-0.32-0.01-0.38-0.25-0.37-0.52c0-0.47,0-0.95,0-1.46c-2.45,0-4.88,0-7.33,0c0,1.07,0,2.13,0,3.24c0.16,0.01,0.31,0.02,0.46,0.02
		c1.53,0,3.06,0,4.59,0c0.3,0,0.59,0.02,0.59,0.39c0,0.37-0.3,0.4-0.59,0.4c-0.36-0.01-0.71,0-1.1,0c0,1.12,0,2.18,0,3.32
		c0.38,0,0.76,0,1.15,0c0.14,0,0.31-0.04,0.43,0.01c0.16,0.08,0.41,0.25,0.39,0.35c-0.03,0.16-0.21,0.33-0.36,0.44
		c-0.09,0.06-0.25,0.02-0.38,0.02c-1.51,0-3.03,0-4.54,0c-0.15,0-0.31,0-0.49,0c0,1.11,0,2.17,0,3.3c0.16,0,0.31,0,0.46,0
		c1.56,0,3.12,0,4.67,0c0.3,0,0.58,0.02,0.58,0.41c-0.01,0.35-0.29,0.37-0.56,0.38c-2.91,0.02-5.83,0.03-8.74,0.05
		c-0.19,0-0.37,0-0.6,0c0,1.1,0,2.17,0,3.28c0.16,0.01,0.31,0.02,0.46,0.02c1.01,0,2.02,0,3.03,0c0.27,0,0.52,0.04,0.52,0.37
		c0.01,0.35-0.24,0.41-0.53,0.41c-2.34,0-4.67,0-7.01,0c-0.17,0-0.34,0-0.55,0c0,1.1,0,2.17,0,3.31c0.17,0,0.34,0,0.51,0
		c2.13,0,4.27,0,6.4,0c0.09,0,0.17,0,0.26,0c0.29-0.01,0.49,0.09,0.49,0.41c0,0.31-0.2,0.43-0.48,0.43c-0.89,0-1.79,0-2.68,0
		c-0.17,0-0.34,0-0.58,0c0,0.53,0,1.03,0,1.53c0,0.14,0.04,0.31-0.02,0.43c-0.08,0.16-0.24,0.27-0.37,0.4
		c-0.14-0.14-0.38-0.26-0.39-0.41c-0.05-0.51-0.02-1.04-0.02-1.56c0-0.13,0-0.26,0-0.42c-1.05,0-2.07,0-3.12,0
		c0,3.42,0,6.82,0,10.26c0.6,0,1.2,0.06,1.78-0.01c0.72-0.09,1.28-0.97,1.18-1.73c-0.04-0.28-0.12-0.56-0.18-0.85
		c-0.28-1.34,0.5-2.63,1.78-2.93c1.34-0.32,2.63,0.48,2.95,1.86c0.49,2.12,0.96,4.24,1.44,6.37c0.23,1.01,1.04,1.58,1.95,1.39
		c0.94-0.2,1.45-1.06,1.25-2.09c-1.02-5.06-2.03-10.12-3.06-15.17c-0.18-0.87-0.09-1.67,0.52-2.35c0.62-0.69,1.39-0.96,2.3-0.77
		c0.91,0.19,1.52,0.74,1.81,1.62c0.1,0.31,0.18,0.65,0.19,0.97c0,0.17-0.18,0.34-0.28,0.5c-0.16-0.11-0.36-0.19-0.46-0.34
		c-0.1-0.14-0.08-0.36-0.12-0.54c-0.2-1.03-1-1.62-1.95-1.44c-0.91,0.17-1.45,1.03-1.26,2.04c0.38,2,0.75,3.99,1.15,5.99
		c0.63,3.12,1.29,6.24,1.93,9.36c0.3,1.46-0.5,2.72-1.89,3.01c-1.32,0.27-2.53-0.58-2.86-2.01c-0.48-2.11-0.95-4.22-1.43-6.32
		c-0.18-0.78-0.74-1.28-1.45-1.33c-1.09-0.09-1.95,0.85-1.76,1.93c0.05,0.28,0.13,0.56,0.18,0.84c0.31,1.65-1.12,2.97-2.33,2.82
		c-0.45-0.06-0.91-0.01-1.4-0.01c0,2.55,0,5.05,0,7.61c0.2,0,0.39,0,0.57,0c7.17,0,14.33,0,21.5,0c0.31,0,0.75-0.11,0.74,0.41
		c-0.01,0.49-0.43,0.37-0.73,0.37c-7.31,0-14.62,0-21.94,0c-0.81,0-0.95-0.14-0.95-0.95c0-13.02,0-26.05,0-39.07
		c0-0.76,0.03-0.78,0.78-0.78c11.91,0,23.82,0,35.74,0c0.86,0,1.01,0.14,1.01,1.01c0,3.78,0,7.56,0,11.34
		c0,0.12,0.04,0.26-0.01,0.34c-0.11,0.16-0.27,0.28-0.4,0.41c-0.13-0.13-0.32-0.25-0.36-0.4c-0.06-0.26-0.02-0.54-0.02-0.82
		c0-1.3,0-2.59,0-3.92c-0.58,0-1.13-0.08-1.65,0.02c-0.78,0.14-1.28,1.03-1.13,1.84c0.04,0.24,0.11,0.48,0.16,0.72
		c0.28,1.41-0.51,2.66-1.86,2.95c-1.31,0.28-2.57-0.55-2.88-1.92c-0.45-1.95-0.88-3.91-1.32-5.86c-0.06-0.25-0.1-0.51-0.18-0.76
		c-0.27-0.83-1.14-1.31-1.96-1.09c-0.83,0.22-1.35,1.04-1.2,1.9c0.08,0.42,0.2,0.85,0.21,1.28c0.03,1.21-0.87,2.25-2.05,2.41
		c-1.2,0.17-2.34-0.55-2.68-1.7c-0.11-0.36-0.18-0.73-0.27-1.09c-0.23-1-1.06-1.57-1.97-1.36c-0.92,0.21-1.43,1.07-1.23,2.06
		c0.55,2.68,1.1,5.36,1.65,8.05c0.03,0.14,0.08,0.32,0.02,0.42c-0.07,0.13-0.29,0.29-0.37,0.26c-0.16-0.06-0.34-0.23-0.37-0.39
		c-0.27-1.21-0.51-2.43-0.76-3.64c-0.31-1.5-0.61-2.99-0.93-4.49c-0.31-1.46,0.45-2.74,1.83-3.04c1.34-0.3,2.57,0.54,2.9,1.99
		c0.08,0.34,0.15,0.68,0.25,1.01c0.26,0.84,1.11,1.33,1.93,1.13c0.88-0.22,1.4-1.05,1.22-1.95c-0.06-0.33-0.16-0.65-0.19-0.97
		c-0.13-1.26,0.72-2.42,1.92-2.64c1.31-0.24,2.52,0.51,2.83,1.81c0.51,2.15,0.97,4.3,1.46,6.45c0.19,0.83,0.77,1.36,1.53,1.42
		c0.69,0.05,1.41-0.38,1.6-1.07c0.1-0.37,0.03-0.79,0.03-1.18c-0.01-0.57-0.14-1.16-0.02-1.7c0.24-1.08,1.38-1.75,2.2-1.66
		C60.78,31.02,61.18,30.99,61.62,30.99z M33.04,24.68c-2.47,0-4.89,0-7.31,0c0,1.1,0,2.16,0,3.22c2.45,0,4.88,0,7.31,0
		C33.04,26.82,33.04,25.77,33.04,24.68z M36.95,28.81c-2.44,0-4.85,0-7.27,0c0,1.09,0,2.16,0,3.24c2.44,0,4.85,0,7.27,0
		C36.95,30.96,36.95,29.9,36.95,28.81z M25.86,36.15c2.46,0,4.86,0,7.28,0c0-1.1,0-2.17,0-3.25c-2.45,0-4.86,0-7.28,0
		C25.86,34,25.86,35.06,25.86,36.15z M25.72,40.28c1.1,0,2.17,0,3.23,0c0-1.12,0-2.21,0-3.29c-1.1,0-2.15,0-3.23,0
		C25.72,38.09,25.72,39.16,25.72,40.28z M28.81,32.07c0-1.13,0-2.21,0-3.31c-1.05,0-2.06,0-3.08,0c0,1.12,0,2.2,0,3.31
		C26.76,32.07,27.77,32.07,28.81,32.07z"/>
	<path class="st3" d="M52.1,66.43c-1.69-0.18-2.21-1.62-1.69-2.7c-0.98-0.24-1.56-0.84-1.61-1.86c-0.04-0.89,0.38-1.52,1.14-1.78
		c-0.27-0.56-0.62-1.07-0.76-1.64c-0.45-1.9,0.95-3.64,2.91-3.69c0.62-0.01,1.23,0,1.9,0c-0.08-0.49-0.15-0.92-0.23-1.4
		c-0.89,0.17-1.73,0.34-2.58,0.5c-0.11,0.02-0.23,0.05-0.34,0.06c-0.5,0.08-0.75-0.09-0.87-0.59c-0.04-0.18-0.08-0.36-0.13-0.57
		c-1.28,0.25-2.52,0.49-3.76,0.75c-2.03,0.42-3.67-0.63-4.08-2.66c-0.49-2.42-0.96-4.83-1.44-7.25c-0.13-0.68,0.11-1.05,0.78-1.18
		c8.66-1.73,17.33-3.45,25.99-5.18c0.71-0.14,1.06,0.1,1.2,0.82c0.48,2.39,0.96,4.78,1.43,7.16c0.39,1.98-0.73,3.67-2.72,4.08
		c-1.24,0.25-2.48,0.49-3.77,0.75c0.03,0.22,0.07,0.42,0.1,0.61c0.07,0.49-0.09,0.74-0.58,0.84c-0.82,0.18-1.64,0.33-2.46,0.5
		c-0.14,0.03-0.28,0.06-0.47,0.1c0.06,0.38,0.11,0.75,0.2,1.11c0.03,0.12,0.18,0.25,0.31,0.3c0.53,0.23,1.06,0.44,1.6,0.65
		c2,0.8,3.69,2.01,4.92,3.8c0.09,0.12,0.3,0.22,0.46,0.23c0.95,0.03,1.9,0.03,2.85,0.04c0.28,0,0.55,0.03,0.55,0.39
		c0,0.35-0.26,0.4-0.54,0.4c-1.05-0.01-2.11,0-3.16-0.04c-0.23-0.01-0.55-0.16-0.67-0.35c-1.16-1.78-2.79-2.96-4.74-3.74
		c-0.44-0.18-0.88-0.35-1.4-0.55c0.11,0.67,0.2,1.28,0.33,1.88c0.1,0.44-0.04,0.67-0.46,0.82c-1.59,0.57-3.26,0.73-4.93,0.84
		c-0.81,0.05-1.61,0.05-2.42,0.07c-0.29,0.01-0.54-0.08-0.52-0.42c0.01-0.28,0.23-0.38,0.49-0.37c0.46,0,0.92,0,1.44,0
		c-0.08-0.51-0.14-0.96-0.24-1.41c-0.02-0.08-0.18-0.18-0.27-0.18c-0.66-0.01-1.33-0.03-1.99,0.01c-1.1,0.07-1.99,1.06-2.01,2.18
		c-0.03,1.1,0.79,2.12,1.88,2.25c0.63,0.07,1.27,0.04,1.9,0.05c1.12,0.01,2.25,0,3.37,0c0.28,0,0.56,0.02,0.57,0.37
		c0.01,0.37-0.27,0.42-0.57,0.42c-2.13,0-4.27,0.01-6.4,0.01c-0.68,0-1.03,0.31-1.05,0.92c-0.02,0.63,0.42,1.14,1.04,1.14
		c2.19,0.01,4.38,0.01,6.58,0.01c0.22,0,0.45-0.04,0.64,0.02c0.17,0.06,0.4,0.22,0.43,0.36c0.05,0.27-0.17,0.4-0.44,0.4
		c-0.1,0-0.2,0-0.3,0c-1.8,0-3.61-0.01-5.41-0.01c-0.68,0-1.1,0.34-1.11,0.88c-0.01,0.56,0.48,1.03,1.11,1.03
		c1.89,0.01,3.78,0,5.67,0c0.19,0,0.38,0,0.56,0c0.29-0.01,0.54,0.08,0.54,0.41c-0.01,0.31-0.25,0.38-0.52,0.38
		c-0.81-0.01-1.62,0-2.42,0c-0.68,0-1.36-0.01-2.03,0c-0.77,0.01-1.18,0.34-1.17,0.91c0.02,0.59,0.49,1,1.18,0.99
		c2.55-0.04,5.1-0.07,7.65-0.16c1.74-0.06,3.19-0.83,4.34-2.13c0.29-0.32,0.59-0.44,1.02-0.42c1.12,0.04,2.25,0.04,3.37,0.05
		c0.1,0,0.23-0.03,0.3,0.01c0.14,0.11,0.35,0.26,0.35,0.39c0,0.13-0.22,0.35-0.36,0.36c-0.49,0.04-0.98,0.01-1.47,0.01
		c-0.74-0.01-1.47-0.03-2.21-0.02c-0.15,0-0.33,0.09-0.43,0.2c-1.43,1.55-3.19,2.34-5.29,2.38c-2.42,0.05-4.84,0.09-7.26,0.12
		c-1.5,0.01-2.28-1.08-1.83-2.52C52.11,66.51,52.1,66.47,52.1,66.43z M42.22,47.86c8.84-1.76,17.62-3.51,26.42-5.26
		c-0.32-1.58-0.62-3.08-0.92-4.63c-8.82,1.76-17.59,3.5-26.42,5.26c0.14,0.7,0.27,1.37,0.41,2.04c0.12-0.01,0.18-0.01,0.23-0.02
		c6.15-1.22,12.3-2.45,18.44-3.68c0.35-0.07,0.71-0.18,1.06-0.19c0.16,0,0.33,0.18,0.5,0.28c-0.11,0.16-0.22,0.32-0.35,0.46
		c-0.05,0.05-0.16,0.04-0.25,0.06c-5.57,1.11-11.14,2.21-16.71,3.32c-0.91,0.18-1.83,0.37-2.77,0.56
		C41.98,46.68,42.09,47.24,42.22,47.86z M68.8,43.38c-8.85,1.76-17.63,3.51-26.43,5.26c0.15,0.77,0.29,1.48,0.44,2.18
		c0.31,1.43,1.54,2.23,2.98,1.95c0.41-0.08,0.82-0.16,1.23-0.24c0.88-0.18,1.77-0.36,2.68-0.54c-0.14-0.7-0.26-1.35-0.39-2
		c-0.12-0.6,0.05-0.86,0.65-0.98c3.99-0.79,7.97-1.58,11.96-2.37c0.63-0.13,0.86,0.03,0.99,0.68c0.13,0.64,0.26,1.28,0.4,1.97
		c1.45-0.3,2.86-0.54,4.23-0.9c1.13-0.3,1.83-1.43,1.69-2.61C69.15,45,68.96,44.22,68.8,43.38z M50.07,49.8
		c0.23,1.14,0.45,2.23,0.67,3.35c0.99-0.2,1.92-0.38,2.85-0.57c0.58-0.11,0.83,0.05,0.94,0.64c0.12,0.62,0.21,1.25,0.32,1.87
		c0.11,0.66,0.23,1.32,0.35,1.99c1.53-0.08,2.99-0.24,4.41-0.64c0.33-0.09,0.37-0.24,0.32-0.55c-0.23-1.19-0.42-2.38-0.63-3.58
		c-0.11-0.62,0.08-0.88,0.7-1.01c0.13-0.03,0.25-0.05,0.38-0.08c0.79-0.16,1.57-0.32,2.41-0.49c-0.23-1.14-0.45-2.23-0.67-3.34
		C58.08,48.2,54.09,49,50.07,49.8z"/>
</g>
</svg>
