<svg width="75" height="75" viewBox="0 0 75 75" fill="none" xmlns="http://www.w3.org/2000/svg">
<path d="M72.6562 57.4219H22.1471C21.9153 56.2972 21.359 55.265 20.547 54.453C19.735 53.641 18.7028 53.0847 17.5781 52.8529V2.34375C17.5781 2.03295 17.4547 1.73488 17.2349 1.51511C17.0151 1.29534 16.7171 1.17188 16.4062 1.17188H2.34375C2.03295 1.17188 1.73488 1.29534 1.51511 1.51511C1.29534 1.73488 1.17188 2.03295 1.17188 2.34375V43.4019C1.17188 43.7127 1.29534 44.0107 1.51511 44.2305C1.73488 44.4503 2.03295 44.5737 2.34375 44.5737C2.65455 44.5737 2.95262 44.4503 3.17239 44.2305C3.39216 44.0107 3.51562 43.7127 3.51562 43.4019V3.51562H15.2344V5.85938H9.375C9.0642 5.85938 8.76613 5.98284 8.54636 6.20261C8.32659 6.42238 8.20312 6.72045 8.20312 7.03125C8.20312 7.34205 8.32659 7.64012 8.54636 7.85989C8.76613 8.07966 9.0642 8.20312 9.375 8.20312H15.2344V10.5469H11.7188C11.4079 10.5469 11.1099 10.6703 10.8901 10.8901C10.6703 11.1099 10.5469 11.4079 10.5469 11.7188C10.5469 12.0296 10.6703 12.3276 10.8901 12.5474C11.1099 12.7672 11.4079 12.8906 11.7188 12.8906H15.2344V15.2344H9.375C9.0642 15.2344 8.76613 15.3578 8.54636 15.5776C8.32659 15.7974 8.20312 16.0954 8.20312 16.4062C8.20312 16.7171 8.32659 17.0151 8.54636 17.2349C8.76613 17.4547 9.0642 17.5781 9.375 17.5781H15.2344V19.9219H11.7188C11.4079 19.9219 11.1099 20.0453 10.8901 20.2651C10.6703 20.4849 10.5469 20.7829 10.5469 21.0938C10.5469 21.4046 10.6703 21.7026 10.8901 21.9224C11.1099 22.1422 11.4079 22.2656 11.7188 22.2656H15.2344V24.6094H9.375C9.0642 24.6094 8.76613 24.7328 8.54636 24.9526C8.32659 25.1724 8.20312 25.4704 8.20312 25.7812C8.20312 26.0921 8.32659 26.3901 8.54636 26.6099C8.76613 26.8297 9.0642 26.9531 9.375 26.9531H15.2344V29.2969H11.7188C11.4079 29.2969 11.1099 29.4203 10.8901 29.6401C10.6703 29.8599 10.5469 30.1579 10.5469 30.4688C10.5469 30.7796 10.6703 31.0776 10.8901 31.2974C11.1099 31.5172 11.4079 31.6406 11.7188 31.6406H15.2344V33.9844H9.375C9.0642 33.9844 8.76613 34.1078 8.54636 34.3276C8.32659 34.5474 8.20312 34.8454 8.20312 35.1562C8.20312 35.4671 8.32659 35.7651 8.54636 35.9849C8.76613 36.2047 9.0642 36.3281 9.375 36.3281H15.2344V38.6719H11.7188C11.4079 38.6719 11.1099 38.7953 10.8901 39.0151C10.6703 39.2349 10.5469 39.5329 10.5469 39.8438C10.5469 40.1546 10.6703 40.4526 10.8901 40.6724C11.1099 40.8922 11.4079 41.0156 11.7188 41.0156H15.2344V43.3594H9.375C9.0642 43.3594 8.76613 43.4828 8.54636 43.7026C8.32659 43.9224 8.20312 44.2204 8.20312 44.5312C8.20312 44.8421 8.32659 45.1401 8.54636 45.3599C8.76613 45.5797 9.0642 45.7031 9.375 45.7031H15.2344V48.0469H11.7188C11.4079 48.0469 11.1099 48.1703 10.8901 48.3901C10.6703 48.6099 10.5469 48.9079 10.5469 49.2188C10.5469 49.5296 10.6703 49.8276 10.8901 50.0474C11.1099 50.2672 11.4079 50.3906 11.7188 50.3906H15.2344V52.7344H3.51562V48.0047C3.51562 47.6939 3.39216 47.3958 3.17239 47.176C2.95262 46.9563 2.65455 46.8328 2.34375 46.8328C2.03295 46.8328 1.73488 46.9563 1.51511 47.176C1.29534 47.3958 1.17188 47.6939 1.17188 48.0047V72.6562C1.17188 72.967 1.29534 73.2651 1.51511 73.4849C1.73488 73.7047 2.03295 73.8281 2.34375 73.8281H72.6562C72.967 73.8281 73.2651 73.7047 73.4849 73.4849C73.7047 73.2651 73.8281 72.967 73.8281 72.6562V58.5938C73.8281 58.2829 73.7047 57.9849 73.4849 57.7651C73.2651 57.5453 72.967 57.4219 72.6562 57.4219ZM3.51562 55.0781H16.4062C17.3383 55.0791 18.232 55.4499 18.8911 56.1089C19.5501 56.768 19.9209 57.6617 19.9219 58.5938V71.4844H3.51562V55.0781ZM71.4844 71.4844H22.2656V59.7656H24.6094V63.2812C24.6094 63.5921 24.7328 63.8901 24.9526 64.1099C25.1724 64.3297 25.4704 64.4531 25.7812 64.4531C26.0921 64.4531 26.3901 64.3297 26.6099 64.1099C26.8297 63.8901 26.9531 63.5921 26.9531 63.2812V59.7656H29.2969V65.625C29.2969 65.9358 29.4203 66.2339 29.6401 66.4536C29.8599 66.6734 30.1579 66.7969 30.4688 66.7969C30.7796 66.7969 31.0776 66.6734 31.2974 66.4536C31.5172 66.2339 31.6406 65.9358 31.6406 65.625V59.7656H33.9844V63.2812C33.9844 63.5921 34.1078 63.8901 34.3276 64.1099C34.5474 64.3297 34.8454 64.4531 35.1562 64.4531C35.4671 64.4531 35.7651 64.3297 35.9849 64.1099C36.2047 63.8901 36.3281 63.5921 36.3281 63.2812V59.7656H38.6719V65.625C38.6719 65.9358 38.7953 66.2339 39.0151 66.4536C39.2349 66.6734 39.5329 66.7969 39.8438 66.7969C40.1546 66.7969 40.4526 66.6734 40.6724 66.4536C40.8922 66.2339 41.0156 65.9358 41.0156 65.625V59.7656H43.3594V63.2812C43.3594 63.5921 43.4828 63.8901 43.7026 64.1099C43.9224 64.3297 44.2204 64.4531 44.5312 64.4531C44.8421 64.4531 45.1401 64.3297 45.3599 64.1099C45.5797 63.8901 45.7031 63.5921 45.7031 63.2812V59.7656H48.0469V65.625C48.0469 65.9358 48.1703 66.2339 48.3901 66.4536C48.6099 66.6734 48.9079 66.7969 49.2188 66.7969C49.5296 66.7969 49.8276 66.6734 50.0474 66.4536C50.2672 66.2339 50.3906 65.9358 50.3906 65.625V59.7656H52.7344V63.2812C52.7344 63.5921 52.8578 63.8901 53.0776 64.1099C53.2974 64.3297 53.5954 64.4531 53.9062 64.4531C54.2171 64.4531 54.5151 64.3297 54.7349 64.1099C54.9547 63.8901 55.0781 63.5921 55.0781 63.2812V59.7656H57.4219V65.625C57.4219 65.9358 57.5453 66.2339 57.7651 66.4536C57.9849 66.6734 58.2829 66.7969 58.5938 66.7969C58.9046 66.7969 59.2026 66.6734 59.4224 66.4536C59.6422 66.2339 59.7656 65.9358 59.7656 65.625V59.7656H62.1094V63.2812C62.1094 63.5921 62.2328 63.8901 62.4526 64.1099C62.6724 64.3297 62.9704 64.4531 63.2812 64.4531C63.5921 64.4531 63.8901 64.3297 64.1099 64.1099C64.3297 63.8901 64.4531 63.5921 64.4531 63.2812V59.7656H66.7969V65.625C66.7969 65.9358 66.9203 66.2339 67.1401 66.4536C67.3599 66.6734 67.658 66.7969 67.9688 66.7969C68.2795 66.7969 68.5776 66.6734 68.7974 66.4536C69.0172 66.2339 69.1406 65.9358 69.1406 65.625V59.7656H71.4844V71.4844Z" fill="white"/>
<path d="M59.7657 44.5314C60.0765 44.5314 60.3746 44.4079 60.5944 44.1881C60.8142 43.9684 60.9376 43.6703 60.9376 43.3595V30.4689H63.2814C63.5194 30.4688 63.7517 30.3963 63.9475 30.2609C64.1432 30.1255 64.2931 29.9338 64.3773 29.7111C64.4614 29.4885 64.4757 29.2455 64.4183 29.0145C64.361 28.7836 64.2346 28.5755 64.0561 28.4181L44.1343 10.84C43.9205 10.6508 43.6449 10.5464 43.3595 10.5464C43.0741 10.5464 42.7985 10.6508 42.5847 10.84L22.6629 28.4181C22.4844 28.5755 22.358 28.7836 22.3007 29.0145C22.2433 29.2455 22.2576 29.4885 22.3417 29.7111C22.4258 29.9338 22.5758 30.1255 22.7715 30.2609C22.9673 30.3963 23.1996 30.4688 23.4376 30.4689H25.7814V51.5626C25.7814 51.8734 25.9048 52.1715 26.1246 52.3913C26.3444 52.611 26.6424 52.7345 26.9532 52.7345H59.7657C60.0765 52.7345 60.3746 52.611 60.5944 52.3913C60.8142 52.1715 60.9376 51.8734 60.9376 51.5626V48.047C60.9376 47.7362 60.8142 47.4381 60.5944 47.2184C60.3746 46.9986 60.0765 46.8751 59.7657 46.8751C59.4549 46.8751 59.1569 46.9986 58.9371 47.2184C58.7173 47.4381 58.5939 47.7362 58.5939 48.047V50.3907H50.3907V37.5001C50.3907 37.1893 50.2673 36.8912 50.0475 36.6715C49.8277 36.4517 49.5297 36.3282 49.2189 36.3282H37.5001C37.1893 36.3282 36.8912 36.4517 36.6715 36.6715C36.4517 36.8912 36.3282 37.1893 36.3282 37.5001V50.3907H28.1251V30.4689H30.4689C30.7797 30.4689 31.0777 30.3454 31.2975 30.1256C31.5173 29.9059 31.6407 29.6078 31.6407 29.297C31.6407 28.9862 31.5173 28.6881 31.2975 28.4684C31.0777 28.2486 30.7797 28.1251 30.4689 28.1251H26.5366L43.3595 13.2823L60.1823 28.1251H35.1564C34.8456 28.1251 34.5475 28.2486 34.3277 28.4684C34.108 28.6881 33.9845 28.9862 33.9845 29.297C33.9845 29.6078 34.108 29.9059 34.3277 30.1256C34.5475 30.3454 34.8456 30.4689 35.1564 30.4689H58.5939V43.3595C58.5939 43.6703 58.7173 43.9684 58.9371 44.1881C59.1569 44.4079 59.4549 44.5314 59.7657 44.5314ZM38.672 38.672H48.047V50.3907H38.672V38.672Z" fill="white"/>
<path d="M72.6562 50.3906H70.3125V14.0625H72.6562C72.967 14.0625 73.2651 13.939 73.4849 13.7193C73.7047 13.4995 73.8281 13.2014 73.8281 12.8906C73.8281 12.5798 73.7047 12.2818 73.4849 12.062C73.2651 11.8422 72.967 11.7188 72.6562 11.7188H65.625C65.3142 11.7188 65.0161 11.8422 64.7964 12.062C64.5766 12.2818 64.4531 12.5798 64.4531 12.8906C64.4531 13.2014 64.5766 13.4995 64.7964 13.7193C65.0161 13.939 65.3142 14.0625 65.625 14.0625H67.9688V50.3906H65.625C65.3142 50.3906 65.0161 50.5141 64.7964 50.7339C64.5766 50.9536 64.4531 51.2517 64.4531 51.5625C64.4531 51.8733 64.5766 52.1714 64.7964 52.3911C65.0161 52.6109 65.3142 52.7344 65.625 52.7344H72.6562C72.967 52.7344 73.2651 52.6109 73.4849 52.3911C73.7047 52.1714 73.8281 51.8733 73.8281 51.5625C73.8281 51.2517 73.7047 50.9536 73.4849 50.7339C73.2651 50.5141 72.967 50.3906 72.6562 50.3906ZM23.4375 10.5469C23.7483 10.5469 24.0464 10.4234 24.2661 10.2036C24.4859 9.98387 24.6094 9.6858 24.6094 9.375V7.03125H62.1094V9.375C62.1094 9.6858 62.2328 9.98387 62.4526 10.2036C62.6724 10.4234 62.9704 10.5469 63.2812 10.5469C63.5921 10.5469 63.8901 10.4234 64.1099 10.2036C64.3297 9.98387 64.4531 9.6858 64.4531 9.375V2.34375C64.4531 2.03295 64.3297 1.73488 64.1099 1.51511C63.8901 1.29534 63.5921 1.17188 63.2812 1.17188C62.9704 1.17188 62.6724 1.29534 62.4526 1.51511C62.2328 1.73488 62.1094 2.03295 62.1094 2.34375V4.6875H24.6094V2.34375C24.6094 2.03295 24.4859 1.73488 24.2661 1.51511C24.0464 1.29534 23.7483 1.17188 23.4375 1.17188C23.1267 1.17188 22.8286 1.29534 22.6089 1.51511C22.3891 1.73488 22.2656 2.03295 22.2656 2.34375V9.375C22.2656 9.6858 22.3891 9.98387 22.6089 10.2036C22.8286 10.4234 23.1267 10.5469 23.4375 10.5469ZM11.7188 58.5938C10.7917 58.5938 9.88537 58.8687 9.11452 59.3837C8.34366 59.8988 7.74285 60.6309 7.38807 61.4874C7.03328 62.3439 6.94045 63.2864 7.12132 64.1957C7.30219 65.105 7.74863 65.9403 8.40419 66.5958C9.05975 67.2514 9.89498 67.6978 10.8043 67.8787C11.7136 68.0595 12.6561 67.9667 13.5126 67.6119C14.3691 67.2571 15.1012 66.6563 15.6163 65.8855C16.1313 65.1146 16.4063 64.2084 16.4063 63.2812C16.405 62.0384 15.9108 60.8469 15.0319 59.9681C14.1531 59.0892 12.9616 58.595 11.7188 58.5938ZM11.7188 65.625C11.2552 65.625 10.8021 65.4875 10.4166 65.23C10.0312 64.9725 9.7308 64.6064 9.55341 64.1782C9.37602 63.7499 9.3296 63.2786 9.42004 62.824C9.51047 62.3694 9.73369 61.9517 10.0615 61.624C10.3893 61.2962 10.8069 61.073 11.2615 60.9825C11.7162 60.8921 12.1874 60.9385 12.6157 61.1159C13.0439 61.2933 13.41 61.5937 13.6675 61.9791C13.925 62.3646 14.0625 62.8177 14.0625 63.2812C14.0617 63.9026 13.8145 64.4983 13.3751 64.9376C12.9358 65.377 12.3401 65.6242 11.7188 65.625Z" fill="white"/>
</svg>
