<svg width="75" height="76" viewBox="0 0 75 76" fill="none" xmlns="http://www.w3.org/2000/svg">
<path d="M14.0625 62.33H37.5C37.732 62.3305 37.9589 62.2621 38.1519 62.1334C38.345 62.0047 38.4954 61.8216 38.5842 61.6072C38.673 61.3929 38.6961 61.157 38.6505 60.9296C38.605 60.7021 38.4929 60.4932 38.3285 60.3296L14.891 36.8921C14.7267 36.7294 14.518 36.6188 14.2911 36.5742C14.0642 36.5297 13.8292 36.5531 13.6155 36.6416C13.4019 36.7301 13.2191 36.8797 13.0901 37.0716C12.9612 37.2636 12.8918 37.4894 12.8906 37.7206V61.1581C12.8906 61.4689 13.0141 61.767 13.2339 61.9867C13.4536 62.2065 13.7517 62.33 14.0625 62.33ZM15.2344 40.5495L34.6711 59.9862H15.2344V40.5495Z" fill="white"/>
<path d="M72.6562 1.39258H25.7812C25.4704 1.39258 25.1724 1.51604 24.9526 1.73581C24.7328 1.95558 24.6094 2.25365 24.6094 2.56445V25.5168L3.17227 4.07969C3.00838 3.91585 2.79959 3.80428 2.5723 3.75908C2.34501 3.71389 2.10943 3.73709 1.89533 3.82577C1.68123 3.91444 1.49822 4.06461 1.36945 4.25728C1.24068 4.44994 1.17192 4.67646 1.17188 4.9082V72.877C1.17188 73.1878 1.29534 73.4858 1.51511 73.7056C1.73488 73.9254 2.03295 74.0488 2.34375 74.0488H70.3125C70.5445 74.0493 70.7714 73.9809 70.9644 73.8522C71.1575 73.7236 71.3079 73.5404 71.3967 73.3261C71.4855 73.1118 71.5086 72.8759 71.463 72.6484C71.4175 72.4209 71.3054 72.2121 71.141 72.0484L59.0789 59.9863H72.6562C72.967 59.9863 73.2651 59.8629 73.4849 59.6431C73.7047 59.4233 73.8281 59.1253 73.8281 58.8145V2.56445C73.8281 2.25365 73.7047 1.95558 73.4849 1.73581C73.2651 1.51604 72.967 1.39258 72.6562 1.39258ZM56.25 71.7051V67.0176H53.9062V71.7051H51.5625V67.0176H49.2188V71.7051H46.875V67.0176H44.5312V71.7051H42.1875V67.0176H39.8438V71.7051H37.5V64.6738H35.1562V71.7051H32.8125V67.0176H30.4688V71.7051H28.125V67.0176H25.7812V71.7051H23.4375V67.0176H21.0938V71.7051H18.75V67.0176H16.4062V71.7051H14.0625V64.6738H11.7188V71.7051H3.51562V64.6738H8.20312V62.3301H3.51562V59.9863H8.20312V57.6426H3.51562V55.2988H8.20312V52.9551H3.51562V50.6113H8.20312V48.2676H3.51562V45.9238H10.5469V43.5801H3.51562V41.2363H8.20312V38.8926H3.51562V36.5488H8.20312V34.2051H3.51562V31.8613H8.20312V29.5176H3.51562V27.1738H8.20312V24.8301H3.51562V22.4863H10.5469V20.1426H3.51562V7.73711L67.4836 71.7051H56.25ZM71.4844 57.6426H56.7352L26.9531 27.8605V3.73633H71.4844V57.6426Z" fill="white"/>
<path d="M29.2969 6.08008H31.6406V8.42383H29.2969V6.08008ZM29.2969 10.7676H31.6406V13.1113H29.2969V10.7676ZM29.2969 15.4551H31.6406V17.7988H29.2969V15.4551ZM29.2969 20.1426H31.6406V22.4863H29.2969V20.1426ZM29.2969 24.8301H31.6406V27.1738H29.2969V24.8301ZM33.9844 6.08008H36.3281V8.42383H33.9844V6.08008ZM33.9844 10.7676H36.3281V13.1113H33.9844V10.7676ZM33.9844 15.4551H36.3281V17.7988H33.9844V15.4551ZM33.9844 20.1426H36.3281V22.4863H33.9844V20.1426ZM33.9844 24.8301H36.3281V27.1738H33.9844V24.8301ZM33.9844 29.5176H36.3281V31.8613H33.9844V29.5176ZM38.6719 6.08008H41.0156V34.2051H38.6719V6.08008ZM43.3594 6.08008H45.7031V38.8926H43.3594V6.08008ZM57.4957 45.1645L61.0113 54.5395C61.0958 54.7623 61.2461 54.9543 61.4422 55.0897C61.6383 55.2251 61.871 55.2976 62.1094 55.2976C62.3477 55.2976 62.5804 55.2251 62.7766 55.0897C62.9727 54.9543 63.123 54.7623 63.2074 54.5395L66.723 45.1645L66.7148 45.1609C66.7667 45.0307 66.7945 44.8921 66.7969 44.752V10.7676C66.7969 8.18242 64.6945 6.08008 62.1094 6.08008C59.5242 6.08008 57.4219 8.18242 57.4219 10.7676V44.752C57.4219 44.8973 57.4559 45.0332 57.5039 45.1609L57.4957 45.1645ZM62.1094 50.7895L60.2848 45.9238H63.934L62.1094 50.7895ZM59.7656 22.4863H64.4531V43.5801H59.7656V22.4863ZM64.4531 20.1426H59.7656V17.7988H64.4531V20.1426ZM62.1094 8.42383C63.402 8.42383 64.4531 9.475 64.4531 10.7676V15.4551H59.7656V10.7676C59.7656 9.475 60.8168 8.42383 62.1094 8.42383ZM52.7344 43.5801H55.0781V45.9238H52.7344V43.5801ZM52.7344 48.2676H55.0781V50.6113H52.7344V48.2676ZM52.7344 6.08008H55.0781V41.2363H52.7344V6.08008ZM48.0469 6.08008H50.3906V45.9238H48.0469V6.08008Z" fill="white"/>
</svg>
