<svg width="75" height="76" viewBox="0 0 75 76" fill="none" xmlns="http://www.w3.org/2000/svg">
<path d="M1.84583 48.4515L7.01087 50.8808C7.45731 51.0911 7.9447 51.2002 8.43821 51.2003C8.90138 51.1998 9.35953 51.1043 9.78431 50.9196C10.2091 50.735 10.5915 50.4652 10.9078 50.1268L12.9086 51.5641C13.4453 52.1839 13.778 53.2792 14.1293 54.4361C14.4594 55.5233 14.7991 56.6398 15.3707 57.6072L14.7303 58.7012C14.3202 59.4004 14.1279 60.2059 14.1779 61.015C14.2279 61.824 14.518 62.5998 15.011 63.2432C15.504 63.8866 16.1776 64.3684 16.9458 64.6271C17.714 64.8858 18.5418 64.9097 19.3236 64.6956C19.5443 65.5745 20.0516 66.3548 20.7654 66.9133C21.4791 67.4717 22.3586 67.7763 23.2648 67.7791C23.6175 67.7788 23.9687 67.7333 24.3098 67.6436C24.3214 67.6405 24.3328 67.6367 24.3444 67.6336C24.5635 68.5137 25.0708 69.2952 25.7855 69.8537C26.5002 70.4121 27.3812 70.7153 28.2882 70.7151C29.1825 70.7147 30.0524 70.4231 30.7664 69.8844C31.1189 70.5117 31.6322 71.0339 32.2534 71.3972C32.8746 71.7604 33.5814 71.9516 34.3011 71.9511C35.246 71.9502 36.162 71.6249 36.8959 71.0296L40.1946 72.9882C40.8708 73.3913 41.6435 73.6042 42.4308 73.6043C42.8042 73.604 43.1761 73.5569 43.5378 73.464C44.4793 73.2255 45.3154 72.6823 45.9158 71.9189C46.5163 71.1555 46.8473 70.215 46.8573 69.2438C47.5746 69.4612 48.3356 69.4919 49.0682 69.3328C49.8007 69.1738 50.4805 68.8304 51.0432 68.3351C51.6058 67.8399 52.0327 67.2091 52.2834 66.5027C52.534 65.7962 52.6002 65.0375 52.4755 64.2983C53.1082 64.2602 53.7251 64.0859 54.2841 63.7872C54.8431 63.4886 55.331 63.0727 55.7144 62.568C56.0978 62.0633 56.3676 61.4818 56.5053 60.8631C56.6431 60.2445 56.6456 59.6034 56.5126 58.9837C56.7052 58.9605 56.896 58.9249 57.0839 58.8771C57.6455 58.7346 58.1733 58.4827 58.6373 58.1358C59.1013 57.7889 59.4922 57.3538 59.7876 56.8555C60.0831 56.3571 60.2772 55.8054 60.3589 55.2318C60.4406 54.6583 60.4083 54.0743 60.2638 53.5133C60.2015 53.2701 60.1191 53.0326 60.0174 52.8031C61.8309 52.2799 63.3524 51.5454 64.6197 50.5839C65.1879 50.9852 65.8664 51.201 66.562 51.2015C67.056 51.201 67.5438 51.0914 67.9904 50.8805L73.1544 48.4515C73.2946 48.3866 73.4206 48.2947 73.5252 48.1809C73.6297 48.0671 73.7107 47.9338 73.7636 47.7886C73.8164 47.6434 73.84 47.4893 73.833 47.3349C73.826 47.1806 73.7885 47.0291 73.7228 46.8893C73.6571 46.7495 73.5643 46.6241 73.4499 46.5202C73.3355 46.4164 73.2017 46.3362 73.0562 46.2843C72.9107 46.2323 72.7564 46.2097 72.6021 46.2176C72.4478 46.2256 72.2966 46.264 72.1572 46.3306L66.9923 48.7594C66.746 48.874 66.4644 48.8866 66.2089 48.7945C65.9534 48.7023 65.7447 48.5128 65.6283 48.2674L57.6316 31.2642C57.5161 31.0184 57.5027 30.7369 57.5943 30.4812C57.6858 30.2255 57.8749 30.0165 58.1201 29.8998L63.2853 27.4707C63.5646 27.3373 63.7798 27.0987 63.8839 26.8072C63.9879 26.5156 63.9724 26.1948 63.8407 25.9146C63.7089 25.6345 63.4717 25.4179 63.1808 25.312C62.89 25.2062 62.569 25.2198 62.2881 25.3497L57.1217 27.7793C56.5401 28.0546 56.0494 28.4904 55.7074 29.0355C55.3654 29.5806 55.1865 30.2121 55.1918 30.8555C53.81 31.3553 52.3564 31.7896 50.8851 31.9292C49.396 32.0744 47.3853 31.8137 45.2568 31.5378C41.3985 31.0377 37.409 30.5206 34.7382 32.0945L33.2714 32.9577C30.8174 31.1852 28.4953 31.4636 26.0497 31.7589C24.4695 31.9493 22.8353 32.1468 20.8935 31.8582C20.4971 31.7985 20.1038 31.7199 19.7149 31.6226C19.8966 30.8685 19.8131 30.0747 19.4784 29.3748C19.1437 28.675 18.5782 28.1117 17.8771 27.7798L12.7122 25.3497C12.4312 25.2198 12.1103 25.2062 11.8194 25.312C11.5285 25.4179 11.2913 25.6345 11.1596 25.9146C11.0279 26.1948 11.0123 26.5156 11.1164 26.8072C11.2204 27.0987 11.4356 27.3373 11.7149 27.4707L16.8789 29.8993C17.1244 30.0157 17.3137 30.2246 17.4055 30.4803C17.4973 30.736 17.4841 31.0176 17.3688 31.2636L9.37161 48.2674C9.25575 48.5133 9.0471 48.7032 8.79142 48.7955C8.53574 48.8878 8.2539 48.8749 8.00769 48.7597L2.84192 46.3306C2.56181 46.2063 2.24418 46.1967 1.95707 46.3038C1.66997 46.4109 1.43624 46.6262 1.30598 46.9036C1.17572 47.181 1.15928 47.4983 1.26019 47.7877C1.3611 48.077 1.57133 48.3153 1.84583 48.4515ZM17.3768 62.2613C16.98 62.0275 16.6918 61.6462 16.5752 61.2006C16.4586 60.755 16.5232 60.2813 16.7547 59.8831L17.7447 58.1921C17.7619 58.1649 17.7785 58.1373 17.7933 58.1089L19.6862 54.8757C19.9204 54.4816 20.3009 54.196 20.7447 54.0812C21.1885 53.9664 21.6598 54.0316 22.0557 54.2627C22.4517 54.4938 22.7403 54.872 22.8586 55.3149C22.9769 55.7579 22.9154 56.2296 22.6875 56.6274L19.7565 61.6385C19.5225 62.0357 19.1409 62.3242 18.6949 62.441C18.2489 62.5577 17.7748 62.4931 17.3762 62.2613H17.3768ZM22.4012 65.1969C22.0044 64.964 21.716 64.5834 21.5994 64.1383C21.4828 63.6932 21.5475 63.22 21.7793 62.8225L24.711 57.8105C24.9439 57.4131 25.3252 57.1245 25.7708 57.0082C25.9915 56.9506 26.2214 56.9371 26.4473 56.9683C26.6732 56.9996 26.8908 57.075 27.0876 57.1903C27.2843 57.3056 27.4565 57.4586 27.5941 57.6404C27.7318 57.8223 27.8323 58.0295 27.8899 58.2501C27.9475 58.4708 27.961 58.7007 27.9298 58.9266C27.8986 59.1525 27.8231 59.3701 27.7078 59.5669L24.7752 64.5766C24.5416 64.9726 24.1609 65.2601 23.7161 65.3763C23.2714 65.4926 22.7987 65.4281 22.4012 65.197V65.1969ZM27.4211 68.1365C27.0243 67.9027 26.7361 67.5214 26.6196 67.0758C26.503 66.6302 26.5675 66.1566 26.799 65.7585L29.7304 60.7511C29.9637 60.3533 30.3453 60.0643 30.7914 59.9476C31.2375 59.8309 31.7117 59.896 32.1099 60.1285C32.5048 60.3632 32.7913 60.7438 32.9077 61.1881C33.0241 61.6324 32.9609 62.1047 32.7318 62.5027L31.264 65.0119L30.7938 65.8102C30.7718 65.8474 30.7517 65.8853 30.7311 65.9231L29.8013 67.5125C29.5672 67.9098 29.1855 68.1983 28.7394 68.3152C28.2933 68.4321 27.8191 68.3679 27.4202 68.1365H27.4211ZM33.4399 69.3752C33.2427 69.2593 33.0704 69.1056 32.9328 68.923C32.7953 68.7403 32.6952 68.5322 32.6383 68.3107C32.5248 67.8881 32.5772 67.438 32.7848 67.0528L33.2828 66.2013L34.7601 63.6939C34.9331 63.396 35.1908 63.1563 35.5005 63.0054C35.8103 62.8545 36.1579 62.7992 36.4991 62.8466C36.8404 62.8941 37.1597 63.0421 37.4165 63.2717C37.6733 63.5014 37.8559 63.8023 37.941 64.1362C37.9993 64.3553 38.0133 64.5838 37.9823 64.8084C37.9513 65.033 37.876 65.2492 37.7606 65.4444L35.8183 68.7478C35.5842 69.1445 35.2031 69.433 34.7577 69.5505C34.3122 69.6681 33.8384 69.6053 33.439 69.3758L33.4399 69.3752ZM35.9283 34.1132C37.9059 32.948 41.6518 33.4333 44.9563 33.8617C47.2208 34.1546 49.3595 34.4329 51.1103 34.2619C52.7931 34.1022 54.3955 33.632 55.9016 33.091L63.2374 48.6904C61.9596 49.6685 60.3275 50.3729 58.2808 50.8291C58.2684 50.8216 58.2565 50.8134 58.2441 50.8061L51.3517 46.7146C51.1453 46.5923 50.9064 46.5361 50.6672 46.5535C45.7821 46.9153 40.6233 46.4363 35.9931 40.534C35.8403 40.3393 35.6298 40.1979 35.3917 40.1302C35.1536 40.0625 34.9002 40.0719 34.6678 40.1571L31.87 41.1825C31.6541 41.2616 31.4662 41.4025 31.3298 41.5877L29.4316 44.1643C28.368 45.5725 26.9172 46.0341 25.5507 45.3986C25.3607 45.3096 25.1925 45.1801 25.058 45.0191C24.9235 44.8581 24.8259 44.6696 24.7721 44.4668C24.7183 44.2641 24.7096 44.052 24.7466 43.8455C24.7836 43.639 24.8654 43.4431 24.9863 43.2717L28.2236 38.6472L33.7607 35.3886L33.7624 35.3874L35.9283 34.1132ZM26.331 34.0849C28.194 33.86 29.586 33.6926 30.9682 34.313L26.8167 36.7565C26.6719 36.8416 26.547 36.9568 26.4505 37.0943L23.0697 41.923C22.7515 42.3749 22.5363 42.891 22.4393 43.4351C22.3422 43.9791 22.3657 44.5379 22.508 45.0719C22.6503 45.6059 22.908 46.1022 23.2629 46.5258C23.6178 46.9494 24.0613 47.29 24.5622 47.5237C26.9314 48.6252 29.5768 47.8606 31.3104 45.5658L33.007 43.2629L34.6897 42.6463C39.7564 48.6522 45.4684 49.2428 50.4703 48.9176L57.0492 52.8214C57.5136 53.1055 57.8473 53.5611 57.9783 54.0895C58.1092 54.6179 58.0267 55.1766 57.7487 55.6447C57.4707 56.1127 57.0195 56.4524 56.4929 56.5902C55.9662 56.728 55.4065 56.6529 54.9348 56.381L49.6117 53.2253C49.4793 53.1456 49.3325 53.093 49.1796 53.0703C49.0268 53.0476 48.8709 53.0554 48.7211 53.0932C48.5713 53.131 48.4304 53.198 48.3066 53.2905C48.1827 53.3829 48.0784 53.499 47.9996 53.6319C47.9208 53.7648 47.8691 53.912 47.8474 54.065C47.8257 54.218 47.8345 54.3738 47.8733 54.5234C47.912 54.6729 47.98 54.8134 48.0732 54.9366C48.1665 55.0598 48.2832 55.1634 48.4166 55.2413L53.2132 58.085C53.2279 58.0949 53.2425 58.1056 53.2583 58.1143C53.7271 58.3975 54.0658 58.8537 54.201 59.3844C54.3363 59.9151 54.2574 60.4777 53.9814 60.9507C53.7004 61.422 53.2441 61.7628 52.7125 61.8985C52.1808 62.0342 51.6171 61.9537 51.1446 61.6748L45.8497 58.5327C45.7174 58.4522 45.5703 58.3987 45.4172 58.3754C45.264 58.3521 45.1077 58.3594 44.9574 58.3969C44.807 58.4344 44.6656 58.5013 44.5413 58.5938C44.417 58.6862 44.3123 58.8025 44.2332 58.9357C44.1541 59.0689 44.1022 59.2165 44.0805 59.3699C44.0588 59.5233 44.0677 59.6795 44.1068 59.8294C44.1459 59.9794 44.2143 60.1201 44.3081 60.2434C44.4019 60.3667 44.5192 60.4702 44.6532 60.5479L49.1695 63.2293C49.1746 63.2324 49.1792 63.236 49.1842 63.2391C49.653 63.5222 49.9917 63.9784 50.127 64.5092C50.2623 65.0399 50.1834 65.6026 49.9074 66.0756C49.6263 66.5469 49.17 66.8876 48.6384 67.0232C48.1067 67.1589 47.543 67.0784 47.0705 66.7994L44.7053 65.3953L44.7007 65.3926L42.5245 64.1006C42.2573 63.9419 41.9379 63.896 41.6368 63.9728C41.3356 64.0496 41.0773 64.2429 40.9186 64.5101C40.76 64.7774 40.714 65.0968 40.7908 65.3979C40.8676 65.6991 41.0609 65.9574 41.3282 66.1161L43.505 67.408C43.9706 67.6943 44.3064 68.1507 44.4413 68.6804C44.5761 69.2101 44.4993 69.7715 44.2273 70.2456C43.9458 70.7161 43.4898 71.0564 42.9587 71.1925C42.4276 71.3287 41.8642 71.2496 41.391 70.9725L38.3058 69.1414L39.7794 66.6348C40.1916 65.9355 40.3854 65.1292 40.3362 64.319C40.287 63.5089 39.997 62.7319 39.5032 62.0877C39.0095 61.4435 38.3346 60.9615 37.5651 60.7034C36.7956 60.4454 35.9665 60.423 35.1842 60.6393C35.1805 60.6246 35.1776 60.61 35.1737 60.5945C35.0382 60.0728 34.8005 59.5833 34.4743 59.1543C34.1481 58.7252 33.7399 58.3653 33.2735 58.0953C32.807 57.8253 32.2916 57.6507 31.7571 57.5816C31.2226 57.5125 30.6797 57.5502 30.1599 57.6926C30.1567 57.68 30.1542 57.6673 30.1509 57.6547C30.0154 57.1334 29.7778 56.6443 29.4519 56.2156C29.126 55.7869 28.7182 55.4271 28.2522 55.1572C27.7862 54.8872 27.2712 54.7125 26.7372 54.6431C26.2031 54.5737 25.6606 54.611 25.1411 54.7528C24.943 53.9672 24.5155 53.2584 23.9131 52.7167C23.3106 52.175 22.5605 51.825 21.7584 51.7112C20.9562 51.5974 20.1384 51.7251 19.409 52.0778C18.6797 52.4306 18.0719 52.9926 17.6632 53.6921L16.8165 55.1375C16.6566 54.6911 16.513 54.2203 16.3719 53.7554C15.943 52.3432 15.4996 50.883 14.5409 49.8756L14.4652 49.7961L12.0558 48.0661L18.7677 33.7962C19.3534 33.958 19.9482 34.0847 20.549 34.1756C22.8022 34.5106 24.6764 34.2844 26.3301 34.0849H26.331ZM37.057 27.7449C37.341 27.8609 37.6592 27.8609 37.9432 27.7449C43.368 25.5287 49.1639 18.7908 49.1639 6.52621C49.164 6.21758 49.0422 5.9214 48.8252 5.70199C48.6081 5.48258 48.3133 5.35765 48.0047 5.35433C44.0935 5.31214 40.8978 4.24691 38.2359 2.09755C38.0275 1.92922 37.7676 1.8374 37.4997 1.8374C37.2318 1.8374 36.9719 1.92922 36.7635 2.09755C34.1017 4.24647 30.9064 5.3117 26.995 5.35389C26.6864 5.35721 26.3915 5.48214 26.1745 5.70155C25.9574 5.92096 25.8357 6.21714 25.8357 6.52577C25.8357 18.7902 31.6323 25.5282 37.057 27.7449ZM37.5001 4.48172C40.1242 6.36756 43.2454 7.43192 46.8029 7.65472C46.4844 17.7031 41.924 23.3406 37.5001 25.3818C33.0763 23.3406 28.5157 17.7031 28.1972 7.65472C31.7547 7.43192 34.8759 6.36756 37.5001 4.48172ZM35.8031 18.0743L33.8184 16.1643C33.5961 15.9484 33.4683 15.6533 33.4631 15.3434C33.4578 15.0336 33.5755 14.7343 33.7904 14.511C34.0052 14.2877 34.2998 14.1586 34.6096 14.152C34.9194 14.1453 35.2192 14.2616 35.4435 14.4755L36.561 15.551L39.5034 12.3254C39.7129 12.0957 40.005 11.9586 40.3155 11.9443C40.6261 11.93 40.9295 12.0397 41.1592 12.2491C41.3889 12.4586 41.526 12.7507 41.5403 13.0612C41.5546 13.3718 41.4449 13.6752 41.2355 13.9049L37.482 18.0197C37.3764 18.1352 37.2489 18.2284 37.1067 18.2938C36.9646 18.3592 36.8108 18.3955 36.6545 18.4005H36.6162C36.3132 18.401 36.0218 18.2841 35.8031 18.0743Z" fill="currentColor"/>
</svg>
