<svg width="75" height="76" viewBox="0 0 75 76" fill="none" xmlns="http://www.w3.org/2000/svg">
<g clip-path="url(#clip0_165_17588)">
<path d="M70.1333 47.0044C64.9246 43.9141 60.799 42.5361 56.7562 42.5361C53.9396 42.5361 51.0824 43.206 47.8471 44.6566C45.0484 42.7016 41.969 41.2999 38.7232 40.4901C43.9458 37.9826 47.5616 32.6441 47.5693 26.4757H47.7552C49.4605 26.4757 50.8479 25.0883 50.8479 23.3831V22.6973C50.8479 21.4198 50.0692 20.3207 48.9615 19.8498V19.7128C48.9615 15.7311 47.5389 11.8551 44.956 8.79883C42.6194 6.03394 39.4639 4.0876 35.991 3.24224V3.1895C35.991 1.6334 34.7248 0.367188 33.1684 0.367188H30.8556C29.2993 0.367188 28.0331 1.6334 28.0331 3.18965V3.24238C24.5602 4.0876 21.4048 6.03408 19.0683 8.79897C16.4853 11.8552 15.0628 15.7312 15.0628 19.7129V19.8496C13.9551 20.3206 13.1762 21.4196 13.1762 22.6973V23.3831C13.1762 25.0885 14.5636 26.4757 16.2688 26.4757H16.455C16.4626 32.6497 20.0852 37.9923 25.3155 40.4969C13.9601 43.3461 5.2107 53.2561 4.30147 65.3749C4.23834 66.2154 4.52896 67.0498 5.09864 67.6639C5.66832 68.2779 6.47867 68.6304 7.32169 68.6304H47.4357C47.5885 68.7507 47.7439 68.8678 47.9016 68.9816L56.0721 74.8539C56.2764 75.0008 56.5162 75.0742 56.756 75.0742C56.9958 75.0742 57.2356 75.0008 57.44 74.8539L65.6101 68.9816C68.9445 66.5852 70.707 63.1479 70.707 59.0418V48.0123C70.7071 47.8089 70.6543 47.6091 70.5537 47.4323C70.453 47.2556 70.3082 47.1082 70.1333 47.0044ZM45.1259 66.2866H33.1839V56.1584L41.9588 44.046C43.1555 44.5596 44.3109 45.1645 45.4148 45.8554C44.7277 46.2232 44.049 46.6063 43.3791 47.0044C43.2042 47.1082 43.0593 47.2556 42.9587 47.4324C42.858 47.6091 42.8051 47.8089 42.8052 48.0123V59.0418C42.805 61.7951 43.5987 64.247 45.1259 66.2866ZM32.0121 53.7811L24.3512 43.2062C26.8279 42.4153 29.4122 42.0131 32.0121 42.0137C34.6467 42.0137 37.2232 42.416 39.6795 43.1973L32.0121 53.7811ZM30.8402 56.1584V66.2866H15.209C17.1515 59.7689 17.893 53.1774 17.4146 46.6601C18.8722 45.632 20.4333 44.7591 22.0724 44.0556L30.8402 56.1584ZM38.8619 6.8125L38.1959 16.7898C38.1794 17.0976 38.2847 17.3994 38.4892 17.63C38.6936 17.8606 38.9806 18.0015 39.2881 18.022C39.5955 18.0426 39.8988 17.9412 40.132 17.7398C40.3653 17.5385 40.5099 17.2533 40.5345 16.9461L41.1122 8.29155C44.4698 10.968 46.5821 15.0707 46.6154 19.6047H35.991V5.66201C36.9861 5.94267 37.9484 6.32833 38.8619 6.8125ZM30.8556 2.71094H33.1684C33.4278 2.71094 33.6473 2.93008 33.6473 3.18965V19.6047H30.377V3.18965C30.377 2.93008 30.5961 2.71094 30.8556 2.71094ZM22.912 8.29155L23.4897 16.946C23.5105 17.2561 23.6535 17.5453 23.8875 17.7499C24.0033 17.8513 24.138 17.9288 24.2838 17.9781C24.4296 18.0273 24.5836 18.0474 24.7372 18.0372C24.8908 18.0269 25.0408 17.9865 25.1787 17.9182C25.3167 17.85 25.4398 17.7553 25.5411 17.6394C25.6425 17.5236 25.72 17.3889 25.7693 17.2431C25.8185 17.0973 25.8386 16.9433 25.8284 16.7897L25.1622 6.8125C26.0757 6.32839 27.0381 5.94273 28.0331 5.66201V19.6045H17.409C17.4423 15.0707 19.5544 10.968 22.912 8.29155ZM15.5201 23.3831V22.6973C15.5201 22.2914 15.863 21.9483 16.2689 21.9483H47.755C48.1609 21.9483 48.504 22.2914 48.504 22.6973V23.3831C48.504 23.789 48.1609 24.1319 47.755 24.1319H16.2689C15.863 24.1319 15.5201 23.7892 15.5201 23.3831ZM18.7989 26.4757H45.2255C45.215 33.7527 39.2917 39.6698 32.0122 39.6698C24.7327 39.67 18.8093 33.7527 18.7989 26.4757ZM6.8169 66.0698C6.68726 65.9302 6.62398 65.7457 6.63863 65.5504C7.14927 58.7436 10.3612 52.6974 15.1681 48.4378C15.4125 54.3697 14.6047 60.3596 12.7589 66.2865H7.32169C7.12569 66.2866 6.94639 66.2096 6.8169 66.0698ZM68.3634 59.0418C68.3634 62.3617 66.9383 65.1408 64.2424 67.0785L56.7562 72.4592L49.2697 67.0785C46.5739 65.1408 45.1489 62.3619 45.1489 59.0418V48.6839C53.9577 43.593 59.5548 43.593 68.3636 48.6839V59.0418H68.3634ZM56.756 46.6296C53.9235 46.6296 51.0729 47.4728 47.5139 49.363C47.326 49.4628 47.1689 49.6119 47.0593 49.7942C46.9497 49.9765 46.8918 50.1852 46.8918 50.3979V59.0416C46.8918 61.8161 48.0339 64.0438 50.2867 65.6632L56.0722 69.8213C56.2766 69.9682 56.5164 70.0416 56.7562 70.0416C56.996 70.0416 57.2358 69.9682 57.4401 69.8213L63.2254 65.6632C65.4783 64.0438 66.6207 61.8159 66.6207 59.0416V50.398C66.6207 50.1853 66.5628 49.9766 66.4532 49.7943C66.3436 49.612 66.1865 49.4629 65.9986 49.3631C62.4392 47.4728 59.5887 46.6296 56.756 46.6296ZM64.2768 59.0418C64.2768 61.0467 63.4855 62.5901 61.8573 63.7602L56.756 67.4267L51.6544 63.7602C50.0267 62.5902 49.2354 61.0467 49.2354 59.0418V51.11C54.8441 48.2667 58.6678 48.2668 64.2768 51.1101V59.0418ZM55.5634 58.2726L60.0749 53.7187C60.2937 53.4979 60.5912 53.373 60.902 53.3716C61.2128 53.3701 61.5114 53.4922 61.7322 53.7109C61.953 53.9297 62.0779 54.2272 62.0794 54.538C62.0808 54.8488 61.9588 55.1475 61.74 55.3683L56.4103 60.7479C56.3015 60.858 56.1718 60.9454 56.0288 61.005C55.8859 61.0646 55.7326 61.0951 55.5777 61.0949C55.272 61.0953 54.9784 60.9759 54.7597 60.7623L51.7868 57.8644C51.5685 57.6465 51.4449 57.3514 51.4427 57.043C51.4406 56.7346 51.5601 56.4377 51.7754 56.2169C51.9907 55.996 52.2843 55.8689 52.5927 55.8631C52.9011 55.8574 53.1993 55.9734 53.4226 56.1861L55.5634 58.2726Z" fill="#F25B06"/>
</g>
<defs>
<clipPath id="clip0_165_17588">
<rect width="75" height="75" fill="white" transform="translate(0 0.220703)"/>
</clipPath>
</defs>
</svg>
