<svg width="75" height="76" viewBox="0 0 75 76" fill="none" xmlns="http://www.w3.org/2000/svg">
<g clip-path="url(#clip0_165_17605)">
<path d="M23.8497 16.4866V15.4621C23.8497 13.5149 22.2711 11.9364 20.3239 11.9364H18.275C16.3278 11.9364 14.7493 13.5149 14.7493 15.4621C14.7493 16.2021 14.9821 16.9233 15.4148 17.5237C15.8475 18.124 16.4581 18.5729 17.1602 18.8069L21.439 20.2333C22.141 20.4673 22.7516 20.9162 23.1843 21.5165C23.6169 22.1169 23.8498 22.8381 23.8498 23.5781C23.8498 25.5253 22.2713 27.1038 20.3241 27.1038H18.2752C16.328 27.1038 14.7495 25.5253 14.7495 23.5781V22.5536M19.2996 10.4197V28.6204M23.8497 48.8917V49.5402C23.8497 50.5516 23.0299 51.3713 22.0186 51.3713H12.0303C11.0189 51.3713 10.1992 50.5516 10.1992 49.5402V39.5518C10.1992 38.5404 11.0189 37.7207 12.0303 37.7207H22.0186C23.0299 37.7207 23.8497 38.5404 23.8497 39.5518V43.7648M26.1249 28.6204H30.675M14.7493 44.546H19.2996M32.95 44.546H37.5002M17.0245 42.2708V46.821M14.7495 60.4715L19.2996 65.0217M19.2996 60.4715L14.7495 65.0217M37.5002 60.4715L32.9501 65.0217M51.1508 51.3713H55.7009M51.1508 55.9214H55.7009M69.3515 23.2599V24.9583C69.3515 26.9808 67.7119 28.6204 65.6894 28.6204H45.7125C43.6899 28.6204 42.0503 26.9808 42.0503 24.9583V4.98145C42.0503 2.95894 43.6899 1.31934 45.7125 1.31934H65.6893C67.7118 1.31934 69.3514 2.95894 69.3514 4.98145V18.133M40.2193 51.3713H30.231C29.2196 51.3713 28.3999 50.5516 28.3999 49.5402V39.5518C28.3999 38.5404 29.2196 37.7207 30.231 37.7207H40.2193C41.2306 37.7207 42.0503 38.5404 42.0503 39.5518V49.5402C42.0503 50.5514 41.2306 51.3713 40.2193 51.3713ZM58.42 69.572H48.4315C47.4202 69.572 46.6004 68.7522 46.6004 67.7409V39.5518C46.6004 38.5404 47.4202 37.7207 48.4315 37.7207H58.42C59.4313 37.7207 60.251 38.5404 60.251 39.5518V67.7409C60.251 68.7521 59.4313 69.572 58.42 69.572ZM40.2193 69.572H30.231C29.2196 69.572 28.3999 68.7522 28.3999 67.7409V57.7524C28.3999 56.7411 29.2196 55.9214 30.231 55.9214H40.2193C41.2306 55.9214 42.0503 56.7411 42.0503 57.7524V67.7409C42.0503 68.7521 41.2306 69.572 40.2193 69.572ZM22.0186 69.572H12.0303C11.0189 69.572 10.1992 68.7522 10.1992 67.7409V57.7524C10.1992 56.7411 11.0189 55.9214 12.0303 55.9214H22.0186C23.0299 55.9214 23.8497 56.7411 23.8497 57.7524V67.7409C23.8497 68.7521 23.0299 69.572 22.0186 69.572Z" stroke="white" stroke-width="2.19727" stroke-miterlimit="10" stroke-linecap="round" stroke-linejoin="round"/>
<path d="M57.9761 8.32295C60.5897 8.97451 62.5262 11.3376 62.5262 14.153V17.2452M48.8756 17.2452V14.153C48.8756 11.3376 50.8122 8.97451 53.4257 8.32295M53.4259 17.2452V8.14482C53.4259 7.95057 53.503 7.76428 53.6404 7.62692C53.7778 7.48957 53.964 7.4124 54.1583 7.4124H57.2436C57.4378 7.4124 57.6241 7.48957 57.7615 7.62692C57.8988 7.76428 57.976 7.95057 57.976 8.14482V17.2452M19.9781 5.86963H10.1992V33.1708H60.251V28.6206M42.0503 5.86963H25.105M63.0237 17.2452H48.3782C47.5615 17.2452 47.0302 18.1046 47.3956 18.8351L47.6478 19.3397C48.0168 20.0776 48.5839 20.6982 49.2857 21.1319C49.9875 21.5657 50.7962 21.7954 51.6212 21.7954H59.7807C60.6057 21.7954 61.4144 21.5657 62.1162 21.1319C62.8179 20.6982 63.3851 20.0776 63.7541 19.3397L64.0063 18.8351C64.3715 18.1046 63.8403 17.2452 63.0237 17.2452Z" stroke="white" stroke-width="2.19727" stroke-miterlimit="10" stroke-linecap="round" stroke-linejoin="round"/>
<path d="M45.7124 1.31934H10.7759C7.94434 1.31934 5.64893 3.61475 5.64893 6.44629V68.9951C5.64893 71.8267 7.94434 74.1221 10.7759 74.1221H59.6741C62.5057 74.1221 64.8011 71.8267 64.8011 68.9951V28.6204" stroke="white" stroke-width="2.19727" stroke-miterlimit="10" stroke-linecap="round" stroke-linejoin="round"/>
</g>
<defs>
<clipPath id="clip0_165_17605">
<rect width="75" height="75" fill="white" transform="translate(0 0.220703)"/>
</clipPath>
</defs>
</svg>
