<?xml version="1.0" encoding="utf-8"?>
<!-- Generator: Adobe Illustrator 26.3.1, SVG Export Plug-In . SVG Version: 6.00 Build 0)  -->
<svg version="1.1" id="Layer_1" xmlns="http://www.w3.org/2000/svg" xmlns:xlink="http://www.w3.org/1999/xlink" x="0px" y="0px"
	 viewBox="0 0 91.64 91.64" style="enable-background:new 0 0 91.64 91.64;" xml:space="preserve">
<style type="text/css">
	.st0{fill-rule:evenodd;clip-rule:evenodd;fill:#FF5A1F;}
	.st1{fill-rule:evenodd;clip-rule:evenodd;fill:#032DA6;}
	.st2{fill:#032DA6;}
	.st3{fill:#FF5A1F;}
	.st4{fill:none;stroke:#032DA6;stroke-width:1.2;stroke-linecap:round;stroke-linejoin:round;stroke-miterlimit:10;}
	.st5{fill:none;stroke:#FF5A1F;stroke-width:1.2;stroke-linecap:round;stroke-linejoin:round;stroke-miterlimit:10;}
	.st6{fill:none;stroke:#032DA6;stroke-width:1.1582;stroke-linecap:round;stroke-linejoin:round;stroke-miterlimit:10;}
	.st7{fill:none;stroke:#FF5A1F;stroke-width:1.1582;stroke-linecap:round;stroke-linejoin:round;stroke-miterlimit:10;}
</style>
<g>
	<g>
		<path class="st2" d="M22.62,65.46c-0.11,0-0.21-0.01-0.32-0.04c-0.35-0.09-0.77-0.19-0.95-0.56c-0.2-0.44,0.04-0.97,0.26-1.22
			c0.52-0.61,1.05-1.2,1.58-1.8l2.03-2.27c1.64-1.84,3.28-3.67,4.92-5.52c0.39-0.44,0.83-0.64,1.4-0.64c0.01,0,0.01,0,0.02,0
			c0.88,0.01,1.76,0.01,2.65,0.01c1.19,0,2.4,0,3.59,0.01c0.41,0.01,0.88,0.19,1.21,0.49c0.42,0.37,0.82,0.77,1.21,1.17l0.76,0.76
			l-0.36,0.69l-0.42,0.19l-0.22,0.01c-0.18,0.01-0.35,0.03-0.53,0.03h-1.99c-1.66,0-3.31,0-4.97,0.02c-0.18,0-0.39,0.09-0.45,0.15
			c-1.37,1.5-2.73,3.02-4.08,4.54l-0.5,0.57h38.62l-1.68-1.89c-0.96-1.09-1.93-2.17-2.92-3.24c-0.05-0.06-0.24-0.14-0.4-0.14
			c-1.57-0.02-3.13-0.02-4.7-0.02h-1.98c-0.17,0-0.34-0.02-0.54-0.04l-1.57-0.13l1.42-1.45c0.5-0.51,0.96-0.99,1.45-1.45
			c0.28-0.27,0.68-0.27,0.94-0.27l0.8,0c1.72-0.01,3.45-0.01,5.17,0.02c0.46,0.01,0.99,0.25,1.29,0.59
			c2.85,3.16,5.68,6.33,8.51,9.51c0.19,0.22,0.27,0.47,0.33,0.68c0.02,0.06,0.04,0.12,0.06,0.18L72.5,65l-0.62,0.18
			c-0.07,0.02-0.14,0.05-0.22,0.08c-0.21,0.08-0.47,0.18-0.77,0.18c-11.66,0.01-23.31,0.01-34.97,0.01H22.89
			C22.79,65.46,22.7,65.46,22.62,65.46z M22.63,64.28c0.04,0,0.07,0,0.09,0l0.17-0.01h13.03c11.65,0,23.32,0,34.97-0.01
			c0.01,0,0.02,0,0.03,0c-2.8-3.15-5.6-6.3-8.43-9.43c-0.09-0.1-0.3-0.19-0.43-0.2c-1.71-0.03-3.43-0.02-5.14-0.02l-0.8,0
			c-0.05,0-0.13,0-0.19,0.01c-0.32,0.31-0.64,0.63-0.96,0.96h1.44c1.57,0,3.14,0,4.72,0.02c0.39,0,0.93,0.17,1.25,0.52
			c0.99,1.07,1.96,2.16,2.93,3.26l3.43,3.86H24.93l0.88-1.1c0.06-0.08,0.1-0.13,0.15-0.18l1.13-1.26c1.36-1.53,2.71-3.05,4.09-4.56
			c0.34-0.37,0.9-0.54,1.31-0.54c1.66-0.02,3.32-0.02,4.99-0.02h1.56c-0.26-0.26-0.53-0.52-0.8-0.76c-0.12-0.11-0.32-0.19-0.45-0.19
			c-1.19-0.02-2.39-0.02-3.58-0.02c-0.89,0-1.77,0-2.66-0.01c-0.25,0.04-0.36,0.06-0.52,0.24c-1.64,1.85-3.28,3.68-4.92,5.52
			l-2.03,2.27C23.59,63.18,23.1,63.72,22.63,64.28z M55.88,54.63L55.88,54.63L55.88,54.63z"/>
	</g>
	<g>
		<path class="st2" d="M46.85,47.75h-0.01c-2.35-0.02-4.44-1.01-5.72-2.72c-1.2-1.6-1.56-3.65-0.99-5.63
			c0.68-2.38,1.95-4.51,3.07-6.39c0.56-0.94,1.17-1.84,1.76-2.71c0.43-0.64,0.92-0.96,1.44-0.97c0,0,0,0,0.01,0
			c0.52,0,1,0.31,1.43,0.94c2.09,3.01,3.47,5.47,4.48,7.97c0.95,2.37,0.88,4.41-0.24,6.26c-1.2,1.99-3.09,3.17-5.2,3.25H46.85z
			 M46.39,30.42C46.39,30.42,46.39,30.42,46.39,30.42c-0.1,0-0.3,0.13-0.54,0.49c-0.58,0.86-1.18,1.74-1.73,2.66
			c-1.09,1.82-2.32,3.89-2.96,6.13c-0.47,1.65-0.17,3.36,0.82,4.68c1.07,1.43,2.84,2.27,4.84,2.29c1.75-0.07,3.28-1.04,4.29-2.73
			c0.94-1.55,0.99-3.23,0.16-5.29c-0.98-2.42-2.32-4.81-4.36-7.76C46.68,30.54,46.49,30.42,46.39,30.42z"/>
	</g>
	<path class="st2" d="M46.7,45.21c0.33-0.07,0.67-0.11,0.98-0.22c2.58-0.97,3.58-3.68,1.94-6.44c-0.1-0.16-0.5-0.26-0.71-0.21
		c-0.33,0.08-0.49,0.39-0.37,0.76c0.13,0.39,0.29,0.77,0.41,1.16c0.56,1.84-0.46,3.42-2.36,3.65c-0.43,0.05-0.81,0.15-0.8,0.66
		C45.81,45.14,46.25,45.18,46.7,45.21z"/>
	<g>
		<path class="st3" d="M46.96,60.32c-0.42,0-0.69-0.27-1.09-0.68L32.75,46.53c-0.86-0.86-0.86-1.31,0.01-2.19l0.2-0.2
			c0.82-0.82,1.3-0.82,2.11-0.01L46.8,55.86c0.03,0.03,0.06,0.06,0.09,0.08l10.08-10.09c-0.33,0-0.64,0-0.96,0
			c-1.09-0.01-1.46-0.38-1.48-1.45c-0.01-0.75-0.02-1.21,0.31-1.55c0.33-0.34,0.78-0.34,1.53-0.34l1.47,0c1.27,0,2.53,0.01,3.8-0.01
			c0.27,0,0.66,0.02,0.95,0.31c0.29,0.29,0.32,0.69,0.32,0.97c-0.01,1.19-0.01,2.38-0.01,3.57v2.11c0,1-0.37,1.37-1.36,1.39
			c-0.82,0.01-1.28,0.02-1.63-0.32c-0.35-0.35-0.35-0.81-0.35-1.65v-0.74c-3.3,3.31-6.6,6.61-9.9,9.91l-1.57,1.57
			c-0.42,0.42-0.69,0.69-1.11,0.7C46.97,60.32,46.97,60.32,46.96,60.32z M33.36,45.45c0.07,0.08,0.18,0.19,0.24,0.25l13.11,13.11
			c0.08,0.08,0.18,0.18,0.26,0.25c0.08-0.08,0.19-0.18,0.28-0.27l1.57-1.57c3.41-3.41,6.82-6.82,10.22-10.23
			c0.08-0.08,0.15-0.2,0.23-0.32c0.05-0.08,0.1-0.16,0.15-0.24l0.34-0.48l0.99,0.67v2.27c0,0.3,0,0.62,0.02,0.78
			c0.16,0.02,0.46,0.01,0.75,0.01c0.08,0,0.14,0,0.19-0.01c0-0.05,0.01-0.11,0.01-0.2v-2.1c0-1.19,0-2.39,0.01-3.58
			c0-0.03,0-0.06,0-0.08c-0.02,0-0.04,0-0.06,0c-1.28,0.02-2.55,0.02-3.82,0.01l-1.47,0c-0.24,0-0.5,0-0.65,0.01
			c-0.01,0.15-0.01,0.42,0,0.67c0,0.13,0.01,0.22,0.01,0.28c0.06,0.01,0.15,0.01,0.29,0.01c0.56,0.01,1.12,0,1.67,0l2.15,0
			L46.91,57.59l-0.54-0.5c-0.13-0.12-0.27-0.25-0.41-0.39L34.24,44.98c-0.09-0.09-0.16-0.15-0.21-0.2
			c-0.08,0.07-0.18,0.17-0.22,0.21l-0.2,0.2C33.55,45.24,33.44,45.36,33.36,45.45z"/>
	</g>
	<g>
		<path class="st2" d="M38.59,41.73c-0.14,0-0.27-0.03-0.38-0.05c-2.7-0.69-4.45-3.04-4.46-5.99v-0.01c0.02-0.96,0.4-2.19,1.05-3.38
			c1.18-2.14,2.44-4.25,3.52-6.03c0.46-0.75,1-0.88,1.29-0.88c0.27,0,0.83,0.1,1.31,0.84c0.43,0.67,0.85,1.35,1.27,2.03
			c0.43,0.69,0.85,1.38,1.29,2.06c0.45,0.7,0.22,1.26-0.04,1.72l-0.32,0.57c-0.93,1.67-1.9,3.39-2.72,5.14
			c-0.33,0.7-0.5,1.48-0.68,2.31c-0.05,0.25-0.11,0.5-0.17,0.75c-0.05,0.2-0.14,0.59-0.48,0.79C38.91,41.7,38.74,41.73,38.59,41.73z
			 M34.84,35.69c0.01,2.43,1.44,4.36,3.63,4.93c0-0.02,0.01-0.03,0.01-0.05c0.06-0.24,0.11-0.49,0.16-0.73
			c0.19-0.85,0.38-1.74,0.76-2.55c0.84-1.78,1.81-3.52,2.75-5.21l0.32-0.57c0.22-0.39,0.19-0.43,0.08-0.6
			c-0.44-0.69-0.87-1.38-1.3-2.08c-0.42-0.67-0.83-1.35-1.26-2.01c-0.17-0.27-0.32-0.34-0.38-0.34c0,0,0,0,0,0
			c-0.08,0-0.22,0.11-0.37,0.35c-1.07,1.77-2.32,3.87-3.49,5.99C35.19,33.84,34.85,34.91,34.84,35.69z"/>
	</g>
	<g>
		<path class="st2" d="M54.2,41.73c-0.17,0-0.34-0.04-0.51-0.15c-0.3-0.21-0.38-0.56-0.41-0.8c-0.35-2.65-1.65-4.94-2.9-7.15
			c-0.32-0.56-0.68-1.14-1.07-1.73c-0.33-0.48-0.35-0.96-0.06-1.42l0.89-1.43c0.6-0.97,1.2-1.94,1.83-2.9
			c0.31-0.48,0.74-0.74,1.21-0.74c0.43,0,0.9,0.25,1.22,0.72c1.74,2.56,3.38,5.1,4.34,8.01c0.13,0.38,0.2,0.78,0.26,1.11
			c0.04,0.21,0.04,0.43,0.05,0.56l0,0.1c-0.02,2.79-1.84,5.16-4.43,5.78C54.48,41.7,54.34,41.73,54.2,41.73z M53.18,26.49
			L53.18,26.49c-0.09,0-0.2,0.1-0.3,0.25c-0.62,0.95-1.22,1.92-1.81,2.88l-0.9,1.44c-0.05,0.07-0.05,0.09,0.04,0.23
			c0.41,0.61,0.78,1.22,1.12,1.8c1.24,2.19,2.65,4.67,3.03,7.52c2.09-0.5,3.57-2.43,3.59-4.71l0-0.08c0-0.09,0-0.25-0.03-0.39
			c-0.05-0.3-0.12-0.64-0.23-0.96c-0.91-2.77-2.51-5.24-4.2-7.74C53.38,26.58,53.27,26.49,53.18,26.49z"/>
	</g>
</g>
</svg>
