<?xml version="1.0" encoding="utf-8"?>
<!-- Generator: Adobe Illustrator 26.3.1, SVG Export Plug-In . SVG Version: 6.00 Build 0)  -->
<svg version="1.1" id="Layer_1" xmlns="http://www.w3.org/2000/svg" xmlns:xlink="http://www.w3.org/1999/xlink" x="0px" y="0px"
	 viewBox="0 0 91.64 91.64" style="enable-background:new 0 0 91.64 91.64;" xml:space="preserve">
<style type="text/css">
	.st0{fill-rule:evenodd;clip-rule:evenodd;fill:#FF5A1F;}
	.st1{fill-rule:evenodd;clip-rule:evenodd;fill:#032DA6;}
	.st2{fill:#032DA6;}
	.st3{fill:#FF5A1F;}
	.st4{fill:none;stroke:#032DA6;stroke-width:1.2;stroke-linecap:round;stroke-linejoin:round;stroke-miterlimit:10;}
	.st5{fill:none;stroke:#FF5A1F;stroke-width:1.2;stroke-linecap:round;stroke-linejoin:round;stroke-miterlimit:10;}
	.st6{fill:none;stroke:#032DA6;stroke-width:1.1582;stroke-linecap:round;stroke-linejoin:round;stroke-miterlimit:10;}
	.st7{fill:none;stroke:#FF5A1F;stroke-width:1.1582;stroke-linecap:round;stroke-linejoin:round;stroke-miterlimit:10;}
</style>
<g>
	<g id="PETaTL_00000025416172751509515980000012924921655926856602_">
		<g>
			<path class="st2" d="M56.48,41.61c0.24,0,0.42,0,0.64,0c0-1.71,0-3.42,0-5.17c3.41,0,6.78,0,10.18,0
				c0.01,0.14,0.03,0.28,0.03,0.41c0,2.24,0,4.49,0.01,6.73c0,0.29-0.08,0.48-0.32,0.66C56.44,52.5,45.88,60.76,35.3,69.01
				c-0.15,0.11-0.36,0.21-0.54,0.21c-3.76,0.01-7.51,0.01-11.27,0.01c-0.08,0-0.15-0.01-0.26-0.02c0-2.2,0-4.38,0-6.62
				c1.19,0,2.36,0,3.58,0c0-5.05,0-10.05,0-15.13c-0.22,0.16-0.4,0.3-0.58,0.44c-0.72,0.55-1.58,0.48-2.07-0.16
				c-0.5-0.66-0.37-1.48,0.36-2.05c4.61-3.61,9.23-7.22,13.85-10.82c5.76-4.5,11.52-9,17.27-13.5c0.35-0.28,0.71-0.4,1.15-0.4
				c2.23,0.02,4.46,0.01,6.69,0.01c0.94,0,1.52,0.54,1.52,1.39c0,0.83-0.61,1.39-1.54,1.39c-1.98,0-3.96,0-5.94,0
				c-0.69,0-1.04,0.36-1.04,1.05c0,5.41,0,10.81,0,16.22C56.48,41.22,56.48,41.4,56.48,41.61z M51.07,47.6c-2.3,0-4.53,0-6.82,0
				c0,1.78,0,3.48,0,5.23c-2.28,0-4.5,0-6.77,0c0,1.76,0,3.46,0,5.22c-2.28,0-4.52,0-6.82,0c0,1.76,0,3.46,0,5.21
				c-0.25,0-0.43,0-0.62,0c-1.9,0-3.8,0.01-5.7-0.01c-0.34,0-0.46,0.09-0.46,0.45c0.02,1.46,0.01,2.93,0.01,4.39
				c0,0.13,0.02,0.27,0.04,0.42c0.25,0,0.45,0,0.65,0c3.21,0,6.42-0.01,9.63,0.01c0.4,0,0.71-0.11,1.02-0.35
				C45.58,60.09,55.93,52,66.28,43.92c0.24-0.19,0.36-0.38,0.35-0.7c-0.02-1.89-0.01-3.77-0.01-5.66c0-0.14-0.02-0.27-0.03-0.42
				c-2.91,0-5.8,0-8.73,0c0,1.74,0,3.45,0,5.21c-2.28,0-4.52,0-6.79,0C51.07,44.1,51.07,45.8,51.07,47.6z M47.3,31.47
				c-0.19,0.13-0.32,0.23-0.45,0.33c-1.2,0.94-2.4,1.89-3.61,2.81c-0.29,0.22-0.4,0.45-0.4,0.82c0.01,5.36,0.01,10.71,0.01,16.07
				c0,0.66,0.03,0.69,0.74,0.52c0-1.69,0-3.4,0-5.17c1.27,0,2.49,0,3.72,0C47.3,41.71,47.3,36.63,47.3,31.47z M54.12,26.13
				c-0.19,0.15-0.33,0.24-0.45,0.34c-1.21,0.95-2.42,1.91-3.65,2.84c-0.26,0.2-0.36,0.41-0.36,0.74c0.01,5.42,0.01,10.84,0.01,16.25
				c0,0.17,0,0.33,0,0.49c0.68,0.14,0.7,0.12,0.7-0.48c0-1.37,0-2.74,0-4.11c0-0.18,0.02-0.36,0.03-0.59c1.27,0,2.49,0,3.72,0
				C54.12,36.45,54.12,31.33,54.12,26.13z M60.33,23.04c1.07,0,2.15,0,3.22,0c0.35,0,0.66-0.14,0.69-0.49
				c0.02-0.24-0.09-0.55-0.25-0.72c-0.13-0.14-0.43-0.14-0.65-0.15c-2.12-0.01-4.24,0-6.36-0.01c-0.42,0-0.73,0.12-1.06,0.37
				c-9.69,7.58-19.38,15.16-29.08,22.73c-0.65,0.51-1.32,0.99-1.94,1.54c-0.18,0.16-0.29,0.51-0.27,0.76
				c0.02,0.17,0.31,0.42,0.51,0.44c0.22,0.03,0.51-0.1,0.71-0.25c1.55-1.18,3.08-2.39,4.61-3.59c8.69-6.79,17.38-13.58,26.07-20.35
				c0.21-0.17,0.53-0.27,0.8-0.28C58.33,23.02,59.33,23.04,60.33,23.04z M33.62,42.15c-0.2,0.15-0.33,0.24-0.46,0.35
				c-1.19,0.93-2.37,1.87-3.57,2.78c-0.29,0.22-0.4,0.45-0.4,0.82c0.01,5.29,0.01,10.59,0.01,15.88c0,0.66,0.05,0.7,0.79,0.52
				c0-1.69,0-3.4,0-5.15c1.06,0,2.07-0.03,3.08,0.01c0.48,0.02,0.6-0.13,0.6-0.6c-0.02-4.67-0.01-9.34-0.01-14.01
				C33.64,42.57,33.63,42.41,33.62,42.15z M40.48,36.8c-0.19,0.13-0.31,0.22-0.43,0.31c-1.2,0.94-2.4,1.89-3.61,2.81
				c-0.26,0.2-0.36,0.41-0.36,0.74c0.01,5.37,0.01,10.75,0.01,16.12c0,0.17,0,0.33,0,0.52c0.25,0,0.44,0,0.7,0c0-1.75,0-3.46,0-5.23
				c1.27,0,2.48,0,3.7,0C40.48,46.98,40.48,41.94,40.48,36.8z M35.33,57.26c0-5.45,0-10.91,0-16.41c-0.67,0.35-1.03,0.75-1.02,1.59
				c0.05,4.69,0.02,9.37,0.02,14.06c0,0.93,0,0.93,0.94,0.81C35.29,57.31,35.3,57.29,35.33,57.26z M27.57,62.51
				c0.92,0.17,0.93,0.17,0.93-0.68c0-5.01,0-10.02,0-15.04c0-0.18,0-0.36,0-0.59c-0.63,0.33-0.96,0.66-0.95,1.39
				c0.04,4.79,0.02,9.59,0.02,14.38C27.57,62.16,27.57,62.34,27.57,62.51z M55.74,24.93c-0.68,0.29-0.9,0.72-0.9,1.43
				c0.04,4.89,0.02,9.78,0.02,14.67c0,0.19,0.02,0.39,0.03,0.58c0.32,0,0.57,0,0.85,0C55.74,36.04,55.74,30.5,55.74,24.93z
				 M48.93,30.24c-0.67,0.31-0.92,0.73-0.91,1.44c0.04,4.84,0.02,9.69,0.02,14.53c0,0.2,0,0.4,0,0.62c0.33,0,0.6,0,0.89,0
				C48.93,41.29,48.93,35.79,48.93,30.24z M42.09,52.07c0-5.51,0-10.99,0-16.49c-0.61,0.3-0.89,0.67-0.89,1.38
				c0.04,4.86,0.02,9.71,0.02,14.57c0,0.18,0.02,0.36,0.02,0.54C41.56,52.07,41.81,52.07,42.09,52.07z"/>
		</g>
	</g>
	<polygon class="st3" points="68.01,47.15 66.59,48.24 68.68,48.51 40.24,70.53 40.51,68.44 39.09,69.53 38.71,72.5 41.68,72.87 
		43.09,71.78 41,71.51 69.45,49.49 69.18,51.58 70.6,50.49 70.97,47.52 	"/>
</g>
</svg>
