<?xml version="1.0" encoding="utf-8"?>
<!-- Generator: Adobe Illustrator 26.3.1, SVG Export Plug-In . SVG Version: 6.00 Build 0)  -->
<svg version="1.1" id="Layer_1" xmlns="http://www.w3.org/2000/svg" xmlns:xlink="http://www.w3.org/1999/xlink" x="0px" y="0px"
	 viewBox="0 0 92.69 92.69" style="enable-background:new 0 0 92.69 92.69;" xml:space="preserve">
<style type="text/css">
	.st0{fill-rule:evenodd;clip-rule:evenodd;fill:#FF5A1F;}
	.st1{fill-rule:evenodd;clip-rule:evenodd;fill:#032DA6;}
	.st2{fill:#032DA6;}
	.st3{fill:#FF5A1F;}
	.st4{fill:none;stroke:#032DA6;stroke-width:1.2;stroke-linecap:round;stroke-linejoin:round;stroke-miterlimit:10;}
	.st5{fill:none;stroke:#FF5A1F;stroke-width:1.2;stroke-linecap:round;stroke-linejoin:round;stroke-miterlimit:10;}
	.st6{fill:none;stroke:#032DA6;stroke-width:1.1582;stroke-linecap:round;stroke-linejoin:round;stroke-miterlimit:10;}
	.st7{fill:none;stroke:#FF5A1F;stroke-width:1.1582;stroke-linecap:round;stroke-linejoin:round;stroke-miterlimit:10;}
</style>
<g>
	<path class="st2" d="M43.18,72.32c-0.07,0-0.15-0.01-0.22-0.02c-0.46-0.11-0.78-0.52-0.78-0.99l0.33-22.84h-7.85
		c-0.36,0-0.7-0.2-0.87-0.51s-0.17-0.71,0.02-1.01l17.27-27.81c0.25-0.4,0.74-0.57,1.18-0.42c0.44,0.16,0.72,0.6,0.66,1.06
		l-2.1,17.44h7.73c0.34,0,0.66,0.17,0.84,0.46c0.18,0.29,0.21,0.65,0.06,0.96L44.08,71.74C43.92,72.1,43.56,72.32,43.18,72.32z
		 M36.46,46.46h7.07c0.27,0,0.52,0.11,0.71,0.3c0.19,0.19,0.29,0.45,0.29,0.72l-0.28,19.17l12.74-27.43H49.7
		c-0.29,0-0.56-0.12-0.75-0.34s-0.28-0.5-0.25-0.78l1.69-14.08L36.46,46.46z"/>
</g>
</svg>
