<?xml version="1.0" encoding="utf-8"?>
<!-- Generator: Adobe Illustrator 26.3.1, SVG Export Plug-In . SVG Version: 6.00 Build 0)  -->
<svg version="1.1" id="Layer_1" xmlns="http://www.w3.org/2000/svg" xmlns:xlink="http://www.w3.org/1999/xlink" x="0px" y="0px"
	 viewBox="0 0 91.64 91.64" style="enable-background:new 0 0 91.64 91.64;" xml:space="preserve">
<style type="text/css">
	.st0{fill-rule:evenodd;clip-rule:evenodd;fill:#FF5A1F;}
	.st1{fill-rule:evenodd;clip-rule:evenodd;fill:#032DA6;}
	.st2{fill:#032DA6;}
	.st3{fill:#FF5A1F;}
	.st4{fill:none;stroke:#032DA6;stroke-width:1.2;stroke-linecap:round;stroke-linejoin:round;stroke-miterlimit:10;}
	.st5{fill:none;stroke:#FF5A1F;stroke-width:1.2;stroke-linecap:round;stroke-linejoin:round;stroke-miterlimit:10;}
	.st6{fill:none;stroke:#032DA6;stroke-width:1.1582;stroke-linecap:round;stroke-linejoin:round;stroke-miterlimit:10;}
	.st7{fill:none;stroke:#FF5A1F;stroke-width:1.1582;stroke-linecap:round;stroke-linejoin:round;stroke-miterlimit:10;}
</style>
<g>
	<g>
		<g>
			<path class="st0" d="M66.21,37.76l-3.34-0.65c-0.32-1.21-0.8-2.34-1.43-3.47l1.91-2.91c0.4-0.57,0.32-1.38-0.16-1.86l-3.26-3.23
				c-0.27-0.28-0.64-0.42-1.02-0.42c-0.28,0-0.57,0.09-0.81,0.26l-2.78,1.86c-1.12-0.57-2.23-1.13-3.5-1.45l-0.64-3.32
				c-0.08-0.72-0.72-1.21-1.43-1.21h-4.54c-0.72,0-1.28,0.49-1.43,1.21l-0.64,3.39c-1.19,0.32-2.3,0.81-3.42,1.45l-2.87-1.94
				c-0.24-0.17-0.53-0.26-0.81-0.26c-0.38,0-0.75,0.15-1.02,0.42l-3.18,3.23c-0.48,0.49-0.56,1.29-0.16,1.86l1.91,2.99
				c-0.55,1.05-1.03,2.19-1.35,3.39l-3.43,0.65c-0.71,0.16-1.19,0.73-1.19,1.45v4.61c0,0.72,0.48,1.37,1.19,1.45L32.3,46
				c0.31,1.13,0.79,2.19,1.35,3.23l-1.99,3.07c-0.39,0.57-0.32,1.38,0.16,1.86L35,57.48c0.32,0.25,0.64,0.41,1.04,0.41
				c0.32,0,0.56-0.08,0.8-0.25l2.3-1.53c0.88,1.45,1.52,3.15,1.75,4.85c-0.72,0.4-1.19,1.13-1.19,2.02c0,0.89,0.55,1.7,1.35,2.02
				v3.31c0,1.22,0.56,2.42,1.59,3.23l2.47,1.86c0.71,0.56,1.59,0.89,2.47,0.89c0.79,0,1.67-0.32,2.39-0.89l2.55-1.86
				c0.96-0.81,1.52-2.01,1.52-3.23v-3.31c0.71-0.41,1.19-1.13,1.19-2.02c0-0.81-0.39-1.53-1.03-1.94c0.24-1.69,0.87-3.39,1.83-4.93
				l2.07,1.53c0.24,0.17,0.56,0.25,0.79,0.25c0.4,0,0.8-0.16,1.04-0.41l3.26-3.31c0.48-0.49,0.56-1.29,0.16-1.86l-1.99-2.99
				c0.64-1.05,1.12-2.19,1.43-3.32l3.42-0.72c0.63-0.08,1.2-0.73,1.2-1.45v-4.61C67.41,38.49,66.84,37.92,66.21,37.76z M31.9,44.31
				l-2.79-0.57v-4.44l2.79-0.57c-0.16,0.89-0.24,1.78-0.24,2.67C31.66,42.37,31.74,43.34,31.9,44.31z M58.88,26.76l3.11,3.15
				l-1.43,2.26c-1.04-1.54-2.31-2.83-3.82-3.88L58.88,26.76z M45.28,22.89h4.37l0.56,2.67c-0.88-0.16-1.75-0.24-2.63-0.24
				c-0.95,0-1.91,0.08-2.78,0.24L45.28,22.89z M32.93,29.92l3.11-3.15l2.23,1.54c-0.63,0.49-1.36,1.05-1.91,1.7
				c-0.72,0.73-1.36,1.45-1.91,2.26L32.93,29.92z M36.04,56.27l-3.11-3.15l1.59-2.43c0.72,0.97,1.43,1.86,2.31,2.67
				c0.55,0.49,0.96,0.97,1.35,1.45L36.04,56.27z M52.99,63.7h-5.97c-0.4,0-0.72,0.32-0.72,0.72c0,0.49,0.32,0.81,0.72,0.81h5.49
				v3.07c0,0.73-0.39,1.45-0.95,1.94l-2.55,1.94c-0.44,0.33-0.96,0.49-1.47,0.49c-0.52,0-1.03-0.16-1.47-0.49l-2.55-1.94
				c-0.56-0.48-0.96-1.21-0.96-1.94v-3.07h0.71c0.4,0,0.72-0.32,0.72-0.81c0-0.4-0.32-0.72-0.72-0.72h-1.35
				c-0.4,0-0.64-0.32-0.64-0.73c0-0.4,0.24-0.72,0.64-0.72h11.06c0.4,0,0.72,0.32,0.72,0.72C53.71,63.38,53.4,63.7,52.99,63.7z
				 M41.93,44.47c-0.32-0.57-0.56-1.13-0.72-1.78c0-0.32-0.23-0.49-0.55-0.57l-1.52-0.32v-1.37l1.52-0.33
				c0.32-0.08,0.55-0.32,0.55-0.57c0.16-0.64,0.4-1.21,0.72-1.77c0.16-0.24,0.16-0.57,0-0.81l-0.8-1.29l0.96-1.05l1.27,0.89
				c0.12,0.08,0.26,0.12,0.39,0.12c0.14,0,0.28-0.04,0.4-0.12c0.56-0.33,1.12-0.56,1.75-0.73c0.32-0.09,0.55-0.32,0.55-0.57
				l0.32-1.53h1.43l0.24,1.53c0.08,0.25,0.32,0.48,0.56,0.57c0.63,0.16,1.2,0.4,1.75,0.73c0.12,0.08,0.28,0.12,0.44,0.12
				c0.16,0,0.31-0.04,0.44-0.12l1.19-0.89l1.04,1.05l-0.88,1.29c-0.16,0.24-0.16,0.57,0,0.81c0.32,0.57,0.56,1.13,0.72,1.77
				c0.08,0.25,0.32,0.49,0.64,0.57l1.43,0.33v1.37l-1.43,0.32c-0.32,0.08-0.56,0.25-0.64,0.57c-0.16,0.65-0.4,1.21-0.72,1.78
				c-0.16,0.24-0.16,0.56,0,0.81l0.88,1.29l-1.04,0.97l-1.19-0.81c-0.12-0.08-0.28-0.12-0.44-0.12c-0.16,0-0.32,0.04-0.44,0.12
				c-0.55,0.32-1.11,0.56-1.75,0.72c-0.24,0.08-0.48,0.32-0.56,0.57l-0.24,1.53h-1.43l-0.32-1.53c0-0.25-0.23-0.49-0.55-0.57
				c-0.64-0.16-1.2-0.4-1.75-0.72c-0.12-0.08-0.26-0.12-0.4-0.12c-0.14,0-0.28,0.04-0.39,0.12l-1.27,0.81l-0.96-0.97l0.8-1.29
				C42.09,45.03,42.09,44.71,41.93,44.47z M61.99,53.11l-3.11,3.15l-1.98-1.46c0.39-0.57,0.87-1.05,1.43-1.54
				c0.8-0.72,1.51-1.61,2.15-2.5L61.99,53.11z M57.29,52.14c-0.8,0.73-1.51,1.54-2.15,2.42c-1.27,1.86-2.07,3.96-2.47,6.14h-4.46
				V51.1h0.32c0.56,0,1.04-0.41,1.11-0.89l0.24-1.37c0.39-0.16,0.87-0.33,1.27-0.57l1.11,0.81c0.2,0.14,0.41,0.2,0.62,0.2
				c0.29,0,0.58-0.12,0.81-0.36l1.51-1.53c0.32-0.33,0.4-0.97,0.08-1.38l-0.72-1.21l0.48-1.22l1.36-0.32
				c0.55-0.08,0.87-0.49,0.87-1.05v-2.18c0-0.56-0.32-0.97-0.87-1.13l-1.36-0.24c-0.16-0.4-0.32-0.89-0.48-1.29l0.72-1.13
				c0.32-0.41,0.23-1.05-0.08-1.37l-1.51-1.62c-0.23-0.18-0.49-0.28-0.77-0.28c-0.22,0-0.45,0.07-0.66,0.21l-1.11,0.81
				c-0.4-0.25-0.88-0.41-1.27-0.57l-0.24-1.37c-0.07-0.49-0.55-0.89-1.11-0.89h-2.15c-0.48,0-0.96,0.41-1.04,0.89l-0.32,1.37
				c-0.4,0.16-0.79,0.32-1.19,0.57l-1.2-0.81c-0.17-0.14-0.38-0.21-0.59-0.21c-0.27,0-0.54,0.1-0.76,0.28l-1.52,1.62
				c-0.39,0.32-0.48,0.97-0.16,1.37l0.8,1.13c-0.24,0.4-0.39,0.89-0.56,1.29l-1.35,0.24c-0.48,0.16-0.87,0.57-0.87,1.13v2.18
				c0,0.57,0.39,0.97,0.87,1.05l1.35,0.32c0.16,0.41,0.32,0.81,0.56,1.22L39.62,46c-0.32,0.41-0.24,1.05,0.16,1.38l1.52,1.53
				c0.23,0.24,0.52,0.36,0.79,0.36c0.2,0,0.39-0.07,0.56-0.2l1.2-0.81c0.39,0.24,0.79,0.41,1.19,0.57l0.32,1.37
				c0.08,0.48,0.56,0.89,1.04,0.89h0.32v9.62h-4.3c-0.48-3.31-2.07-6.3-4.54-8.48c-2.94-2.83-4.69-6.71-4.69-10.83
				c0.08-3.88,1.51-7.52,4.22-10.27c1.84-1.85,4.14-3.15,6.53-3.79H44c1.19-0.32,2.3-0.49,3.58-0.49c7.88,0,14.33,6.55,14.33,14.55
				C61.91,45.44,60.24,49.39,57.29,52.14z M65.82,43.74l-2.63,0.57c0.16-0.97,0.25-1.94,0.25-2.91c0-0.89-0.08-1.78-0.25-2.59
				l2.63,0.49V43.74z"/>
		</g>
		<g>
			<path class="st0" d="M46.94,36.99c-1.06,0-2.03,0.28-2.84,0.78c-0.4,0.21-0.4,0.71-0.16,0.99c0.15,0.17,0.39,0.27,0.62,0.27
				c0.15,0,0.31-0.04,0.43-0.12c0.57-0.36,1.21-0.57,1.95-0.57c1.79,0,3.24,1.27,3.24,2.83c0,1.62-1.46,2.9-3.24,2.9
				c-1.78,0-3.24-1.27-3.24-2.9c0-0.35-0.41-0.64-0.81-0.64c-0.41,0-0.81,0.28-0.81,0.64c0,2.33,2.19,4.24,4.87,4.24
				c2.67,0,4.78-1.91,4.78-4.24C51.72,38.91,49.61,36.99,46.94,36.99L46.94,36.99z"/>
		</g>
		<g>
			<path class="st0" d="M45.22,67.07c-0.44,0-0.73,0.25-0.73,0.63c0,0.31,0.29,0.57,0.73,0.57h4.56c0.37,0,0.73-0.25,0.73-0.57
				c0-0.38-0.36-0.63-0.73-0.63H45.22z"/>
		</g>
	</g>
	<g>
		<path class="st1" d="M56.42,38.89l-1.36-0.24c-0.16-0.4-0.32-0.89-0.48-1.29l0.72-1.13c0.32-0.41,0.23-1.05-0.08-1.37l-1.51-1.62
			c-0.23-0.18-0.49-0.28-0.77-0.28c-0.22,0-0.45,0.07-0.66,0.21l-1.11,0.81c-0.4-0.25-0.88-0.41-1.27-0.57l-0.24-1.37
			c-0.07-0.49-0.55-0.89-1.11-0.89h-2.15c-0.48,0-0.96,0.41-1.04,0.89l-0.32,1.37c-0.4,0.16-0.79,0.32-1.19,0.57l-1.2-0.81
			c-0.17-0.14-0.38-0.21-0.59-0.21c-0.27,0-0.54,0.1-0.76,0.28l-1.52,1.62c-0.39,0.32-0.48,0.97-0.16,1.37l0.8,1.13
			c-0.24,0.4-0.39,0.89-0.56,1.29l-1.35,0.24c-0.48,0.16-0.87,0.57-0.87,1.13v2.18c0,0.57,0.39,0.97,0.87,1.05l1.35,0.32
			c0.16,0.41,0.32,0.81,0.56,1.22L39.62,46c-0.32,0.41-0.24,1.05,0.16,1.38l1.52,1.53c0.23,0.24,0.52,0.36,0.79,0.36
			c0.2,0,0.39-0.07,0.56-0.2l1.2-0.81c0.39,0.24,0.79,0.41,1.19,0.57l0.32,1.37c0.08,0.48,0.56,0.89,1.04,0.89h0.32v9.62h1.51V51.1
			h0.32c0.56,0,1.04-0.41,1.11-0.89l0.24-1.37c0.39-0.16,0.87-0.33,1.27-0.57l1.11,0.81c0.2,0.14,0.41,0.2,0.62,0.2
			c0.29,0,0.58-0.12,0.81-0.36l1.51-1.53c0.32-0.33,0.4-0.97,0.08-1.38l-0.72-1.21l0.48-1.22l1.36-0.32
			c0.55-0.08,0.87-0.49,0.87-1.05v-2.18C57.29,39.46,56.97,39.05,56.42,38.89z M55.78,41.8l-1.43,0.32
			c-0.32,0.08-0.56,0.25-0.64,0.57c-0.16,0.65-0.4,1.21-0.72,1.78c-0.16,0.24-0.16,0.56,0,0.81l0.88,1.29l-1.04,0.97l-1.19-0.81
			c-0.12-0.08-0.28-0.12-0.44-0.12c-0.16,0-0.32,0.04-0.44,0.12c-0.55,0.32-1.11,0.56-1.75,0.72c-0.24,0.08-0.48,0.32-0.56,0.57
			l-0.24,1.53h-1.43l-0.32-1.53c0-0.25-0.23-0.49-0.55-0.57c-0.64-0.16-1.2-0.4-1.75-0.72c-0.12-0.08-0.26-0.12-0.4-0.12
			c-0.14,0-0.28,0.04-0.39,0.12l-1.27,0.81l-0.96-0.97l0.8-1.29c0.16-0.25,0.16-0.57,0-0.81c-0.32-0.57-0.56-1.13-0.72-1.78
			c0-0.32-0.23-0.49-0.55-0.57l-1.52-0.32v-1.37l1.52-0.33c0.32-0.08,0.55-0.32,0.55-0.57c0.16-0.64,0.4-1.21,0.72-1.77
			c0.16-0.24,0.16-0.57,0-0.81l-0.8-1.29l0.96-1.05l1.27,0.89c0.12,0.08,0.26,0.12,0.39,0.12c0.14,0,0.28-0.04,0.4-0.12
			c0.56-0.33,1.12-0.56,1.75-0.73c0.32-0.09,0.55-0.32,0.55-0.57l0.32-1.53h1.43l0.24,1.53c0.08,0.25,0.32,0.48,0.56,0.57
			c0.63,0.16,1.2,0.4,1.75,0.73c0.12,0.08,0.28,0.12,0.44,0.12c0.16,0,0.31-0.04,0.44-0.12l1.19-0.89l1.04,1.05l-0.88,1.29
			c-0.16,0.24-0.16,0.57,0,0.81c0.32,0.57,0.56,1.13,0.72,1.77c0.08,0.25,0.32,0.49,0.64,0.57l1.43,0.33V41.8z"/>
		<g>
			<path class="st1" d="M46.94,36.99c-1.06,0-2.03,0.28-2.84,0.78c-0.4,0.21-0.4,0.71-0.16,0.99c0.15,0.17,0.39,0.27,0.62,0.27
				c0.15,0,0.31-0.04,0.43-0.12c0.57-0.36,1.21-0.57,1.95-0.57c1.79,0,3.24,1.27,3.24,2.83c0,1.62-1.46,2.9-3.24,2.9
				c-1.78,0-3.24-1.27-3.24-2.9c0-0.35-0.41-0.64-0.81-0.64c-0.41,0-0.81,0.28-0.81,0.64c0,2.33,2.19,4.24,4.87,4.24
				c2.67,0,4.78-1.91,4.78-4.24C51.72,38.91,49.61,36.99,46.94,36.99L46.94,36.99z"/>
		</g>
	</g>
</g>
</svg>
