<?xml version="1.0" encoding="utf-8"?>
<!-- Generator: Adobe Illustrator 26.3.1, SVG Export Plug-In . SVG Version: 6.00 Build 0)  -->
<svg version="1.1" id="Layer_1" xmlns="http://www.w3.org/2000/svg" xmlns:xlink="http://www.w3.org/1999/xlink" x="0px" y="0px"
	 viewBox="0 0 91.64 91.64" style="enable-background:new 0 0 91.64 91.64;" xml:space="preserve">
<style type="text/css">
	.st0{fill-rule:evenodd;clip-rule:evenodd;fill:#FF5A1F;}
	.st1{fill-rule:evenodd;clip-rule:evenodd;fill:#032DA6;}
	.st2{fill:#032DA6;}
	.st3{fill:#FF5A1F;}
	.st4{fill:none;stroke:#032DA6;stroke-width:1.2;stroke-linecap:round;stroke-linejoin:round;stroke-miterlimit:10;}
	.st5{fill:none;stroke:#FF5A1F;stroke-width:1.2;stroke-linecap:round;stroke-linejoin:round;stroke-miterlimit:10;}
	.st6{fill:none;stroke:#032DA6;stroke-width:1.1582;stroke-linecap:round;stroke-linejoin:round;stroke-miterlimit:10;}
	.st7{fill:none;stroke:#FF5A1F;stroke-width:1.1582;stroke-linecap:round;stroke-linejoin:round;stroke-miterlimit:10;}
</style>
<g>
	<g>
		<path class="st3" d="M37.93,71.22c-0.53,0-0.99,0-1.51,0c0-0.13,0-0.26,0-0.39c0-3.1,0-6.2,0.01-9.29c0-0.27-0.09-0.44-0.3-0.61
			c-0.93-0.74-1.83-1.5-2.76-2.24c-0.14-0.11-0.35-0.19-0.53-0.19c-3.15-0.01-6.31-0.01-9.46-0.01c-0.13,0-0.26,0-0.42,0
			c0-0.5,0-0.98,0-1.5c0.13,0,0.25,0,0.37,0c3.34,0,6.68,0,10.02,0.01c0.2,0,0.43,0.09,0.59,0.21c0.73,0.57,1.44,1.17,2.16,1.76
			c0.08,0.07,0.17,0.13,0.3,0.23c0-11.99,0-23.92,0-35.87c0.51,0,0.99,0,1.51,0c0,0.17,0,0.33,0,0.5c0,12.06,0,24.12-0.01,36.18
			c0,0.33,0.1,0.54,0.36,0.75c1.39,1.12,2.76,2.25,4.14,3.38c0.09,0.08,0.18,0.16,0.3,0.26c-0.32,0.39-0.62,0.76-0.95,1.16
			c-1.26-1.03-2.52-2.06-3.83-3.14C37.93,65.39,37.93,68.29,37.93,71.22z"/>
		<path class="st2" d="M37.93,62.41c1.32,1.08,2.57,2.1,3.83,3.14c0.33-0.4,0.63-0.77,0.95-1.16c-0.12-0.1-0.21-0.18-0.3-0.26
			c-1.38-1.13-2.75-2.26-4.14-3.38l-1.86-1.55c-0.13-0.1-0.22-0.16-0.3-0.23c-0.72-0.59-1.43-1.19-2.16-1.76
			c-0.16-0.12-0.39-0.21-0.59-0.21C30.02,57,26.68,57,23.34,57c-0.12,0-0.24,0-0.37,0c0,0.51,0,0.99,0,1.5c0.15,0,0.29,0,0.42,0
			c3.15,0,6.31,0,9.46,0.01c0.18,0,0.39,0.08,0.53,0.19c0.93,0.74,1.83,1.5,2.76,2.24C36.34,61.1,37.93,62.41,37.93,62.41z"/>
		<path class="st3" d="M56.65,23.33c0.49,0,0.96,0,1.46,0c0,15.95,0,31.9,0,47.87c-0.47,0-0.95,0-1.46,0
			C56.65,55.26,56.65,39.31,56.65,23.33z"/>
		<path class="st3" d="M43.94,23.33c0.49,0,0.96,0,1.45,0c0,15.97,0,31.91,0,47.88c-0.48,0-0.95,0-1.45,0
			C43.94,55.25,43.94,39.29,43.94,23.33z"/>
		<path class="st2" d="M26.69,45.78c-4.12,0-7.5-3.38-7.49-7.5c0.01-4.12,3.36-7.48,7.47-7.48c4.14,0,7.5,3.34,7.51,7.48
			C34.18,42.41,30.82,45.78,26.69,45.78z M32.67,38.31c0.01-3.28-2.65-5.98-5.91-6c-3.33-0.02-6.04,2.64-6.06,5.96
			c-0.01,3.28,2.67,5.98,5.95,6.01C29.95,44.3,32.65,41.61,32.67,38.31z"/>
		<path class="st3" d="M61.15,47.28c0.49,0,0.96,0,1.45,0c0,7.98,0,15.94,0,23.93c-0.48,0-0.95,0-1.45,0
			C61.15,63.24,61.15,55.27,61.15,47.28z"/>
		<path class="st3" d="M62.6,43.52c-0.5,0-0.96,0-1.45,0c0-4.74,0-9.46,0-14.2c0.48,0,0.95,0,1.45,0
			C62.6,34.05,62.6,38.77,62.6,43.52z"/>
		<path class="st2" d="M30.42,48.04c0,0.5,0,0.97,0,1.46c-2.49,0-4.96,0-7.45,0c0-0.48,0-0.96,0-1.46
			C25.44,48.04,27.92,48.04,30.42,48.04z"/>
		<path class="st3" d="M65.59,30.04c-0.49,0-0.96,0-1.46,0c0-2.24,0-4.47,0-6.72c0.48,0,0.95,0,1.46,0
			C65.59,25.55,65.59,27.78,65.59,30.04z"/>
		<path class="st3" d="M64.14,60.75c0.49,0,0.96,0,1.46,0c0,2.23,0,4.46,0,6.71c-0.48,0-0.96,0-1.46,0
			C64.14,65.24,64.14,63.01,64.14,60.75z"/>
		<path class="st3" d="M49.11,33.79c0.52,0,0.99,0,1.46,0c0.4,2.05-1.04,4.05-3.63,3.75c0-0.48,0-0.96,0-1.47
			c0.61-0.04,1.26,0.05,1.76-0.47C49.2,35.09,49.12,34.46,49.11,33.79z"/>
		<path class="st3" d="M46.91,25.84c0.38-0.34,0.73-0.66,1.09-0.99c1.63,1.1,2.16,3.47,0.04,5.22c-0.32-0.36-0.64-0.72-0.98-1.11
			c0.36-0.4,0.89-0.8,0.87-1.53C47.92,26.72,47.41,26.33,46.91,25.84z"/>
		<path class="st3" d="M54.84,30.08c0.35,0.38,0.67,0.73,1.01,1.09c-1.27,1.73-3.57,2.02-5.21,0.04c0.36-0.33,0.73-0.66,1.11-1
			c0.39,0.37,0.8,0.88,1.54,0.86C54,31.06,54.38,30.54,54.84,30.08z"/>
		<path class="st3" d="M50.77,50.53c0.44-0.22,0.87-0.43,1.32-0.66c0.31,0.55,0.51,1.19,1.2,1.42c0.68,0.23,1.22-0.12,1.82-0.41
			c0.22,0.45,0.44,0.88,0.66,1.32C53.95,53.45,51.67,52.99,50.77,50.53z"/>
		<path class="st3" d="M53.67,70.09c-0.36,0.33-0.71,0.65-1.1,1c-0.41-0.39-0.83-0.9-1.55-0.89c-0.72,0.01-1.11,0.52-1.58,1.01
			c-0.33-0.39-0.65-0.75-0.98-1.13C49.67,68.36,52.03,68.09,53.67,70.09z"/>
		<path class="st3" d="M54.35,63.73c0.52,0,0.99,0,1.46,0c0.41,1.99-1,4.05-3.62,3.75c0-0.48,0-0.95,0-1.47
			c0.61-0.03,1.25,0.06,1.75-0.46C54.43,65.04,54.37,64.41,54.35,63.73z"/>
		<path class="st3" d="M48.45,59.26c-0.55,0-1.02,0-1.49,0c-0.44-2.27,1.35-4.12,3.64-3.75c0,0.46,0,0.93,0,1.46
			C48.98,56.83,48.22,57.57,48.45,59.26z"/>
		<path class="st3" d="M48.03,52.53c-0.32-0.36-0.63-0.72-0.98-1.11c0.37-0.39,0.89-0.8,0.87-1.53c-0.02-0.71-0.53-1.11-1.01-1.58
			c0.39-0.32,0.76-0.63,1.15-0.96C49.88,48.55,49.93,51,48.03,52.53z"/>
		<path class="st3" d="M54.01,53.97c0.32,0.36,0.64,0.72,0.98,1.11c-0.39,0.41-0.91,0.82-0.89,1.54c0.01,0.71,0.52,1.11,0.98,1.55
			c-0.37,0.34-0.73,0.67-1.11,1.01C52.14,57.76,52.1,55.59,54.01,53.97z"/>
		<path class="st3" d="M49.12,61.88c0.36-0.34,0.72-0.66,1.09-1.01c0.43,0.41,0.83,0.91,1.55,0.9c0.72-0.01,1.12-0.5,1.56-0.98
			c0.34,0.38,0.66,0.75,1,1.13C53.04,63.63,50.74,63.85,49.12,61.88z"/>
		<path class="st3" d="M53.96,24.16c-0.97,1.28-0.89,2.3,0.67,3.12c-0.26,0.41-0.52,0.81-0.78,1.21c-2.04-0.88-2.77-3.19-1.12-5.13
			C53.13,23.62,53.53,23.88,53.96,24.16z"/>
		<path class="st3" d="M55.1,36.05c0,0.47,0,0.94,0,1.46c-1.61-0.14-2.39,0.59-2.16,2.28c-0.52,0-0.99,0-1.47,0
			C51.04,37.6,52.66,35.72,55.1,36.05z"/>
		<path class="st3" d="M52.93,48.02c-0.51,0-0.98,0-1.46,0c-0.42-2.04,1.04-4.05,3.62-3.74c0,0.46,0,0.93,0,1.46
			C53.5,45.6,52.71,46.33,52.93,48.02z"/>
		<path class="st3" d="M47.65,39.81c0.49,0,0.96,0,1.46,0c0.02,0.62-0.04,1.27,0.47,1.77c0.51,0.5,1.15,0.43,1.81,0.42
			c0,0.5,0,0.98,0,1.46C49.24,43.83,47.37,42.36,47.65,39.81z"/>
		<path class="st2" d="M27.43,51.03c0,0.49,0,0.96,0,1.48c-0.75,0-1.48,0-2.22,0c-0.74,0-1.48,0-2.24,0c0-0.5,0-0.98,0-1.48
			C24.44,51.03,25.91,51.03,27.43,51.03z"/>
		<path class="st2" d="M30.42,52.49c-0.49,0-0.97,0-1.47,0c0-0.49,0-0.97,0-1.47c0.49,0,0.97,0,1.47,0
			C30.42,51.52,30.42,52,30.42,52.49z"/>
		<path class="st2" d="M24.43,55.49c-0.5,0-0.97,0-1.47,0c0-0.49,0-0.97,0-1.46c0.49,0,0.97,0,1.47,0
			C24.43,54.51,24.43,54.98,24.43,55.49z"/>
		<path class="st2" d="M27.42,55.49c-0.5,0-0.97,0-1.46,0c0-0.48,0-0.95,0-1.45c0.48,0,0.95,0,1.46,0
			C27.42,54.51,27.42,54.99,27.42,55.49z"/>
		<path class="st2" d="M26.7,33.29c1.09,1.48,2.18,2.95,2.79,4.69c0.45,1.26,0.04,2.61-1,3.42c-0.96,0.76-2.28,0.84-3.32,0.2
			c-1.19-0.72-1.78-2.2-1.32-3.5c0.28-0.78,0.66-1.54,1.09-2.26c0.49-0.83,1.08-1.61,1.63-2.42C26.6,33.38,26.65,33.35,26.7,33.29z
			 M26.76,35.83c-0.53,0.63-1.35,2.18-1.52,2.8c-0.28,1.07,0.73,2.12,1.79,1.85c0.83-0.21,1.38-1.17,1.04-1.99
			C27.7,37.61,27.22,36.76,26.76,35.83z"/>
	</g>
</g>
</svg>
