<?xml version="1.0" encoding="utf-8"?>
<!-- Generator: Adobe Illustrator 26.3.1, SVG Export Plug-In . SVG Version: 6.00 Build 0)  -->
<svg version="1.1" id="Layer_1" xmlns="http://www.w3.org/2000/svg" xmlns:xlink="http://www.w3.org/1999/xlink" x="0px" y="0px"
	 viewBox="0 0 91.64 91.64" style="enable-background:new 0 0 91.64 91.64;" xml:space="preserve">
<style type="text/css">
	.st0{fill-rule:evenodd;clip-rule:evenodd;fill:#FF5A1F;}
	.st1{fill-rule:evenodd;clip-rule:evenodd;fill:#032DA6;}
	.st2{fill:#032DA6;}
	.st3{fill:#FF5A1F;}
	.st4{fill:none;stroke:#032DA6;stroke-width:1.2;stroke-linecap:round;stroke-linejoin:round;stroke-miterlimit:10;}
	.st5{fill:none;stroke:#FF5A1F;stroke-width:1.2;stroke-linecap:round;stroke-linejoin:round;stroke-miterlimit:10;}
	.st6{fill:none;stroke:#032DA6;stroke-width:1.1582;stroke-linecap:round;stroke-linejoin:round;stroke-miterlimit:10;}
	.st7{fill:none;stroke:#FF5A1F;stroke-width:1.1582;stroke-linecap:round;stroke-linejoin:round;stroke-miterlimit:10;}
</style>
<g>
	<g>
		<path class="st2" d="M32.03,64.63c0.74,0,1.43,0,2.15,0c0-1.43,0-2.84,0-4.3c-0.17-0.01-0.33-0.02-0.5-0.02c-1.43,0-2.86,0-4.3,0
			c-1.93,0-3.11-1.2-3.11-3.12c0-5.01,0-10.03,0-15.04c0-1.91,1.19-3.09,3.1-3.09c1.85,0,3.69-0.01,5.54,0
			c0.29,0,0.43-0.08,0.53-0.37c0.31-0.91,1.05-1.42,2.05-1.44c0.81-0.01,1.62,0,2.47,0c0-0.37,0-0.7,0-1.09
			c-0.44,0-0.86,0.02-1.29,0c-1.02-0.06-1.8-0.79-1.9-1.74c-0.11-0.98,0.46-1.85,1.39-2.13c0.19-0.06,0.41-0.07,0.61-0.07
			c1.28-0.01,2.56,0,3.84,0c1.17,0,2.03,0.81,2.06,1.92c0.03,1.11-0.85,1.99-2.01,2.03c-0.4,0.01-0.8,0-1.22,0c0,0.36,0,0.69,0,1.06
			c0.15,0.01,0.29,0.03,0.44,0.03c0.69,0,1.38-0.01,2.07,0c1,0.02,1.74,0.55,2.05,1.49c0.09,0.27,0.23,0.32,0.47,0.32
			c1.29-0.01,2.59-0.01,3.88,0c1.75,0,2.95,1.21,2.96,2.97c0,1.71,0,3.42,0,5.12c0,0.16,0,0.33,0,0.51
			c0.15,0.01,0.25,0.03,0.36,0.04c0.88,0.05,1.43,0.6,1.45,1.48c0.02,0.7,0.02,1.41,0,2.11c-0.03,0.88-0.6,1.44-1.48,1.45
			c-2.13,0.01-4.27,0.02-6.4,0.01c-0.91,0-1.47-0.62-1.47-1.53c0-0.66,0-1.32,0-1.98c0-0.9,0.53-1.48,1.44-1.51
			c0.3-0.01,0.37-0.11,0.36-0.39c-0.01-0.73-0.01-1.46,0-2.19c0-0.25-0.08-0.36-0.33-0.33c-0.07,0.01-0.14,0.01-0.21,0
			c-0.59-0.08-0.98,0.03-1.23,0.7c-0.27,0.72-0.97,1.09-1.76,1.09c-2.22,0.01-4.43,0.01-6.65,0c-0.91,0-1.67-0.57-1.96-1.45
			c-0.09-0.28-0.22-0.36-0.49-0.35c-0.85,0.02-1.71,0.01-2.56,0c-0.24,0-0.34,0.07-0.34,0.33c0.01,3.06,0.01,6.12,0.01,9.17
			c0,0.07,0.02,0.13,0.03,0.23c0.16,0.01,0.31,0.02,0.46,0.02c1.45,0,2.89,0,4.34,0c1.91,0,3.1,1.19,3.1,3.09c0,2.16,0,4.32,0,6.49
			c0,0.16,0,0.32,0,0.51c7.25,0,14.44,0,21.67,0c0-0.22,0-0.41,0-0.6c0-9.42,0-18.84,0-28.26c0-0.86,0.18-1.04,1.04-1.04
			c0.85,0,1.71,0,2.56,0c0.24,0,0.53,0.06,0.62-0.27c0.09-0.32-0.17-0.43-0.38-0.56c-5.6-3.61-11.2-7.23-16.8-10.84
			c-0.34-0.22-0.68-0.42-1-0.65c-0.57-0.4-1.1-0.38-1.68,0c-2.36,1.54-4.74,3.07-7.11,4.6c-0.08,0.05-0.16,0.11-0.24,0.16
			c-0.61,0.36-1.15,0.06-1.16-0.64c-0.01-0.84-0.02-1.68,0-2.52c0.01-0.36-0.08-0.48-0.46-0.47c-0.92,0.03-1.84,0.01-2.8,0.01
			c-0.01,0.2-0.02,0.36-0.02,0.52c0,1.79-0.01,3.58,0,5.37c0,0.42-0.14,0.69-0.49,0.92c-1.83,1.17-3.66,2.36-5.48,3.54
			c-0.06,0.04-0.14,0.06-0.17,0.11c-0.09,0.15-0.25,0.34-0.22,0.47c0.04,0.12,0.28,0.26,0.44,0.26c0.88,0.03,1.76,0.01,2.64,0.01
			c0.97,0,1.11,0.15,1.11,1.13c0,0.44,0.01,0.88,0,1.32c-0.01,0.46-0.28,0.76-0.69,0.77c-0.4,0.01-0.71-0.29-0.73-0.74
			c-0.02-0.33,0-0.66,0-1.01c-0.14-0.02-0.25-0.04-0.35-0.04c-0.7,0-1.41,0.01-2.11-0.01c-0.88-0.03-1.51-0.53-1.73-1.33
			c-0.22-0.77,0.07-1.53,0.79-2c1.06-0.7,2.13-1.38,3.19-2.06c0.69-0.45,1.38-0.91,2.09-1.34c0.23-0.14,0.3-0.31,0.3-0.57
			c-0.01-1.71-0.01-3.42,0-5.12c0-1.08,0.55-1.62,1.63-1.63c0.96,0,1.93-0.01,2.89,0c1.02,0.01,1.59,0.57,1.59,1.59
			c0,0.49,0,0.98,0,1.54c0.18-0.09,0.28-0.14,0.38-0.2c2.01-1.3,4.03-2.6,6.04-3.9c1.02-0.66,2.04-0.65,3.06,0.01
			c5.99,3.87,11.98,7.73,17.98,11.6c0.81,0.52,1.13,1.27,0.89,2.11c-0.23,0.82-0.92,1.3-1.89,1.3c-0.62,0-1.24,0.02-1.86-0.01
			c-0.34-0.01-0.44,0.09-0.44,0.44c0.02,1.97,0.01,3.94,0.01,5.91c0,7.2,0,14.41,0,21.61c0,0.56,0,0.56,0.56,0.56
			c0.96,0,1.93,0,2.89,0c0.54,0,0.88,0.28,0.87,0.72c-0.01,0.44-0.34,0.7-0.89,0.7c-13.1,0-26.2,0-39.29,0
			c-0.55,0-0.87-0.22-0.92-0.63c-0.06-0.44,0.28-0.79,0.79-0.79c1.03-0.01,2.07-0.02,3.1,0c0.34,0.01,0.45-0.1,0.44-0.44
			c-0.03-0.65-0.01-1.29-0.01-1.94c0.01-0.56,0.28-0.88,0.72-0.87c0.44,0,0.7,0.33,0.7,0.88C32.03,63.06,32.03,63.83,32.03,64.63z
			 M35.29,40.48c-0.25,0-0.42,0-0.6,0c-1.73,0-3.47,0-5.2,0c-1.25,0-1.78,0.53-1.78,1.78c0,4.94,0,9.89,0,14.83
			c0,1.26,0.54,1.81,1.81,1.81c1.71,0,3.41,0,5.12,0c0.81,0,1.01,0.2,1.01,1.03c0,1.42,0,2.84,0,4.25c0,0.15,0.01,0.29,0.02,0.48
			c0.84,0,1.63-0.02,2.43,0.01c0.38,0.01,0.45-0.13,0.45-0.48c-0.02-2.16-0.01-4.32-0.01-6.48c0-1.2-0.54-1.73-1.75-1.73
			c-1.73,0-3.47,0-5.2,0c-0.75,0-0.98-0.22-0.98-0.95c0-3.57,0-7.13,0-10.7c0-0.74,0.23-0.96,0.96-0.96c1.13,0,2.26,0,3.39,0
			c0.17,0,0.34,0.02,0.34-0.24C35.29,42.28,35.29,41.41,35.29,40.48z M40.68,45.18c1.03,0,2.06,0,3.1,0c0.64,0,0.9-0.26,0.91-0.91
			c0-1.57,0-3.14,0-4.71c0-0.61-0.28-0.9-0.88-0.9c-2.06-0.01-4.13-0.01-6.19,0c-0.61,0-0.88,0.28-0.88,0.89c0,1.58,0,3.17,0,4.75
			c0,0.61,0.27,0.87,0.89,0.87C38.64,45.18,39.66,45.18,40.68,45.18z M51.87,47.67c0-2.01,0.02-3.96-0.01-5.91
			c-0.01-0.73-0.69-1.28-1.47-1.28c-1.31-0.01-2.61,0-3.92-0.01c-0.28,0-0.4,0.07-0.38,0.37c0.02,0.37,0,0.74,0,1.11
			c0,0.46,0,0.92,0,1.42c0.65,0,1.22,0,1.8,0c0.92,0,1.09,0.17,1.09,1.07c0,0.87,0,1.73,0,2.6c0,0.2,0,0.4,0,0.62
			C49.97,47.67,50.9,47.67,51.87,47.67z M47.22,49.13c0,0.75,0,1.44,0,2.12c0.06,0.03,0.08,0.05,0.11,0.05c2.04,0,4.08,0,6.11,0.01
			c0.24,0,0.27-0.13,0.26-0.32c0-0.5-0.02-0.99,0.01-1.49c0.02-0.33-0.12-0.39-0.41-0.38c-1.32,0.01-2.64,0.01-3.97,0.01
			C48.64,49.13,47.95,49.13,47.22,49.13z M40.67,34.72C40.67,34.72,40.67,34.72,40.67,34.72c0.62,0,1.24,0,1.85,0
			c0.45-0.01,0.69-0.2,0.69-0.53c0.01-0.35-0.24-0.56-0.7-0.56c-1.21,0-2.42,0-3.62,0c-0.45,0-0.72,0.21-0.72,0.55
			c0,0.33,0.27,0.54,0.73,0.54C39.49,34.73,40.08,34.72,40.67,34.72z"/>
		<path class="st2" d="M54.05,59.56c-0.02,2.13-1.76,3.77-3.86,3.63c-2.09-0.14-3.62-2.06-3.31-4.17c0.23-1.55,1-2.84,1.92-4.06
			c0.32-0.41,0.66-0.81,1.03-1.18c0.38-0.38,0.8-0.42,1.14-0.08c1.41,1.42,2.54,3,2.98,5C54,58.98,54.02,59.27,54.05,59.56z
			 M50.43,55.21c-0.91,1.1-1.7,2.2-2.04,3.55c-0.07,0.29-0.11,0.6-0.11,0.9c0.02,1.13,0.89,2.02,2.02,2.11
			c1.04,0.08,2.03-0.67,2.24-1.73c0.06-0.33,0.06-0.69,0-1.02C52.25,57.54,51.41,56.36,50.43,55.21z"/>
	</g>
	<g>
		<path class="st3" d="M30.61,64.63c0,0-0.01-1.7-0.01-2.35c0.01-0.56,0.28-0.88,0.72-0.87c0.44,0,0.7,0.33,0.7,0.88
			c0,0.77,0,1.54,0,2.34L30.61,64.63z M38.55,64.63c-0.02-2.16-0.01-4.76-0.01-6.92c0-1.2-0.54-1.73-1.75-1.73c-1.73,0-3.47,0-5.2,0
			c-0.75,0-0.98-0.22-0.98-0.95c0-3.57,0-7.13,0-10.7c0-0.74,0.23-0.96,0.96-0.96c1.13,0,2.26,0,3.39,0c0.17,0,0.34,0.02,0.34-0.24
			c0-0.87,0-1.73,0-2.66c-0.25,0-0.42,0-0.6,0c-1.73,0-3.47,0-5.2,0c-1.25,0-1.78,0.53-1.78,1.78c0,4.94,0,9.89,0,14.83
			c0,1.26,0.54,1.81,1.81,1.81c1.71,0,3.41,0,5.12,0c0.81,0,1.01,0.2,1.01,1.03c0,1.42,0,3.28,0,4.7h-1.47c0-1.43,0-2.84,0-4.3
			c-0.17-0.01-0.33-0.02-0.5-0.02c-1.43,0-2.86,0-4.3,0c-1.93,0-3.11-1.2-3.11-3.12c0-5.01,0-10.03,0-15.04
			c0-1.91,1.19-3.09,3.1-3.09c1.85,0,3.69-0.01,5.54,0c0.29,0,0.43-0.08,0.53-0.37c0.31-0.91,1.05-1.42,2.05-1.44
			c0.81-0.01,1.62,0,2.47,0c0-0.37,0-0.7,0-1.09c-0.44,0-0.86,0.02-1.29,0c-1.02-0.06-1.8-0.79-1.9-1.74
			c-0.11-0.98,0.46-1.85,1.39-2.13c0.19-0.06,0.41-0.07,0.61-0.07c1.28-0.01,2.56,0,3.84,0c1.17,0,2.03,0.81,2.06,1.92
			c0.03,1.11-0.85,1.99-2.01,2.03c-0.4,0.01-0.8,0-1.22,0c0,0.36,0,0.69,0,1.06c0.15,0.01,0.29,0.03,0.44,0.03
			c0.69,0,1.38-0.01,2.07,0c1,0.02,1.74,0.55,2.05,1.49c0.09,0.27,0.23,0.32,0.47,0.32c1.29-0.01,2.59-0.01,3.88,0
			c1.75,0,2.95,1.21,2.96,2.97c0,1.71,0,3.42,0,5.12c0,0.16,0,0.33,0,0.51c0.15,0.01,0.25,0.03,0.36,0.04
			c0.88,0.05,1.43,0.6,1.45,1.48c0.02,0.7,0.02,1.41,0,2.11c-0.03,0.88-0.6,1.44-1.48,1.45c-2.13,0.01-4.27,0.02-6.4,0.01
			c-0.91,0-1.47-0.62-1.47-1.53c0-0.66,0-1.32,0-1.98c0-0.9,0.53-1.48,1.44-1.51c0.3-0.01,0.37-0.11,0.36-0.39
			c-0.01-0.73-0.01-1.46,0-2.19c0-0.25-0.08-0.36-0.33-0.33c-0.07,0.01-0.14,0.01-0.21,0c-0.59-0.08-0.98,0.03-1.23,0.7
			c-0.27,0.72-0.97,1.09-1.76,1.09c-2.22,0.01-4.43,0.01-6.65,0c-0.91,0-1.67-0.57-1.96-1.45c-0.09-0.28-0.22-0.36-0.49-0.35
			c-0.85,0.02-1.71,0.01-2.56,0c-0.24,0-0.34,0.07-0.34,0.33c0.01,3.06,0.01,6.12,0.01,9.17c0,0.07,0.02,0.13,0.03,0.23
			c0.16,0.01,0.31,0.02,0.46,0.02c1.45,0,2.89,0,4.34,0c1.91,0,3.1,1.19,3.1,3.09c0,2.16,0,4.83,0,7H38.55z M40.68,45.18
			c1.03,0,2.06,0,3.1,0c0.64,0,0.9-0.26,0.91-0.91c0-1.57,0-3.14,0-4.71c0-0.61-0.28-0.9-0.88-0.9c-2.06-0.01-4.13-0.01-6.19,0
			c-0.61,0-0.88,0.28-0.88,0.89c0,1.58,0,3.17,0,4.75c0,0.61,0.27,0.87,0.89,0.87C38.64,45.18,39.66,45.18,40.68,45.18z
			 M51.87,47.67c0-2.01,0.02-3.96-0.01-5.91c-0.01-0.73-0.69-1.28-1.47-1.28c-1.31-0.01-2.61,0-3.92-0.01
			c-0.28,0-0.4,0.07-0.38,0.37c0.02,0.37,0,0.74,0,1.11c0,0.46,0,0.92,0,1.42c0.65,0,1.22,0,1.8,0c0.92,0,1.09,0.17,1.09,1.07
			c0,0.87,0,1.73,0,2.6c0,0.2,0,0.4,0,0.62C49.97,47.67,50.9,47.67,51.87,47.67z M47.22,49.13c0,0.75,0,1.44,0,2.12
			c0.06,0.03,0.08,0.05,0.11,0.05c2.04,0,4.08,0,6.11,0.01c0.24,0,0.27-0.13,0.26-0.32c0-0.5-0.02-0.99,0.01-1.49
			c0.02-0.33-0.12-0.39-0.41-0.38c-1.32,0.01-2.64,0.01-3.97,0.01C48.64,49.13,47.95,49.13,47.22,49.13z M40.67,34.72
			C40.67,34.72,40.67,34.72,40.67,34.72c0.62,0,1.24,0,1.85,0c0.45-0.01,0.69-0.2,0.69-0.53c0.01-0.35-0.24-0.56-0.7-0.56
			c-1.21,0-2.42,0-3.62,0c-0.45,0-0.72,0.21-0.72,0.55c0,0.33,0.27,0.54,0.73,0.54C39.49,34.73,40.08,34.72,40.67,34.72z"/>
		<path class="st3" d="M54.05,59.56c-0.02,2.13-1.76,3.77-3.86,3.63c-2.09-0.14-3.62-2.06-3.31-4.17c0.23-1.55,1-2.84,1.92-4.06
			c0.32-0.41,0.66-0.81,1.03-1.18c0.38-0.38,0.8-0.42,1.14-0.08c1.41,1.42,2.54,3,2.98,5C54,58.98,54.02,59.27,54.05,59.56z
			 M50.43,55.21c-0.91,1.1-1.7,2.2-2.04,3.55c-0.07,0.29-0.11,0.6-0.11,0.9c0.02,1.13,0.89,2.02,2.02,2.11
			c1.04,0.08,2.03-0.67,2.24-1.73c0.06-0.33,0.06-0.69,0-1.02C52.25,57.54,51.41,56.36,50.43,55.21z"/>
	</g>
</g>
</svg>
