<?xml version="1.0" encoding="utf-8"?>
<!-- Generator: Adobe Illustrator 26.3.1, SVG Export Plug-In . SVG Version: 6.00 Build 0)  -->
<svg version="1.1" id="Layer_1" xmlns="http://www.w3.org/2000/svg" xmlns:xlink="http://www.w3.org/1999/xlink" x="0px" y="0px"
	 viewBox="0 0 91.64 91.64" style="enable-background:new 0 0 91.64 91.64;" xml:space="preserve">
<style type="text/css">
	.st0{fill-rule:evenodd;clip-rule:evenodd;fill:#FF5A1F;}
	.st1{fill-rule:evenodd;clip-rule:evenodd;fill:#032DA6;}
	.st2{fill:#032DA6;}
	.st3{fill:#FF5A1F;}
	.st4{fill:none;stroke:#032DA6;stroke-width:1.2;stroke-linecap:round;stroke-linejoin:round;stroke-miterlimit:10;}
	.st5{fill:none;stroke:#FF5A1F;stroke-width:1.2;stroke-linecap:round;stroke-linejoin:round;stroke-miterlimit:10;}
	.st6{fill:none;stroke:#032DA6;stroke-width:1.1582;stroke-linecap:round;stroke-linejoin:round;stroke-miterlimit:10;}
	.st7{fill:none;stroke:#FF5A1F;stroke-width:1.1582;stroke-linecap:round;stroke-linejoin:round;stroke-miterlimit:10;}
</style>
<g>
	<path class="st2" d="M25.64,47.87c0-6.57,0-13.14,0-19.71c0-0.47,0-0.47,0.46-0.47c13.17,0,26.35,0,39.52-0.01
		c0.32,0,0.39,0.09,0.39,0.4C66,41.27,66,54.46,66.01,67.64c0,0.32-0.07,0.42-0.41,0.42c-13.19-0.01-26.37-0.01-39.56,0
		c-0.33,0-0.41-0.09-0.41-0.42C25.64,61.05,25.64,54.46,25.64,47.87z M27.41,66.31c0.14,0,0.24,0,0.33,0c12.04,0,24.09,0,36.13,0.01
		c0.29,0,0.39-0.07,0.39-0.37c-0.01-11.25-0.01-22.49-0.01-33.74c0-0.08-0.02-0.16-0.04-0.3c-0.07,0.09-0.1,0.12-0.13,0.16
		c-2,3.42-4,6.83-5.99,10.26c-0.08,0.15-0.13,0.33-0.13,0.5c-0.01,3.37-0.01,6.74,0,10.1c0,0.16,0.04,0.33,0.12,0.47
		c1.36,2.34,2.73,4.68,4.1,7.02c0.45,0.78,0.91,1.55,1.38,2.36c-0.52,0.3-1,0.59-1.5,0.88c-0.07-0.12-0.13-0.19-0.17-0.28
		c-1.71-2.91-3.42-5.83-5.11-8.75c-0.15-0.25-0.31-0.33-0.59-0.33c-6.91,0.01-13.83,0.01-20.74,0c-0.29,0-0.44,0.1-0.58,0.34
		c-1.41,2.44-2.84,4.87-4.26,7.3c-0.33,0.56-0.66,1.12-1,1.7c-0.51-0.3-1-0.59-1.49-0.88c0.07-0.12,0.11-0.2,0.16-0.28
		c1.75-3,3.51-5.99,5.26-8.99c0.1-0.17,0.17-0.4,0.17-0.6c0.01-3.36,0.01-6.71,0-10.07c0-0.16-0.04-0.33-0.12-0.47
		c-1.99-3.42-4-6.84-6-10.26c-0.03-0.05-0.08-0.1-0.15-0.19C27.41,43.4,27.41,54.83,27.41,66.31z M35.45,52.52
		c6.93,0,13.83,0,20.73,0c0-3.12,0-6.21,0-9.29c-6.92,0-13.82,0-20.73,0C35.45,46.33,35.45,49.41,35.45,52.52z M46.71,32.24
		c0.07,0.01,0.12,0.03,0.18,0.03c2.12,0,4.23,0,6.35,0.01c0.2,0,0.26-0.08,0.31-0.26c0.14-0.5,0.29-1,0.44-1.51
		c0.1-0.34,0.2-0.68,0.3-1.04c-2.56,0-5.06,0-7.58,0C46.71,30.41,46.71,31.32,46.71,32.24z M37.36,29.45
		c0.03,0.14,0.05,0.25,0.08,0.35c0.21,0.72,0.43,1.43,0.62,2.16c0.07,0.26,0.19,0.33,0.44,0.33c2.01-0.01,4.02-0.01,6.03-0.01
		c0.13,0,0.25-0.01,0.42-0.02c0-0.82-0.01-1.62,0.01-2.41c0.01-0.31-0.08-0.4-0.4-0.4c-2.27,0.01-4.54,0.01-6.81,0.01
		C37.64,29.45,37.52,29.45,37.36,29.45z M36.34,32.25c-0.27-0.91-0.52-1.78-0.79-2.64c-0.03-0.09-0.24-0.16-0.36-0.16
		c-2.26-0.01-4.52-0.01-6.78-0.01c-0.1,0-0.19,0.02-0.34,0.03c0.49,0.84,0.97,1.62,1.41,2.42c0.15,0.27,0.32,0.38,0.64,0.38
		c1.94-0.02,3.88-0.01,5.81-0.01C36.04,32.27,36.15,32.26,36.34,32.25z M63.57,29.49c-0.1-0.02-0.14-0.04-0.18-0.04
		c-2.34,0-4.68-0.01-7.03,0.01c-0.1,0-0.26,0.14-0.3,0.25c-0.2,0.62-0.38,1.25-0.56,1.88c-0.06,0.21-0.12,0.42-0.18,0.64
		c0.07,0.02,0.11,0.04,0.14,0.04c2.09,0,4.18,0.01,6.28-0.01c0.12,0,0.27-0.13,0.34-0.24c0.34-0.54,0.65-1.1,0.98-1.66
		C63.22,30.08,63.39,29.8,63.57,29.49z M38.72,34.02c0,0.08-0.01,0.12,0,0.15c0.24,0.83,0.47,1.67,0.74,2.49
		c0.03,0.1,0.22,0.2,0.34,0.2c1.61,0.01,3.21,0.01,4.82,0.02c0.27,0,0.34-0.1,0.34-0.35c-0.01-0.73-0.02-1.45,0-2.18
		c0.01-0.28-0.1-0.33-0.35-0.33c-1.84,0.01-3.69,0.01-5.53,0.01C38.96,34.02,38.85,34.02,38.72,34.02z M46.69,34.04
		c0,0.83,0.02,1.63-0.01,2.42c-0.01,0.34,0.11,0.42,0.42,0.42c1.4-0.01,2.8-0.01,4.21-0.01c0.82,0,0.82,0,1.05-0.79
		c0.2-0.67,0.39-1.34,0.59-2.04C50.85,34.04,48.8,34.04,46.69,34.04z M30.72,34.02c0.53,0.9,1.02,1.73,1.49,2.56
		c0.12,0.22,0.27,0.29,0.51,0.29c1.52-0.01,3.05,0,4.57,0c0.11,0,0.23,0,0.39,0c-0.26-0.89-0.5-1.7-0.72-2.52
		c-0.07-0.25-0.18-0.33-0.44-0.33c-1.64,0.01-3.28,0.01-4.93,0.01C31.33,34.02,31.07,34.02,30.72,34.02z M53.97,36.82
		c0.09,0.02,0.12,0.04,0.16,0.04c1.64,0,3.28,0.01,4.92-0.01c0.12,0,0.27-0.13,0.34-0.24c0.45-0.73,0.87-1.47,1.3-2.21
		c0.06-0.11,0.12-0.22,0.18-0.33c-0.06-0.03-0.08-0.05-0.1-0.05c-1.93,0-3.85-0.01-5.78,0c-0.09,0-0.23,0.1-0.25,0.18
		C54.48,35.06,54.23,35.93,53.97,36.82z M40.02,38.6c0.27,0.94,0.52,1.8,0.79,2.66c0.03,0.08,0.19,0.17,0.29,0.17
		c1.19,0.01,2.38,0,3.56,0.01c0.23,0,0.31-0.08,0.3-0.31c-0.01-0.72-0.01-1.45,0-2.17c0.01-0.28-0.08-0.37-0.36-0.36
		c-1.16,0.01-2.33,0.01-3.49,0.01C40.77,38.6,40.43,38.6,40.02,38.6z M51.6,38.6c-1.6,0-3.12,0-4.64,0c-0.24,0-0.27,0.12-0.26,0.32
		c0.01,0.73,0.02,1.45,0,2.18c-0.01,0.3,0.1,0.36,0.37,0.35c1.13-0.01,2.26-0.01,3.39,0c0.25,0,0.38-0.06,0.45-0.32
		c0.2-0.73,0.42-1.46,0.63-2.19C51.56,38.84,51.57,38.74,51.6,38.6z M39.02,41.44c-0.25-0.88-0.5-1.67-0.71-2.47
		c-0.07-0.28-0.19-0.38-0.49-0.37c-1.34,0.02-2.69,0.01-4.03,0.01c-0.1,0-0.2,0.01-0.33,0.02c0.02,0.07,0.03,0.12,0.05,0.16
		c0.48,0.83,0.96,1.67,1.46,2.49c0.06,0.1,0.25,0.16,0.38,0.16c0.87,0.01,1.74,0.01,2.6,0.01C38.29,41.44,38.62,41.44,39.02,41.44z
		 M52.63,41.4c0.11,0.02,0.17,0.04,0.23,0.04c1.16,0,2.33,0.01,3.49-0.01c0.12,0,0.29-0.11,0.35-0.22c0.47-0.77,0.92-1.55,1.37-2.33
		c0.04-0.07,0.06-0.16,0.11-0.28c-1.55,0-3.04,0-4.54,0.01c-0.08,0-0.22,0.08-0.24,0.16C53.14,39.63,52.89,40.49,52.63,41.4z"/>
	<path class="st3" d="M25.64,28.16c0-0.47,0-0.47,0.46-0.47c13.17,0,26.35,0,39.52-0.01c0.32,0,0.39,0.09,0.39,0.4l-1.92,3.98
		c-2,3.42-4,6.83-5.99,10.26c-0.08,0.15-0.13,0.33-0.13,0.5v0.4H33.68l0-0.41c0-0.16-0.04-0.33-0.12-0.47c-1.99-3.42-4-6.84-6-10.26
		L25.64,28.16z M46.71,32.24c0.07,0.01,0.12,0.03,0.18,0.03c2.12,0,4.23,0,6.35,0.01c0.2,0,0.26-0.08,0.31-0.26
		c0.14-0.5,0.29-1,0.44-1.51c0.1-0.34,0.2-0.68,0.3-1.04c-2.56,0-5.06,0-7.58,0C46.71,30.41,46.71,31.32,46.71,32.24z M37.36,29.45
		c0.03,0.14,0.05,0.25,0.08,0.35c0.21,0.72,0.43,1.43,0.62,2.16c0.07,0.26,0.19,0.33,0.44,0.33c2.01-0.01,4.02-0.01,6.03-0.01
		c0.13,0,0.25-0.01,0.42-0.02c0-0.82-0.01-1.62,0.01-2.41c0.01-0.31-0.08-0.4-0.4-0.4c-2.27,0.01-4.54,0.01-6.81,0.01
		C37.64,29.45,37.52,29.45,37.36,29.45z M36.34,32.25c-0.27-0.91-0.52-1.78-0.79-2.64c-0.03-0.09-0.24-0.16-0.36-0.16
		c-2.26-0.01-4.52-0.01-6.78-0.01c-0.1,0-0.19,0.02-0.34,0.03c0.49,0.84,0.97,1.62,1.41,2.42c0.15,0.27,0.32,0.38,0.64,0.38
		c1.94-0.02,3.88-0.01,5.81-0.01C36.04,32.27,36.15,32.26,36.34,32.25z M63.57,29.49c-0.1-0.02-0.14-0.04-0.18-0.04
		c-2.34,0-4.68-0.01-7.03,0.01c-0.1,0-0.26,0.14-0.3,0.25c-0.2,0.62-0.38,1.25-0.56,1.88c-0.06,0.21-0.12,0.42-0.18,0.64
		c0.07,0.02,0.11,0.04,0.14,0.04c2.09,0,4.18,0.01,6.28-0.01c0.12,0,0.27-0.13,0.34-0.24c0.34-0.54,0.65-1.1,0.98-1.66
		C63.22,30.08,63.39,29.8,63.57,29.49z M38.72,34.02c0,0.08-0.01,0.12,0,0.15c0.24,0.83,0.47,1.67,0.74,2.49
		c0.03,0.1,0.22,0.2,0.34,0.2c1.61,0.01,3.21,0.01,4.82,0.02c0.27,0,0.34-0.1,0.34-0.35c-0.01-0.73-0.02-1.45,0-2.18
		c0.01-0.28-0.1-0.33-0.35-0.33c-1.84,0.01-3.69,0.01-5.53,0.01C38.96,34.02,38.85,34.02,38.72,34.02z M46.69,34.04
		c0,0.83,0.02,1.63-0.01,2.42c-0.01,0.34,0.11,0.42,0.42,0.42c1.4-0.01,2.8-0.01,4.21-0.01c0.82,0,0.82,0,1.05-0.79
		c0.2-0.67,0.39-1.34,0.59-2.04C50.85,34.04,48.8,34.04,46.69,34.04z M30.72,34.02c0.53,0.9,1.02,1.73,1.49,2.56
		c0.12,0.22,0.27,0.29,0.51,0.29c1.52-0.01,3.05,0,4.57,0c0.11,0,0.23,0,0.39,0c-0.26-0.89-0.5-1.7-0.72-2.52
		c-0.07-0.25-0.18-0.33-0.44-0.33c-1.64,0.01-3.28,0.01-4.93,0.01C31.33,34.02,31.07,34.02,30.72,34.02z M53.97,36.82
		c0.09,0.02,0.12,0.04,0.16,0.04c1.64,0,3.28,0.01,4.92-0.01c0.12,0,0.27-0.13,0.34-0.24c0.45-0.73,0.87-1.47,1.3-2.21
		c0.06-0.11,0.12-0.22,0.18-0.33c-0.06-0.03-0.08-0.05-0.1-0.05c-1.93,0-3.85-0.01-5.78,0c-0.09,0-0.23,0.1-0.25,0.18
		C54.48,35.06,54.23,35.93,53.97,36.82z M40.02,38.6c0.27,0.94,0.52,1.8,0.79,2.66c0.03,0.08,0.19,0.17,0.29,0.17
		c1.19,0.01,2.38,0,3.56,0.01c0.23,0,0.31-0.08,0.3-0.31c-0.01-0.72-0.01-1.45,0-2.17c0.01-0.28-0.08-0.37-0.36-0.36
		c-1.16,0.01-2.33,0.01-3.49,0.01C40.77,38.6,40.43,38.6,40.02,38.6z M51.6,38.6c-1.6,0-3.12,0-4.64,0c-0.24,0-0.27,0.12-0.26,0.32
		c0.01,0.73,0.02,1.45,0,2.18c-0.01,0.3,0.1,0.36,0.37,0.35c1.13-0.01,2.26-0.01,3.39,0c0.25,0,0.38-0.06,0.45-0.32
		c0.2-0.73,0.42-1.46,0.63-2.19C51.56,38.84,51.57,38.74,51.6,38.6z M39.02,41.44c-0.25-0.88-0.5-1.67-0.71-2.47
		c-0.07-0.28-0.19-0.38-0.49-0.37c-1.34,0.02-2.69,0.01-4.03,0.01c-0.1,0-0.2,0.01-0.33,0.02c0.02,0.07,0.03,0.12,0.05,0.16
		c0.48,0.83,0.96,1.67,1.46,2.49c0.06,0.1,0.25,0.16,0.38,0.16c0.87,0.01,1.74,0.01,2.6,0.01C38.29,41.44,38.62,41.44,39.02,41.44z
		 M52.63,41.4c0.11,0.02,0.17,0.04,0.23,0.04c1.16,0,2.33,0.01,3.49-0.01c0.12,0,0.29-0.11,0.35-0.22c0.47-0.77,0.92-1.55,1.37-2.33
		c0.04-0.07,0.06-0.16,0.11-0.28c-1.55,0-3.04,0-4.54,0.01c-0.08,0-0.22,0.08-0.24,0.16C53.14,39.63,52.89,40.49,52.63,41.4z"/>
</g>
</svg>
