<?xml version="1.0" encoding="utf-8"?>
<!-- Generator: Adobe Illustrator 26.3.1, SVG Export Plug-In . SVG Version: 6.00 Build 0)  -->
<svg version="1.1" id="Layer_1" xmlns="http://www.w3.org/2000/svg" xmlns:xlink="http://www.w3.org/1999/xlink" x="0px" y="0px"
	 viewBox="0 0 91.64 91.64" style="enable-background:new 0 0 91.64 91.64;" xml:space="preserve">
<style type="text/css">
	.st0{fill-rule:evenodd;clip-rule:evenodd;fill:#FF5A1F;}
	.st1{fill-rule:evenodd;clip-rule:evenodd;fill:#032DA6;}
	.st2{fill:#032DA6;}
	.st3{fill:#FF5A1F;}
	.st4{fill:none;stroke:#032DA6;stroke-width:1.2;stroke-linecap:round;stroke-linejoin:round;stroke-miterlimit:10;}
	.st5{fill:none;stroke:#FF5A1F;stroke-width:1.2;stroke-linecap:round;stroke-linejoin:round;stroke-miterlimit:10;}
	.st6{fill:none;stroke:#032DA6;stroke-width:1.1582;stroke-linecap:round;stroke-linejoin:round;stroke-miterlimit:10;}
	.st7{fill:none;stroke:#FF5A1F;stroke-width:1.1582;stroke-linecap:round;stroke-linejoin:round;stroke-miterlimit:10;}
</style>
<g>
	<path class="st3" d="M33.13,24.94c1,0,1.9,0,2.8,0c0.73,0,1.47-0.02,2.2,0.01c0.69,0.02,0.85,0.19,0.92,0.87
		c0.02,0.17,0.01,0.35,0.01,0.52c0,13.51,0,27.02,0,40.52c0,1.53-0.08,1.61-1.59,1.61c-2.48,0-4.96,0.01-7.43,0
		c-1.29,0-1.51-0.24-1.53-1.53c0-0.41,0-0.83,0-1.3c-0.31-0.03-0.54-0.07-0.77-0.07c-1.26-0.01-2.51,0-3.77,0
		c-1.08-0.01-1.31-0.22-1.31-1.27c0-11.45,0-22.9,0-34.34c0-2.23-0.01-4.47,0-6.7c0-1.07,0.15-1.21,1.21-1.21
		c2.65,0,5.31-0.01,7.96,0c1.17,0,1.3,0.14,1.3,1.34C33.13,23.86,33.13,24.34,33.13,24.94z M30.29,26.59c0,13.41,0,26.79,0,40.19
		c2.4,0,4.72,0,7.18,0c0-0.54,0-1.02,0-1.5c0-9.77,0-19.54,0-29.31c0-2.72,0-5.44-0.01-8.16c0-0.4-0.06-0.8-0.1-1.21
		C34.95,26.59,32.66,26.59,30.29,26.59z M24.39,23.67c0,13.41,0,26.78,0,40.18c1.43,0,2.73,0,4.12,0c0-0.53,0-0.98,0-1.43
		c0-11.06-0.01-22.12-0.01-33.18c0-1.05-0.01-2.09,0.01-3.14c0.03-0.95,0.26-1.16,1.19-1.18c0.54-0.01,1.09,0,1.71,0
		c-0.03-0.52-0.05-0.88-0.07-1.25C29,23.67,26.77,23.67,24.39,23.67z"/>
	<path class="st2" d="M66.86,59.28c1.1,0.72,1.18,1.07,0.41,1.84c-1.74,1.76-3.5,3.51-5.25,5.26c-0.27,0.28-0.55,0.6-0.98,0.47
		c-0.27-0.08-0.56-0.25-0.74-0.46c-0.25-0.29-0.07-0.57,0.18-0.82c0.6-0.58,1.19-1.18,1.78-1.78c0.14-0.14,0.25-0.32,0.32-0.41
		c-1.77-1.76-3.5-3.48-5.33-5.29c-0.18,0.16-0.52,0.44-0.83,0.74c-2.79,2.79-5.58,5.58-8.37,8.37c-0.85,0.85-1.15,0.8-1.84-0.37
		c1.84-2.1,3.92-4,5.9-6.01c1.96-1.99,3.95-3.95,5.92-5.93c1.99-1.99,3.99-3.99,5.91-5.91c-1.79-1.82-3.52-3.58-5.3-5.39
		c-1.37,1.37-2.78,2.77-4.18,4.17c-1.38,1.38-2.76,2.77-4.14,4.15c-1.41,1.41-2.8,2.83-4.23,4.22c-1.4,1.35-2.65,2.86-4.19,4.02
		c-1.16-0.58-1.22-0.93-0.37-1.78c2.42-2.42,4.84-4.84,7.25-7.26c0.26-0.27,0.5-0.56,0.68-0.76c-1.81-1.8-3.56-3.54-5.37-5.33
		c-0.45,0.45-1.02,1-1.59,1.56c-0.89,0.88-1.18,0.97-1.62,0.51c-0.43-0.44-0.3-0.92,0.45-1.67c2.89-2.89,5.78-5.78,8.66-8.67
		c0.32-0.32,0.62-0.65,0.91-0.94c-1.67-1.69-3.29-3.31-4.97-5c-0.2,0.17-0.43,0.36-0.65,0.57c-1.14,1.13-2.27,2.27-3.41,3.4
		c-0.15,0.15-0.29,0.31-0.45,0.44c-0.39,0.3-0.86,0.31-1.13,0c-0.32-0.36-0.32-0.76-0.06-1.15c0.11-0.17,0.29-0.3,0.43-0.45
		c3.01-3.01,6.03-6.02,9.04-9.03c0.17-0.17,0.36-0.33,0.54-0.49c0.35-0.3,0.69-0.28,1.02,0.03c0.33,0.31,0.37,0.67,0.15,1.04
		c-0.14,0.23-0.35,0.44-0.54,0.63c-0.96,0.97-1.93,1.93-2.89,2.89c-0.24,0.24-0.47,0.5-0.78,0.82c1.55,1.78,3.25,3.31,4.93,5.04
		c0.29-0.27,0.57-0.5,0.83-0.76c2.97-2.96,5.93-5.92,8.89-8.89c0.15-0.15,0.29-0.3,0.45-0.44c0.47-0.43,0.8-0.45,1.16-0.09
		c0.31,0.32,0.33,0.82,0,1.23c-0.2,0.24-0.43,0.45-0.66,0.68c-5.38,5.38-10.76,10.76-16.15,16.15c-0.37,0.37-0.72,0.74-1.01,1.03
		c1.81,1.8,3.55,3.54,5.41,5.38c5.07-5.06,10.27-10.26,15.44-15.42c1.18,0.63,1.26,1.02,0.43,1.86c-2.06,2.09-4.14,4.15-6.21,6.23
		c-0.24,0.24-0.47,0.49-0.66,0.69c1.8,1.79,3.54,3.53,5.34,5.31c0.26-0.25,0.6-0.6,0.96-0.93c0.46-0.42,0.83-0.44,1.18-0.08
		c0.31,0.31,0.31,0.83-0.01,1.23c-0.13,0.16-0.3,0.3-0.44,0.44c-2.49,2.49-4.99,4.99-7.48,7.48c-0.32,0.32-0.62,0.65-0.88,0.91
		c1.82,1.79,3.57,3.51,5.41,5.32C64.94,61.12,65.88,60.22,66.86,59.28z"/>
</g>
</svg>
