<?xml version="1.0" encoding="utf-8"?>
<!-- Generator: Adobe Illustrator 26.3.1, SVG Export Plug-In . SVG Version: 6.00 Build 0)  -->
<svg version="1.1" id="Layer_1" xmlns="http://www.w3.org/2000/svg" xmlns:xlink="http://www.w3.org/1999/xlink" x="0px" y="0px"
	 viewBox="0 0 91.64 91.64" style="enable-background:new 0 0 91.64 91.64;" xml:space="preserve">
<style type="text/css">
	.st0{fill-rule:evenodd;clip-rule:evenodd;fill:#FF5A1F;}
	.st1{fill-rule:evenodd;clip-rule:evenodd;fill:#032DA6;}
	.st2{fill:#032DA6;}
	.st3{fill:#FF5A1F;}
	.st4{fill:none;stroke:#032DA6;stroke-width:1.2;stroke-linecap:round;stroke-linejoin:round;stroke-miterlimit:10;}
	.st5{fill:none;stroke:#FF5A1F;stroke-width:1.2;stroke-linecap:round;stroke-linejoin:round;stroke-miterlimit:10;}
	.st6{fill:none;stroke:#032DA6;stroke-width:1.1582;stroke-linecap:round;stroke-linejoin:round;stroke-miterlimit:10;}
	.st7{fill:none;stroke:#FF5A1F;stroke-width:1.1582;stroke-linecap:round;stroke-linejoin:round;stroke-miterlimit:10;}
</style>
<g>
	<rect x="55.94" y="22.41" class="st6" width="11.55" height="11.55"/>
	<rect x="53.58" y="33.96" class="st6" width="16.52" height="26.42"/>
	<circle class="st6" cx="61.55" cy="28.14" r="1.8"/>
	<rect x="55.94" y="60.38" class="st6" width="11.55" height="11.55"/>
	<circle class="st6" cx="61.55" cy="66.11" r="1.8"/>
	<rect x="57.34" y="47.17" class="st7" width="8.76" height="4.15"/>
	<rect x="60.31" y="43.05" class="st7" width="3.07" height="4.12"/>
	<line class="st6" x1="65.32" y1="37.89" x2="58.36" y2="37.89"/>
	<rect x="39.42" y="22.41" class="st6" width="11.55" height="11.55"/>
	<rect x="37.06" y="33.96" class="st6" width="16.52" height="26.42"/>
	<circle class="st6" cx="45.03" cy="28.14" r="1.8"/>
	<rect x="39.42" y="60.38" class="st6" width="11.55" height="11.55"/>
	<circle class="st6" cx="45.03" cy="66.11" r="1.8"/>
	<rect x="40.81" y="43.05" class="st7" width="8.76" height="4.15"/>
	<rect x="43.79" y="47.2" class="st7" width="3.07" height="4.12"/>
	<line class="st6" x1="48.8" y1="37.89" x2="41.84" y2="37.89"/>
	<rect x="22.9" y="22.41" class="st6" width="11.55" height="11.55"/>
	<rect x="20.54" y="33.96" class="st6" width="16.52" height="26.42"/>
	<circle class="st6" cx="28.51" cy="28.14" r="1.8"/>
	<rect x="22.9" y="60.38" class="st6" width="11.55" height="11.55"/>
	<circle class="st6" cx="28.51" cy="66.11" r="1.8"/>
	<rect x="24.29" y="43.05" class="st7" width="8.76" height="4.15"/>
	<rect x="27.26" y="47.2" class="st7" width="3.07" height="4.12"/>
	<line class="st6" x1="32.28" y1="37.89" x2="25.32" y2="37.89"/>
</g>
</svg>
