<?xml version="1.0" encoding="utf-8"?>
<!-- Generator: Adobe Illustrator 26.3.1, SVG Export Plug-In . SVG Version: 6.00 Build 0)  -->
<svg version="1.1" id="Layer_1" xmlns="http://www.w3.org/2000/svg" xmlns:xlink="http://www.w3.org/1999/xlink" x="0px" y="0px"
	 viewBox="0 0 91.64 91.64" style="enable-background:new 0 0 91.64 91.64;" xml:space="preserve">
<style type="text/css">
	.st0{fill-rule:evenodd;clip-rule:evenodd;fill:#FF5A1F;}
	.st1{fill-rule:evenodd;clip-rule:evenodd;fill:#032DA6;}
	.st2{fill:#032DA6;}
	.st3{fill:#FF5A1F;}
	.st4{fill:none;stroke:#032DA6;stroke-width:1.2;stroke-linecap:round;stroke-linejoin:round;stroke-miterlimit:10;}
	.st5{fill:none;stroke:#FF5A1F;stroke-width:1.2;stroke-linecap:round;stroke-linejoin:round;stroke-miterlimit:10;}
	.st6{fill:none;stroke:#032DA6;stroke-width:1.1582;stroke-linecap:round;stroke-linejoin:round;stroke-miterlimit:10;}
	.st7{fill:none;stroke:#FF5A1F;stroke-width:1.1582;stroke-linecap:round;stroke-linejoin:round;stroke-miterlimit:10;}
</style>
<g id="_x35_XOhlg_00000005234857352578064220000014882769528626018740_">
	<g>
		<path class="st2" d="M25.94,37.21c0.2-0.61,0.76-1.02,1.4-1.02c9.42,0,26.9,0,35.67,0c1.58,0,2.48,0.6,2.98,2.13
			c1,3.07,1.96,6.16,2.92,9.24c1.12,3.58,2.24,7.16,3.36,10.73c0.02,0.05,0.05,0.09,0.07,0.14c0,0.24,0,0.48,0,0.73
			c-0.18,0.31-0.32,0.65-0.55,0.92c-0.68,0.81-1.61,1-2.62,1c-6.68-0.01-13.36,0-20.05,0c-0.22,0-0.44,0-0.69,0
			c0,0.62,0,1.18,0,1.73c0,0.55,0,1.1,0,1.67c0.26,0,0.45,0,0.64,0c1.38,0,2.75-0.01,4.13,0c1.6,0.02,2.9,1.31,2.92,2.91
			c0,0.36-0.01,0.73,0,1.09c0.03,0.61-0.16,1.09-0.72,1.38H36.09c-0.56-0.29-0.75-0.77-0.72-1.38c0.02-0.36,0-0.73,0-1.09
			c0.02-1.6,1.32-2.89,2.92-2.91c1.38-0.02,2.75,0,4.13,0c0.19,0,0.38,0,0.6,0v-3.4c-0.22,0-0.44,0-0.66,0c-6.68,0-13.36,0-20.05,0
			c-0.85,0-1.66-0.13-2.33-0.7c-0.76-0.65-0.99-1.44-0.67-2.42c0.77-2.38,1.51-4.78,2.26-7.17C22.6,47.52,25.06,39.95,25.94,37.21z
			 M27.76,38.26c-0.48,1.32-1.04,3.09-1.49,4.47c4.06,0,8.04,0,12.06,0c0.13-1.48,0.26-2.93,0.4-4.46L27.76,38.26z M37.46,52.36
			c-0.11-0.03-0.14-0.05-0.18-0.05c-4.55,0-9.1,0-13.66-0.01c-0.28,0-0.38,0.11-0.46,0.36c-0.59,1.91-1.2,3.83-1.81,5.73
			c-0.12,0.37,0.01,0.52,0.35,0.57c0.15,0.02,0.31,0.05,0.46,0.05c4.74,0,9.48,0,14.23,0.01c0.39,0,0.5-0.15,0.53-0.51
			c0.04-0.69,0.12-1.38,0.18-2.07C37.21,55.09,37.33,53.73,37.46,52.36z M51.97,52.35c-4.17,0-8.29,0-12.43,0
			c-0.2,2.23-0.4,4.43-0.59,6.63c4.58,0,9.07,0,13.62,0C52.37,56.75,52.17,54.57,51.97,52.35z M54.06,52.3
			c0.02,0.25,0.02,0.43,0.04,0.6c0.17,1.84,0.35,3.69,0.49,5.53c0.04,0.47,0.21,0.59,0.66,0.59c4.64-0.02,9.28-0.01,13.92-0.01
			c0.19,0,0.38-0.02,0.57-0.03c0.42-0.04,0.55-0.21,0.4-0.65c-0.6-1.84-1.18-3.69-1.74-5.54c-0.12-0.38-0.29-0.49-0.69-0.49
			c-4.36,0.02-8.72,0.01-13.08,0.01C54.46,52.3,54.29,52.3,54.06,52.3z M38.14,44.89c-0.09-0.03-0.12-0.05-0.15-0.05
			c-4.02,0-8.03,0-12.05-0.02c-0.32,0-0.36,0.18-0.43,0.4c-0.48,1.53-0.97,3.07-1.45,4.6c-0.04,0.12-0.05,0.25-0.07,0.38
			c4.57,0,9.1,0,13.67,0C37.82,48.42,37.98,46.67,38.14,44.89z M53.37,44.85c0.17,1.82,0.33,3.58,0.49,5.36c4.6,0,9.13,0,13.71,0
			c-0.57-1.81-1.13-3.58-1.68-5.36C61.71,44.85,57.58,44.85,53.37,44.85z M51.77,50.2c-0.17-1.8-0.33-3.57-0.49-5.35
			c-3.71,0-7.36,0-11.06,0c-0.16,1.78-0.33,3.55-0.49,5.35C43.76,50.2,47.75,50.2,51.77,50.2z M52.78,38.3
			c0.14,1.5,0.27,2.97,0.4,4.42c4.04,0,8.01,0,12.05,0c-0.44-1.34-0.86-2.64-1.28-3.93c-0.13-0.4-0.42-0.53-0.84-0.53
			c-3.27,0.01-6.54,0.01-9.81,0.01C53.14,38.27,52.99,38.29,52.78,38.3z M50.69,38.31c-3.32,0-6.58,0-9.88,0
			c-0.13,1.49-0.26,2.94-0.39,4.41c3.59,0,7.11,0,10.67,0C50.96,41.23,50.83,39.79,50.69,38.31z M54.01,67.79
			c0.11-0.99-0.08-1.23-0.99-1.23c-4.86,0-9.73,0-14.59,0c-0.87,0-1.13,0.36-0.9,1.23C43.01,67.79,48.5,67.79,54.01,67.79z
			 M45.17,61.11c0,1.14,0,2.24,0,3.35c0.41,0,0.78,0,1.18,0c0-1.12,0-2.22,0-3.35C45.95,61.11,45.58,61.11,45.17,61.11z"/>
		<path class="st3" d="M45.75,21.51c2.26-0.01,4.13,1.85,4.15,4.12c0.02,2.25-1.84,4.13-4.12,4.15c-2.28,0.02-4.19-1.87-4.18-4.14
			C41.61,23.38,43.48,21.52,45.75,21.51z M45.73,27.71c1.15,0.01,2.09-0.91,2.1-2.05c0.01-1.14-0.93-2.08-2.07-2.07
			c-1.13,0-2.05,0.9-2.07,2.03C43.66,26.75,44.58,27.7,45.73,27.71z"/>
		<path class="st3" d="M46.79,32.69c0,0.28,0.02,0.56,0,0.83c-0.06,0.58-0.48,0.99-1.01,1c-0.52,0.01-0.99-0.39-1.03-0.97
			c-0.04-0.58-0.04-1.18,0-1.76c0.04-0.56,0.48-0.93,1-0.94c0.53-0.01,0.97,0.38,1.04,0.96C46.81,32.1,46.78,32.4,46.79,32.69
			C46.78,32.69,46.78,32.69,46.79,32.69z"/>
		<path class="st3" d="M37.85,21.78c0.11-0.79,0.81-1.28,1.48-0.99c0.58,0.26,1.13,0.59,1.65,0.94c0.45,0.31,0.53,0.88,0.26,1.34
			c-0.25,0.43-0.82,0.62-1.31,0.38c-0.52-0.26-1.04-0.54-1.51-0.89C38.17,22.39,38.04,22.05,37.85,21.78z"/>
		<path class="st3" d="M53.64,21.84c-0.17,0.24-0.29,0.55-0.52,0.71c-0.49,0.35-1.02,0.65-1.55,0.91c-0.49,0.24-1.06,0.04-1.3-0.4
			c-0.26-0.47-0.19-1.02,0.28-1.33c0.52-0.36,1.08-0.69,1.66-0.94C52.88,20.49,53.58,21.03,53.64,21.84z"/>
		<path class="st3" d="M37.86,29.44c0.2-0.26,0.36-0.57,0.62-0.76c0.41-0.31,0.88-0.55,1.33-0.78c0.57-0.29,1.17-0.13,1.44,0.36
			c0.28,0.5,0.12,1.08-0.43,1.42c-0.47,0.29-0.94,0.58-1.44,0.81C38.66,30.83,37.92,30.3,37.86,29.44z"/>
		<path class="st3" d="M53.56,29.4c0,0.9-0.7,1.42-1.36,1.12c-0.59-0.27-1.16-0.61-1.69-0.98c-0.43-0.3-0.5-0.86-0.25-1.3
			c0.23-0.4,0.76-0.65,1.21-0.44c0.62,0.29,1.21,0.65,1.77,1.04C53.43,28.99,53.5,29.3,53.56,29.4z"/>
		<path class="st3" d="M46.78,18.64c0,0.28,0.02,0.56,0,0.83c-0.06,0.58-0.48,0.97-1.02,0.97c-0.55,0-0.98-0.37-1.02-0.96
			c-0.04-0.57-0.04-1.14,0-1.71c0.04-0.58,0.49-0.98,1.02-0.98c0.52,0,0.97,0.41,1.03,0.98C46.81,18.05,46.78,18.35,46.78,18.64z"/>
	</g>
</g>
</svg>
