<?xml version="1.0" encoding="utf-8"?>
<!-- Generator: Adobe Illustrator 26.3.1, SVG Export Plug-In . SVG Version: 6.00 Build 0)  -->
<svg version="1.1" id="Layer_1" xmlns="http://www.w3.org/2000/svg" xmlns:xlink="http://www.w3.org/1999/xlink" x="0px" y="0px"
	 viewBox="0 0 92.69 92.69" style="enable-background:new 0 0 92.69 92.69;" xml:space="preserve">
<style type="text/css">
	.st0{fill-rule:evenodd;clip-rule:evenodd;fill:#FF5A1F;}
	.st1{fill-rule:evenodd;clip-rule:evenodd;fill:#032DA6;}
	.st2{fill:#032DA6;}
	.st3{fill:#FF5A1F;}
	.st4{fill:none;stroke:#032DA6;stroke-width:1.2;stroke-linecap:round;stroke-linejoin:round;stroke-miterlimit:10;}
	.st5{fill:none;stroke:#FF5A1F;stroke-width:1.2;stroke-linecap:round;stroke-linejoin:round;stroke-miterlimit:10;}
	.st6{fill:none;stroke:#032DA6;stroke-width:1.1582;stroke-linecap:round;stroke-linejoin:round;stroke-miterlimit:10;}
	.st7{fill:none;stroke:#FF5A1F;stroke-width:1.1582;stroke-linecap:round;stroke-linejoin:round;stroke-miterlimit:10;}
</style>
<g>
	<g>
		<path class="st1" d="M57.28,44.92c2.34,0,4.74-0.87,6.52-2.66c1.11-1.18,1.97-2.6,2.4-4.15c0.37-1.49,0.43-3.1,0.06-4.59
			c-0.06-0.25-0.25-0.43-0.49-0.5C65.72,33.01,65.67,33,65.62,33c-0.16,0-0.33,0.07-0.47,0.21l-3.51,3.6
			c-0.74,0.71-1.67,1.07-2.6,1.07c-0.93,0-1.86-0.36-2.56-1.07c-1.42-1.43-1.42-3.79,0-5.21l3.63-3.6c0.12-0.19,0.19-0.44,0.12-0.62
			c-0.06-0.25-0.18-0.37-0.43-0.44c-0.78-0.21-1.57-0.32-2.36-0.32c-2.39,0-4.73,0.96-6.44,2.74c-2.21,2.23-3.14,5.46-2.52,8.49
			l-2.16,2.23c-0.06,0-0.06,0-0.06,0.06l-1.91,1.86l-11.5-11.6c-0.12-0.12-0.29-0.19-0.46-0.19c-0.17,0-0.34,0.06-0.46,0.19
			c-0.24,0.25-0.24,0.62,0,0.87L43.5,42.94l-1.48,1.43L28.73,30.98l-0.86-2.3l2.4,0.87c0.08,0.02,0.16,0.04,0.24,0.04
			c0.28,0,0.52-0.17,0.56-0.41c0.12-0.31,0-0.68-0.37-0.81l-3.63-1.36c-0.06-0.02-0.12-0.02-0.19-0.02c-0.18,0-0.35,0.07-0.5,0.21
			c-0.18,0.13-0.24,0.44-0.18,0.62l1.35,3.72c0.06,0.12,0.06,0.19,0.12,0.25L41.1,45.3l-1.72,1.73c-0.24,0.25-0.24,0.69,0,0.94
			l1.66,1.67c0.22,0.22,0.51,0.33,0.81,0.33c0.3,0,0.61-0.11,0.85-0.33c0.25-0.31,0.62-0.43,0.99-0.43c0.37,0,0.74,0.12,1.04,0.43
			l0.49,0.5c0.31,0.31,0.43,0.68,0.43,1.05c0,0.37-0.12,0.74-0.43,0.99c-0.18,0.25-0.31,0.56-0.31,0.87c0,0.18,0,0.31,0.06,0.5
			L34.88,63.77c-0.67,0.69-1.6,1.06-2.58,1.06c-0.98,0-1.9-0.37-2.58-1.06c-1.41-1.42-1.41-3.78,0-5.21l8.18-8.24
			c0.25-0.25,0.25-0.62,0-0.87c-0.12-0.13-0.27-0.19-0.43-0.19c-0.15,0-0.31,0.06-0.43,0.19l-8.18,8.24c-1.9,1.92-1.9,5.02,0,6.94
			c0.92,0.93,2.16,1.43,3.44,1.43c1.3,0,2.53-0.5,3.45-1.43l10.09-10.17l9.91,9.99c1.04,1.05,2.46,1.61,3.88,1.61
			c1.42,0,2.83-0.56,3.88-1.61c2.15-2.17,2.15-5.7,0-7.88l-9.84-9.92l1.85-1.86C56.05,44.86,56.66,44.92,57.28,44.92z M62.63,57.51
			c0.8,0.81,1.23,1.86,1.23,3.04c0,1.12-0.43,2.17-1.23,2.98c-0.8,0.81-1.91,1.3-3.02,1.3s-2.22-0.5-3.01-1.3L46.2,53.05
			c0.99-1.06,0.92-2.73-0.06-3.79l-0.56-0.55c-0.49-0.5-1.17-0.74-1.9-0.74c-0.68,0-1.35,0.25-1.85,0.68l-1.11-1.12l5.96-6.08
			l1.17,1.18c-0.98,1.05-0.98,2.73,0.06,3.78l0.49,0.5c0.55,0.56,1.23,0.81,1.91,0.81c0.67,0,1.35-0.25,1.85-0.74L62.63,57.51z
			 M52.66,45.79c-0.16-0.06-0.32-0.1-0.48-0.1c-0.29,0-0.58,0.11-0.81,0.35c-0.3,0.25-0.68,0.44-1.04,0.44
			c-0.37,0-0.74-0.19-0.99-0.44l-0.55-0.56c-0.55-0.56-0.55-1.49,0-2.05c0.49-0.43,0.49-1.18,0-1.67l-1.17-1.18l1.29-1.36
			c0.1,0.24,0.34,0.41,0.6,0.41c0.07,0,0.14-0.01,0.2-0.04c0.37-0.13,0.49-0.5,0.37-0.81c-1.11-2.98-0.43-6.32,1.78-8.55
			c1.52-1.53,3.57-2.34,5.63-2.34c0.28,0,0.55,0.02,0.83,0.04l-2.71,2.79c-1.97,1.92-1.97,5.08-0.06,7
			c0.99,0.93,2.22,1.43,3.44,1.43c1.3,0,2.53-0.49,3.51-1.49l2.71-2.73c0.02,0.22,0.03,0.44,0.03,0.66c0,2.13-0.8,4.21-2.36,5.72
			c-1.56,1.57-3.58,2.36-5.6,2.36c-1.98,0-3.95-0.76-5.47-2.29c-0.12-0.12-0.28-0.18-0.43-0.18c-0.16,0-0.31,0.06-0.43,0.18
			c-0.24,0.25-0.24,0.68,0,0.93c0.92,0.93,2.03,1.61,3.14,2.05L52.66,45.79z"/>
	</g>
	<g>
		<path class="st1" d="M32.77,60.44c-0.22,0-0.44,0.09-0.6,0.26c-0.38,0.35-0.38,0.98,0,1.32c0.15,0.2,0.36,0.29,0.57,0.29
			c0.23,0,0.46-0.11,0.62-0.29c0.31-0.35,0.31-0.98,0-1.32C33.2,60.52,32.99,60.44,32.77,60.44L32.77,60.44z"/>
	</g>
	<g>
		<path class="st1" d="M49.45,52.92c-0.16,0-0.32,0.06-0.45,0.17c-0.26,0.23-0.26,0.64,0,0.87l7.94,7.23
			c0.13,0.12,0.32,0.18,0.45,0.18c0.19,0,0.38-0.06,0.51-0.18c0.26-0.23,0.26-0.58,0-0.82l-8.01-7.28
			C49.77,52.98,49.61,52.92,49.45,52.92L49.45,52.92z"/>
	</g>
	<g>
		<path class="st1" d="M52.27,50.11c-0.16,0-0.32,0.06-0.45,0.19c-0.25,0.26-0.25,0.65,0,0.91l8.01,8.09
			c0.13,0.13,0.25,0.19,0.44,0.19c0.13,0,0.32-0.06,0.45-0.19c0.26-0.26,0.26-0.65,0-0.91l-8-8.1
			C52.59,50.17,52.43,50.11,52.27,50.11L52.27,50.11z"/>
	</g>
</g>
</svg>
