<?xml version="1.0" encoding="utf-8"?>
<!-- Generator: Adobe Illustrator 26.3.1, SVG Export Plug-In . SVG Version: 6.00 Build 0)  -->
<svg version="1.1" id="Layer_1" xmlns="http://www.w3.org/2000/svg" xmlns:xlink="http://www.w3.org/1999/xlink" x="0px" y="0px"
	 viewBox="0 0 91.64 91.64" style="enable-background:new 0 0 91.64 91.64;" xml:space="preserve">
<style type="text/css">
	.st0{fill-rule:evenodd;clip-rule:evenodd;fill:#FF5A1F;}
	.st1{fill-rule:evenodd;clip-rule:evenodd;fill:#032DA6;}
	.st2{fill:#032DA6;}
	.st3{fill:#FF5A1F;}
	.st4{fill:none;stroke:#032DA6;stroke-width:1.2;stroke-linecap:round;stroke-linejoin:round;stroke-miterlimit:10;}
	.st5{fill:none;stroke:#FF5A1F;stroke-width:1.2;stroke-linecap:round;stroke-linejoin:round;stroke-miterlimit:10;}
	.st6{fill:none;stroke:#032DA6;stroke-width:1.1582;stroke-linecap:round;stroke-linejoin:round;stroke-miterlimit:10;}
	.st7{fill:none;stroke:#FF5A1F;stroke-width:1.1582;stroke-linecap:round;stroke-linejoin:round;stroke-miterlimit:10;}
</style>
<g>
	<g>
		<g>
			<path class="st0" d="M32.6,63.05h-8.03c-0.3,0-0.53-0.24-0.53-0.54V24.9c0-0.3,0.24-0.53,0.53-0.53h8.03
				c0.3,0,0.53,0.24,0.53,0.53v37.62C33.13,62.81,32.89,63.05,32.6,63.05L32.6,63.05z M25.1,61.98h6.96V25.43H25.1V61.98z"/>
		</g>
		<g>
			<path class="st0" d="M32.6,28.36h-4.15c-0.3,0-0.53-0.24-0.53-0.54c0-0.3,0.24-0.53,0.53-0.53h4.15c0.3,0,0.53,0.24,0.53,0.53
				C33.13,28.12,32.89,28.36,32.6,28.36z"/>
		</g>
		<g>
			<path class="st0" d="M32.6,31.01h-2.07c-0.3,0-0.54-0.24-0.54-0.53c0-0.3,0.24-0.54,0.54-0.54h2.07c0.3,0,0.53,0.24,0.53,0.54
				C33.13,30.77,32.89,31.01,32.6,31.01z"/>
		</g>
		<g>
			<path class="st0" d="M32.6,33.65h-4.15c-0.3,0-0.53-0.24-0.53-0.53c0-0.3,0.24-0.53,0.53-0.53h4.15c0.3,0,0.53,0.24,0.53,0.53
				C33.13,33.41,32.89,33.65,32.6,33.65z"/>
		</g>
		<g>
			<path class="st0" d="M32.6,36.3h-2.07c-0.3,0-0.54-0.24-0.54-0.54c0-0.3,0.24-0.53,0.54-0.53h2.07c0.3,0,0.53,0.24,0.53,0.53
				C33.13,36.06,32.89,36.3,32.6,36.3z"/>
		</g>
		<g>
			<path class="st0" d="M32.6,38.95h-4.15c-0.3,0-0.53-0.24-0.53-0.53c0-0.3,0.24-0.54,0.53-0.54h4.15c0.3,0,0.53,0.24,0.53,0.54
				C33.13,38.71,32.89,38.95,32.6,38.95z"/>
		</g>
		<g>
			<path class="st0" d="M32.6,41.6h-2.07c-0.3,0-0.54-0.24-0.54-0.53c0-0.3,0.24-0.53,0.54-0.53h2.07c0.3,0,0.53,0.24,0.53,0.53
				C33.13,41.36,32.89,41.6,32.6,41.6z"/>
		</g>
		<g>
			<path class="st0" d="M32.6,44.24h-4.15c-0.3,0-0.53-0.24-0.53-0.54c0-0.3,0.24-0.53,0.53-0.53h4.15c0.3,0,0.53,0.24,0.53,0.53
				C33.13,44,32.89,44.24,32.6,44.24z"/>
		</g>
		<g>
			<path class="st0" d="M32.6,46.89h-2.07c-0.3,0-0.54-0.24-0.54-0.53c0-0.3,0.24-0.54,0.54-0.54h2.07c0.3,0,0.53,0.24,0.53,0.54
				C33.13,46.65,32.89,46.89,32.6,46.89z"/>
		</g>
		<g>
			<path class="st0" d="M32.6,49.54h-4.15c-0.3,0-0.53-0.24-0.53-0.54c0-0.3,0.24-0.53,0.53-0.53h4.15c0.3,0,0.53,0.24,0.53,0.53
				C33.13,49.3,32.89,49.54,32.6,49.54z"/>
		</g>
		<g>
			<path class="st0" d="M32.6,52.18h-2.07c-0.3,0-0.54-0.24-0.54-0.54c0-0.3,0.24-0.53,0.54-0.53h2.07c0.3,0,0.53,0.24,0.53,0.53
				C33.13,51.94,32.89,52.18,32.6,52.18z"/>
		</g>
		<g>
			<path class="st0" d="M32.6,54.83h-4.15c-0.3,0-0.53-0.24-0.53-0.54c0-0.3,0.24-0.54,0.53-0.54h4.15c0.3,0,0.53,0.24,0.53,0.54
				C33.13,54.59,32.89,54.83,32.6,54.83z"/>
		</g>
		<g>
			<path class="st0" d="M32.6,57.48h-2.07c-0.3,0-0.54-0.24-0.54-0.54c0-0.3,0.24-0.53,0.54-0.53h2.07c0.3,0,0.53,0.24,0.53,0.53
				C33.13,57.24,32.89,57.48,32.6,57.48z"/>
		</g>
		<g>
			<path class="st0" d="M32.6,60.12h-4.15c-0.3,0-0.53-0.24-0.53-0.54c0-0.3,0.24-0.54,0.53-0.54h4.15c0.3,0,0.53,0.24,0.53,0.54
				C33.13,59.89,32.89,60.12,32.6,60.12z"/>
		</g>
		<g>
			<path class="st0" d="M70.22,63.05H32.6c-0.3,0-0.53-0.24-0.53-0.54v-8.03c0-0.3,0.24-0.54,0.53-0.54h37.62
				c0.3,0,0.54,0.24,0.54,0.54v8.03C70.75,62.81,70.52,63.05,70.22,63.05L70.22,63.05z M33.13,61.98h36.55v-6.96H33.13V61.98z"/>
		</g>
		<g>
			<path class="st0" d="M67.29,63.05c-0.3,0-0.53-0.24-0.53-0.54v-4.15c0-0.3,0.24-0.54,0.53-0.54c0.3,0,0.54,0.24,0.54,0.54v4.15
				C67.83,62.81,67.59,63.05,67.29,63.05z"/>
		</g>
		<g>
			<path class="st0" d="M64.64,63.05c-0.3,0-0.54-0.24-0.54-0.54v-2.07c0-0.3,0.24-0.53,0.54-0.53c0.3,0,0.54,0.24,0.54,0.53v2.07
				C65.18,62.81,64.94,63.05,64.64,63.05z"/>
		</g>
		<g>
			<path class="st0" d="M62,63.05c-0.3,0-0.53-0.24-0.53-0.54v-4.15c0-0.3,0.24-0.54,0.53-0.54c0.3,0,0.54,0.24,0.54,0.54v4.15
				C62.53,62.81,62.29,63.05,62,63.05z"/>
		</g>
		<g>
			<path class="st0" d="M59.35,63.05c-0.3,0-0.54-0.24-0.54-0.54v-2.07c0-0.3,0.24-0.53,0.54-0.53c0.3,0,0.53,0.24,0.53,0.53v2.07
				C59.88,62.81,59.64,63.05,59.35,63.05z"/>
		</g>
		<g>
			<path class="st0" d="M56.7,63.05c-0.3,0-0.54-0.24-0.54-0.54v-4.15c0-0.3,0.24-0.54,0.54-0.54c0.3,0,0.53,0.24,0.53,0.54v4.15
				C57.24,62.81,57,63.05,56.7,63.05z"/>
		</g>
		<g>
			<path class="st0" d="M54.06,63.05c-0.3,0-0.54-0.24-0.54-0.54v-2.07c0-0.3,0.24-0.53,0.54-0.53c0.3,0,0.53,0.24,0.53,0.53v2.07
				C54.59,62.81,54.35,63.05,54.06,63.05z"/>
		</g>
		<g>
			<path class="st0" d="M51.41,63.05c-0.3,0-0.54-0.24-0.54-0.54v-4.15c0-0.3,0.24-0.54,0.54-0.54c0.3,0,0.53,0.24,0.53,0.54v4.15
				C51.94,62.81,51.7,63.05,51.41,63.05z"/>
		</g>
		<g>
			<path class="st0" d="M48.76,63.05c-0.3,0-0.54-0.24-0.54-0.54v-2.07c0-0.3,0.24-0.53,0.54-0.53c0.3,0,0.53,0.24,0.53,0.53v2.07
				C49.3,62.81,49.06,63.05,48.76,63.05z"/>
		</g>
		<g>
			<path class="st0" d="M46.11,63.05c-0.3,0-0.53-0.24-0.53-0.54v-4.15c0-0.3,0.24-0.54,0.53-0.54s0.53,0.24,0.53,0.54v4.15
				C46.65,62.81,46.41,63.05,46.11,63.05z"/>
		</g>
		<g>
			<path class="st0" d="M43.47,63.05c-0.3,0-0.53-0.24-0.53-0.54v-2.07c0-0.3,0.24-0.53,0.53-0.53c0.3,0,0.53,0.24,0.53,0.53v2.07
				C44,62.81,43.76,63.05,43.47,63.05z"/>
		</g>
		<g>
			<path class="st0" d="M40.82,63.05c-0.3,0-0.53-0.24-0.53-0.54v-4.15c0-0.3,0.24-0.54,0.53-0.54c0.3,0,0.53,0.24,0.53,0.54v4.15
				C41.35,62.81,41.12,63.05,40.82,63.05z"/>
		</g>
		<g>
			<path class="st0" d="M38.17,63.05c-0.3,0-0.53-0.24-0.53-0.54v-2.07c0-0.3,0.24-0.53,0.53-0.53c0.3,0,0.54,0.24,0.54,0.53v2.07
				C38.71,62.81,38.47,63.05,38.17,63.05z"/>
		</g>
		<g>
			<path class="st0" d="M35.53,63.05c-0.3,0-0.53-0.24-0.53-0.54v-4.15c0-0.3,0.24-0.54,0.53-0.54c0.3,0,0.53,0.24,0.53,0.54v4.15
				C36.06,62.81,35.82,63.05,35.53,63.05z"/>
		</g>
		<g>
			<g>
				<path class="st0" d="M36.81,50.54c-0.3,0-0.53-0.24-0.53-0.54V30.96c0-0.3,0.24-0.53,0.53-0.53s0.54,0.24,0.54,0.53V50
					C37.35,50.3,37.11,50.54,36.81,50.54z"/>
			</g>
			<g>
				<path class="st0" d="M38.39,33.07c-0.14,0-0.27-0.05-0.38-0.16l-1.2-1.2l-1.2,1.2c-0.21,0.21-0.55,0.21-0.76,0
					s-0.21-0.55,0-0.76l1.58-1.58c0.1-0.1,0.24-0.16,0.38-0.16c0.14,0,0.28,0.06,0.38,0.16l1.58,1.58c0.21,0.21,0.21,0.55,0,0.76
					C38.67,33.02,38.53,33.07,38.39,33.07z"/>
			</g>
			<g>
				<path class="st0" d="M36.81,51.33c-0.14,0-0.27-0.05-0.38-0.16l-1.58-1.58c-0.21-0.21-0.21-0.55,0-0.76
					c0.21-0.21,0.55-0.21,0.76,0l1.2,1.2l1.2-1.2c0.21-0.21,0.55-0.21,0.76,0c0.21,0.21,0.21,0.55,0,0.76l-1.58,1.58
					C37.09,51.28,36.95,51.33,36.81,51.33z"/>
			</g>
		</g>
		<g>
			<g>
				<path class="st0" d="M61.33,50.73H42.28c-0.3,0-0.53-0.24-0.53-0.53c0-0.3,0.24-0.54,0.53-0.54h19.05c0.3,0,0.53,0.24,0.53,0.54
					C61.86,50.49,61.62,50.73,61.33,50.73z"/>
			</g>
			<g>
				<path class="st0" d="M59.75,52.31c-0.14,0-0.27-0.05-0.38-0.16c-0.21-0.21-0.21-0.55,0-0.76l1.2-1.2l-1.2-1.2
					c-0.21-0.21-0.21-0.55,0-0.76c0.21-0.21,0.55-0.21,0.76,0l1.58,1.58c0.21,0.21,0.21,0.55,0,0.76l-1.58,1.58
					C60.02,52.25,59.88,52.31,59.75,52.31z"/>
			</g>
			<g>
				<path class="st0" d="M43.07,52.31c-0.14,0-0.27-0.05-0.38-0.16l-1.58-1.58c-0.21-0.21-0.21-0.55,0-0.76l1.58-1.58
					c0.21-0.21,0.55-0.21,0.76,0c0.21,0.21,0.21,0.55,0,0.76l-1.2,1.2l1.2,1.2c0.21,0.21,0.21,0.55,0,0.76
					C43.34,52.25,43.21,52.31,43.07,52.31z"/>
			</g>
		</g>
		<g>
			<g>
				<path class="st1" d="M57.92,47.77H44.15c-0.3,0-0.54-0.24-0.54-0.54V37h-1.89c-0.22,0-0.41-0.13-0.49-0.33
					c-0.08-0.2-0.04-0.43,0.12-0.58l9.31-9.31c0.1-0.1,0.24-0.16,0.38-0.16c0.14,0,0.28,0.06,0.38,0.16l9.31,9.31
					c0.15,0.15,0.2,0.38,0.12,0.58c-0.08,0.2-0.28,0.33-0.49,0.33h-1.89v10.24C58.46,47.53,58.22,47.77,57.92,47.77L57.92,47.77z
					 M44.68,46.7h12.71V36.46c0-0.3,0.24-0.53,0.53-0.53h1.13l-8.02-8.02l-8.02,8.02h1.13c0.3,0,0.53,0.24,0.53,0.53V46.7
					L44.68,46.7z"/>
			</g>
			<g>
				<path class="st1" d="M51.04,38.04c-1.73,0-3.14-1.41-3.14-3.14s1.41-3.14,3.14-3.14c1.73,0,3.14,1.41,3.14,3.14
					S52.77,38.04,51.04,38.04L51.04,38.04z M51.04,32.84c-1.14,0-2.07,0.93-2.07,2.07c0,1.14,0.93,2.07,2.07,2.07
					c1.14,0,2.07-0.93,2.07-2.07C53.1,33.76,52.18,32.84,51.04,32.84z"/>
			</g>
			<g>
				<path class="st1" d="M53.87,47.77h-5.66c-0.3,0-0.54-0.24-0.54-0.54v-6.36c0-0.3,0.24-0.53,0.54-0.53h5.66
					c0.3,0,0.54,0.24,0.54,0.53v6.36C54.4,47.53,54.16,47.77,53.87,47.77L53.87,47.77z M48.74,46.7h4.59v-5.29h-4.59V46.7z"/>
			</g>
		</g>
	</g>
</g>
</svg>
